G75*
G70*
%OFA0B0*%
%FSLAX24Y24*%
%IPPOS*%
%LPD*%
%AMOC8*
5,1,8,0,0,1.08239X$1,22.5*
%
%ADD10C,0.0000*%
%ADD11C,0.0089*%
%ADD12C,0.0118*%
%ADD13C,0.0138*%
%ADD14C,0.0360*%
%ADD15C,0.0157*%
%ADD16C,0.0128*%
%ADD17C,0.0177*%
%ADD18C,0.0200*%
D10*
X000100Y000100D02*
X000100Y015100D01*
X000200Y015200D02*
X000200Y000200D01*
X000200Y000100D01*
X000200Y000200D02*
X015200Y000200D01*
X015200Y015200D01*
X000200Y015200D01*
D11*
X008303Y012319D02*
X008687Y012319D01*
X008687Y012231D01*
X008303Y012231D01*
X008303Y012319D01*
X008687Y012319D01*
X008687Y012004D02*
X008303Y012004D01*
X008687Y012004D02*
X008687Y011916D01*
X008303Y011916D01*
X008303Y012004D01*
X008687Y012004D01*
X008687Y011689D02*
X008303Y011689D01*
X008687Y011689D02*
X008687Y011601D01*
X008303Y011601D01*
X008303Y011689D01*
X008687Y011689D01*
X008687Y011374D02*
X008303Y011374D01*
X008687Y011374D02*
X008687Y011286D01*
X008303Y011286D01*
X008303Y011374D01*
X008687Y011374D01*
X008687Y011059D02*
X008303Y011059D01*
X008687Y011059D02*
X008687Y010971D01*
X008303Y010971D01*
X008303Y011059D01*
X008687Y011059D01*
X008687Y010744D02*
X008303Y010744D01*
X008687Y010744D02*
X008687Y010656D01*
X008303Y010656D01*
X008303Y010744D01*
X008687Y010744D01*
X008687Y010429D02*
X008303Y010429D01*
X008687Y010429D02*
X008687Y010341D01*
X008303Y010341D01*
X008303Y010429D01*
X008687Y010429D01*
X008687Y010114D02*
X008303Y010114D01*
X008687Y010114D02*
X008687Y010026D01*
X008303Y010026D01*
X008303Y010114D01*
X008687Y010114D01*
X008687Y009799D02*
X008303Y009799D01*
X008687Y009799D02*
X008687Y009711D01*
X008303Y009711D01*
X008303Y009799D01*
X008687Y009799D01*
X008687Y009484D02*
X008303Y009484D01*
X008687Y009484D02*
X008687Y009396D01*
X008303Y009396D01*
X008303Y009484D01*
X008687Y009484D01*
X008687Y009169D02*
X008303Y009169D01*
X008687Y009169D02*
X008687Y009081D01*
X008303Y009081D01*
X008303Y009169D01*
X008687Y009169D01*
X009081Y008687D02*
X009081Y008303D01*
X009081Y008687D02*
X009169Y008687D01*
X009169Y008303D01*
X009081Y008303D01*
X009081Y008391D02*
X009169Y008391D01*
X009169Y008479D02*
X009081Y008479D01*
X009081Y008567D02*
X009169Y008567D01*
X009169Y008655D02*
X009081Y008655D01*
X009396Y008687D02*
X009396Y008303D01*
X009396Y008687D02*
X009484Y008687D01*
X009484Y008303D01*
X009396Y008303D01*
X009396Y008391D02*
X009484Y008391D01*
X009484Y008479D02*
X009396Y008479D01*
X009396Y008567D02*
X009484Y008567D01*
X009484Y008655D02*
X009396Y008655D01*
X009711Y008687D02*
X009711Y008303D01*
X009711Y008687D02*
X009799Y008687D01*
X009799Y008303D01*
X009711Y008303D01*
X009711Y008391D02*
X009799Y008391D01*
X009799Y008479D02*
X009711Y008479D01*
X009711Y008567D02*
X009799Y008567D01*
X009799Y008655D02*
X009711Y008655D01*
X010026Y008687D02*
X010026Y008303D01*
X010026Y008687D02*
X010114Y008687D01*
X010114Y008303D01*
X010026Y008303D01*
X010026Y008391D02*
X010114Y008391D01*
X010114Y008479D02*
X010026Y008479D01*
X010026Y008567D02*
X010114Y008567D01*
X010114Y008655D02*
X010026Y008655D01*
X010341Y008687D02*
X010341Y008303D01*
X010341Y008687D02*
X010429Y008687D01*
X010429Y008303D01*
X010341Y008303D01*
X010341Y008391D02*
X010429Y008391D01*
X010429Y008479D02*
X010341Y008479D01*
X010341Y008567D02*
X010429Y008567D01*
X010429Y008655D02*
X010341Y008655D01*
X010656Y008687D02*
X010656Y008303D01*
X010656Y008687D02*
X010744Y008687D01*
X010744Y008303D01*
X010656Y008303D01*
X010656Y008391D02*
X010744Y008391D01*
X010744Y008479D02*
X010656Y008479D01*
X010656Y008567D02*
X010744Y008567D01*
X010744Y008655D02*
X010656Y008655D01*
X010971Y008687D02*
X010971Y008303D01*
X010971Y008687D02*
X011059Y008687D01*
X011059Y008303D01*
X010971Y008303D01*
X010971Y008391D02*
X011059Y008391D01*
X011059Y008479D02*
X010971Y008479D01*
X010971Y008567D02*
X011059Y008567D01*
X011059Y008655D02*
X010971Y008655D01*
X011286Y008687D02*
X011286Y008303D01*
X011286Y008687D02*
X011374Y008687D01*
X011374Y008303D01*
X011286Y008303D01*
X011286Y008391D02*
X011374Y008391D01*
X011374Y008479D02*
X011286Y008479D01*
X011286Y008567D02*
X011374Y008567D01*
X011374Y008655D02*
X011286Y008655D01*
X011601Y008687D02*
X011601Y008303D01*
X011601Y008687D02*
X011689Y008687D01*
X011689Y008303D01*
X011601Y008303D01*
X011601Y008391D02*
X011689Y008391D01*
X011689Y008479D02*
X011601Y008479D01*
X011601Y008567D02*
X011689Y008567D01*
X011689Y008655D02*
X011601Y008655D01*
X011916Y008687D02*
X011916Y008303D01*
X011916Y008687D02*
X012004Y008687D01*
X012004Y008303D01*
X011916Y008303D01*
X011916Y008391D02*
X012004Y008391D01*
X012004Y008479D02*
X011916Y008479D01*
X011916Y008567D02*
X012004Y008567D01*
X012004Y008655D02*
X011916Y008655D01*
X012231Y008687D02*
X012231Y008303D01*
X012231Y008687D02*
X012319Y008687D01*
X012319Y008303D01*
X012231Y008303D01*
X012231Y008391D02*
X012319Y008391D01*
X012319Y008479D02*
X012231Y008479D01*
X012231Y008567D02*
X012319Y008567D01*
X012319Y008655D02*
X012231Y008655D01*
X012713Y009081D02*
X013097Y009081D01*
X012713Y009081D02*
X012713Y009169D01*
X013097Y009169D01*
X013097Y009081D01*
X013097Y009169D02*
X012713Y009169D01*
X012713Y009396D02*
X013097Y009396D01*
X012713Y009396D02*
X012713Y009484D01*
X013097Y009484D01*
X013097Y009396D01*
X013097Y009484D02*
X012713Y009484D01*
X012713Y009711D02*
X013097Y009711D01*
X012713Y009711D02*
X012713Y009799D01*
X013097Y009799D01*
X013097Y009711D01*
X013097Y009799D02*
X012713Y009799D01*
X012713Y010026D02*
X013097Y010026D01*
X012713Y010026D02*
X012713Y010114D01*
X013097Y010114D01*
X013097Y010026D01*
X013097Y010114D02*
X012713Y010114D01*
X012713Y010341D02*
X013097Y010341D01*
X012713Y010341D02*
X012713Y010429D01*
X013097Y010429D01*
X013097Y010341D01*
X013097Y010429D02*
X012713Y010429D01*
X012713Y010656D02*
X013097Y010656D01*
X012713Y010656D02*
X012713Y010744D01*
X013097Y010744D01*
X013097Y010656D01*
X013097Y010744D02*
X012713Y010744D01*
X012713Y010971D02*
X013097Y010971D01*
X012713Y010971D02*
X012713Y011059D01*
X013097Y011059D01*
X013097Y010971D01*
X013097Y011059D02*
X012713Y011059D01*
X012713Y011286D02*
X013097Y011286D01*
X012713Y011286D02*
X012713Y011374D01*
X013097Y011374D01*
X013097Y011286D01*
X013097Y011374D02*
X012713Y011374D01*
X012713Y011601D02*
X013097Y011601D01*
X012713Y011601D02*
X012713Y011689D01*
X013097Y011689D01*
X013097Y011601D01*
X013097Y011689D02*
X012713Y011689D01*
X012713Y011916D02*
X013097Y011916D01*
X012713Y011916D02*
X012713Y012004D01*
X013097Y012004D01*
X013097Y011916D01*
X013097Y012004D02*
X012713Y012004D01*
X012713Y012231D02*
X013097Y012231D01*
X012713Y012231D02*
X012713Y012319D01*
X013097Y012319D01*
X013097Y012231D01*
X013097Y012319D02*
X012713Y012319D01*
X012319Y012713D02*
X012319Y013097D01*
X012319Y012713D02*
X012231Y012713D01*
X012231Y013097D01*
X012319Y013097D01*
X012319Y012801D02*
X012231Y012801D01*
X012231Y012889D02*
X012319Y012889D01*
X012319Y012977D02*
X012231Y012977D01*
X012231Y013065D02*
X012319Y013065D01*
X012004Y013097D02*
X012004Y012713D01*
X011916Y012713D01*
X011916Y013097D01*
X012004Y013097D01*
X012004Y012801D02*
X011916Y012801D01*
X011916Y012889D02*
X012004Y012889D01*
X012004Y012977D02*
X011916Y012977D01*
X011916Y013065D02*
X012004Y013065D01*
X011689Y013097D02*
X011689Y012713D01*
X011601Y012713D01*
X011601Y013097D01*
X011689Y013097D01*
X011689Y012801D02*
X011601Y012801D01*
X011601Y012889D02*
X011689Y012889D01*
X011689Y012977D02*
X011601Y012977D01*
X011601Y013065D02*
X011689Y013065D01*
X011374Y013097D02*
X011374Y012713D01*
X011286Y012713D01*
X011286Y013097D01*
X011374Y013097D01*
X011374Y012801D02*
X011286Y012801D01*
X011286Y012889D02*
X011374Y012889D01*
X011374Y012977D02*
X011286Y012977D01*
X011286Y013065D02*
X011374Y013065D01*
X011059Y013097D02*
X011059Y012713D01*
X010971Y012713D01*
X010971Y013097D01*
X011059Y013097D01*
X011059Y012801D02*
X010971Y012801D01*
X010971Y012889D02*
X011059Y012889D01*
X011059Y012977D02*
X010971Y012977D01*
X010971Y013065D02*
X011059Y013065D01*
X010744Y013097D02*
X010744Y012713D01*
X010656Y012713D01*
X010656Y013097D01*
X010744Y013097D01*
X010744Y012801D02*
X010656Y012801D01*
X010656Y012889D02*
X010744Y012889D01*
X010744Y012977D02*
X010656Y012977D01*
X010656Y013065D02*
X010744Y013065D01*
X010429Y013097D02*
X010429Y012713D01*
X010341Y012713D01*
X010341Y013097D01*
X010429Y013097D01*
X010429Y012801D02*
X010341Y012801D01*
X010341Y012889D02*
X010429Y012889D01*
X010429Y012977D02*
X010341Y012977D01*
X010341Y013065D02*
X010429Y013065D01*
X010114Y013097D02*
X010114Y012713D01*
X010026Y012713D01*
X010026Y013097D01*
X010114Y013097D01*
X010114Y012801D02*
X010026Y012801D01*
X010026Y012889D02*
X010114Y012889D01*
X010114Y012977D02*
X010026Y012977D01*
X010026Y013065D02*
X010114Y013065D01*
X009799Y013097D02*
X009799Y012713D01*
X009711Y012713D01*
X009711Y013097D01*
X009799Y013097D01*
X009799Y012801D02*
X009711Y012801D01*
X009711Y012889D02*
X009799Y012889D01*
X009799Y012977D02*
X009711Y012977D01*
X009711Y013065D02*
X009799Y013065D01*
X009484Y013097D02*
X009484Y012713D01*
X009396Y012713D01*
X009396Y013097D01*
X009484Y013097D01*
X009484Y012801D02*
X009396Y012801D01*
X009396Y012889D02*
X009484Y012889D01*
X009484Y012977D02*
X009396Y012977D01*
X009396Y013065D02*
X009484Y013065D01*
X009169Y013097D02*
X009169Y012713D01*
X009081Y012713D01*
X009081Y013097D01*
X009169Y013097D01*
X009169Y012801D02*
X009081Y012801D01*
X009081Y012889D02*
X009169Y012889D01*
X009169Y012977D02*
X009081Y012977D01*
X009081Y013065D02*
X009169Y013065D01*
D12*
X006633Y011415D02*
X006515Y011415D01*
X006515Y011573D01*
X006633Y011573D01*
X006633Y011415D01*
X006633Y011532D02*
X006515Y011532D01*
X005885Y011415D02*
X005767Y011415D01*
X005767Y011573D01*
X005885Y011573D01*
X005885Y011415D01*
X005885Y011532D02*
X005767Y011532D01*
X006515Y010627D02*
X006633Y010627D01*
X006515Y010627D02*
X006515Y010785D01*
X006633Y010785D01*
X006633Y010627D01*
X006633Y010744D02*
X006515Y010744D01*
D13*
X006033Y010637D02*
X005777Y010637D01*
X005777Y010775D01*
X006033Y010775D01*
X006033Y010637D01*
X006033Y010774D02*
X005777Y010774D01*
D14*
X003850Y007820D02*
X003850Y007780D01*
X003810Y007780D01*
X003810Y007820D01*
X003850Y007820D01*
X003190Y007820D02*
X003190Y007780D01*
X003150Y007780D01*
X003150Y007820D01*
X003190Y007820D01*
X002610Y007820D02*
X002610Y007780D01*
X002610Y007820D02*
X002650Y007820D01*
X002650Y007780D01*
X002610Y007780D01*
X001950Y007780D02*
X001950Y007820D01*
X001990Y007820D01*
X001990Y007780D01*
X001950Y007780D01*
X001950Y007120D02*
X001950Y007080D01*
X001950Y007120D02*
X001990Y007120D01*
X001990Y007080D01*
X001950Y007080D01*
X002610Y007080D02*
X002610Y007120D01*
X002650Y007120D01*
X002650Y007080D01*
X002610Y007080D01*
X003190Y007080D02*
X003190Y007120D01*
X003190Y007080D02*
X003150Y007080D01*
X003150Y007120D01*
X003190Y007120D01*
X003850Y007120D02*
X003850Y007080D01*
X003810Y007080D01*
X003810Y007120D01*
X003850Y007120D01*
X002210Y011280D02*
X002210Y011320D01*
X002250Y011320D01*
X002250Y011280D01*
X002210Y011280D01*
X001550Y011280D02*
X001550Y011320D01*
X001590Y011320D01*
X001590Y011280D01*
X001550Y011280D01*
X001950Y013680D02*
X001950Y013720D01*
X001990Y013720D01*
X001990Y013680D01*
X001950Y013680D01*
X001950Y014280D02*
X001950Y014320D01*
X001990Y014320D01*
X001990Y014280D01*
X001950Y014280D01*
X002610Y014280D02*
X002610Y014320D01*
X002650Y014320D01*
X002650Y014280D01*
X002610Y014280D01*
X003180Y014310D02*
X003220Y014310D01*
X003180Y014310D02*
X003180Y014350D01*
X003220Y014350D01*
X003220Y014310D01*
X003220Y013650D02*
X003180Y013650D01*
X003180Y013690D01*
X003220Y013690D01*
X003220Y013650D01*
X002610Y013680D02*
X002610Y013720D01*
X002650Y013720D01*
X002650Y013680D01*
X002610Y013680D01*
X010450Y007620D02*
X010450Y007580D01*
X010450Y007620D02*
X010490Y007620D01*
X010490Y007580D01*
X010450Y007580D01*
X010990Y007020D02*
X010990Y006980D01*
X010950Y006980D01*
X010950Y007020D01*
X010990Y007020D01*
X011110Y007580D02*
X011110Y007620D01*
X011150Y007620D01*
X011150Y007580D01*
X011110Y007580D01*
X011650Y007020D02*
X011650Y006980D01*
X011610Y006980D01*
X011610Y007020D01*
X011650Y007020D01*
D15*
X010878Y005295D02*
X010522Y005295D01*
X010878Y005295D02*
X010878Y005137D01*
X010522Y005137D01*
X010522Y005295D01*
X010522Y005293D02*
X010878Y005293D01*
X010878Y004901D02*
X010522Y004901D01*
X010878Y004901D02*
X010878Y004743D01*
X010522Y004743D01*
X010522Y004901D01*
X010522Y004899D02*
X010878Y004899D01*
X010878Y004389D02*
X010522Y004389D01*
X010878Y004389D02*
X010878Y004231D01*
X010522Y004231D01*
X010522Y004389D01*
X010522Y004387D02*
X010878Y004387D01*
X010878Y003917D02*
X010522Y003917D01*
X010878Y003917D02*
X010878Y003759D01*
X010522Y003759D01*
X010522Y003917D01*
X010522Y003915D02*
X010878Y003915D01*
X010878Y003444D02*
X010522Y003444D01*
X010878Y003444D02*
X010878Y003286D01*
X010522Y003286D01*
X010522Y003444D01*
X010522Y003442D02*
X010878Y003442D01*
X010878Y002972D02*
X010522Y002972D01*
X010878Y002972D02*
X010878Y002814D01*
X010522Y002814D01*
X010522Y002972D01*
X010522Y002970D02*
X010878Y002970D01*
X010878Y002460D02*
X010522Y002460D01*
X010878Y002460D02*
X010878Y002302D01*
X010522Y002302D01*
X010522Y002460D01*
X010522Y002458D02*
X010878Y002458D01*
X010878Y002066D02*
X010522Y002066D01*
X010878Y002066D02*
X010878Y001908D01*
X010522Y001908D01*
X010522Y002066D01*
X010522Y002064D02*
X010878Y002064D01*
X009677Y001181D02*
X009677Y000825D01*
X009519Y000825D01*
X009519Y001181D01*
X009677Y001181D01*
X009677Y000981D02*
X009519Y000981D01*
X009519Y001137D02*
X009677Y001137D01*
X009204Y001181D02*
X009204Y000825D01*
X009046Y000825D01*
X009046Y001181D01*
X009204Y001181D01*
X009204Y000981D02*
X009046Y000981D01*
X009046Y001137D02*
X009204Y001137D01*
X008732Y001181D02*
X008732Y000825D01*
X008574Y000825D01*
X008574Y001181D01*
X008732Y001181D01*
X008732Y000981D02*
X008574Y000981D01*
X008574Y001137D02*
X008732Y001137D01*
X008259Y001181D02*
X008259Y000825D01*
X008101Y000825D01*
X008101Y001181D01*
X008259Y001181D01*
X008259Y000981D02*
X008101Y000981D01*
X008101Y001137D02*
X008259Y001137D01*
X007787Y001181D02*
X007787Y000825D01*
X007629Y000825D01*
X007629Y001181D01*
X007787Y001181D01*
X007787Y000981D02*
X007629Y000981D01*
X007629Y001137D02*
X007787Y001137D01*
X007314Y001181D02*
X007314Y000825D01*
X007156Y000825D01*
X007156Y001181D01*
X007314Y001181D01*
X007314Y000981D02*
X007156Y000981D01*
X007156Y001137D02*
X007314Y001137D01*
X006842Y001181D02*
X006842Y000825D01*
X006684Y000825D01*
X006684Y001181D01*
X006842Y001181D01*
X006842Y000981D02*
X006684Y000981D01*
X006684Y001137D02*
X006842Y001137D01*
X006370Y001181D02*
X006370Y000825D01*
X006212Y000825D01*
X006212Y001181D01*
X006370Y001181D01*
X006370Y000981D02*
X006212Y000981D01*
X006212Y001137D02*
X006370Y001137D01*
X005897Y001181D02*
X005897Y000825D01*
X005739Y000825D01*
X005739Y001181D01*
X005897Y001181D01*
X005897Y000981D02*
X005739Y000981D01*
X005739Y001137D02*
X005897Y001137D01*
X005425Y001181D02*
X005425Y000825D01*
X005267Y000825D01*
X005267Y001181D01*
X005425Y001181D01*
X005425Y000981D02*
X005267Y000981D01*
X005267Y001137D02*
X005425Y001137D01*
X004952Y001181D02*
X004952Y000825D01*
X004794Y000825D01*
X004794Y001181D01*
X004952Y001181D01*
X004952Y000981D02*
X004794Y000981D01*
X004794Y001137D02*
X004952Y001137D01*
X004480Y001181D02*
X004480Y000825D01*
X004322Y000825D01*
X004322Y001181D01*
X004480Y001181D01*
X004480Y000981D02*
X004322Y000981D01*
X004322Y001137D02*
X004480Y001137D01*
X004480Y006022D02*
X004480Y006378D01*
X004480Y006022D02*
X004322Y006022D01*
X004322Y006378D01*
X004480Y006378D01*
X004480Y006178D02*
X004322Y006178D01*
X004322Y006334D02*
X004480Y006334D01*
X004952Y006378D02*
X004952Y006022D01*
X004794Y006022D01*
X004794Y006378D01*
X004952Y006378D01*
X004952Y006178D02*
X004794Y006178D01*
X004794Y006334D02*
X004952Y006334D01*
X005425Y006378D02*
X005425Y006022D01*
X005267Y006022D01*
X005267Y006378D01*
X005425Y006378D01*
X005425Y006178D02*
X005267Y006178D01*
X005267Y006334D02*
X005425Y006334D01*
X005897Y006378D02*
X005897Y006022D01*
X005739Y006022D01*
X005739Y006378D01*
X005897Y006378D01*
X005897Y006178D02*
X005739Y006178D01*
X005739Y006334D02*
X005897Y006334D01*
X006370Y006378D02*
X006370Y006022D01*
X006212Y006022D01*
X006212Y006378D01*
X006370Y006378D01*
X006370Y006178D02*
X006212Y006178D01*
X006212Y006334D02*
X006370Y006334D01*
X006842Y006378D02*
X006842Y006022D01*
X006684Y006022D01*
X006684Y006378D01*
X006842Y006378D01*
X006842Y006178D02*
X006684Y006178D01*
X006684Y006334D02*
X006842Y006334D01*
X007314Y006378D02*
X007314Y006022D01*
X007156Y006022D01*
X007156Y006378D01*
X007314Y006378D01*
X007314Y006178D02*
X007156Y006178D01*
X007156Y006334D02*
X007314Y006334D01*
X007787Y006378D02*
X007787Y006022D01*
X007629Y006022D01*
X007629Y006378D01*
X007787Y006378D01*
X007787Y006178D02*
X007629Y006178D01*
X007629Y006334D02*
X007787Y006334D01*
X008259Y006378D02*
X008259Y006022D01*
X008101Y006022D01*
X008101Y006378D01*
X008259Y006378D01*
X008259Y006178D02*
X008101Y006178D01*
X008101Y006334D02*
X008259Y006334D01*
X008732Y006378D02*
X008732Y006022D01*
X008574Y006022D01*
X008574Y006378D01*
X008732Y006378D01*
X008732Y006178D02*
X008574Y006178D01*
X008574Y006334D02*
X008732Y006334D01*
X009204Y006378D02*
X009204Y006022D01*
X009046Y006022D01*
X009046Y006378D01*
X009204Y006378D01*
X009204Y006178D02*
X009046Y006178D01*
X009046Y006334D02*
X009204Y006334D01*
X009677Y006378D02*
X009677Y006022D01*
X009519Y006022D01*
X009519Y006378D01*
X009677Y006378D01*
X009677Y006178D02*
X009519Y006178D01*
X009519Y006334D02*
X009677Y006334D01*
D16*
X002576Y012062D02*
X002576Y012190D01*
X002576Y012062D02*
X002330Y012062D01*
X002330Y012190D01*
X002576Y012190D01*
X002576Y012189D02*
X002330Y012189D01*
X002576Y012810D02*
X002576Y012938D01*
X002576Y012810D02*
X002330Y012810D01*
X002330Y012938D01*
X002576Y012938D01*
X002576Y012937D02*
X002330Y012937D01*
X001670Y012564D02*
X001670Y012436D01*
X001424Y012436D01*
X001424Y012564D01*
X001670Y012564D01*
X001670Y012563D02*
X001424Y012563D01*
D17*
X005204Y012676D02*
X005382Y012676D01*
X005204Y012676D02*
X005204Y012894D01*
X005382Y012894D01*
X005382Y012676D01*
X005382Y012852D02*
X005204Y012852D01*
X005204Y012106D02*
X005382Y012106D01*
X005204Y012106D02*
X005204Y012324D01*
X005382Y012324D01*
X005382Y012106D01*
X005382Y012282D02*
X005204Y012282D01*
X006818Y012106D02*
X006996Y012106D01*
X006818Y012106D02*
X006818Y012324D01*
X006996Y012324D01*
X006996Y012106D01*
X006996Y012282D02*
X006818Y012282D01*
X006818Y012676D02*
X006996Y012676D01*
X006818Y012676D02*
X006818Y012894D01*
X006996Y012894D01*
X006996Y012676D01*
X006996Y012852D02*
X006818Y012852D01*
D18*
X002450Y010675D02*
X002250Y010675D01*
X002450Y010675D02*
X002450Y010325D01*
X002250Y010325D01*
X002250Y010675D01*
X002250Y010524D02*
X002450Y010524D01*
X001550Y010675D02*
X001350Y010675D01*
X001550Y010675D02*
X001550Y010325D01*
X001350Y010325D01*
X001350Y010675D01*
X001350Y010524D02*
X001550Y010524D01*
M02*
