G75*
G70*
%OFA0B0*%
%FSLAX24Y24*%
%IPPOS*%
%LPD*%
%AMOC8*
5,1,8,0,0,1.08239X$1,22.5*
%
%ADD10C,0.0000*%
%ADD11C,0.0110*%
%ADD12C,0.0060*%
%ADD13C,0.0396*%
%ADD14C,0.0476*%
%ADD15C,0.1221*%
%ADD16C,0.0252*%
%ADD17C,0.0189*%
%ADD18C,0.0520*%
%ADD19C,0.0217*%
%ADD20C,0.0680*%
%ADD21R,0.0680X0.0680*%
D10*
X000100Y000100D02*
X000100Y015100D01*
X000200Y015200D02*
X000200Y000200D01*
X000200Y000100D01*
X000200Y000200D02*
X015200Y000200D01*
X015200Y015200D01*
X000200Y015200D01*
D11*
X000853Y007064D02*
X000755Y006966D01*
X000755Y006769D01*
X000853Y006671D01*
X001247Y007064D01*
X000853Y007064D01*
X000853Y006671D02*
X001247Y006671D01*
X001346Y006769D01*
X001346Y006966D01*
X001247Y007064D01*
X000853Y006447D02*
X000755Y006447D01*
X000755Y006349D01*
X000853Y006349D01*
X000853Y006447D01*
X000755Y006107D02*
X000952Y005811D01*
X001149Y006107D01*
X001346Y005811D02*
X000755Y005811D01*
X000755Y005561D02*
X000755Y005265D01*
X000853Y005167D01*
X001050Y005167D01*
X001149Y005265D01*
X001149Y005561D01*
X001050Y004916D02*
X000853Y004916D01*
X000755Y004818D01*
X000755Y004621D01*
X000853Y004522D01*
X001050Y004522D01*
X001149Y004621D01*
X001149Y004818D01*
X001050Y004916D01*
X000755Y004289D02*
X000755Y004093D01*
X000755Y004191D02*
X001346Y004191D01*
X001346Y004093D01*
X001247Y003842D02*
X001346Y003743D01*
X001346Y003546D01*
X001247Y003448D01*
X000853Y003448D01*
X000755Y003546D01*
X000755Y003743D01*
X000853Y003842D01*
X000755Y003215D02*
X000853Y003117D01*
X001247Y003117D01*
X001149Y003215D02*
X001149Y003018D01*
X001050Y002767D02*
X000755Y002767D01*
X001050Y002767D02*
X001149Y002669D01*
X001149Y002472D01*
X001050Y002374D01*
X001149Y002123D02*
X001149Y001828D01*
X001050Y001729D01*
X000853Y001729D01*
X000755Y001828D01*
X000755Y002123D01*
X000657Y002123D02*
X001149Y002123D01*
X001346Y002374D02*
X000755Y002374D01*
X000657Y002123D02*
X000558Y002025D01*
X000558Y001926D01*
X000755Y001496D02*
X000755Y001300D01*
X000755Y001398D02*
X001149Y001398D01*
X001149Y001300D01*
X001346Y001398D02*
X001444Y001398D01*
X001346Y000655D02*
X000755Y000655D01*
X000755Y001049D01*
D12*
X001850Y002287D02*
X002390Y002287D01*
X002390Y002558D01*
X002300Y002648D01*
X002120Y002648D01*
X002030Y002558D01*
X002030Y002287D01*
X002030Y002095D02*
X002300Y002095D01*
X002390Y002005D01*
X002300Y001915D01*
X002030Y001915D01*
X002030Y001735D02*
X002390Y001735D01*
X002390Y001825D01*
X002300Y001915D01*
X002300Y001543D02*
X002210Y001543D01*
X002210Y001182D01*
X002120Y001182D02*
X002030Y001273D01*
X002030Y001453D01*
X002300Y001543D02*
X002390Y001453D01*
X002390Y001273D01*
X002300Y001182D01*
X002120Y001182D01*
X002030Y000990D02*
X002300Y000720D01*
X002210Y000630D02*
X002570Y000990D01*
X002570Y000630D02*
X002030Y000630D01*
X002930Y000630D02*
X003470Y000630D01*
X003200Y000720D02*
X002930Y000990D01*
X003020Y001182D02*
X003200Y001182D01*
X003290Y001273D01*
X003290Y001453D01*
X003200Y001543D01*
X003110Y001543D01*
X003110Y001182D01*
X003020Y001182D02*
X002930Y001273D01*
X002930Y001453D01*
X003290Y001735D02*
X002930Y001915D01*
X003290Y002095D01*
X003290Y002287D02*
X003290Y002377D01*
X002930Y002377D01*
X002930Y002287D02*
X002930Y002468D01*
X002930Y002656D02*
X003290Y002656D01*
X003290Y002926D01*
X003200Y003016D01*
X002930Y003016D01*
X002390Y002930D02*
X002300Y002840D01*
X002120Y002840D01*
X002030Y002930D01*
X002030Y003110D01*
X002210Y003200D02*
X002210Y002840D01*
X002390Y002930D02*
X002390Y003110D01*
X002300Y003200D01*
X002210Y003200D01*
X002210Y003392D02*
X002390Y003573D01*
X002390Y003663D01*
X002390Y003392D02*
X002030Y003392D01*
X003470Y002377D02*
X003561Y002377D01*
X003470Y000990D02*
X003110Y000630D01*
D13*
X009178Y002348D02*
X009222Y002348D01*
X009178Y002348D02*
X009178Y002392D01*
X009222Y002392D01*
X009222Y002348D01*
X009222Y003008D02*
X009178Y003008D01*
X009178Y003052D01*
X009222Y003052D01*
X009222Y003008D01*
X009478Y009848D02*
X009522Y009848D01*
X009478Y009848D02*
X009478Y009892D01*
X009522Y009892D01*
X009522Y009848D01*
X009522Y010508D02*
X009478Y010508D01*
X009478Y010552D01*
X009522Y010552D01*
X009522Y010508D01*
X010078Y011292D02*
X010122Y011292D01*
X010122Y011248D01*
X010078Y011248D01*
X010078Y011292D01*
X010078Y011952D02*
X010122Y011952D01*
X010122Y011908D01*
X010078Y011908D01*
X010078Y011952D01*
X011292Y011722D02*
X011292Y011678D01*
X011248Y011678D01*
X011248Y011722D01*
X011292Y011722D01*
X011952Y011722D02*
X011952Y011678D01*
X011908Y011678D01*
X011908Y011722D01*
X011952Y011722D01*
D14*
X004254Y011215D03*
X004254Y010585D03*
X003546Y010270D03*
X003546Y010900D03*
X003546Y011530D03*
D15*
X003900Y012554D03*
X003900Y009246D03*
D16*
X007207Y008116D02*
X007781Y008116D01*
X007207Y008116D02*
X007207Y008494D01*
X007781Y008494D01*
X007781Y008116D01*
X007781Y008367D02*
X007207Y008367D01*
X007207Y006895D02*
X007781Y006895D01*
X007207Y006895D02*
X007207Y007273D01*
X007781Y007273D01*
X007781Y006895D01*
X007781Y007146D02*
X007207Y007146D01*
D17*
X007175Y007552D02*
X007459Y007552D01*
X007175Y007552D02*
X007175Y007836D01*
X007459Y007836D01*
X007459Y007552D01*
X007459Y007740D02*
X007175Y007740D01*
X007726Y007552D02*
X008364Y007552D01*
X007726Y007552D02*
X007726Y007836D01*
X008364Y007836D01*
X008364Y007552D01*
X008364Y007740D02*
X007726Y007740D01*
X008080Y008084D02*
X008364Y008084D01*
X008080Y008084D02*
X008080Y008526D01*
X008364Y008526D01*
X008364Y008084D01*
X008364Y008272D02*
X008080Y008272D01*
X008080Y008460D02*
X008364Y008460D01*
X008364Y006863D02*
X008080Y006863D01*
X008080Y007305D01*
X008364Y007305D01*
X008364Y006863D01*
X008364Y007051D02*
X008080Y007051D01*
X008080Y007239D02*
X008364Y007239D01*
D18*
X006560Y007960D02*
X006040Y007960D01*
X006560Y007960D02*
X006560Y007440D01*
X006040Y007440D01*
X006040Y007960D01*
X006040Y007959D02*
X006560Y007959D01*
X006560Y006760D02*
X006040Y006760D01*
X006560Y006760D02*
X006560Y006240D01*
X006040Y006240D01*
X006040Y006760D01*
X006040Y006759D02*
X006560Y006759D01*
X004560Y006760D02*
X004040Y006760D01*
X004560Y006760D02*
X004560Y006240D01*
X004040Y006240D01*
X004040Y006760D01*
X004040Y006759D02*
X004560Y006759D01*
X004560Y007960D02*
X004040Y007960D01*
X004560Y007960D02*
X004560Y007440D01*
X004040Y007440D01*
X004040Y007960D01*
X004040Y007959D02*
X004560Y007959D01*
X005140Y009660D02*
X005660Y009660D01*
X005660Y009140D01*
X005140Y009140D01*
X005140Y009660D01*
X005140Y009659D02*
X005660Y009659D01*
X007140Y009660D02*
X007660Y009660D01*
X007660Y009140D01*
X007140Y009140D01*
X007140Y009660D01*
X007140Y009659D02*
X007660Y009659D01*
D19*
X008880Y008909D02*
X008880Y008691D01*
X008880Y008909D02*
X009254Y008909D01*
X009254Y008691D01*
X008880Y008691D01*
X008880Y008907D02*
X009254Y008907D01*
X009746Y009065D02*
X009746Y009283D01*
X010120Y009283D01*
X010120Y009065D01*
X009746Y009065D01*
X009746Y009281D02*
X010120Y009281D01*
X009746Y008515D02*
X009746Y008297D01*
X009746Y008515D02*
X010120Y008515D01*
X010120Y008297D01*
X009746Y008297D01*
X009746Y008513D02*
X010120Y008513D01*
X009746Y007883D02*
X009746Y007665D01*
X009746Y007883D02*
X010120Y007883D01*
X010120Y007665D01*
X009746Y007665D01*
X009746Y007881D02*
X010120Y007881D01*
X009746Y007115D02*
X009746Y006897D01*
X009746Y007115D02*
X010120Y007115D01*
X010120Y006897D01*
X009746Y006897D01*
X009746Y007113D02*
X010120Y007113D01*
X009746Y006483D02*
X009746Y006265D01*
X009746Y006483D02*
X010120Y006483D01*
X010120Y006265D01*
X009746Y006265D01*
X009746Y006481D02*
X010120Y006481D01*
X009746Y005715D02*
X009746Y005497D01*
X009746Y005715D02*
X010120Y005715D01*
X010120Y005497D01*
X009746Y005497D01*
X009746Y005713D02*
X010120Y005713D01*
X008880Y005891D02*
X008880Y006109D01*
X009254Y006109D01*
X009254Y005891D01*
X008880Y005891D01*
X008880Y006107D02*
X009254Y006107D01*
X008880Y007291D02*
X008880Y007509D01*
X009254Y007509D01*
X009254Y007291D01*
X008880Y007291D01*
X008880Y007507D02*
X009254Y007507D01*
D20*
X012200Y002700D03*
X012200Y001700D03*
X013200Y001700D03*
X013200Y002700D03*
X014200Y002700D03*
X014200Y004200D03*
X014200Y005200D03*
X014200Y006200D03*
X014200Y007200D03*
X014200Y008200D03*
X014200Y009200D03*
X014200Y010200D03*
X014200Y011200D03*
X014200Y012200D03*
X014200Y013200D03*
X012200Y014200D03*
X011200Y014200D03*
X010200Y014200D03*
X009200Y014200D03*
X008200Y014200D03*
X007200Y014200D03*
X006200Y014200D03*
X005200Y014200D03*
X004200Y014200D03*
D21*
X014200Y001700D03*
M02*
