G75*
G70*
%OFA0B0*%
%FSLAX24Y24*%
%IPPOS*%
%LPD*%
%AMOC8*
5,1,8,0,0,1.08239X$1,22.5*
%
%ADD10C,0.0000*%
%ADD11C,0.0060*%
%ADD12C,0.0050*%
%ADD13C,0.0080*%
D10*
X000100Y000100D02*
X000100Y015100D01*
X000200Y015200D02*
X000200Y000200D01*
X000200Y000100D01*
X000200Y000200D02*
X015200Y000200D01*
X015200Y015200D01*
X000200Y015200D01*
D11*
X000200Y000200D01*
X015200Y000200D01*
X015200Y015200D01*
X000200Y015200D01*
X003280Y007925D02*
X003280Y007698D01*
X003507Y007925D01*
X003564Y007925D01*
X003620Y007868D01*
X003620Y007755D01*
X003564Y007698D01*
X003564Y007557D02*
X003450Y007557D01*
X003393Y007500D01*
X003393Y007330D01*
X003280Y007330D02*
X003620Y007330D01*
X003620Y007500D01*
X003564Y007557D01*
X003393Y007443D02*
X003280Y007557D01*
X003337Y006789D02*
X003280Y006732D01*
X003280Y006618D01*
X003337Y006562D01*
X003280Y006420D02*
X003393Y006307D01*
X003393Y006364D02*
X003393Y006193D01*
X003280Y006193D02*
X003620Y006193D01*
X003620Y006364D01*
X003564Y006420D01*
X003450Y006420D01*
X003393Y006364D01*
X003564Y006562D02*
X003620Y006618D01*
X003620Y006732D01*
X003564Y006789D01*
X003507Y006789D01*
X003450Y006732D01*
X003393Y006789D01*
X003337Y006789D01*
X003450Y006732D02*
X003450Y006675D01*
X007175Y010180D02*
X007402Y010180D01*
X007288Y010180D02*
X007288Y010520D01*
X007402Y010407D01*
X007543Y010464D02*
X007543Y010350D01*
X007600Y010293D01*
X007770Y010293D01*
X007770Y010180D02*
X007770Y010520D01*
X007600Y010520D01*
X007543Y010464D01*
X007657Y010293D02*
X007543Y010180D01*
X008730Y010518D02*
X008730Y010632D01*
X008787Y010689D01*
X008730Y010830D02*
X008957Y011057D01*
X009014Y011057D01*
X009070Y011000D01*
X009070Y010887D01*
X009014Y010830D01*
X009014Y010689D02*
X009070Y010632D01*
X009070Y010518D01*
X009014Y010462D01*
X008787Y010462D01*
X008730Y010518D01*
X008730Y010830D02*
X008730Y011057D01*
X009330Y011418D02*
X009330Y011532D01*
X009387Y011589D01*
X009387Y011730D02*
X009330Y011787D01*
X009330Y011900D01*
X009387Y011957D01*
X009443Y011957D01*
X009500Y011900D01*
X009500Y011843D01*
X009500Y011900D02*
X009557Y011957D01*
X009614Y011957D01*
X009670Y011900D01*
X009670Y011787D01*
X009614Y011730D01*
X009614Y011589D02*
X009670Y011532D01*
X009670Y011418D01*
X009614Y011362D01*
X009387Y011362D01*
X009330Y011418D01*
X011343Y012130D02*
X011570Y012130D01*
X011457Y012130D02*
X011457Y012470D01*
X011570Y012357D01*
X011711Y012414D02*
X011768Y012470D01*
X011882Y012470D01*
X011938Y012414D01*
X011938Y012187D01*
X011882Y012130D01*
X011768Y012130D01*
X011711Y012187D01*
X010430Y008825D02*
X010430Y008598D01*
X010430Y008712D02*
X010770Y008712D01*
X010657Y008598D01*
X010714Y008457D02*
X010487Y008457D01*
X010430Y008400D01*
X010430Y008287D01*
X010487Y008230D01*
X010714Y008230D01*
X010770Y008287D01*
X010770Y008400D01*
X010714Y008457D01*
X010543Y008343D02*
X010430Y008457D01*
X010430Y007625D02*
X010430Y007398D01*
X010657Y007625D01*
X010714Y007625D01*
X010770Y007568D01*
X010770Y007455D01*
X010714Y007398D01*
X010714Y007257D02*
X010487Y007257D01*
X010430Y007200D01*
X010430Y007087D01*
X010487Y007030D01*
X010714Y007030D01*
X010770Y007087D01*
X010770Y007200D01*
X010714Y007257D01*
X010543Y007143D02*
X010430Y007257D01*
X010487Y006225D02*
X010430Y006168D01*
X010430Y006055D01*
X010487Y005998D01*
X010487Y005857D02*
X010430Y005800D01*
X010430Y005687D01*
X010487Y005630D01*
X010714Y005630D01*
X010770Y005687D01*
X010770Y005800D01*
X010714Y005857D01*
X010487Y005857D01*
X010430Y005857D02*
X010543Y005743D01*
X010714Y005998D02*
X010770Y006055D01*
X010770Y006168D01*
X010714Y006225D01*
X010657Y006225D01*
X010600Y006168D01*
X010543Y006225D01*
X010487Y006225D01*
X010600Y006168D02*
X010600Y006112D01*
X008107Y006230D02*
X007936Y006230D01*
X007880Y006287D01*
X007880Y006514D01*
X007936Y006570D01*
X008107Y006570D01*
X008107Y006230D01*
X007738Y006230D02*
X007511Y006230D01*
X007625Y006230D02*
X007625Y006570D01*
X007738Y006457D01*
X009687Y003057D02*
X009630Y003000D01*
X009630Y002887D01*
X009687Y002830D01*
X009800Y002830D02*
X009857Y002943D01*
X009857Y003000D01*
X009800Y003057D01*
X009687Y003057D01*
X009800Y002830D02*
X009970Y002830D01*
X009970Y003057D01*
X009914Y002689D02*
X009970Y002632D01*
X009970Y002518D01*
X009914Y002462D01*
X009687Y002462D01*
X009630Y002518D01*
X009630Y002632D01*
X009687Y002689D01*
D12*
X009500Y002100D02*
X009500Y003300D01*
X008900Y003300D01*
X008900Y002100D01*
X009500Y002100D01*
X009200Y009600D02*
X009200Y010800D01*
X009800Y010800D01*
X009800Y009600D01*
X009200Y009600D01*
X009800Y011000D02*
X010400Y011000D01*
X010400Y012200D01*
X009800Y012200D01*
X009800Y011000D01*
X011000Y011400D02*
X012200Y011400D01*
X012200Y012000D01*
X011000Y012000D01*
X011000Y011400D01*
D13*
X009500Y009450D02*
X009200Y009450D01*
X009200Y009200D01*
X008550Y009000D02*
X008550Y008700D01*
X008000Y008700D01*
X008000Y008800D01*
X008500Y008800D01*
X008500Y008850D02*
X008000Y008850D01*
X008000Y009000D01*
X008550Y009000D01*
X008500Y008950D02*
X008050Y008950D01*
X008050Y008900D02*
X008500Y008900D01*
X008500Y008750D02*
X008050Y008750D01*
X008000Y008800D02*
X008000Y008850D01*
X008000Y008700D02*
X007000Y008700D01*
X007000Y006700D01*
X008550Y006700D01*
X008550Y008700D01*
X009200Y008400D02*
X009200Y008150D01*
X009500Y008150D01*
X009500Y008050D02*
X009200Y008050D01*
X009200Y007800D01*
X009200Y007000D02*
X009200Y006750D01*
X009500Y006750D01*
X009500Y006650D02*
X009200Y006650D01*
X009200Y006400D01*
X009200Y005600D02*
X009200Y005350D01*
X009500Y005350D01*
X006300Y005900D02*
X004300Y005900D01*
X004300Y007100D02*
X006300Y007100D01*
X004300Y007100D01*
X004300Y008300D02*
X006300Y008300D01*
X005400Y008800D02*
X007400Y008800D01*
X007400Y010000D02*
X005400Y010000D01*
M02*
