%
M48
M72
T01C0.0120
T02C0.0236
T03C0.0400
T04C0.0787
%
T01
X3200Y5100
X5300Y2900
X9100Y1750
X9600Y1700
X11300Y2400
X11300Y4800
X10500Y9000
X11250Y10400
X11000Y10700
X11500Y11000
X12400Y11200
X12400Y11600
X10600Y12400
X10100Y12400
X8800Y12900
X7800Y11900
X7450Y11900
X7050Y11650
X5295Y11315
X5000Y10900
X4900Y12500
X2300Y14000
X2000Y12500
X6800Y8800
X6800Y8400
X8975Y9755
X9000Y10200
T02
X4254Y10585
X4254Y11215
X3546Y11530
X3546Y10900
X3546Y10270
T03
X4200Y14200
X5200Y14200
X6200Y14200
X7200Y14200
X8200Y14200
X9200Y14200
X10200Y14200
X11200Y14200
X12200Y14200
X14200Y13200
X14200Y12200
X14200Y11200
X14200Y10200
X14200Y9200
X14200Y8200
X14200Y7200
X14200Y6200
X14200Y5200
X14200Y4200
X14200Y2700
X13200Y2700
X13200Y1700
X14200Y1700
X12200Y1700
X12200Y2700
T04
X3900Y9246
X3900Y12554
M30
