G75*
G70*
%OFA0B0*%
%FSLAX24Y24*%
%IPPOS*%
%LPD*%
%AMOC8*
5,1,8,0,0,1.08239X$1,22.5*
%
%ADD10C,0.0000*%
%ADD11C,0.0089*%
%ADD12C,0.0436*%
%ADD13C,0.1181*%
%ADD14C,0.0118*%
%ADD15C,0.0138*%
%ADD16C,0.0360*%
%ADD17C,0.0157*%
%ADD18C,0.0128*%
%ADD19C,0.0640*%
%ADD20R,0.0640X0.0640*%
%ADD21C,0.0177*%
%ADD22C,0.0200*%
%ADD23C,0.0060*%
%ADD24C,0.0240*%
%ADD25C,0.0100*%
%ADD26C,0.0150*%
D10*
X000100Y000100D02*
X000100Y015100D01*
X000200Y015200D02*
X000200Y000200D01*
X000200Y000100D01*
X000200Y000200D02*
X015200Y000200D01*
X015200Y015200D01*
X000200Y015200D01*
D11*
X008303Y012319D02*
X008687Y012319D01*
X008687Y012231D01*
X008303Y012231D01*
X008303Y012319D01*
X008687Y012319D01*
X008687Y012004D02*
X008303Y012004D01*
X008687Y012004D02*
X008687Y011916D01*
X008303Y011916D01*
X008303Y012004D01*
X008687Y012004D01*
X008687Y011689D02*
X008303Y011689D01*
X008687Y011689D02*
X008687Y011601D01*
X008303Y011601D01*
X008303Y011689D01*
X008687Y011689D01*
X008687Y011374D02*
X008303Y011374D01*
X008687Y011374D02*
X008687Y011286D01*
X008303Y011286D01*
X008303Y011374D01*
X008687Y011374D01*
X008687Y011059D02*
X008303Y011059D01*
X008687Y011059D02*
X008687Y010971D01*
X008303Y010971D01*
X008303Y011059D01*
X008687Y011059D01*
X008687Y010744D02*
X008303Y010744D01*
X008687Y010744D02*
X008687Y010656D01*
X008303Y010656D01*
X008303Y010744D01*
X008687Y010744D01*
X008687Y010429D02*
X008303Y010429D01*
X008687Y010429D02*
X008687Y010341D01*
X008303Y010341D01*
X008303Y010429D01*
X008687Y010429D01*
X008687Y010114D02*
X008303Y010114D01*
X008687Y010114D02*
X008687Y010026D01*
X008303Y010026D01*
X008303Y010114D01*
X008687Y010114D01*
X008687Y009799D02*
X008303Y009799D01*
X008687Y009799D02*
X008687Y009711D01*
X008303Y009711D01*
X008303Y009799D01*
X008687Y009799D01*
X008687Y009484D02*
X008303Y009484D01*
X008687Y009484D02*
X008687Y009396D01*
X008303Y009396D01*
X008303Y009484D01*
X008687Y009484D01*
X008687Y009169D02*
X008303Y009169D01*
X008687Y009169D02*
X008687Y009081D01*
X008303Y009081D01*
X008303Y009169D01*
X008687Y009169D01*
X009081Y008687D02*
X009081Y008303D01*
X009081Y008687D02*
X009169Y008687D01*
X009169Y008303D01*
X009081Y008303D01*
X009081Y008391D02*
X009169Y008391D01*
X009169Y008479D02*
X009081Y008479D01*
X009081Y008567D02*
X009169Y008567D01*
X009169Y008655D02*
X009081Y008655D01*
X009396Y008687D02*
X009396Y008303D01*
X009396Y008687D02*
X009484Y008687D01*
X009484Y008303D01*
X009396Y008303D01*
X009396Y008391D02*
X009484Y008391D01*
X009484Y008479D02*
X009396Y008479D01*
X009396Y008567D02*
X009484Y008567D01*
X009484Y008655D02*
X009396Y008655D01*
X009711Y008687D02*
X009711Y008303D01*
X009711Y008687D02*
X009799Y008687D01*
X009799Y008303D01*
X009711Y008303D01*
X009711Y008391D02*
X009799Y008391D01*
X009799Y008479D02*
X009711Y008479D01*
X009711Y008567D02*
X009799Y008567D01*
X009799Y008655D02*
X009711Y008655D01*
X010026Y008687D02*
X010026Y008303D01*
X010026Y008687D02*
X010114Y008687D01*
X010114Y008303D01*
X010026Y008303D01*
X010026Y008391D02*
X010114Y008391D01*
X010114Y008479D02*
X010026Y008479D01*
X010026Y008567D02*
X010114Y008567D01*
X010114Y008655D02*
X010026Y008655D01*
X010341Y008687D02*
X010341Y008303D01*
X010341Y008687D02*
X010429Y008687D01*
X010429Y008303D01*
X010341Y008303D01*
X010341Y008391D02*
X010429Y008391D01*
X010429Y008479D02*
X010341Y008479D01*
X010341Y008567D02*
X010429Y008567D01*
X010429Y008655D02*
X010341Y008655D01*
X010656Y008687D02*
X010656Y008303D01*
X010656Y008687D02*
X010744Y008687D01*
X010744Y008303D01*
X010656Y008303D01*
X010656Y008391D02*
X010744Y008391D01*
X010744Y008479D02*
X010656Y008479D01*
X010656Y008567D02*
X010744Y008567D01*
X010744Y008655D02*
X010656Y008655D01*
X010971Y008687D02*
X010971Y008303D01*
X010971Y008687D02*
X011059Y008687D01*
X011059Y008303D01*
X010971Y008303D01*
X010971Y008391D02*
X011059Y008391D01*
X011059Y008479D02*
X010971Y008479D01*
X010971Y008567D02*
X011059Y008567D01*
X011059Y008655D02*
X010971Y008655D01*
X011286Y008687D02*
X011286Y008303D01*
X011286Y008687D02*
X011374Y008687D01*
X011374Y008303D01*
X011286Y008303D01*
X011286Y008391D02*
X011374Y008391D01*
X011374Y008479D02*
X011286Y008479D01*
X011286Y008567D02*
X011374Y008567D01*
X011374Y008655D02*
X011286Y008655D01*
X011601Y008687D02*
X011601Y008303D01*
X011601Y008687D02*
X011689Y008687D01*
X011689Y008303D01*
X011601Y008303D01*
X011601Y008391D02*
X011689Y008391D01*
X011689Y008479D02*
X011601Y008479D01*
X011601Y008567D02*
X011689Y008567D01*
X011689Y008655D02*
X011601Y008655D01*
X011916Y008687D02*
X011916Y008303D01*
X011916Y008687D02*
X012004Y008687D01*
X012004Y008303D01*
X011916Y008303D01*
X011916Y008391D02*
X012004Y008391D01*
X012004Y008479D02*
X011916Y008479D01*
X011916Y008567D02*
X012004Y008567D01*
X012004Y008655D02*
X011916Y008655D01*
X012231Y008687D02*
X012231Y008303D01*
X012231Y008687D02*
X012319Y008687D01*
X012319Y008303D01*
X012231Y008303D01*
X012231Y008391D02*
X012319Y008391D01*
X012319Y008479D02*
X012231Y008479D01*
X012231Y008567D02*
X012319Y008567D01*
X012319Y008655D02*
X012231Y008655D01*
X012713Y009081D02*
X013097Y009081D01*
X012713Y009081D02*
X012713Y009169D01*
X013097Y009169D01*
X013097Y009081D01*
X013097Y009169D02*
X012713Y009169D01*
X012713Y009396D02*
X013097Y009396D01*
X012713Y009396D02*
X012713Y009484D01*
X013097Y009484D01*
X013097Y009396D01*
X013097Y009484D02*
X012713Y009484D01*
X012713Y009711D02*
X013097Y009711D01*
X012713Y009711D02*
X012713Y009799D01*
X013097Y009799D01*
X013097Y009711D01*
X013097Y009799D02*
X012713Y009799D01*
X012713Y010026D02*
X013097Y010026D01*
X012713Y010026D02*
X012713Y010114D01*
X013097Y010114D01*
X013097Y010026D01*
X013097Y010114D02*
X012713Y010114D01*
X012713Y010341D02*
X013097Y010341D01*
X012713Y010341D02*
X012713Y010429D01*
X013097Y010429D01*
X013097Y010341D01*
X013097Y010429D02*
X012713Y010429D01*
X012713Y010656D02*
X013097Y010656D01*
X012713Y010656D02*
X012713Y010744D01*
X013097Y010744D01*
X013097Y010656D01*
X013097Y010744D02*
X012713Y010744D01*
X012713Y010971D02*
X013097Y010971D01*
X012713Y010971D02*
X012713Y011059D01*
X013097Y011059D01*
X013097Y010971D01*
X013097Y011059D02*
X012713Y011059D01*
X012713Y011286D02*
X013097Y011286D01*
X012713Y011286D02*
X012713Y011374D01*
X013097Y011374D01*
X013097Y011286D01*
X013097Y011374D02*
X012713Y011374D01*
X012713Y011601D02*
X013097Y011601D01*
X012713Y011601D02*
X012713Y011689D01*
X013097Y011689D01*
X013097Y011601D01*
X013097Y011689D02*
X012713Y011689D01*
X012713Y011916D02*
X013097Y011916D01*
X012713Y011916D02*
X012713Y012004D01*
X013097Y012004D01*
X013097Y011916D01*
X013097Y012004D02*
X012713Y012004D01*
X012713Y012231D02*
X013097Y012231D01*
X012713Y012231D02*
X012713Y012319D01*
X013097Y012319D01*
X013097Y012231D01*
X013097Y012319D02*
X012713Y012319D01*
X012319Y012713D02*
X012319Y013097D01*
X012319Y012713D02*
X012231Y012713D01*
X012231Y013097D01*
X012319Y013097D01*
X012319Y012801D02*
X012231Y012801D01*
X012231Y012889D02*
X012319Y012889D01*
X012319Y012977D02*
X012231Y012977D01*
X012231Y013065D02*
X012319Y013065D01*
X012004Y013097D02*
X012004Y012713D01*
X011916Y012713D01*
X011916Y013097D01*
X012004Y013097D01*
X012004Y012801D02*
X011916Y012801D01*
X011916Y012889D02*
X012004Y012889D01*
X012004Y012977D02*
X011916Y012977D01*
X011916Y013065D02*
X012004Y013065D01*
X011689Y013097D02*
X011689Y012713D01*
X011601Y012713D01*
X011601Y013097D01*
X011689Y013097D01*
X011689Y012801D02*
X011601Y012801D01*
X011601Y012889D02*
X011689Y012889D01*
X011689Y012977D02*
X011601Y012977D01*
X011601Y013065D02*
X011689Y013065D01*
X011374Y013097D02*
X011374Y012713D01*
X011286Y012713D01*
X011286Y013097D01*
X011374Y013097D01*
X011374Y012801D02*
X011286Y012801D01*
X011286Y012889D02*
X011374Y012889D01*
X011374Y012977D02*
X011286Y012977D01*
X011286Y013065D02*
X011374Y013065D01*
X011059Y013097D02*
X011059Y012713D01*
X010971Y012713D01*
X010971Y013097D01*
X011059Y013097D01*
X011059Y012801D02*
X010971Y012801D01*
X010971Y012889D02*
X011059Y012889D01*
X011059Y012977D02*
X010971Y012977D01*
X010971Y013065D02*
X011059Y013065D01*
X010744Y013097D02*
X010744Y012713D01*
X010656Y012713D01*
X010656Y013097D01*
X010744Y013097D01*
X010744Y012801D02*
X010656Y012801D01*
X010656Y012889D02*
X010744Y012889D01*
X010744Y012977D02*
X010656Y012977D01*
X010656Y013065D02*
X010744Y013065D01*
X010429Y013097D02*
X010429Y012713D01*
X010341Y012713D01*
X010341Y013097D01*
X010429Y013097D01*
X010429Y012801D02*
X010341Y012801D01*
X010341Y012889D02*
X010429Y012889D01*
X010429Y012977D02*
X010341Y012977D01*
X010341Y013065D02*
X010429Y013065D01*
X010114Y013097D02*
X010114Y012713D01*
X010026Y012713D01*
X010026Y013097D01*
X010114Y013097D01*
X010114Y012801D02*
X010026Y012801D01*
X010026Y012889D02*
X010114Y012889D01*
X010114Y012977D02*
X010026Y012977D01*
X010026Y013065D02*
X010114Y013065D01*
X009799Y013097D02*
X009799Y012713D01*
X009711Y012713D01*
X009711Y013097D01*
X009799Y013097D01*
X009799Y012801D02*
X009711Y012801D01*
X009711Y012889D02*
X009799Y012889D01*
X009799Y012977D02*
X009711Y012977D01*
X009711Y013065D02*
X009799Y013065D01*
X009484Y013097D02*
X009484Y012713D01*
X009396Y012713D01*
X009396Y013097D01*
X009484Y013097D01*
X009484Y012801D02*
X009396Y012801D01*
X009396Y012889D02*
X009484Y012889D01*
X009484Y012977D02*
X009396Y012977D01*
X009396Y013065D02*
X009484Y013065D01*
X009169Y013097D02*
X009169Y012713D01*
X009081Y012713D01*
X009081Y013097D01*
X009169Y013097D01*
X009169Y012801D02*
X009081Y012801D01*
X009081Y012889D02*
X009169Y012889D01*
X009169Y012977D02*
X009081Y012977D01*
X009081Y013065D02*
X009169Y013065D01*
D12*
X004254Y011215D03*
X004254Y010585D03*
X003546Y010270D03*
X003546Y010900D03*
X003546Y011530D03*
D13*
X003900Y012554D03*
X003900Y009246D03*
D14*
X005767Y011415D02*
X005885Y011415D01*
X005767Y011415D02*
X005767Y011573D01*
X005885Y011573D01*
X005885Y011415D01*
X005885Y011532D02*
X005767Y011532D01*
X006515Y011415D02*
X006633Y011415D01*
X006515Y011415D02*
X006515Y011573D01*
X006633Y011573D01*
X006633Y011415D01*
X006633Y011532D02*
X006515Y011532D01*
X006515Y010627D02*
X006633Y010627D01*
X006515Y010627D02*
X006515Y010785D01*
X006633Y010785D01*
X006633Y010627D01*
X006633Y010744D02*
X006515Y010744D01*
D15*
X006033Y010637D02*
X005777Y010637D01*
X005777Y010775D01*
X006033Y010775D01*
X006033Y010637D01*
X006033Y010774D02*
X005777Y010774D01*
D16*
X003850Y007820D02*
X003850Y007780D01*
X003810Y007780D01*
X003810Y007820D01*
X003850Y007820D01*
X003190Y007820D02*
X003190Y007780D01*
X003150Y007780D01*
X003150Y007820D01*
X003190Y007820D01*
X002610Y007820D02*
X002610Y007780D01*
X002610Y007820D02*
X002650Y007820D01*
X002650Y007780D01*
X002610Y007780D01*
X001950Y007780D02*
X001950Y007820D01*
X001990Y007820D01*
X001990Y007780D01*
X001950Y007780D01*
X001950Y007120D02*
X001950Y007080D01*
X001950Y007120D02*
X001990Y007120D01*
X001990Y007080D01*
X001950Y007080D01*
X002610Y007080D02*
X002610Y007120D01*
X002650Y007120D01*
X002650Y007080D01*
X002610Y007080D01*
X003190Y007080D02*
X003190Y007120D01*
X003190Y007080D02*
X003150Y007080D01*
X003150Y007120D01*
X003190Y007120D01*
X003850Y007120D02*
X003850Y007080D01*
X003810Y007080D01*
X003810Y007120D01*
X003850Y007120D01*
X002210Y011280D02*
X002210Y011320D01*
X002250Y011320D01*
X002250Y011280D01*
X002210Y011280D01*
X001550Y011280D02*
X001550Y011320D01*
X001590Y011320D01*
X001590Y011280D01*
X001550Y011280D01*
X001950Y013680D02*
X001950Y013720D01*
X001990Y013720D01*
X001990Y013680D01*
X001950Y013680D01*
X001950Y014280D02*
X001950Y014320D01*
X001990Y014320D01*
X001990Y014280D01*
X001950Y014280D01*
X002610Y014280D02*
X002610Y014320D01*
X002650Y014320D01*
X002650Y014280D01*
X002610Y014280D01*
X003180Y014310D02*
X003220Y014310D01*
X003180Y014310D02*
X003180Y014350D01*
X003220Y014350D01*
X003220Y014310D01*
X003220Y013650D02*
X003180Y013650D01*
X003180Y013690D01*
X003220Y013690D01*
X003220Y013650D01*
X002610Y013680D02*
X002610Y013720D01*
X002650Y013720D01*
X002650Y013680D01*
X002610Y013680D01*
X010450Y007620D02*
X010450Y007580D01*
X010450Y007620D02*
X010490Y007620D01*
X010490Y007580D01*
X010450Y007580D01*
X010990Y007020D02*
X010990Y006980D01*
X010950Y006980D01*
X010950Y007020D01*
X010990Y007020D01*
X011110Y007580D02*
X011110Y007620D01*
X011150Y007620D01*
X011150Y007580D01*
X011110Y007580D01*
X011650Y007020D02*
X011650Y006980D01*
X011610Y006980D01*
X011610Y007020D01*
X011650Y007020D01*
D17*
X010878Y005295D02*
X010522Y005295D01*
X010878Y005295D02*
X010878Y005137D01*
X010522Y005137D01*
X010522Y005295D01*
X010522Y005293D02*
X010878Y005293D01*
X010878Y004901D02*
X010522Y004901D01*
X010878Y004901D02*
X010878Y004743D01*
X010522Y004743D01*
X010522Y004901D01*
X010522Y004899D02*
X010878Y004899D01*
X010878Y004389D02*
X010522Y004389D01*
X010878Y004389D02*
X010878Y004231D01*
X010522Y004231D01*
X010522Y004389D01*
X010522Y004387D02*
X010878Y004387D01*
X010878Y003917D02*
X010522Y003917D01*
X010878Y003917D02*
X010878Y003759D01*
X010522Y003759D01*
X010522Y003917D01*
X010522Y003915D02*
X010878Y003915D01*
X010878Y003444D02*
X010522Y003444D01*
X010878Y003444D02*
X010878Y003286D01*
X010522Y003286D01*
X010522Y003444D01*
X010522Y003442D02*
X010878Y003442D01*
X010878Y002972D02*
X010522Y002972D01*
X010878Y002972D02*
X010878Y002814D01*
X010522Y002814D01*
X010522Y002972D01*
X010522Y002970D02*
X010878Y002970D01*
X010878Y002460D02*
X010522Y002460D01*
X010878Y002460D02*
X010878Y002302D01*
X010522Y002302D01*
X010522Y002460D01*
X010522Y002458D02*
X010878Y002458D01*
X010878Y002066D02*
X010522Y002066D01*
X010878Y002066D02*
X010878Y001908D01*
X010522Y001908D01*
X010522Y002066D01*
X010522Y002064D02*
X010878Y002064D01*
X009677Y001181D02*
X009677Y000825D01*
X009519Y000825D01*
X009519Y001181D01*
X009677Y001181D01*
X009677Y000981D02*
X009519Y000981D01*
X009519Y001137D02*
X009677Y001137D01*
X009204Y001181D02*
X009204Y000825D01*
X009046Y000825D01*
X009046Y001181D01*
X009204Y001181D01*
X009204Y000981D02*
X009046Y000981D01*
X009046Y001137D02*
X009204Y001137D01*
X008732Y001181D02*
X008732Y000825D01*
X008574Y000825D01*
X008574Y001181D01*
X008732Y001181D01*
X008732Y000981D02*
X008574Y000981D01*
X008574Y001137D02*
X008732Y001137D01*
X008259Y001181D02*
X008259Y000825D01*
X008101Y000825D01*
X008101Y001181D01*
X008259Y001181D01*
X008259Y000981D02*
X008101Y000981D01*
X008101Y001137D02*
X008259Y001137D01*
X007787Y001181D02*
X007787Y000825D01*
X007629Y000825D01*
X007629Y001181D01*
X007787Y001181D01*
X007787Y000981D02*
X007629Y000981D01*
X007629Y001137D02*
X007787Y001137D01*
X007314Y001181D02*
X007314Y000825D01*
X007156Y000825D01*
X007156Y001181D01*
X007314Y001181D01*
X007314Y000981D02*
X007156Y000981D01*
X007156Y001137D02*
X007314Y001137D01*
X006842Y001181D02*
X006842Y000825D01*
X006684Y000825D01*
X006684Y001181D01*
X006842Y001181D01*
X006842Y000981D02*
X006684Y000981D01*
X006684Y001137D02*
X006842Y001137D01*
X006370Y001181D02*
X006370Y000825D01*
X006212Y000825D01*
X006212Y001181D01*
X006370Y001181D01*
X006370Y000981D02*
X006212Y000981D01*
X006212Y001137D02*
X006370Y001137D01*
X005897Y001181D02*
X005897Y000825D01*
X005739Y000825D01*
X005739Y001181D01*
X005897Y001181D01*
X005897Y000981D02*
X005739Y000981D01*
X005739Y001137D02*
X005897Y001137D01*
X005425Y001181D02*
X005425Y000825D01*
X005267Y000825D01*
X005267Y001181D01*
X005425Y001181D01*
X005425Y000981D02*
X005267Y000981D01*
X005267Y001137D02*
X005425Y001137D01*
X004952Y001181D02*
X004952Y000825D01*
X004794Y000825D01*
X004794Y001181D01*
X004952Y001181D01*
X004952Y000981D02*
X004794Y000981D01*
X004794Y001137D02*
X004952Y001137D01*
X004480Y001181D02*
X004480Y000825D01*
X004322Y000825D01*
X004322Y001181D01*
X004480Y001181D01*
X004480Y000981D02*
X004322Y000981D01*
X004322Y001137D02*
X004480Y001137D01*
X004480Y006022D02*
X004480Y006378D01*
X004480Y006022D02*
X004322Y006022D01*
X004322Y006378D01*
X004480Y006378D01*
X004480Y006178D02*
X004322Y006178D01*
X004322Y006334D02*
X004480Y006334D01*
X004952Y006378D02*
X004952Y006022D01*
X004794Y006022D01*
X004794Y006378D01*
X004952Y006378D01*
X004952Y006178D02*
X004794Y006178D01*
X004794Y006334D02*
X004952Y006334D01*
X005425Y006378D02*
X005425Y006022D01*
X005267Y006022D01*
X005267Y006378D01*
X005425Y006378D01*
X005425Y006178D02*
X005267Y006178D01*
X005267Y006334D02*
X005425Y006334D01*
X005897Y006378D02*
X005897Y006022D01*
X005739Y006022D01*
X005739Y006378D01*
X005897Y006378D01*
X005897Y006178D02*
X005739Y006178D01*
X005739Y006334D02*
X005897Y006334D01*
X006370Y006378D02*
X006370Y006022D01*
X006212Y006022D01*
X006212Y006378D01*
X006370Y006378D01*
X006370Y006178D02*
X006212Y006178D01*
X006212Y006334D02*
X006370Y006334D01*
X006842Y006378D02*
X006842Y006022D01*
X006684Y006022D01*
X006684Y006378D01*
X006842Y006378D01*
X006842Y006178D02*
X006684Y006178D01*
X006684Y006334D02*
X006842Y006334D01*
X007314Y006378D02*
X007314Y006022D01*
X007156Y006022D01*
X007156Y006378D01*
X007314Y006378D01*
X007314Y006178D02*
X007156Y006178D01*
X007156Y006334D02*
X007314Y006334D01*
X007787Y006378D02*
X007787Y006022D01*
X007629Y006022D01*
X007629Y006378D01*
X007787Y006378D01*
X007787Y006178D02*
X007629Y006178D01*
X007629Y006334D02*
X007787Y006334D01*
X008259Y006378D02*
X008259Y006022D01*
X008101Y006022D01*
X008101Y006378D01*
X008259Y006378D01*
X008259Y006178D02*
X008101Y006178D01*
X008101Y006334D02*
X008259Y006334D01*
X008732Y006378D02*
X008732Y006022D01*
X008574Y006022D01*
X008574Y006378D01*
X008732Y006378D01*
X008732Y006178D02*
X008574Y006178D01*
X008574Y006334D02*
X008732Y006334D01*
X009204Y006378D02*
X009204Y006022D01*
X009046Y006022D01*
X009046Y006378D01*
X009204Y006378D01*
X009204Y006178D02*
X009046Y006178D01*
X009046Y006334D02*
X009204Y006334D01*
X009677Y006378D02*
X009677Y006022D01*
X009519Y006022D01*
X009519Y006378D01*
X009677Y006378D01*
X009677Y006178D02*
X009519Y006178D01*
X009519Y006334D02*
X009677Y006334D01*
D18*
X002576Y012062D02*
X002576Y012190D01*
X002576Y012062D02*
X002330Y012062D01*
X002330Y012190D01*
X002576Y012190D01*
X002576Y012189D02*
X002330Y012189D01*
X002576Y012810D02*
X002576Y012938D01*
X002576Y012810D02*
X002330Y012810D01*
X002330Y012938D01*
X002576Y012938D01*
X002576Y012937D02*
X002330Y012937D01*
X001670Y012564D02*
X001670Y012436D01*
X001424Y012436D01*
X001424Y012564D01*
X001670Y012564D01*
X001670Y012563D02*
X001424Y012563D01*
D19*
X004200Y014200D03*
X005200Y014200D03*
X006200Y014200D03*
X007200Y014200D03*
X008200Y014200D03*
X009200Y014200D03*
X010200Y014200D03*
X011200Y014200D03*
X012200Y014200D03*
X014200Y013200D03*
X014200Y012200D03*
X014200Y011200D03*
X014200Y010200D03*
X014200Y009200D03*
X014200Y008200D03*
X014200Y007200D03*
X014200Y006200D03*
X014200Y005200D03*
X014200Y004200D03*
X014200Y002700D03*
X013200Y002700D03*
X013200Y001700D03*
X012200Y001700D03*
X012200Y002700D03*
D20*
X014200Y001700D03*
D21*
X006996Y012106D02*
X006818Y012106D01*
X006818Y012324D01*
X006996Y012324D01*
X006996Y012106D01*
X006996Y012282D02*
X006818Y012282D01*
X006818Y012676D02*
X006996Y012676D01*
X006818Y012676D02*
X006818Y012894D01*
X006996Y012894D01*
X006996Y012676D01*
X006996Y012852D02*
X006818Y012852D01*
X005382Y012676D02*
X005204Y012676D01*
X005204Y012894D01*
X005382Y012894D01*
X005382Y012676D01*
X005382Y012852D02*
X005204Y012852D01*
X005204Y012106D02*
X005382Y012106D01*
X005204Y012106D02*
X005204Y012324D01*
X005382Y012324D01*
X005382Y012106D01*
X005382Y012282D02*
X005204Y012282D01*
D22*
X003546Y011530D02*
X003476Y011600D01*
X002979Y011600D01*
X002789Y011789D01*
X002719Y011789D01*
X002230Y011300D01*
X002230Y010970D01*
X002300Y010900D01*
X002300Y010550D01*
X002350Y010500D01*
X002250Y010675D02*
X002450Y010675D01*
X002450Y010325D01*
X002250Y010325D01*
X002250Y010675D01*
X002250Y010524D02*
X002450Y010524D01*
X001570Y011070D02*
X001570Y011300D01*
X001547Y011323D01*
X001547Y012500D01*
X002000Y012500D01*
X002453Y012126D02*
X002789Y011789D01*
X001570Y011070D02*
X001500Y011000D01*
X001500Y010550D01*
X001450Y010500D01*
X001350Y010675D02*
X001550Y010675D01*
X001550Y010325D01*
X001350Y010325D01*
X001350Y010675D01*
X001350Y010524D02*
X001550Y010524D01*
D23*
X001740Y010496D02*
X002060Y010496D01*
X002060Y010438D02*
X001740Y010438D01*
X001740Y010379D02*
X002060Y010379D01*
X002060Y010321D02*
X001740Y010321D01*
X001740Y010262D02*
X002060Y010262D01*
X002060Y010246D02*
X002171Y010135D01*
X002529Y010135D01*
X002640Y010246D01*
X002640Y010754D01*
X002529Y010865D01*
X002490Y010865D01*
X002490Y010979D01*
X002420Y011049D01*
X002420Y011068D01*
X002479Y011127D01*
X002520Y011226D01*
X002520Y011321D01*
X002754Y011556D01*
X002900Y011410D01*
X003262Y011410D01*
X003284Y011355D01*
X003371Y011269D01*
X003484Y011222D01*
X003607Y011222D01*
X003720Y011269D01*
X003807Y011355D01*
X003854Y011469D01*
X003854Y011580D01*
X005570Y011580D01*
X005618Y011532D01*
X005618Y011353D01*
X005651Y011320D01*
X005505Y011320D01*
X005505Y011402D01*
X005382Y011525D01*
X005208Y011525D01*
X005118Y011435D01*
X004865Y011435D01*
X004795Y011365D01*
X004750Y011320D01*
X004544Y011320D01*
X004516Y011389D01*
X004429Y011476D01*
X004316Y011523D01*
X004193Y011523D01*
X004080Y011476D01*
X003993Y011389D01*
X003946Y011276D01*
X003946Y011154D01*
X003993Y011040D01*
X004080Y010954D01*
X004193Y010907D01*
X004316Y010907D01*
X004429Y010954D01*
X004516Y011040D01*
X004532Y011080D01*
X004850Y011080D01*
X004965Y011195D01*
X005118Y011195D01*
X005193Y011120D01*
X005050Y011120D01*
X005040Y011110D01*
X004913Y011110D01*
X004790Y010987D01*
X004790Y010813D01*
X004913Y010690D01*
X005087Y010690D01*
X005210Y010813D01*
X005210Y010880D01*
X005657Y010880D01*
X005648Y010871D01*
X005338Y010871D01*
X004732Y010265D01*
X003854Y010265D01*
X003854Y010331D01*
X003807Y010445D01*
X003720Y010531D01*
X003607Y010578D01*
X003484Y010578D01*
X003371Y010531D01*
X003284Y010445D01*
X003238Y010331D01*
X003238Y010209D01*
X003284Y010096D01*
X003371Y010009D01*
X003484Y009962D01*
X003607Y009962D01*
X003616Y009966D01*
X003647Y009935D01*
X004868Y009935D01*
X004965Y010032D01*
X005475Y010541D01*
X005648Y010541D01*
X005711Y010479D01*
X006098Y010479D01*
X006192Y010572D01*
X006192Y010841D01*
X006153Y010880D01*
X006231Y010880D01*
X006366Y010745D01*
X006366Y010566D01*
X006453Y010479D01*
X006695Y010479D01*
X006782Y010566D01*
X006782Y010745D01*
X006932Y010895D01*
X008189Y010895D01*
X008227Y010857D01*
X008169Y010800D01*
X008169Y010739D01*
X007650Y010220D01*
X007580Y010150D01*
X007580Y008650D01*
X008080Y008150D01*
X008080Y006546D01*
X008032Y006546D01*
X007944Y006458D01*
X007857Y006546D01*
X007559Y006546D01*
X007472Y006458D01*
X007384Y006546D01*
X007087Y006546D01*
X006999Y006458D01*
X006912Y006546D01*
X006883Y006546D01*
X006883Y007987D01*
X006920Y008024D01*
X006920Y008223D01*
X007010Y008313D01*
X007010Y008487D01*
X006897Y008600D01*
X007010Y008713D01*
X007010Y008887D01*
X006887Y009010D01*
X006713Y009010D01*
X006590Y008887D01*
X006590Y008760D01*
X006180Y008350D01*
X006180Y006546D01*
X006142Y006546D01*
X006054Y006458D01*
X005967Y006546D01*
X005669Y006546D01*
X005582Y006458D01*
X005494Y006546D01*
X005197Y006546D01*
X005109Y006458D01*
X005022Y006546D01*
X004725Y006546D01*
X004637Y006458D01*
X004549Y006546D01*
X004252Y006546D01*
X004153Y006447D01*
X004153Y005953D01*
X004252Y005854D01*
X004549Y005854D01*
X004637Y005942D01*
X004725Y005854D01*
X005022Y005854D01*
X005109Y005942D01*
X005197Y005854D01*
X005494Y005854D01*
X005582Y005942D01*
X005669Y005854D01*
X005680Y005854D01*
X005680Y005850D01*
X005650Y005820D01*
X004150Y005820D01*
X003160Y006810D01*
X003244Y006810D01*
X003343Y006851D01*
X003419Y006927D01*
X003460Y007026D01*
X003460Y007174D01*
X003419Y007273D01*
X003343Y007349D01*
X003244Y007390D01*
X003096Y007390D01*
X002997Y007349D01*
X002921Y007273D01*
X002900Y007222D01*
X002879Y007273D01*
X002803Y007349D01*
X002704Y007390D01*
X002556Y007390D01*
X002457Y007349D01*
X002420Y007312D01*
X002420Y007550D01*
X002350Y007620D01*
X002255Y007715D01*
X002260Y007726D01*
X002260Y007874D01*
X002219Y007973D01*
X002143Y008049D01*
X002044Y008090D01*
X001896Y008090D01*
X001797Y008049D01*
X001721Y007973D01*
X001680Y007874D01*
X001680Y007726D01*
X001721Y007627D01*
X001797Y007551D01*
X001896Y007510D01*
X002044Y007510D01*
X002098Y007532D01*
X002180Y007450D01*
X002180Y007312D01*
X002143Y007349D01*
X002044Y007390D01*
X001896Y007390D01*
X001797Y007349D01*
X001721Y007273D01*
X001680Y007174D01*
X001680Y007026D01*
X001721Y006927D01*
X001797Y006851D01*
X001880Y006817D01*
X001880Y006650D01*
X001950Y006580D01*
X002150Y006380D01*
X002850Y006380D01*
X002930Y006300D01*
X000330Y006300D01*
X000330Y015070D01*
X015070Y015070D01*
X015070Y000330D01*
X003000Y000330D01*
X003000Y005003D01*
X003113Y004890D01*
X003240Y004890D01*
X004950Y003180D01*
X005750Y003180D01*
X006180Y002750D01*
X006180Y001349D01*
X006142Y001349D01*
X006054Y001261D01*
X005967Y001349D01*
X005669Y001349D01*
X005582Y001261D01*
X005494Y001349D01*
X005420Y001349D01*
X005420Y002723D01*
X005510Y002813D01*
X005510Y002987D01*
X005387Y003110D01*
X005213Y003110D01*
X005090Y002987D01*
X005090Y002813D01*
X005180Y002723D01*
X005180Y001332D01*
X005109Y001261D01*
X005022Y001349D01*
X004725Y001349D01*
X004637Y001261D01*
X004549Y001349D01*
X004252Y001349D01*
X004153Y001250D01*
X004153Y000756D01*
X004252Y000657D01*
X004549Y000657D01*
X004637Y000745D01*
X004725Y000657D01*
X005022Y000657D01*
X005109Y000745D01*
X005197Y000657D01*
X005494Y000657D01*
X005582Y000745D01*
X005669Y000657D01*
X005967Y000657D01*
X006054Y000745D01*
X006142Y000657D01*
X006439Y000657D01*
X006527Y000745D01*
X006614Y000657D01*
X006912Y000657D01*
X006999Y000745D01*
X007087Y000657D01*
X007384Y000657D01*
X007472Y000745D01*
X007559Y000657D01*
X007857Y000657D01*
X007944Y000745D01*
X008032Y000657D01*
X008329Y000657D01*
X008417Y000745D01*
X008504Y000657D01*
X008801Y000657D01*
X008866Y000722D01*
X008879Y000698D01*
X008918Y000659D01*
X008966Y000631D01*
X009019Y000617D01*
X009095Y000617D01*
X009095Y000973D01*
X009155Y000973D01*
X009155Y000617D01*
X009231Y000617D01*
X009285Y000631D01*
X009332Y000659D01*
X009371Y000698D01*
X009385Y000722D01*
X009449Y000657D01*
X009746Y000657D01*
X009845Y000756D01*
X009845Y001250D01*
X009746Y001349D01*
X009718Y001349D01*
X009718Y001521D01*
X009810Y001613D01*
X009810Y001787D01*
X009687Y001910D01*
X009513Y001910D01*
X009390Y001787D01*
X009390Y001613D01*
X009478Y001525D01*
X009478Y001349D01*
X009449Y001349D01*
X009385Y001285D01*
X009371Y001308D01*
X009332Y001347D01*
X009285Y001375D01*
X009231Y001389D01*
X009155Y001389D01*
X009155Y001033D01*
X009095Y001033D01*
X009095Y001389D01*
X009019Y001389D01*
X008966Y001375D01*
X008918Y001347D01*
X008879Y001308D01*
X008866Y001285D01*
X008801Y001349D01*
X008504Y001349D01*
X008417Y001261D01*
X008329Y001349D01*
X008032Y001349D01*
X007944Y001261D01*
X007857Y001349D01*
X007559Y001349D01*
X007472Y001261D01*
X007384Y001349D01*
X007087Y001349D01*
X006999Y001261D01*
X006912Y001349D01*
X006614Y001349D01*
X006527Y001261D01*
X006439Y001349D01*
X006420Y001349D01*
X006420Y002850D01*
X005920Y003350D01*
X005850Y003420D01*
X005050Y003420D01*
X003410Y005060D01*
X003410Y005187D01*
X003287Y005310D01*
X003113Y005310D01*
X003000Y005197D01*
X003000Y006230D01*
X004980Y004250D01*
X005050Y004180D01*
X010354Y004180D01*
X010354Y004162D01*
X010442Y004074D01*
X010354Y003986D01*
X010354Y003689D01*
X010442Y003602D01*
X010354Y003514D01*
X010354Y003217D01*
X010442Y003129D01*
X010354Y003042D01*
X010354Y002744D01*
X010453Y002645D01*
X010947Y002645D01*
X011046Y002744D01*
X011046Y003042D01*
X010958Y003129D01*
X011046Y003217D01*
X011046Y003514D01*
X010958Y003602D01*
X011046Y003689D01*
X011046Y003986D01*
X010958Y004074D01*
X011046Y004162D01*
X011046Y004459D01*
X010947Y004558D01*
X010453Y004558D01*
X010354Y004459D01*
X010354Y004420D01*
X005150Y004420D01*
X003020Y006550D01*
X002950Y006620D01*
X002250Y006620D01*
X002120Y006750D01*
X002120Y006842D01*
X002143Y006851D01*
X002186Y006894D01*
X002380Y006700D01*
X002450Y006630D01*
X003000Y006630D01*
X003980Y005650D01*
X004050Y005580D01*
X005750Y005580D01*
X005850Y005680D01*
X005920Y005750D01*
X005920Y005854D01*
X005967Y005854D01*
X006054Y005942D01*
X006142Y005854D01*
X006439Y005854D01*
X006527Y005942D01*
X006614Y005854D01*
X006912Y005854D01*
X006999Y005942D01*
X007087Y005854D01*
X007384Y005854D01*
X007472Y005942D01*
X007559Y005854D01*
X007857Y005854D01*
X007944Y005942D01*
X008032Y005854D01*
X008329Y005854D01*
X008417Y005942D01*
X008504Y005854D01*
X008801Y005854D01*
X008889Y005942D01*
X008977Y005854D01*
X009274Y005854D01*
X009361Y005942D01*
X009449Y005854D01*
X009746Y005854D01*
X009845Y005953D01*
X009845Y006447D01*
X009746Y006546D01*
X009720Y006546D01*
X009720Y007510D01*
X010180Y007050D01*
X010180Y006550D01*
X012580Y004150D01*
X012580Y002854D01*
X012548Y002932D01*
X012432Y003048D01*
X012282Y003110D01*
X012118Y003110D01*
X011968Y003048D01*
X011852Y002932D01*
X011790Y002782D01*
X011790Y002618D01*
X011852Y002468D01*
X011968Y002352D01*
X012118Y002290D01*
X012282Y002290D01*
X012432Y002352D01*
X012548Y002468D01*
X012580Y002546D01*
X012580Y002450D01*
X012880Y002150D01*
X012950Y002080D01*
X012957Y002080D01*
X012907Y002043D01*
X012857Y001993D01*
X012815Y001936D01*
X012783Y001873D01*
X012761Y001805D01*
X012750Y001735D01*
X012750Y001730D01*
X013170Y001730D01*
X013170Y001670D01*
X013230Y001670D01*
X013230Y001730D01*
X013650Y001730D01*
X013650Y001735D01*
X013639Y001805D01*
X013617Y001873D01*
X013585Y001936D01*
X013543Y001993D01*
X013493Y002043D01*
X013443Y002080D01*
X013650Y002080D01*
X013790Y001940D01*
X013790Y001343D01*
X013843Y001290D01*
X014557Y001290D01*
X014610Y001343D01*
X014610Y002057D01*
X014557Y002110D01*
X013960Y002110D01*
X013750Y002320D01*
X013354Y002320D01*
X013432Y002352D01*
X013548Y002468D01*
X013610Y002618D01*
X013610Y002782D01*
X013548Y002932D01*
X013432Y003048D01*
X013320Y003094D01*
X013320Y004150D01*
X013250Y004220D01*
X013250Y004220D01*
X010720Y006750D01*
X010720Y006772D01*
X010752Y006739D01*
X010803Y006705D01*
X010860Y006682D01*
X010919Y006670D01*
X010940Y006670D01*
X010940Y006970D01*
X011000Y006970D01*
X011000Y007030D01*
X010940Y007030D01*
X010940Y007330D01*
X010919Y007330D01*
X010860Y007318D01*
X010803Y007295D01*
X010752Y007261D01*
X010709Y007218D01*
X010675Y007167D01*
X010654Y007116D01*
X010460Y007310D01*
X010544Y007310D01*
X010643Y007351D01*
X010719Y007427D01*
X010760Y007526D01*
X010760Y007674D01*
X010719Y007773D01*
X010643Y007849D01*
X010544Y007890D01*
X010505Y007890D01*
X010505Y008189D01*
X010543Y008227D01*
X010580Y008189D01*
X010580Y007980D01*
X010854Y007707D01*
X010840Y007674D01*
X010840Y007526D01*
X010881Y007427D01*
X010957Y007351D01*
X011008Y007330D01*
X011000Y007330D01*
X011000Y007030D01*
X011300Y007030D01*
X011300Y007051D01*
X011288Y007110D01*
X011265Y007167D01*
X011231Y007218D01*
X011188Y007261D01*
X011137Y007295D01*
X011100Y007310D01*
X011150Y007310D01*
X011354Y007107D01*
X011340Y007074D01*
X011340Y006926D01*
X011381Y006827D01*
X011457Y006751D01*
X011556Y006710D01*
X011704Y006710D01*
X011803Y006751D01*
X011879Y006827D01*
X011920Y006926D01*
X011920Y007074D01*
X011879Y007173D01*
X011803Y007249D01*
X011704Y007290D01*
X011556Y007290D01*
X011523Y007276D01*
X011376Y007424D01*
X011379Y007427D01*
X011420Y007526D01*
X011420Y007674D01*
X011394Y007736D01*
X013680Y005450D01*
X013750Y005380D01*
X013831Y005380D01*
X013790Y005282D01*
X013790Y005118D01*
X013852Y004968D01*
X013968Y004852D01*
X014118Y004790D01*
X014282Y004790D01*
X014432Y004852D01*
X014548Y004968D01*
X014610Y005118D01*
X014610Y005282D01*
X014548Y005432D01*
X014432Y005548D01*
X014282Y005610D01*
X014118Y005610D01*
X014006Y005564D01*
X013950Y005620D01*
X013850Y005620D01*
X011990Y007480D01*
X012750Y007480D01*
X013836Y006394D01*
X013790Y006282D01*
X013790Y006118D01*
X013852Y005968D01*
X013968Y005852D01*
X014118Y005790D01*
X014282Y005790D01*
X014432Y005852D01*
X014548Y005968D01*
X014610Y006118D01*
X014610Y006282D01*
X014548Y006432D01*
X014432Y006548D01*
X014282Y006610D01*
X014118Y006610D01*
X014006Y006564D01*
X012850Y007720D01*
X012050Y007720D01*
X011990Y007780D01*
X013450Y007780D01*
X013836Y007394D01*
X013790Y007282D01*
X013790Y007118D01*
X013852Y006968D01*
X013968Y006852D01*
X014118Y006790D01*
X014282Y006790D01*
X014432Y006852D01*
X014548Y006968D01*
X014610Y007118D01*
X014610Y007282D01*
X014548Y007432D01*
X014432Y007548D01*
X014282Y007610D01*
X014118Y007610D01*
X014006Y007564D01*
X013590Y007980D01*
X013847Y007980D01*
X013852Y007968D01*
X013968Y007852D01*
X014118Y007790D01*
X014282Y007790D01*
X014432Y007852D01*
X014548Y007968D01*
X014610Y008118D01*
X014610Y008282D01*
X014548Y008432D01*
X014432Y008548D01*
X014282Y008610D01*
X014118Y008610D01*
X013968Y008548D01*
X013852Y008432D01*
X013790Y008282D01*
X013790Y008220D01*
X012426Y008220D01*
X012453Y008248D01*
X012453Y008375D01*
X013545Y008375D01*
X014006Y008836D01*
X014118Y008790D01*
X014282Y008790D01*
X014432Y008852D01*
X014548Y008968D01*
X014610Y009118D01*
X014610Y009282D01*
X014548Y009432D01*
X014432Y009548D01*
X014282Y009610D01*
X014118Y009610D01*
X013968Y009548D01*
X013852Y009432D01*
X013790Y009282D01*
X013790Y009118D01*
X013836Y009006D01*
X013446Y008615D01*
X012453Y008615D01*
X012453Y008743D01*
X012375Y008821D01*
X012175Y008821D01*
X012117Y008764D01*
X012060Y008821D01*
X011860Y008821D01*
X011802Y008764D01*
X011745Y008821D01*
X011545Y008821D01*
X011487Y008764D01*
X011430Y008821D01*
X011230Y008821D01*
X011172Y008764D01*
X011115Y008821D01*
X010915Y008821D01*
X010857Y008764D01*
X010800Y008821D01*
X010618Y008821D01*
X010710Y008913D01*
X010710Y009087D01*
X010587Y009210D01*
X010413Y009210D01*
X010290Y009087D01*
X010290Y008960D01*
X010265Y008935D01*
X010265Y008801D01*
X010228Y008764D01*
X010170Y008821D01*
X009970Y008821D01*
X009913Y008764D01*
X009855Y008821D01*
X009655Y008821D01*
X009598Y008764D01*
X009540Y008821D01*
X009340Y008821D01*
X009283Y008764D01*
X009225Y008821D01*
X009025Y008821D01*
X008947Y008743D01*
X008947Y008323D01*
X008615Y008654D01*
X008615Y008947D01*
X008743Y008947D01*
X008821Y009025D01*
X008821Y009225D01*
X008764Y009283D01*
X008821Y009340D01*
X008821Y009540D01*
X008792Y009570D01*
X008794Y009571D01*
X008827Y009604D01*
X008850Y009644D01*
X008861Y009688D01*
X008861Y009741D01*
X008510Y009741D01*
X008510Y009769D01*
X008861Y009769D01*
X008861Y009822D01*
X008850Y009867D01*
X008827Y009906D01*
X008794Y009939D01*
X008792Y009940D01*
X008801Y009950D01*
X008920Y009950D01*
X008960Y009990D01*
X009087Y009990D01*
X009210Y010113D01*
X009210Y010287D01*
X009087Y010410D01*
X008913Y010410D01*
X008821Y010318D01*
X008821Y010485D01*
X008764Y010543D01*
X008821Y010600D01*
X008821Y010800D01*
X008764Y010857D01*
X008821Y010915D01*
X008821Y011115D01*
X008764Y011172D01*
X008821Y011230D01*
X008821Y011430D01*
X008764Y011487D01*
X008821Y011545D01*
X008821Y011745D01*
X008764Y011802D01*
X008821Y011860D01*
X008821Y012060D01*
X008764Y012117D01*
X008821Y012175D01*
X008821Y012309D01*
X010380Y010750D01*
X010380Y010250D01*
X010750Y009880D01*
X011650Y009880D01*
X011720Y009950D01*
X011750Y009980D01*
X012579Y009980D01*
X012579Y009970D01*
X011739Y009970D01*
X011681Y009911D02*
X012635Y009911D01*
X012636Y009913D02*
X012579Y009855D01*
X012579Y009655D01*
X012636Y009598D01*
X012579Y009540D01*
X012579Y009340D01*
X012636Y009283D01*
X012579Y009225D01*
X012579Y009025D01*
X012657Y008947D01*
X013152Y008947D01*
X013211Y009005D01*
X013375Y009005D01*
X013445Y009075D01*
X013445Y009075D01*
X014160Y009790D01*
X014282Y009790D01*
X014432Y009852D01*
X014548Y009968D01*
X014610Y010118D01*
X014610Y010282D01*
X014548Y010432D01*
X014432Y010548D01*
X014282Y010610D01*
X014118Y010610D01*
X013968Y010548D01*
X013852Y010432D01*
X013820Y010354D01*
X013820Y010650D01*
X014006Y010836D01*
X014118Y010790D01*
X014282Y010790D01*
X014432Y010852D01*
X014548Y010968D01*
X014610Y011118D01*
X014610Y011282D01*
X014548Y011432D01*
X015070Y011432D01*
X015070Y011374D02*
X014572Y011374D01*
X014548Y011432D02*
X014432Y011548D01*
X014282Y011610D01*
X014118Y011610D01*
X013968Y011548D01*
X013852Y011432D01*
X013670Y011432D01*
X013670Y011374D02*
X013828Y011374D01*
X013852Y011432D02*
X013790Y011282D01*
X013790Y011118D01*
X013836Y011006D01*
X013670Y010840D01*
X013670Y011500D01*
X014006Y011836D01*
X014118Y011790D01*
X014282Y011790D01*
X014432Y011852D01*
X014548Y011968D01*
X014610Y012118D01*
X014610Y012282D01*
X014548Y012432D01*
X014432Y012548D01*
X014282Y012610D01*
X014118Y012610D01*
X013968Y012548D01*
X013852Y012432D01*
X013790Y012282D01*
X013790Y012118D01*
X013836Y012006D01*
X013430Y011600D01*
X013430Y010100D01*
X013208Y009878D01*
X013173Y009913D01*
X013231Y009970D01*
X013231Y010170D01*
X013173Y010228D01*
X013231Y010285D01*
X013231Y010485D01*
X013173Y010543D01*
X013231Y010600D01*
X013231Y010800D01*
X013173Y010857D01*
X013231Y010915D01*
X013231Y011115D01*
X013173Y011172D01*
X013231Y011230D01*
X013231Y011430D01*
X013201Y011460D01*
X013204Y011461D01*
X013236Y011494D01*
X013259Y011533D01*
X013271Y011578D01*
X013271Y011631D01*
X012919Y011631D01*
X012919Y011659D01*
X013271Y011659D01*
X013271Y011712D01*
X013259Y011756D01*
X013236Y011796D01*
X013204Y011829D01*
X013201Y011830D01*
X013231Y011860D01*
X013231Y012060D01*
X013173Y012117D01*
X013231Y012175D01*
X013231Y012375D01*
X013152Y012453D01*
X012657Y012453D01*
X012579Y012375D01*
X012579Y012320D01*
X012290Y012320D01*
X012395Y012425D01*
X012395Y012599D01*
X012453Y012657D01*
X012453Y013152D01*
X012375Y013231D01*
X012175Y013231D01*
X012117Y013173D01*
X012080Y013211D01*
X012080Y013490D01*
X011564Y014006D01*
X011837Y014006D01*
X011852Y013968D02*
X011968Y013852D01*
X012118Y013790D01*
X012282Y013790D01*
X012432Y013852D01*
X012548Y013968D01*
X012610Y014118D01*
X012610Y014282D01*
X012548Y014432D01*
X012432Y014548D01*
X012282Y014610D01*
X012118Y014610D01*
X011968Y014548D01*
X011852Y014432D01*
X011790Y014282D01*
X011790Y014118D01*
X011852Y013968D01*
X011873Y013948D02*
X011622Y013948D01*
X011564Y014006D02*
X011610Y014118D01*
X011610Y014282D01*
X011548Y014432D01*
X011432Y014548D01*
X011282Y014610D01*
X011118Y014610D01*
X010968Y014548D01*
X010852Y014432D01*
X010790Y014282D01*
X010790Y014118D01*
X010852Y013968D01*
X010950Y013870D01*
X010700Y013870D01*
X010564Y014006D01*
X010837Y014006D01*
X010812Y014065D02*
X010588Y014065D01*
X010610Y014118D02*
X010610Y014282D01*
X010548Y014432D01*
X010432Y014548D01*
X010282Y014610D01*
X010118Y014610D01*
X009968Y014548D01*
X009852Y014432D01*
X009790Y014282D01*
X009790Y014118D01*
X009852Y013968D01*
X009968Y013852D01*
X010118Y013790D01*
X010282Y013790D01*
X010394Y013836D01*
X010560Y013670D01*
X010000Y013670D01*
X009720Y013950D01*
X009650Y014020D01*
X009569Y014020D01*
X009610Y014118D01*
X009610Y014282D01*
X009548Y014432D01*
X009432Y014548D01*
X009282Y014610D01*
X009118Y014610D01*
X008968Y014548D01*
X008852Y014432D01*
X008790Y014282D01*
X008790Y014118D01*
X008852Y013968D01*
X008968Y013852D01*
X009046Y013820D01*
X008750Y013820D01*
X008564Y014006D01*
X008837Y014006D01*
X008812Y014065D02*
X008588Y014065D01*
X008610Y014118D02*
X008610Y014282D01*
X008548Y014432D01*
X008432Y014548D01*
X008282Y014610D01*
X008118Y014610D01*
X007968Y014548D01*
X007852Y014432D01*
X007790Y014282D01*
X007790Y014118D01*
X007852Y013968D01*
X007968Y013852D01*
X008118Y013790D01*
X008282Y013790D01*
X008394Y013836D01*
X008560Y013670D01*
X007900Y013670D01*
X007564Y014006D01*
X007837Y014006D01*
X007812Y014065D02*
X007588Y014065D01*
X007610Y014118D02*
X007564Y014006D01*
X007622Y013948D02*
X007873Y013948D01*
X007931Y013889D02*
X007681Y013889D01*
X007739Y013831D02*
X008021Y013831D01*
X007856Y013714D02*
X008517Y013714D01*
X008458Y013772D02*
X007798Y013772D01*
X007850Y013550D02*
X009550Y013550D01*
X009850Y013250D01*
X010650Y013250D01*
X010700Y013200D01*
X010700Y012905D01*
X010857Y012636D02*
X010915Y012579D01*
X011115Y012579D01*
X011172Y012636D01*
X011230Y012579D01*
X011430Y012579D01*
X011487Y012636D01*
X011545Y012579D01*
X011745Y012579D01*
X011802Y012636D01*
X011860Y012579D01*
X012060Y012579D01*
X012117Y012636D01*
X012155Y012599D01*
X012155Y012525D01*
X010950Y011320D01*
X010880Y011250D01*
X010880Y010877D01*
X010790Y010787D01*
X010790Y010613D01*
X010913Y010490D01*
X011043Y010490D01*
X011040Y010487D01*
X011040Y010313D01*
X011163Y010190D01*
X011337Y010190D01*
X011460Y010313D01*
X011460Y010487D01*
X011370Y010577D01*
X011370Y010833D01*
X011413Y010790D01*
X011587Y010790D01*
X011710Y010913D01*
X011710Y011087D01*
X011683Y011114D01*
X012410Y011840D01*
X012599Y011840D01*
X012608Y011830D01*
X012606Y011829D01*
X012573Y011796D01*
X012550Y011756D01*
X012539Y011712D01*
X012539Y011659D01*
X012890Y011659D01*
X012890Y011631D01*
X012539Y011631D01*
X012539Y011578D01*
X012550Y011533D01*
X012573Y011494D01*
X012606Y011461D01*
X012608Y011460D01*
X012599Y011450D01*
X012480Y011450D01*
X012440Y011410D01*
X012313Y011410D01*
X012190Y011287D01*
X012190Y011113D01*
X012313Y010990D01*
X012487Y010990D01*
X012579Y011082D01*
X012579Y010915D01*
X012636Y010857D01*
X012579Y010800D01*
X012579Y010600D01*
X012636Y010543D01*
X012579Y010485D01*
X012579Y010285D01*
X012636Y010228D01*
X012629Y010220D01*
X011650Y010220D01*
X011550Y010120D01*
X010850Y010120D01*
X010620Y010350D01*
X010620Y010850D01*
X010550Y010920D01*
X008780Y012690D01*
X008887Y012690D01*
X008947Y012750D01*
X008947Y012657D01*
X009025Y012579D01*
X009225Y012579D01*
X009283Y012636D01*
X009340Y012579D01*
X009540Y012579D01*
X009598Y012636D01*
X009655Y012579D01*
X009855Y012579D01*
X009885Y012608D01*
X009886Y012606D01*
X009919Y012573D01*
X009959Y012550D01*
X010003Y012539D01*
X010056Y012539D01*
X010056Y012890D01*
X010084Y012890D01*
X010084Y012539D01*
X010137Y012539D01*
X010182Y012550D01*
X010221Y012573D01*
X010254Y012606D01*
X010255Y012608D01*
X010265Y012599D01*
X010265Y012565D01*
X010390Y012440D01*
X010390Y012313D01*
X010513Y012190D01*
X010687Y012190D01*
X010810Y012313D01*
X010810Y012487D01*
X010718Y012579D01*
X010800Y012579D01*
X010857Y012636D01*
X010823Y012602D02*
X010891Y012602D01*
X010810Y012485D02*
X012115Y012485D01*
X012155Y012544D02*
X010753Y012544D01*
X010810Y012427D02*
X012057Y012427D01*
X011998Y012368D02*
X010810Y012368D01*
X010807Y012310D02*
X011940Y012310D01*
X011881Y012251D02*
X010748Y012251D01*
X010690Y012193D02*
X011823Y012193D01*
X011764Y012134D02*
X009336Y012134D01*
X009394Y012076D02*
X011706Y012076D01*
X011647Y012017D02*
X009453Y012017D01*
X009511Y011959D02*
X011589Y011959D01*
X011530Y011900D02*
X009570Y011900D01*
X009628Y011842D02*
X011472Y011842D01*
X011413Y011783D02*
X009687Y011783D01*
X009745Y011725D02*
X011355Y011725D01*
X011296Y011666D02*
X009804Y011666D01*
X009862Y011608D02*
X011238Y011608D01*
X011179Y011549D02*
X009921Y011549D01*
X009979Y011491D02*
X011121Y011491D01*
X011062Y011432D02*
X010038Y011432D01*
X010096Y011374D02*
X011004Y011374D01*
X010950Y011320D02*
X010950Y011320D01*
X010945Y011315D02*
X010155Y011315D01*
X010213Y011257D02*
X010887Y011257D01*
X010880Y011198D02*
X010272Y011198D01*
X010330Y011140D02*
X010880Y011140D01*
X010880Y011081D02*
X010389Y011081D01*
X010447Y011023D02*
X010880Y011023D01*
X010880Y010964D02*
X010506Y010964D01*
X010564Y010906D02*
X010880Y010906D01*
X010850Y010847D02*
X010620Y010847D01*
X010620Y010789D02*
X010792Y010789D01*
X010790Y010730D02*
X010620Y010730D01*
X010620Y010672D02*
X010790Y010672D01*
X010790Y010613D02*
X010620Y010613D01*
X010620Y010555D02*
X010848Y010555D01*
X010907Y010496D02*
X010620Y010496D01*
X010620Y010438D02*
X011040Y010438D01*
X011040Y010379D02*
X010620Y010379D01*
X010649Y010321D02*
X011040Y010321D01*
X011091Y010262D02*
X010708Y010262D01*
X010766Y010204D02*
X011149Y010204D01*
X011250Y010400D02*
X011250Y011150D01*
X012300Y012200D01*
X012830Y012200D01*
X012905Y012275D01*
X013179Y012427D02*
X013850Y012427D01*
X013826Y012368D02*
X013231Y012368D01*
X013231Y012310D02*
X013802Y012310D01*
X013790Y012251D02*
X013231Y012251D01*
X013231Y012193D02*
X013790Y012193D01*
X013790Y012134D02*
X013190Y012134D01*
X013215Y012076D02*
X013808Y012076D01*
X013832Y012017D02*
X013231Y012017D01*
X013231Y011959D02*
X013789Y011959D01*
X013730Y011900D02*
X013231Y011900D01*
X013213Y011842D02*
X013672Y011842D01*
X013613Y011783D02*
X013244Y011783D01*
X013268Y011725D02*
X013555Y011725D01*
X013496Y011666D02*
X013271Y011666D01*
X013271Y011608D02*
X013438Y011608D01*
X013430Y011549D02*
X013263Y011549D01*
X013233Y011491D02*
X013430Y011491D01*
X013430Y011432D02*
X013229Y011432D01*
X013231Y011374D02*
X013430Y011374D01*
X013430Y011315D02*
X013231Y011315D01*
X013231Y011257D02*
X013430Y011257D01*
X013430Y011198D02*
X013199Y011198D01*
X013206Y011140D02*
X013430Y011140D01*
X013430Y011081D02*
X013231Y011081D01*
X013231Y011023D02*
X013430Y011023D01*
X013430Y010964D02*
X013231Y010964D01*
X013221Y010906D02*
X013430Y010906D01*
X013430Y010847D02*
X013184Y010847D01*
X013231Y010789D02*
X013430Y010789D01*
X013430Y010730D02*
X013231Y010730D01*
X013231Y010672D02*
X013430Y010672D01*
X013430Y010613D02*
X013231Y010613D01*
X013185Y010555D02*
X013430Y010555D01*
X013430Y010496D02*
X013220Y010496D01*
X013231Y010438D02*
X013430Y010438D01*
X013430Y010379D02*
X013231Y010379D01*
X013231Y010321D02*
X013430Y010321D01*
X013430Y010262D02*
X013208Y010262D01*
X013197Y010204D02*
X013430Y010204D01*
X013430Y010145D02*
X013231Y010145D01*
X013231Y010087D02*
X013417Y010087D01*
X013358Y010028D02*
X013231Y010028D01*
X013230Y009970D02*
X013300Y009970D01*
X013241Y009911D02*
X013175Y009911D01*
X013255Y009755D02*
X012905Y009755D01*
X012636Y009913D02*
X012579Y009970D01*
X012579Y009853D02*
X008853Y009853D01*
X008861Y009794D02*
X012579Y009794D01*
X012579Y009736D02*
X008861Y009736D01*
X008859Y009677D02*
X012579Y009677D01*
X012615Y009619D02*
X008835Y009619D01*
X008802Y009560D02*
X012598Y009560D01*
X012579Y009502D02*
X008821Y009502D01*
X008821Y009443D02*
X012579Y009443D01*
X012579Y009385D02*
X008821Y009385D01*
X008807Y009326D02*
X012593Y009326D01*
X012621Y009268D02*
X008779Y009268D01*
X008821Y009209D02*
X010412Y009209D01*
X010354Y009151D02*
X008821Y009151D01*
X008821Y009092D02*
X010295Y009092D01*
X010290Y009034D02*
X008821Y009034D01*
X008771Y008975D02*
X010290Y008975D01*
X010265Y008917D02*
X008615Y008917D01*
X008615Y008858D02*
X010265Y008858D01*
X010263Y008800D02*
X010192Y008800D01*
X010385Y008885D02*
X010500Y009000D01*
X010385Y008885D02*
X010385Y008495D01*
X010385Y007815D01*
X010470Y007600D01*
X010609Y007337D02*
X010991Y007337D01*
X011000Y007279D02*
X010940Y007279D01*
X010940Y007220D02*
X011000Y007220D01*
X011000Y007162D02*
X010940Y007162D01*
X010940Y007103D02*
X011000Y007103D01*
X011000Y007045D02*
X010940Y007045D01*
X011000Y006986D02*
X011340Y006986D01*
X011300Y006970D02*
X011000Y006970D01*
X011000Y006670D01*
X011021Y006670D01*
X011080Y006682D01*
X011137Y006705D01*
X011188Y006739D01*
X011231Y006782D01*
X011265Y006833D01*
X011288Y006890D01*
X011300Y006949D01*
X011300Y006970D01*
X011296Y006928D02*
X011340Y006928D01*
X011364Y006869D02*
X011280Y006869D01*
X011250Y006811D02*
X011398Y006811D01*
X011456Y006752D02*
X011200Y006752D01*
X011108Y006694D02*
X012437Y006694D01*
X012378Y006752D02*
X011804Y006752D01*
X011862Y006811D02*
X012320Y006811D01*
X012261Y006869D02*
X011896Y006869D01*
X011920Y006928D02*
X012203Y006928D01*
X012144Y006986D02*
X011920Y006986D01*
X011920Y007045D02*
X012086Y007045D01*
X012027Y007103D02*
X011908Y007103D01*
X011884Y007162D02*
X011969Y007162D01*
X011910Y007220D02*
X011832Y007220D01*
X011852Y007279D02*
X011731Y007279D01*
X011793Y007337D02*
X011463Y007337D01*
X011521Y007279D02*
X011529Y007279D01*
X011404Y007396D02*
X011735Y007396D01*
X011676Y007454D02*
X011390Y007454D01*
X011414Y007513D02*
X011618Y007513D01*
X011559Y007571D02*
X011420Y007571D01*
X011420Y007630D02*
X011501Y007630D01*
X011442Y007688D02*
X011414Y007688D01*
X011130Y007600D02*
X011130Y007500D01*
X011630Y007000D01*
X011352Y007103D02*
X011290Y007103D01*
X011299Y007162D02*
X011267Y007162D01*
X011240Y007220D02*
X011228Y007220D01*
X011182Y007279D02*
X011161Y007279D01*
X011300Y007045D02*
X011340Y007045D01*
X011000Y006928D02*
X010940Y006928D01*
X010940Y006869D02*
X011000Y006869D01*
X011000Y006811D02*
X010940Y006811D01*
X010940Y006752D02*
X011000Y006752D01*
X011000Y006694D02*
X010940Y006694D01*
X010832Y006694D02*
X010776Y006694D01*
X010740Y006752D02*
X010720Y006752D01*
X010600Y006700D02*
X010600Y007000D01*
X009450Y008150D01*
X009450Y008485D01*
X009440Y008495D01*
X009125Y008495D02*
X009100Y008470D01*
X009100Y008300D01*
X010300Y007100D01*
X010300Y006600D01*
X012700Y004200D01*
X012700Y002500D01*
X013000Y002200D01*
X013700Y002200D01*
X014200Y001700D01*
X013821Y001312D02*
X013429Y001312D01*
X013436Y001315D02*
X013493Y001357D01*
X013543Y001407D01*
X013585Y001464D01*
X013617Y001527D01*
X013639Y001595D01*
X013650Y001665D01*
X013650Y001670D01*
X013230Y001670D01*
X013230Y001250D01*
X013235Y001250D01*
X013305Y001261D01*
X013373Y001283D01*
X013436Y001315D01*
X013506Y001370D02*
X013790Y001370D01*
X013790Y001429D02*
X013559Y001429D01*
X013597Y001487D02*
X013790Y001487D01*
X013790Y001546D02*
X013623Y001546D01*
X013640Y001604D02*
X013790Y001604D01*
X013790Y001663D02*
X013650Y001663D01*
X013643Y001780D02*
X013790Y001780D01*
X013790Y001838D02*
X013628Y001838D01*
X013605Y001897D02*
X013790Y001897D01*
X013775Y001955D02*
X013571Y001955D01*
X013523Y002014D02*
X013717Y002014D01*
X013658Y002072D02*
X013454Y002072D01*
X013444Y002365D02*
X013956Y002365D01*
X013968Y002352D02*
X014118Y002290D01*
X014282Y002290D01*
X014432Y002352D01*
X014548Y002468D01*
X014610Y002618D01*
X014610Y002782D01*
X014548Y002932D01*
X014432Y003048D01*
X014282Y003110D01*
X014118Y003110D01*
X013968Y003048D01*
X013852Y002932D01*
X013790Y002782D01*
X013790Y002618D01*
X013852Y002468D01*
X013968Y002352D01*
X013897Y002423D02*
X013503Y002423D01*
X013553Y002482D02*
X013847Y002482D01*
X013822Y002540D02*
X013578Y002540D01*
X013602Y002599D02*
X013798Y002599D01*
X013790Y002657D02*
X013610Y002657D01*
X013610Y002716D02*
X013790Y002716D01*
X013790Y002774D02*
X013610Y002774D01*
X013589Y002833D02*
X013811Y002833D01*
X013835Y002891D02*
X013565Y002891D01*
X013530Y002950D02*
X013870Y002950D01*
X013928Y003008D02*
X013472Y003008D01*
X013387Y003067D02*
X014013Y003067D01*
X014387Y003067D02*
X015070Y003067D01*
X015070Y003125D02*
X013320Y003125D01*
X013320Y003184D02*
X015070Y003184D01*
X015070Y003242D02*
X013320Y003242D01*
X013320Y003301D02*
X015070Y003301D01*
X015070Y003359D02*
X013320Y003359D01*
X013320Y003418D02*
X015070Y003418D01*
X015070Y003476D02*
X013320Y003476D01*
X013320Y003535D02*
X015070Y003535D01*
X015070Y003593D02*
X013320Y003593D01*
X013320Y003652D02*
X015070Y003652D01*
X015070Y003710D02*
X013320Y003710D01*
X013320Y003769D02*
X015070Y003769D01*
X015070Y003827D02*
X014371Y003827D01*
X014432Y003852D02*
X014282Y003790D01*
X014118Y003790D01*
X013968Y003852D01*
X013852Y003968D01*
X013790Y004118D01*
X013790Y004282D01*
X013852Y004432D01*
X013968Y004548D01*
X014118Y004610D01*
X014282Y004610D01*
X014432Y004548D01*
X014548Y004432D01*
X014610Y004282D01*
X014610Y004118D01*
X014548Y003968D01*
X014432Y003852D01*
X014465Y003886D02*
X015070Y003886D01*
X015070Y003944D02*
X014524Y003944D01*
X014562Y004003D02*
X015070Y004003D01*
X015070Y004061D02*
X014586Y004061D01*
X014610Y004120D02*
X015070Y004120D01*
X015070Y004178D02*
X014610Y004178D01*
X014610Y004237D02*
X015070Y004237D01*
X015070Y004295D02*
X014604Y004295D01*
X014580Y004354D02*
X015070Y004354D01*
X015070Y004412D02*
X014556Y004412D01*
X014509Y004471D02*
X015070Y004471D01*
X015070Y004529D02*
X014451Y004529D01*
X014336Y004588D02*
X015070Y004588D01*
X015070Y004646D02*
X012824Y004646D01*
X012882Y004588D02*
X014064Y004588D01*
X013949Y004529D02*
X012941Y004529D01*
X012999Y004471D02*
X013891Y004471D01*
X013844Y004412D02*
X013058Y004412D01*
X013116Y004354D02*
X013820Y004354D01*
X013796Y004295D02*
X013175Y004295D01*
X013233Y004237D02*
X013790Y004237D01*
X013790Y004178D02*
X013292Y004178D01*
X013320Y004120D02*
X013790Y004120D01*
X013814Y004061D02*
X013320Y004061D01*
X013320Y004003D02*
X013838Y004003D01*
X013876Y003944D02*
X013320Y003944D01*
X013320Y003886D02*
X013935Y003886D01*
X014029Y003827D02*
X013320Y003827D01*
X013200Y004100D02*
X013200Y002700D01*
X012783Y002248D02*
X011444Y002248D01*
X011387Y002190D02*
X011213Y002190D01*
X011142Y002261D01*
X011046Y002261D01*
X011046Y002232D01*
X010998Y002184D01*
X011046Y002136D01*
X011046Y001839D01*
X010947Y001740D01*
X010453Y001740D01*
X010354Y001839D01*
X010354Y002136D01*
X010402Y002184D01*
X010354Y002232D01*
X010354Y002530D01*
X010453Y002629D01*
X010947Y002629D01*
X011046Y002530D01*
X011046Y002501D01*
X011104Y002501D01*
X011213Y002610D01*
X011387Y002610D01*
X011510Y002487D01*
X011510Y002313D01*
X011387Y002190D01*
X011503Y002306D02*
X012080Y002306D01*
X011956Y002365D02*
X011510Y002365D01*
X011510Y002423D02*
X011897Y002423D01*
X011847Y002482D02*
X011510Y002482D01*
X011457Y002540D02*
X011822Y002540D01*
X011798Y002599D02*
X011398Y002599D01*
X011202Y002599D02*
X010977Y002599D01*
X010959Y002657D02*
X011790Y002657D01*
X011790Y002716D02*
X011017Y002716D01*
X011046Y002774D02*
X011790Y002774D01*
X011811Y002833D02*
X011046Y002833D01*
X011046Y002891D02*
X011835Y002891D01*
X011870Y002950D02*
X011046Y002950D01*
X011046Y003008D02*
X011928Y003008D01*
X012013Y003067D02*
X011021Y003067D01*
X010962Y003125D02*
X012580Y003125D01*
X012580Y003067D02*
X012387Y003067D01*
X012472Y003008D02*
X012580Y003008D01*
X012580Y002950D02*
X012530Y002950D01*
X012565Y002891D02*
X012580Y002891D01*
X012580Y003184D02*
X011013Y003184D01*
X011046Y003242D02*
X012580Y003242D01*
X012580Y003301D02*
X011046Y003301D01*
X011046Y003359D02*
X012580Y003359D01*
X012580Y003418D02*
X011046Y003418D01*
X011046Y003476D02*
X012580Y003476D01*
X012580Y003535D02*
X011025Y003535D01*
X010967Y003593D02*
X012580Y003593D01*
X012580Y003652D02*
X011008Y003652D01*
X011046Y003710D02*
X012580Y003710D01*
X012580Y003769D02*
X011046Y003769D01*
X011046Y003827D02*
X012580Y003827D01*
X012580Y003886D02*
X011046Y003886D01*
X011046Y003944D02*
X012580Y003944D01*
X012580Y004003D02*
X011030Y004003D01*
X010971Y004061D02*
X012580Y004061D01*
X012580Y004120D02*
X011004Y004120D01*
X011046Y004178D02*
X012552Y004178D01*
X012494Y004237D02*
X011046Y004237D01*
X011046Y004295D02*
X012435Y004295D01*
X012377Y004354D02*
X011046Y004354D01*
X011046Y004412D02*
X012318Y004412D01*
X012260Y004471D02*
X011034Y004471D01*
X010976Y004529D02*
X012201Y004529D01*
X012143Y004588D02*
X010960Y004588D01*
X010947Y004575D02*
X011046Y004673D01*
X011046Y004702D01*
X011101Y004702D01*
X011213Y004590D01*
X011387Y004590D01*
X011510Y004713D01*
X011510Y004887D01*
X011387Y005010D01*
X011213Y005010D01*
X011145Y004942D01*
X011046Y004942D01*
X011046Y004971D01*
X010998Y005019D01*
X011046Y005067D01*
X011046Y005364D01*
X010947Y005463D01*
X010453Y005463D01*
X010354Y005364D01*
X010354Y005067D01*
X010402Y005019D01*
X010354Y004971D01*
X010354Y004673D01*
X010453Y004575D01*
X010947Y004575D01*
X011019Y004646D02*
X011157Y004646D01*
X011300Y004800D02*
X011278Y004822D01*
X010700Y004822D01*
X010354Y004822D02*
X004748Y004822D01*
X004690Y004880D02*
X010354Y004880D01*
X010354Y004939D02*
X004631Y004939D01*
X004573Y004997D02*
X010380Y004997D01*
X010366Y005056D02*
X004514Y005056D01*
X004456Y005114D02*
X010354Y005114D01*
X010354Y005173D02*
X004397Y005173D01*
X004339Y005231D02*
X010354Y005231D01*
X010354Y005290D02*
X004280Y005290D01*
X004222Y005348D02*
X010354Y005348D01*
X010396Y005407D02*
X004163Y005407D01*
X004105Y005465D02*
X011265Y005465D01*
X011207Y005524D02*
X004046Y005524D01*
X004048Y005582D02*
X003988Y005582D01*
X003990Y005641D02*
X003929Y005641D01*
X003931Y005699D02*
X003871Y005699D01*
X003873Y005758D02*
X003812Y005758D01*
X003814Y005816D02*
X003754Y005816D01*
X003756Y005875D02*
X003695Y005875D01*
X003697Y005933D02*
X003637Y005933D01*
X003639Y005992D02*
X003578Y005992D01*
X003580Y006050D02*
X003520Y006050D01*
X003522Y006109D02*
X003461Y006109D01*
X003463Y006167D02*
X003403Y006167D01*
X003405Y006226D02*
X003344Y006226D01*
X003346Y006284D02*
X003286Y006284D01*
X003288Y006343D02*
X003227Y006343D01*
X003229Y006401D02*
X003169Y006401D01*
X003171Y006460D02*
X003110Y006460D01*
X003112Y006518D02*
X003052Y006518D01*
X003020Y006550D02*
X003020Y006550D01*
X002993Y006577D02*
X003054Y006577D01*
X002900Y006500D02*
X002200Y006500D01*
X002000Y006700D01*
X002000Y007070D01*
X001970Y007100D01*
X002000Y007100D01*
X002161Y006869D02*
X002211Y006869D01*
X002270Y006811D02*
X002120Y006811D01*
X002120Y006752D02*
X002328Y006752D01*
X002387Y006694D02*
X002176Y006694D01*
X002235Y006635D02*
X002445Y006635D01*
X002500Y006750D02*
X003050Y006750D01*
X004100Y005700D01*
X005700Y005700D01*
X005800Y005800D01*
X005800Y006182D01*
X005818Y006200D01*
X005583Y006460D02*
X005581Y006460D01*
X005522Y006518D02*
X005642Y006518D01*
X005995Y006518D02*
X006114Y006518D01*
X006056Y006460D02*
X006053Y006460D01*
X006180Y006577D02*
X003393Y006577D01*
X003335Y006635D02*
X006180Y006635D01*
X006180Y006694D02*
X003276Y006694D01*
X003218Y006752D02*
X006180Y006752D01*
X006180Y006811D02*
X004005Y006811D01*
X003997Y006805D02*
X004048Y006839D01*
X004091Y006882D01*
X004125Y006933D01*
X004148Y006990D01*
X004160Y007049D01*
X004160Y007070D01*
X003860Y007070D01*
X003860Y007130D01*
X003800Y007130D01*
X003800Y007430D01*
X003779Y007430D01*
X003720Y007418D01*
X003663Y007395D01*
X003612Y007361D01*
X003569Y007318D01*
X003535Y007267D01*
X003512Y007210D01*
X003500Y007151D01*
X003500Y007130D01*
X003800Y007130D01*
X003800Y007070D01*
X003860Y007070D01*
X003860Y006770D01*
X003881Y006770D01*
X003940Y006782D01*
X003997Y006805D01*
X004077Y006869D02*
X006180Y006869D01*
X006180Y006928D02*
X004121Y006928D01*
X004147Y006986D02*
X006180Y006986D01*
X006180Y007045D02*
X004159Y007045D01*
X004160Y007130D02*
X004160Y007151D01*
X004148Y007210D01*
X004125Y007267D01*
X004091Y007318D01*
X004048Y007361D01*
X003997Y007395D01*
X003940Y007418D01*
X003881Y007430D01*
X003860Y007430D01*
X003860Y007130D01*
X004160Y007130D01*
X004158Y007162D02*
X006180Y007162D01*
X006180Y007220D02*
X004144Y007220D01*
X004117Y007279D02*
X006180Y007279D01*
X006180Y007337D02*
X004071Y007337D01*
X003995Y007396D02*
X006180Y007396D01*
X006180Y007454D02*
X002420Y007454D01*
X002420Y007396D02*
X003665Y007396D01*
X003589Y007337D02*
X003355Y007337D01*
X003413Y007279D02*
X003543Y007279D01*
X003516Y007220D02*
X003441Y007220D01*
X003460Y007162D02*
X003502Y007162D01*
X003460Y007103D02*
X003800Y007103D01*
X003800Y007070D02*
X003500Y007070D01*
X003500Y007049D01*
X003512Y006990D01*
X003535Y006933D01*
X003569Y006882D01*
X003612Y006839D01*
X003663Y006805D01*
X003720Y006782D01*
X003779Y006770D01*
X003800Y006770D01*
X003800Y007070D01*
X003800Y007045D02*
X003860Y007045D01*
X003860Y007103D02*
X006180Y007103D01*
X006180Y007513D02*
X004008Y007513D01*
X003997Y007505D02*
X004048Y007539D01*
X004091Y007582D01*
X004125Y007633D01*
X004148Y007690D01*
X004160Y007749D01*
X004160Y007770D01*
X003860Y007770D01*
X003860Y007830D01*
X003800Y007830D01*
X003800Y008130D01*
X003779Y008130D01*
X003720Y008118D01*
X003663Y008095D01*
X003612Y008061D01*
X003569Y008018D01*
X003535Y007967D01*
X003512Y007910D01*
X003500Y007851D01*
X003500Y007830D01*
X003800Y007830D01*
X003800Y007770D01*
X003860Y007770D01*
X003860Y007470D01*
X003881Y007470D01*
X003940Y007482D01*
X003997Y007505D01*
X004079Y007571D02*
X006180Y007571D01*
X006180Y007630D02*
X004122Y007630D01*
X004147Y007688D02*
X006180Y007688D01*
X006180Y007747D02*
X004159Y007747D01*
X004160Y007830D02*
X004160Y007851D01*
X004148Y007910D01*
X004125Y007967D01*
X004091Y008018D01*
X004048Y008061D01*
X003997Y008095D01*
X003940Y008118D01*
X003881Y008130D01*
X003860Y008130D01*
X003860Y007830D01*
X004160Y007830D01*
X004157Y007864D02*
X006180Y007864D01*
X006180Y007922D02*
X004143Y007922D01*
X004116Y007981D02*
X006180Y007981D01*
X006180Y008039D02*
X004069Y008039D01*
X003990Y008098D02*
X006180Y008098D01*
X006180Y008156D02*
X000330Y008156D01*
X000330Y008098D02*
X003670Y008098D01*
X003591Y008039D02*
X003353Y008039D01*
X003343Y008049D02*
X003244Y008090D01*
X003096Y008090D01*
X002997Y008049D01*
X002921Y007973D01*
X002900Y007922D01*
X002879Y007973D01*
X002803Y008049D01*
X002704Y008090D01*
X002556Y008090D01*
X002457Y008049D01*
X002381Y007973D01*
X002340Y007874D01*
X002340Y007726D01*
X002381Y007627D01*
X002457Y007551D01*
X002556Y007510D01*
X002704Y007510D01*
X002803Y007551D01*
X002879Y007627D01*
X002900Y007678D01*
X002921Y007627D01*
X002997Y007551D01*
X003096Y007510D01*
X003244Y007510D01*
X003343Y007551D01*
X003419Y007627D01*
X003460Y007726D01*
X003460Y007874D01*
X003419Y007973D01*
X003343Y008049D01*
X003411Y007981D02*
X003544Y007981D01*
X003517Y007922D02*
X003440Y007922D01*
X003460Y007864D02*
X003503Y007864D01*
X003460Y007805D02*
X003800Y007805D01*
X003800Y007770D02*
X003500Y007770D01*
X003500Y007749D01*
X003512Y007690D01*
X003535Y007633D01*
X003569Y007582D01*
X003612Y007539D01*
X003663Y007505D01*
X003720Y007482D01*
X003779Y007470D01*
X003800Y007470D01*
X003800Y007770D01*
X003800Y007747D02*
X003860Y007747D01*
X003860Y007805D02*
X006180Y007805D01*
X006180Y008215D02*
X000330Y008215D01*
X000330Y008273D02*
X006180Y008273D01*
X006180Y008332D02*
X000330Y008332D01*
X000330Y008390D02*
X006220Y008390D01*
X006279Y008449D02*
X000330Y008449D01*
X000330Y008507D02*
X006337Y008507D01*
X006396Y008566D02*
X000330Y008566D01*
X000330Y008624D02*
X003624Y008624D01*
X003514Y008670D02*
X003765Y008566D01*
X004035Y008566D01*
X004286Y008670D01*
X004477Y008861D01*
X004581Y009111D01*
X004581Y009382D01*
X004477Y009632D01*
X004286Y009823D01*
X004035Y009927D01*
X003765Y009927D01*
X003514Y009823D01*
X003323Y009632D01*
X003219Y009382D01*
X003219Y009111D01*
X003323Y008861D01*
X003514Y008670D01*
X003501Y008683D02*
X000330Y008683D01*
X000330Y008741D02*
X003443Y008741D01*
X003384Y008800D02*
X000330Y008800D01*
X000330Y008858D02*
X003326Y008858D01*
X003300Y008917D02*
X000330Y008917D01*
X000330Y008975D02*
X003276Y008975D01*
X003252Y009034D02*
X000330Y009034D01*
X000330Y009092D02*
X003227Y009092D01*
X003219Y009151D02*
X000330Y009151D01*
X000330Y009209D02*
X003219Y009209D01*
X003219Y009268D02*
X000330Y009268D01*
X000330Y009326D02*
X003219Y009326D01*
X003221Y009385D02*
X000330Y009385D01*
X000330Y009443D02*
X003245Y009443D01*
X003269Y009502D02*
X000330Y009502D01*
X000330Y009560D02*
X003293Y009560D01*
X003317Y009619D02*
X000330Y009619D01*
X000330Y009677D02*
X003368Y009677D01*
X003427Y009736D02*
X000330Y009736D01*
X000330Y009794D02*
X003485Y009794D01*
X003585Y009853D02*
X000330Y009853D01*
X000330Y009911D02*
X003726Y009911D01*
X003466Y009970D02*
X000330Y009970D01*
X000330Y010028D02*
X003352Y010028D01*
X003293Y010087D02*
X000330Y010087D01*
X000330Y010145D02*
X001261Y010145D01*
X001271Y010135D02*
X001629Y010135D01*
X001740Y010246D01*
X001740Y010754D01*
X001690Y010804D01*
X001690Y010921D01*
X001760Y010991D01*
X001760Y011068D01*
X001819Y011127D01*
X001860Y011226D01*
X001860Y011374D01*
X001819Y011473D01*
X001743Y011549D01*
X001737Y011551D01*
X001737Y012285D01*
X001762Y012310D01*
X001893Y012310D01*
X001913Y012290D01*
X002087Y012290D01*
X002210Y012413D01*
X002210Y012587D01*
X002087Y012710D01*
X001913Y012710D01*
X001893Y012690D01*
X001762Y012690D01*
X001734Y012718D01*
X001360Y012718D01*
X001270Y012628D01*
X001270Y012372D01*
X001357Y012285D01*
X001357Y011509D01*
X001321Y011473D01*
X001280Y011374D01*
X001280Y011226D01*
X001321Y011127D01*
X001340Y011108D01*
X001310Y011079D01*
X001310Y010865D01*
X001271Y010865D01*
X001160Y010754D01*
X001160Y010246D01*
X001271Y010135D01*
X001203Y010204D02*
X000330Y010204D01*
X000330Y010262D02*
X001160Y010262D01*
X001160Y010321D02*
X000330Y010321D01*
X000330Y010379D02*
X001160Y010379D01*
X001160Y010438D02*
X000330Y010438D01*
X000330Y010496D02*
X001160Y010496D01*
X001160Y010555D02*
X000330Y010555D01*
X000330Y010613D02*
X001160Y010613D01*
X001160Y010672D02*
X000330Y010672D01*
X000330Y010730D02*
X001160Y010730D01*
X001195Y010789D02*
X000330Y010789D01*
X000330Y010847D02*
X001253Y010847D01*
X001310Y010906D02*
X000330Y010906D01*
X000330Y010964D02*
X001310Y010964D01*
X001310Y011023D02*
X000330Y011023D01*
X000330Y011081D02*
X001312Y011081D01*
X001316Y011140D02*
X000330Y011140D01*
X000330Y011198D02*
X001292Y011198D01*
X001280Y011257D02*
X000330Y011257D01*
X000330Y011315D02*
X001280Y011315D01*
X001280Y011374D02*
X000330Y011374D01*
X000330Y011432D02*
X001304Y011432D01*
X001339Y011491D02*
X000330Y011491D01*
X000330Y011549D02*
X001357Y011549D01*
X001357Y011608D02*
X000330Y011608D01*
X000330Y011666D02*
X001357Y011666D01*
X001357Y011725D02*
X000330Y011725D01*
X000330Y011783D02*
X001357Y011783D01*
X001357Y011842D02*
X000330Y011842D01*
X000330Y011900D02*
X001357Y011900D01*
X001357Y011959D02*
X000330Y011959D01*
X000330Y012017D02*
X001357Y012017D01*
X001357Y012076D02*
X000330Y012076D01*
X000330Y012134D02*
X001357Y012134D01*
X001357Y012193D02*
X000330Y012193D01*
X000330Y012251D02*
X001357Y012251D01*
X001333Y012310D02*
X000330Y012310D01*
X000330Y012368D02*
X001274Y012368D01*
X001270Y012427D02*
X000330Y012427D01*
X000330Y012485D02*
X001270Y012485D01*
X001270Y012544D02*
X000330Y012544D01*
X000330Y012602D02*
X001270Y012602D01*
X001303Y012661D02*
X000330Y012661D01*
X000330Y012719D02*
X002158Y012719D01*
X002149Y012735D02*
X002175Y012691D01*
X002211Y012655D01*
X002255Y012629D01*
X002304Y012616D01*
X002423Y012616D01*
X002423Y012844D01*
X002483Y012844D01*
X002483Y012904D01*
X002770Y012904D01*
X002770Y012964D01*
X002757Y013013D01*
X002731Y013057D01*
X002695Y013093D01*
X002651Y013119D01*
X002601Y013132D01*
X002483Y013132D01*
X002483Y012904D01*
X002423Y012904D01*
X002423Y013132D01*
X002304Y013132D01*
X002255Y013119D01*
X002211Y013093D01*
X002175Y013057D01*
X002149Y013013D01*
X002136Y012964D01*
X002136Y012904D01*
X002423Y012904D01*
X002423Y012844D01*
X002136Y012844D01*
X002136Y012785D01*
X002149Y012735D01*
X002138Y012778D02*
X000330Y012778D01*
X000330Y012836D02*
X002136Y012836D01*
X002136Y012953D02*
X000330Y012953D01*
X000330Y012895D02*
X002423Y012895D01*
X002423Y012953D02*
X002483Y012953D01*
X002483Y012895D02*
X003305Y012895D01*
X003323Y012939D02*
X003219Y012689D01*
X003219Y012418D01*
X003323Y012168D01*
X003514Y011977D01*
X003765Y011873D01*
X004035Y011873D01*
X004286Y011977D01*
X004477Y012168D01*
X004581Y012418D01*
X004581Y012689D01*
X004477Y012939D01*
X004286Y013130D01*
X004035Y013234D01*
X003765Y013234D01*
X003514Y013130D01*
X003323Y012939D01*
X003337Y012953D02*
X002770Y012953D01*
X002757Y013012D02*
X003396Y013012D01*
X003454Y013070D02*
X002718Y013070D01*
X002614Y013129D02*
X003513Y013129D01*
X003651Y013187D02*
X000330Y013187D01*
X000330Y013129D02*
X002291Y013129D01*
X002187Y013070D02*
X000330Y013070D01*
X000330Y013012D02*
X002149Y013012D01*
X002423Y013012D02*
X002483Y013012D01*
X002483Y013070D02*
X002423Y013070D01*
X002423Y013129D02*
X002483Y013129D01*
X002483Y012844D02*
X002770Y012844D01*
X002770Y012785D01*
X002757Y012735D01*
X002731Y012691D01*
X002695Y012655D01*
X002651Y012629D01*
X002601Y012616D01*
X002483Y012616D01*
X002483Y012844D01*
X002483Y012836D02*
X002423Y012836D01*
X002423Y012778D02*
X002483Y012778D01*
X002483Y012719D02*
X002423Y012719D01*
X002423Y012661D02*
X002483Y012661D01*
X002701Y012661D02*
X003219Y012661D01*
X003219Y012602D02*
X002195Y012602D01*
X002205Y012661D02*
X002136Y012661D01*
X002210Y012544D02*
X003219Y012544D01*
X003219Y012485D02*
X002210Y012485D01*
X002210Y012427D02*
X003219Y012427D01*
X003240Y012368D02*
X002165Y012368D01*
X002107Y012310D02*
X002232Y012310D01*
X002266Y012344D02*
X002176Y012254D01*
X002176Y011998D01*
X002266Y011908D01*
X002402Y011908D01*
X002486Y011824D01*
X002251Y011590D01*
X002156Y011590D01*
X002057Y011549D01*
X001981Y011473D01*
X001940Y011374D01*
X001940Y011226D01*
X001981Y011127D01*
X002040Y011068D01*
X002040Y010891D01*
X002110Y010821D01*
X002110Y010804D01*
X002060Y010754D01*
X002060Y010246D01*
X002103Y010204D02*
X001697Y010204D01*
X001639Y010145D02*
X002161Y010145D01*
X002539Y010145D02*
X003264Y010145D01*
X003240Y010204D02*
X002597Y010204D01*
X002640Y010262D02*
X003238Y010262D01*
X003238Y010321D02*
X002640Y010321D01*
X002640Y010379D02*
X003257Y010379D01*
X003282Y010438D02*
X002640Y010438D01*
X002640Y010496D02*
X003336Y010496D01*
X003427Y010555D02*
X002640Y010555D01*
X002640Y010613D02*
X003433Y010613D01*
X003484Y010592D02*
X003607Y010592D01*
X003720Y010639D01*
X003807Y010725D01*
X003854Y010839D01*
X003854Y010961D01*
X003807Y011075D01*
X003720Y011161D01*
X003607Y011208D01*
X003484Y011208D01*
X003371Y011161D01*
X003284Y011075D01*
X003238Y010961D01*
X003238Y010839D01*
X003284Y010725D01*
X003371Y010639D01*
X003484Y010592D01*
X003338Y010672D02*
X002640Y010672D01*
X002640Y010730D02*
X003283Y010730D01*
X003258Y010789D02*
X002605Y010789D01*
X002547Y010847D02*
X003238Y010847D01*
X003238Y010906D02*
X002490Y010906D01*
X002490Y010964D02*
X003239Y010964D01*
X003263Y011023D02*
X002446Y011023D01*
X002433Y011081D02*
X003291Y011081D01*
X003349Y011140D02*
X002484Y011140D01*
X002508Y011198D02*
X003460Y011198D01*
X003401Y011257D02*
X002520Y011257D01*
X002520Y011315D02*
X003325Y011315D01*
X003277Y011374D02*
X002572Y011374D01*
X002631Y011432D02*
X002878Y011432D01*
X002819Y011491D02*
X002689Y011491D01*
X002748Y011549D02*
X002761Y011549D01*
X003006Y011842D02*
X006945Y011842D01*
X006963Y011860D02*
X006840Y011737D01*
X006840Y011563D01*
X006953Y011450D01*
X006788Y011450D01*
X006782Y011455D01*
X006782Y011634D01*
X006695Y011721D01*
X006453Y011721D01*
X006366Y011634D01*
X006366Y011436D01*
X006250Y011320D01*
X006001Y011320D01*
X006034Y011353D01*
X006034Y011634D01*
X005947Y011721D01*
X005768Y011721D01*
X005740Y011750D01*
X005669Y011820D01*
X003750Y011820D01*
X003721Y011791D01*
X003720Y011791D01*
X003607Y011838D01*
X003484Y011838D01*
X003371Y011791D01*
X003370Y011790D01*
X003057Y011790D01*
X002979Y011868D01*
X002868Y011979D01*
X002730Y012118D01*
X002730Y012254D01*
X002640Y012344D01*
X002266Y012344D01*
X002176Y012251D02*
X001737Y012251D01*
X001737Y012193D02*
X002176Y012193D01*
X002176Y012134D02*
X001737Y012134D01*
X001737Y012076D02*
X002176Y012076D01*
X002176Y012017D02*
X001737Y012017D01*
X001737Y011959D02*
X002215Y011959D01*
X002410Y011900D02*
X001737Y011900D01*
X001737Y011842D02*
X002468Y011842D01*
X002444Y011783D02*
X001737Y011783D01*
X001737Y011725D02*
X002386Y011725D01*
X002327Y011666D02*
X001737Y011666D01*
X001737Y011608D02*
X002269Y011608D01*
X002057Y011549D02*
X001743Y011549D01*
X001801Y011491D02*
X001999Y011491D01*
X001964Y011432D02*
X001836Y011432D01*
X001860Y011374D02*
X001940Y011374D01*
X001940Y011315D02*
X001860Y011315D01*
X001860Y011257D02*
X001940Y011257D01*
X001952Y011198D02*
X001848Y011198D01*
X001824Y011140D02*
X001976Y011140D01*
X002027Y011081D02*
X001773Y011081D01*
X001760Y011023D02*
X002040Y011023D01*
X002040Y010964D02*
X001733Y010964D01*
X001690Y010906D02*
X002040Y010906D01*
X002084Y010847D02*
X001690Y010847D01*
X001705Y010789D02*
X002095Y010789D01*
X002060Y010730D02*
X001740Y010730D01*
X001740Y010672D02*
X002060Y010672D01*
X002060Y010613D02*
X001740Y010613D01*
X001740Y010555D02*
X002060Y010555D01*
X002947Y011900D02*
X003699Y011900D01*
X003558Y011959D02*
X002889Y011959D01*
X002830Y012017D02*
X003474Y012017D01*
X003416Y012076D02*
X002772Y012076D01*
X002730Y012134D02*
X003357Y012134D01*
X003313Y012193D02*
X002730Y012193D01*
X002730Y012251D02*
X003289Y012251D01*
X003264Y012310D02*
X002674Y012310D01*
X002747Y012719D02*
X003232Y012719D01*
X003256Y012778D02*
X002768Y012778D01*
X002770Y012836D02*
X003280Y012836D01*
X003251Y013340D02*
X003310Y013352D01*
X003367Y013375D01*
X003418Y013409D01*
X003461Y013452D01*
X003495Y013503D01*
X003518Y013560D01*
X003530Y013619D01*
X003530Y013640D01*
X003230Y013640D01*
X003230Y013700D01*
X003530Y013700D01*
X003530Y013721D01*
X003518Y013780D01*
X003495Y013837D01*
X003461Y013888D01*
X003418Y013931D01*
X003367Y013965D01*
X003310Y013988D01*
X003251Y014000D01*
X003230Y014000D01*
X003230Y013700D01*
X003170Y013700D01*
X003170Y014000D01*
X003149Y014000D01*
X003090Y013988D01*
X003033Y013965D01*
X002982Y013931D01*
X002939Y013888D01*
X002925Y013866D01*
X002925Y013867D01*
X002891Y013918D01*
X002848Y013961D01*
X002797Y013995D01*
X002740Y014018D01*
X002729Y014020D01*
X002803Y014051D01*
X002879Y014127D01*
X002901Y014180D01*
X002942Y014180D01*
X002951Y014157D01*
X003027Y014081D01*
X003126Y014040D01*
X003274Y014040D01*
X003373Y014081D01*
X003449Y014157D01*
X003490Y014256D01*
X003490Y014404D01*
X003449Y014503D01*
X003373Y014579D01*
X003274Y014620D01*
X003126Y014620D01*
X003027Y014579D01*
X002951Y014503D01*
X002917Y014420D01*
X002901Y014420D01*
X002879Y014473D01*
X002803Y014549D01*
X002704Y014590D01*
X002556Y014590D01*
X002457Y014549D01*
X002381Y014473D01*
X002340Y014374D01*
X002340Y014226D01*
X002347Y014210D01*
X002258Y014210D01*
X002255Y014213D01*
X002260Y014226D01*
X002260Y014374D01*
X002219Y014473D01*
X002143Y014549D01*
X002044Y014590D01*
X001896Y014590D01*
X001797Y014549D01*
X001721Y014473D01*
X001680Y014374D01*
X001680Y014226D01*
X001721Y014127D01*
X001797Y014051D01*
X001896Y014010D01*
X002044Y014010D01*
X002057Y014015D01*
X002072Y014000D01*
X002057Y013985D01*
X002044Y013990D01*
X001896Y013990D01*
X001797Y013949D01*
X001721Y013873D01*
X001680Y013774D01*
X001680Y013626D01*
X001721Y013527D01*
X001797Y013451D01*
X001896Y013410D01*
X002044Y013410D01*
X002143Y013451D01*
X002219Y013527D01*
X002260Y013626D01*
X002260Y013774D01*
X002255Y013787D01*
X002258Y013790D01*
X002308Y013790D01*
X002300Y013751D01*
X002300Y013730D01*
X002600Y013730D01*
X002600Y013670D01*
X002660Y013670D01*
X003200Y013670D01*
X003230Y013655D02*
X005575Y013655D01*
X005517Y013714D02*
X003530Y013714D01*
X003520Y013772D02*
X004061Y013772D01*
X004095Y013761D02*
X004165Y013750D01*
X004170Y013750D01*
X004170Y014170D01*
X004230Y014170D01*
X004230Y014230D01*
X004650Y014230D01*
X004650Y014235D01*
X004639Y014305D01*
X004617Y014373D01*
X004585Y014436D01*
X004543Y014493D01*
X004493Y014543D01*
X004436Y014585D01*
X004373Y014617D01*
X004305Y014639D01*
X004235Y014650D01*
X004230Y014650D01*
X004230Y014230D01*
X004170Y014230D01*
X004170Y014650D01*
X004165Y014650D01*
X004095Y014639D01*
X004027Y014617D01*
X003964Y014585D01*
X003907Y014543D01*
X003857Y014493D01*
X003815Y014436D01*
X003783Y014373D01*
X003761Y014305D01*
X003750Y014235D01*
X003750Y014230D01*
X004170Y014230D01*
X004170Y014170D01*
X003750Y014170D01*
X003750Y014165D01*
X003761Y014095D01*
X003783Y014027D01*
X003815Y013964D01*
X003857Y013907D01*
X003907Y013857D01*
X003964Y013815D01*
X004027Y013783D01*
X004095Y013761D01*
X004170Y013772D02*
X004230Y013772D01*
X004230Y013750D02*
X004235Y013750D01*
X004305Y013761D01*
X004373Y013783D01*
X004436Y013815D01*
X004493Y013857D01*
X004543Y013907D01*
X004585Y013964D01*
X004617Y014027D01*
X004639Y014095D01*
X004650Y014165D01*
X004650Y014170D01*
X004230Y014170D01*
X004230Y013750D01*
X004230Y013831D02*
X004170Y013831D01*
X004170Y013889D02*
X004230Y013889D01*
X004230Y013948D02*
X004170Y013948D01*
X004170Y014006D02*
X004230Y014006D01*
X004230Y014065D02*
X004170Y014065D01*
X004170Y014123D02*
X004230Y014123D01*
X004230Y014182D02*
X004790Y014182D01*
X004790Y014240D02*
X004649Y014240D01*
X004640Y014299D02*
X004797Y014299D01*
X004790Y014282D02*
X004790Y014118D01*
X004852Y013968D01*
X004968Y013852D01*
X005118Y013790D01*
X005282Y013790D01*
X005394Y013836D01*
X006100Y013130D01*
X008947Y013130D01*
X008947Y013050D01*
X008887Y013110D01*
X008713Y013110D01*
X008590Y012987D01*
X008590Y012880D01*
X008564Y012905D01*
X007174Y012905D01*
X007174Y012968D01*
X007070Y013072D01*
X006745Y013072D01*
X006640Y012968D01*
X006640Y012603D01*
X006743Y012500D01*
X006640Y012397D01*
X006640Y012032D01*
X006745Y011928D01*
X007070Y011928D01*
X007174Y012032D01*
X007174Y012397D01*
X007071Y012500D01*
X007174Y012603D01*
X007174Y012665D01*
X008465Y012665D01*
X008677Y012453D01*
X008248Y012453D01*
X008214Y012420D01*
X007750Y012420D01*
X007440Y012110D01*
X007363Y012110D01*
X007240Y011987D01*
X007240Y011813D01*
X007283Y011770D01*
X007227Y011770D01*
X007137Y011860D01*
X006963Y011860D01*
X006886Y011783D02*
X005706Y011783D01*
X005765Y011725D02*
X006840Y011725D01*
X006840Y011666D02*
X006750Y011666D01*
X006782Y011608D02*
X006840Y011608D01*
X006854Y011549D02*
X006782Y011549D01*
X006782Y011491D02*
X006912Y011491D01*
X007050Y011650D02*
X008490Y011650D01*
X008495Y011645D01*
X008435Y011900D02*
X008385Y011950D01*
X008050Y011950D01*
X008000Y011900D01*
X007800Y011900D01*
X007523Y012193D02*
X007174Y012193D01*
X007174Y012251D02*
X007581Y012251D01*
X007640Y012310D02*
X007174Y012310D01*
X007174Y012368D02*
X007698Y012368D01*
X007800Y012300D02*
X007450Y011950D01*
X007450Y011900D01*
X007240Y011900D02*
X004101Y011900D01*
X004242Y011959D02*
X005100Y011959D01*
X005130Y011928D02*
X005455Y011928D01*
X005560Y012032D01*
X005560Y012397D01*
X005457Y012500D01*
X005560Y012603D01*
X005560Y012968D01*
X005455Y013072D01*
X005130Y013072D01*
X005026Y012968D01*
X005026Y012795D01*
X004940Y012710D01*
X004813Y012710D01*
X004690Y012587D01*
X004690Y012413D01*
X004813Y012290D01*
X004940Y012290D01*
X005026Y012205D01*
X005026Y012032D01*
X005130Y011928D01*
X005041Y012017D02*
X004326Y012017D01*
X004384Y012076D02*
X005026Y012076D01*
X005026Y012134D02*
X004443Y012134D01*
X004487Y012193D02*
X005026Y012193D01*
X004979Y012251D02*
X004511Y012251D01*
X004536Y012310D02*
X004793Y012310D01*
X004735Y012368D02*
X004560Y012368D01*
X004581Y012427D02*
X004690Y012427D01*
X004690Y012485D02*
X004581Y012485D01*
X004581Y012544D02*
X004690Y012544D01*
X004705Y012602D02*
X004581Y012602D01*
X004581Y012661D02*
X004764Y012661D01*
X004949Y012719D02*
X004568Y012719D01*
X004544Y012778D02*
X005008Y012778D01*
X005026Y012836D02*
X004520Y012836D01*
X004495Y012895D02*
X005026Y012895D01*
X005026Y012953D02*
X004463Y012953D01*
X004404Y013012D02*
X005070Y013012D01*
X005128Y013070D02*
X004346Y013070D01*
X004287Y013129D02*
X008947Y013129D01*
X008947Y013070D02*
X008927Y013070D01*
X008805Y012905D02*
X008800Y012900D01*
X008805Y012905D02*
X009125Y012905D01*
X008947Y012719D02*
X008916Y012719D01*
X008947Y012661D02*
X008809Y012661D01*
X008868Y012602D02*
X009002Y012602D01*
X008926Y012544D02*
X009984Y012544D01*
X010056Y012544D02*
X010084Y012544D01*
X010084Y012602D02*
X010056Y012602D01*
X010056Y012661D02*
X010084Y012661D01*
X010084Y012719D02*
X010056Y012719D01*
X010056Y012778D02*
X010084Y012778D01*
X010084Y012836D02*
X010056Y012836D01*
X010070Y012905D02*
X010070Y012430D01*
X010100Y012400D01*
X010156Y012544D02*
X010287Y012544D01*
X010262Y012602D02*
X010250Y012602D01*
X010385Y012615D02*
X010600Y012400D01*
X010452Y012251D02*
X009219Y012251D01*
X009277Y012193D02*
X010510Y012193D01*
X010393Y012310D02*
X009160Y012310D01*
X009102Y012368D02*
X010390Y012368D01*
X010390Y012427D02*
X009043Y012427D01*
X008985Y012485D02*
X010345Y012485D01*
X010385Y012615D02*
X010385Y012905D01*
X009890Y012602D02*
X009879Y012602D01*
X009632Y012602D02*
X009564Y012602D01*
X009317Y012602D02*
X009249Y012602D01*
X009440Y012905D02*
X009440Y013160D01*
X009350Y013250D01*
X006150Y013250D01*
X005200Y014200D01*
X004821Y014357D02*
X004622Y014357D01*
X004595Y014416D02*
X004846Y014416D01*
X004852Y014432D02*
X004790Y014282D01*
X004790Y014123D02*
X004643Y014123D01*
X004629Y014065D02*
X004812Y014065D01*
X004837Y014006D02*
X004606Y014006D01*
X004573Y013948D02*
X004873Y013948D01*
X004931Y013889D02*
X004525Y013889D01*
X004457Y013831D02*
X005021Y013831D01*
X005379Y013831D02*
X005400Y013831D01*
X005458Y013772D02*
X004339Y013772D01*
X003943Y013831D02*
X003497Y013831D01*
X003459Y013889D02*
X003875Y013889D01*
X003827Y013948D02*
X003393Y013948D01*
X003333Y014065D02*
X003771Y014065D01*
X003757Y014123D02*
X003415Y014123D01*
X003459Y014182D02*
X004170Y014182D01*
X004170Y014240D02*
X004230Y014240D01*
X004230Y014299D02*
X004170Y014299D01*
X004170Y014357D02*
X004230Y014357D01*
X004230Y014416D02*
X004170Y014416D01*
X004170Y014474D02*
X004230Y014474D01*
X004230Y014533D02*
X004170Y014533D01*
X004170Y014591D02*
X004230Y014591D01*
X004230Y014650D02*
X004170Y014650D01*
X004162Y014650D02*
X000330Y014650D01*
X000330Y014708D02*
X015070Y014708D01*
X015070Y014650D02*
X004238Y014650D01*
X004424Y014591D02*
X005073Y014591D01*
X005118Y014610D02*
X004968Y014548D01*
X004852Y014432D01*
X004894Y014474D02*
X004557Y014474D01*
X004504Y014533D02*
X004953Y014533D01*
X005118Y014610D02*
X005282Y014610D01*
X005432Y014548D01*
X005548Y014432D01*
X005610Y014282D01*
X005610Y014118D01*
X005564Y014006D01*
X005837Y014006D01*
X005852Y013968D02*
X005968Y013852D01*
X006118Y013790D01*
X006282Y013790D01*
X006394Y013836D01*
X006860Y013370D01*
X006200Y013370D01*
X005564Y014006D01*
X005588Y014065D02*
X005812Y014065D01*
X005790Y014118D02*
X005852Y013968D01*
X005873Y013948D02*
X005622Y013948D01*
X005681Y013889D02*
X005931Y013889D01*
X006021Y013831D02*
X005739Y013831D01*
X005798Y013772D02*
X006458Y013772D01*
X006400Y013831D02*
X006379Y013831D01*
X006517Y013714D02*
X005856Y013714D01*
X005915Y013655D02*
X006575Y013655D01*
X006634Y013597D02*
X005973Y013597D01*
X006032Y013538D02*
X006692Y013538D01*
X006751Y013480D02*
X006090Y013480D01*
X006149Y013421D02*
X006809Y013421D01*
X007000Y013400D02*
X006200Y014200D01*
X006579Y014357D02*
X006821Y014357D01*
X006797Y014299D02*
X006603Y014299D01*
X006610Y014282D02*
X006548Y014432D01*
X006432Y014548D01*
X006282Y014610D01*
X006118Y014610D01*
X005968Y014548D01*
X005852Y014432D01*
X005790Y014282D01*
X005790Y014118D01*
X005790Y014123D02*
X005610Y014123D01*
X005610Y014182D02*
X005790Y014182D01*
X005790Y014240D02*
X005610Y014240D01*
X005603Y014299D02*
X005797Y014299D01*
X005821Y014357D02*
X005579Y014357D01*
X005554Y014416D02*
X005846Y014416D01*
X005894Y014474D02*
X005506Y014474D01*
X005447Y014533D02*
X005953Y014533D01*
X006073Y014591D02*
X005327Y014591D01*
X006327Y014591D02*
X007073Y014591D01*
X007118Y014610D02*
X006968Y014548D01*
X006852Y014432D01*
X006790Y014282D01*
X006790Y014118D01*
X006852Y013968D01*
X006968Y013852D01*
X007118Y013790D01*
X007282Y013790D01*
X007394Y013836D01*
X007710Y013520D01*
X007050Y013520D01*
X006564Y014006D01*
X006837Y014006D01*
X006812Y014065D02*
X006588Y014065D01*
X006610Y014118D02*
X006564Y014006D01*
X006622Y013948D02*
X006873Y013948D01*
X006931Y013889D02*
X006681Y013889D01*
X006739Y013831D02*
X007021Y013831D01*
X006856Y013714D02*
X007517Y013714D01*
X007458Y013772D02*
X006798Y013772D01*
X006915Y013655D02*
X007575Y013655D01*
X007634Y013597D02*
X006973Y013597D01*
X007032Y013538D02*
X007692Y013538D01*
X007850Y013550D02*
X007200Y014200D01*
X006790Y014182D02*
X006610Y014182D01*
X006610Y014240D02*
X006790Y014240D01*
X006790Y014123D02*
X006610Y014123D01*
X006610Y014118D02*
X006610Y014282D01*
X006554Y014416D02*
X006846Y014416D01*
X006894Y014474D02*
X006506Y014474D01*
X006447Y014533D02*
X006953Y014533D01*
X007118Y014610D02*
X007282Y014610D01*
X007432Y014548D01*
X007548Y014432D01*
X007610Y014282D01*
X007610Y014118D01*
X007610Y014123D02*
X007790Y014123D01*
X007790Y014182D02*
X007610Y014182D01*
X007610Y014240D02*
X007790Y014240D01*
X007797Y014299D02*
X007603Y014299D01*
X007579Y014357D02*
X007821Y014357D01*
X007846Y014416D02*
X007554Y014416D01*
X007506Y014474D02*
X007894Y014474D01*
X007953Y014533D02*
X007447Y014533D01*
X007327Y014591D02*
X008073Y014591D01*
X008327Y014591D02*
X009073Y014591D01*
X008953Y014533D02*
X008447Y014533D01*
X008506Y014474D02*
X008894Y014474D01*
X008846Y014416D02*
X008554Y014416D01*
X008579Y014357D02*
X008821Y014357D01*
X008797Y014299D02*
X008603Y014299D01*
X008610Y014240D02*
X008790Y014240D01*
X008790Y014182D02*
X008610Y014182D01*
X008610Y014123D02*
X008790Y014123D01*
X008610Y014118D02*
X008564Y014006D01*
X008622Y013948D02*
X008873Y013948D01*
X008931Y013889D02*
X008681Y013889D01*
X008739Y013831D02*
X009021Y013831D01*
X008700Y013700D02*
X008200Y014200D01*
X008379Y013831D02*
X008400Y013831D01*
X008700Y013700D02*
X009600Y013700D01*
X009900Y013400D01*
X010800Y013400D01*
X011015Y013185D01*
X011015Y012905D01*
X011330Y012905D02*
X011330Y013370D01*
X011150Y013550D01*
X009950Y013550D01*
X009600Y013900D01*
X009500Y013900D01*
X009200Y014200D01*
X009579Y014357D02*
X009821Y014357D01*
X009797Y014299D02*
X009603Y014299D01*
X009610Y014240D02*
X009790Y014240D01*
X009790Y014182D02*
X009610Y014182D01*
X009610Y014123D02*
X009790Y014123D01*
X009812Y014065D02*
X009588Y014065D01*
X009664Y014006D02*
X009837Y014006D01*
X009873Y013948D02*
X009722Y013948D01*
X009781Y013889D02*
X009931Y013889D01*
X010021Y013831D02*
X009839Y013831D01*
X009898Y013772D02*
X010458Y013772D01*
X010400Y013831D02*
X010379Y013831D01*
X010517Y013714D02*
X009956Y013714D01*
X010200Y014200D02*
X010650Y013750D01*
X011250Y013750D01*
X011645Y013355D01*
X011645Y012905D01*
X011768Y012602D02*
X011836Y012602D01*
X012083Y012602D02*
X012151Y012602D01*
X012275Y012475D02*
X011000Y011200D01*
X011000Y010700D01*
X011370Y010672D02*
X012579Y010672D01*
X012579Y010730D02*
X011370Y010730D01*
X011370Y010789D02*
X012579Y010789D01*
X012626Y010847D02*
X011644Y010847D01*
X011703Y010906D02*
X012588Y010906D01*
X012579Y010964D02*
X011710Y010964D01*
X011710Y011023D02*
X012280Y011023D01*
X012222Y011081D02*
X011710Y011081D01*
X011709Y011140D02*
X012190Y011140D01*
X012190Y011198D02*
X011768Y011198D01*
X011826Y011257D02*
X012190Y011257D01*
X012218Y011315D02*
X011885Y011315D01*
X011943Y011374D02*
X012277Y011374D01*
X012462Y011432D02*
X012002Y011432D01*
X012060Y011491D02*
X012576Y011491D01*
X012546Y011549D02*
X012119Y011549D01*
X012177Y011608D02*
X012539Y011608D01*
X012539Y011666D02*
X012236Y011666D01*
X012294Y011725D02*
X012542Y011725D01*
X012566Y011783D02*
X012353Y011783D01*
X012445Y011645D02*
X012400Y011600D01*
X012445Y011645D02*
X012905Y011645D01*
X012905Y011960D02*
X012360Y011960D01*
X011500Y011100D01*
X011500Y011000D01*
X011370Y010613D02*
X012579Y010613D01*
X012624Y010555D02*
X011392Y010555D01*
X011451Y010496D02*
X012590Y010496D01*
X012579Y010438D02*
X011460Y010438D01*
X011460Y010379D02*
X012579Y010379D01*
X012579Y010321D02*
X011460Y010321D01*
X011409Y010262D02*
X012602Y010262D01*
X012875Y010100D02*
X011700Y010100D01*
X011600Y010000D01*
X010800Y010000D01*
X010500Y010300D01*
X010500Y010800D01*
X008515Y012785D01*
X006907Y012785D01*
X006907Y012215D01*
X007174Y012134D02*
X007464Y012134D01*
X007329Y012076D02*
X007174Y012076D01*
X007159Y012017D02*
X007270Y012017D01*
X007240Y011959D02*
X007100Y011959D01*
X007155Y011842D02*
X007240Y011842D01*
X007214Y011783D02*
X007270Y011783D01*
X007800Y012300D02*
X008470Y012300D01*
X008495Y012275D01*
X008645Y012485D02*
X007086Y012485D01*
X007115Y012544D02*
X008587Y012544D01*
X008528Y012602D02*
X007173Y012602D01*
X007174Y012661D02*
X008470Y012661D01*
X008575Y012895D02*
X008590Y012895D01*
X008590Y012953D02*
X007174Y012953D01*
X007130Y013012D02*
X008615Y013012D01*
X008673Y013070D02*
X007072Y013070D01*
X007000Y013400D02*
X009500Y013400D01*
X009755Y013145D01*
X009755Y012905D01*
X008996Y012134D02*
X008781Y012134D01*
X008806Y012076D02*
X009055Y012076D01*
X009113Y012017D02*
X008821Y012017D01*
X008821Y011959D02*
X009172Y011959D01*
X009230Y011900D02*
X008821Y011900D01*
X008803Y011842D02*
X009289Y011842D01*
X009347Y011783D02*
X008783Y011783D01*
X008821Y011725D02*
X009406Y011725D01*
X009464Y011666D02*
X008821Y011666D01*
X008821Y011608D02*
X009523Y011608D01*
X009581Y011549D02*
X008821Y011549D01*
X008767Y011491D02*
X009640Y011491D01*
X009698Y011432D02*
X008819Y011432D01*
X008821Y011374D02*
X009757Y011374D01*
X009815Y011315D02*
X008821Y011315D01*
X008821Y011257D02*
X009874Y011257D01*
X009932Y011198D02*
X008790Y011198D01*
X008797Y011140D02*
X009991Y011140D01*
X010049Y011081D02*
X008821Y011081D01*
X008821Y011023D02*
X010108Y011023D01*
X010166Y010964D02*
X008821Y010964D01*
X008812Y010906D02*
X010225Y010906D01*
X010283Y010847D02*
X008774Y010847D01*
X008821Y010789D02*
X010342Y010789D01*
X010380Y010730D02*
X008821Y010730D01*
X008821Y010672D02*
X010380Y010672D01*
X010380Y010613D02*
X008821Y010613D01*
X008776Y010555D02*
X010380Y010555D01*
X010380Y010496D02*
X008810Y010496D01*
X008821Y010438D02*
X010380Y010438D01*
X010380Y010379D02*
X009118Y010379D01*
X009176Y010321D02*
X010380Y010321D01*
X010380Y010262D02*
X009210Y010262D01*
X009210Y010204D02*
X010427Y010204D01*
X010485Y010145D02*
X009210Y010145D01*
X009184Y010087D02*
X010544Y010087D01*
X010602Y010028D02*
X009125Y010028D01*
X008939Y009970D02*
X010661Y009970D01*
X010719Y009911D02*
X008822Y009911D01*
X008870Y010070D02*
X009000Y010200D01*
X008870Y010070D02*
X008495Y010070D01*
X008481Y009769D02*
X008129Y009769D01*
X008129Y009822D01*
X008141Y009867D01*
X008164Y009906D01*
X008196Y009939D01*
X008199Y009940D01*
X008169Y009970D01*
X008169Y010099D01*
X008020Y009950D01*
X008020Y009390D01*
X008169Y009539D01*
X008169Y009540D01*
X008199Y009570D01*
X008196Y009571D01*
X008164Y009604D01*
X008141Y009644D01*
X008129Y009688D01*
X008129Y009741D01*
X008481Y009741D01*
X008481Y009769D01*
X008495Y009755D02*
X008975Y009755D01*
X008495Y009440D02*
X008240Y009440D01*
X008100Y009300D01*
X008100Y008800D01*
X009100Y007800D01*
X009100Y006225D01*
X009125Y006200D01*
X008898Y005933D02*
X008880Y005933D01*
X008822Y005875D02*
X008956Y005875D01*
X009294Y005875D02*
X009429Y005875D01*
X009370Y005933D02*
X009353Y005933D01*
X009598Y006200D02*
X009600Y006202D01*
X009600Y007500D01*
X008495Y008605D01*
X008495Y009125D01*
X008615Y008800D02*
X009003Y008800D01*
X008947Y008741D02*
X008615Y008741D01*
X008615Y008683D02*
X008947Y008683D01*
X008947Y008624D02*
X008646Y008624D01*
X008704Y008566D02*
X008947Y008566D01*
X008947Y008507D02*
X008763Y008507D01*
X008821Y008449D02*
X008947Y008449D01*
X008947Y008390D02*
X008880Y008390D01*
X008938Y008332D02*
X008947Y008332D01*
X008700Y008000D02*
X008700Y006247D01*
X008653Y006200D01*
X008425Y005933D02*
X008408Y005933D01*
X008349Y005875D02*
X008484Y005875D01*
X008180Y006200D02*
X008200Y006220D01*
X008200Y008200D01*
X007700Y008700D01*
X007700Y010100D01*
X008300Y010700D01*
X008495Y010700D01*
X008495Y010385D02*
X008285Y010385D01*
X007900Y010000D01*
X007900Y008800D01*
X008700Y008000D01*
X008080Y007981D02*
X006883Y007981D01*
X006883Y007922D02*
X008080Y007922D01*
X008080Y007864D02*
X006883Y007864D01*
X006883Y007805D02*
X008080Y007805D01*
X008080Y007747D02*
X006883Y007747D01*
X006883Y007688D02*
X008080Y007688D01*
X008080Y007630D02*
X006883Y007630D01*
X006883Y007571D02*
X008080Y007571D01*
X008080Y007513D02*
X006883Y007513D01*
X006883Y007454D02*
X008080Y007454D01*
X008080Y007396D02*
X006883Y007396D01*
X006883Y007337D02*
X008080Y007337D01*
X008080Y007279D02*
X006883Y007279D01*
X006883Y007220D02*
X008080Y007220D01*
X008080Y007162D02*
X006883Y007162D01*
X006883Y007103D02*
X008080Y007103D01*
X008080Y007045D02*
X006883Y007045D01*
X006883Y006986D02*
X008080Y006986D01*
X008080Y006928D02*
X006883Y006928D01*
X006883Y006869D02*
X008080Y006869D01*
X008080Y006811D02*
X006883Y006811D01*
X006883Y006752D02*
X008080Y006752D01*
X008080Y006694D02*
X006883Y006694D01*
X006883Y006635D02*
X008080Y006635D01*
X008080Y006577D02*
X006883Y006577D01*
X006940Y006518D02*
X007059Y006518D01*
X007000Y006460D02*
X006998Y006460D01*
X006763Y006200D02*
X006763Y008037D01*
X006800Y008074D01*
X006800Y008400D01*
X007010Y008390D02*
X007840Y008390D01*
X007782Y008449D02*
X007010Y008449D01*
X006990Y008507D02*
X007723Y008507D01*
X007665Y008566D02*
X006931Y008566D01*
X006921Y008624D02*
X007606Y008624D01*
X007580Y008683D02*
X006980Y008683D01*
X007010Y008741D02*
X007580Y008741D01*
X007580Y008800D02*
X007010Y008800D01*
X007010Y008858D02*
X007580Y008858D01*
X007580Y008917D02*
X006980Y008917D01*
X006922Y008975D02*
X007580Y008975D01*
X007580Y009034D02*
X004548Y009034D01*
X004573Y009092D02*
X007580Y009092D01*
X007580Y009151D02*
X004581Y009151D01*
X004581Y009209D02*
X007580Y009209D01*
X007580Y009268D02*
X004581Y009268D01*
X004581Y009326D02*
X007580Y009326D01*
X007580Y009385D02*
X004579Y009385D01*
X004555Y009443D02*
X007580Y009443D01*
X007580Y009502D02*
X004531Y009502D01*
X004507Y009560D02*
X007580Y009560D01*
X007580Y009619D02*
X004483Y009619D01*
X004432Y009677D02*
X007580Y009677D01*
X007580Y009736D02*
X004373Y009736D01*
X004315Y009794D02*
X007580Y009794D01*
X007580Y009853D02*
X004215Y009853D01*
X004074Y009911D02*
X007580Y009911D01*
X007580Y009970D02*
X004903Y009970D01*
X004961Y010028D02*
X007580Y010028D01*
X007580Y010087D02*
X005020Y010087D01*
X005078Y010145D02*
X007580Y010145D01*
X007634Y010204D02*
X005137Y010204D01*
X005195Y010262D02*
X007692Y010262D01*
X007751Y010321D02*
X005254Y010321D01*
X005312Y010379D02*
X007809Y010379D01*
X007868Y010438D02*
X005371Y010438D01*
X005429Y010496D02*
X005693Y010496D01*
X006116Y010496D02*
X006436Y010496D01*
X006377Y010555D02*
X006175Y010555D01*
X006192Y010613D02*
X006366Y010613D01*
X006366Y010672D02*
X006192Y010672D01*
X006192Y010730D02*
X006366Y010730D01*
X006322Y010789D02*
X006192Y010789D01*
X006186Y010847D02*
X006264Y010847D01*
X006280Y011000D02*
X006574Y010706D01*
X006883Y011015D01*
X008495Y011015D01*
X008495Y011330D02*
X006738Y011330D01*
X006574Y011494D01*
X006574Y011474D01*
X006300Y011200D01*
X005410Y011200D01*
X005295Y011315D01*
X004915Y011315D01*
X004800Y011200D01*
X004269Y011200D01*
X004254Y011215D01*
X004011Y011023D02*
X003828Y011023D01*
X003853Y010964D02*
X004070Y010964D01*
X004082Y010847D02*
X003854Y010847D01*
X003854Y010906D02*
X004790Y010906D01*
X004790Y010964D02*
X004439Y010964D01*
X004498Y011023D02*
X004826Y011023D01*
X004851Y011081D02*
X004884Y011081D01*
X004909Y011140D02*
X005174Y011140D01*
X005100Y011000D02*
X006280Y011000D01*
X006304Y011374D02*
X006034Y011374D01*
X006034Y011432D02*
X006362Y011432D01*
X006366Y011491D02*
X006034Y011491D01*
X006034Y011549D02*
X006366Y011549D01*
X006366Y011608D02*
X006034Y011608D01*
X006002Y011666D02*
X006398Y011666D01*
X006714Y011959D02*
X005486Y011959D01*
X005545Y012017D02*
X006655Y012017D01*
X006640Y012076D02*
X005560Y012076D01*
X005560Y012134D02*
X006640Y012134D01*
X006640Y012193D02*
X005560Y012193D01*
X005560Y012251D02*
X006640Y012251D01*
X006640Y012310D02*
X005560Y012310D01*
X005560Y012368D02*
X006640Y012368D01*
X006670Y012427D02*
X005530Y012427D01*
X005472Y012485D02*
X006728Y012485D01*
X006700Y012544D02*
X005500Y012544D01*
X005559Y012602D02*
X006641Y012602D01*
X006640Y012661D02*
X005560Y012661D01*
X005560Y012719D02*
X006640Y012719D01*
X006640Y012778D02*
X005560Y012778D01*
X005560Y012836D02*
X006640Y012836D01*
X006640Y012895D02*
X005560Y012895D01*
X005560Y012953D02*
X006640Y012953D01*
X006684Y013012D02*
X005516Y013012D01*
X005458Y013070D02*
X006742Y013070D01*
X006043Y013187D02*
X004149Y013187D01*
X003509Y013538D02*
X005692Y013538D01*
X005634Y013597D02*
X003525Y013597D01*
X003479Y013480D02*
X005751Y013480D01*
X005809Y013421D02*
X003429Y013421D01*
X003336Y013363D02*
X005868Y013363D01*
X005926Y013304D02*
X000330Y013304D01*
X000330Y013246D02*
X005985Y013246D01*
X005407Y012800D02*
X005200Y012800D01*
X004900Y012500D01*
X005185Y012215D01*
X005293Y012215D01*
X005620Y011700D02*
X003800Y011700D01*
X003630Y011530D01*
X003546Y011530D01*
X003767Y011315D02*
X003962Y011315D01*
X003946Y011257D02*
X003691Y011257D01*
X003631Y011198D02*
X003946Y011198D01*
X003952Y011140D02*
X003742Y011140D01*
X003800Y011081D02*
X003976Y011081D01*
X004080Y010846D02*
X003993Y010760D01*
X003946Y010646D01*
X003946Y010524D01*
X003993Y010411D01*
X004080Y010324D01*
X004193Y010277D01*
X004316Y010277D01*
X004429Y010324D01*
X004516Y010411D01*
X004562Y010524D01*
X004562Y010646D01*
X004516Y010760D01*
X004429Y010846D01*
X004316Y010893D01*
X004193Y010893D01*
X004080Y010846D01*
X004022Y010789D02*
X003833Y010789D01*
X003809Y010730D02*
X003981Y010730D01*
X003957Y010672D02*
X003753Y010672D01*
X003658Y010613D02*
X003946Y010613D01*
X003946Y010555D02*
X003664Y010555D01*
X003755Y010496D02*
X003958Y010496D01*
X003982Y010438D02*
X003810Y010438D01*
X003834Y010379D02*
X004025Y010379D01*
X004088Y010321D02*
X003854Y010321D01*
X004421Y010321D02*
X004787Y010321D01*
X004846Y010379D02*
X004484Y010379D01*
X004527Y010438D02*
X004904Y010438D01*
X004963Y010496D02*
X004551Y010496D01*
X004562Y010555D02*
X005021Y010555D01*
X005080Y010613D02*
X004562Y010613D01*
X004552Y010672D02*
X005138Y010672D01*
X005127Y010730D02*
X005197Y010730D01*
X005186Y010789D02*
X005255Y010789D01*
X005210Y010847D02*
X005314Y010847D01*
X005100Y011000D02*
X005000Y010900D01*
X004873Y010730D02*
X004528Y010730D01*
X004487Y010789D02*
X004814Y010789D01*
X004790Y010847D02*
X004427Y010847D01*
X004522Y011374D02*
X004804Y011374D01*
X004862Y011432D02*
X004473Y011432D01*
X004394Y011491D02*
X005174Y011491D01*
X005417Y011491D02*
X005618Y011491D01*
X005618Y011432D02*
X005475Y011432D01*
X005505Y011374D02*
X005618Y011374D01*
X005601Y011549D02*
X003854Y011549D01*
X003854Y011491D02*
X004115Y011491D01*
X004036Y011432D02*
X003839Y011432D01*
X003814Y011374D02*
X003987Y011374D01*
X005620Y011700D02*
X005826Y011494D01*
X006826Y010789D02*
X008169Y010789D01*
X008160Y010730D02*
X006782Y010730D01*
X006782Y010672D02*
X008102Y010672D01*
X008043Y010613D02*
X006782Y010613D01*
X006771Y010555D02*
X007985Y010555D01*
X007926Y010496D02*
X006712Y010496D01*
X006884Y010847D02*
X008216Y010847D01*
X008821Y010379D02*
X008882Y010379D01*
X008824Y010321D02*
X008821Y010321D01*
X008169Y010087D02*
X008156Y010087D01*
X008169Y010028D02*
X008098Y010028D01*
X008039Y009970D02*
X008170Y009970D01*
X008168Y009911D02*
X008020Y009911D01*
X008020Y009853D02*
X008137Y009853D01*
X008129Y009794D02*
X008020Y009794D01*
X008020Y009736D02*
X008129Y009736D01*
X008132Y009677D02*
X008020Y009677D01*
X008020Y009619D02*
X008155Y009619D01*
X008189Y009560D02*
X008020Y009560D01*
X008020Y009502D02*
X008132Y009502D01*
X008073Y009443D02*
X008020Y009443D01*
X007899Y008332D02*
X007010Y008332D01*
X006970Y008273D02*
X007957Y008273D01*
X008016Y008215D02*
X006920Y008215D01*
X006920Y008156D02*
X008074Y008156D01*
X008080Y008098D02*
X006920Y008098D01*
X006920Y008039D02*
X008080Y008039D01*
X009247Y008800D02*
X009318Y008800D01*
X009562Y008800D02*
X009633Y008800D01*
X009877Y008800D02*
X009948Y008800D01*
X010530Y008215D02*
X010555Y008215D01*
X010580Y008156D02*
X010505Y008156D01*
X010505Y008098D02*
X010580Y008098D01*
X010580Y008039D02*
X010505Y008039D01*
X010505Y007981D02*
X010580Y007981D01*
X010638Y007922D02*
X010505Y007922D01*
X010608Y007864D02*
X010697Y007864D01*
X010687Y007805D02*
X010755Y007805D01*
X010730Y007747D02*
X010814Y007747D01*
X010846Y007688D02*
X010754Y007688D01*
X010760Y007630D02*
X010840Y007630D01*
X010840Y007571D02*
X010760Y007571D01*
X010754Y007513D02*
X010846Y007513D01*
X010870Y007454D02*
X010730Y007454D01*
X010687Y007396D02*
X010913Y007396D01*
X010779Y007279D02*
X010491Y007279D01*
X010550Y007220D02*
X010712Y007220D01*
X010673Y007162D02*
X010608Y007162D01*
X010180Y007045D02*
X009720Y007045D01*
X009720Y007103D02*
X010127Y007103D01*
X010069Y007162D02*
X009720Y007162D01*
X009720Y007220D02*
X010010Y007220D01*
X009952Y007279D02*
X009720Y007279D01*
X009720Y007337D02*
X009893Y007337D01*
X009835Y007396D02*
X009720Y007396D01*
X009720Y007454D02*
X009776Y007454D01*
X009720Y006986D02*
X010180Y006986D01*
X010180Y006928D02*
X009720Y006928D01*
X009720Y006869D02*
X010180Y006869D01*
X010180Y006811D02*
X009720Y006811D01*
X009720Y006752D02*
X010180Y006752D01*
X010180Y006694D02*
X009720Y006694D01*
X009720Y006635D02*
X010180Y006635D01*
X010180Y006577D02*
X009720Y006577D01*
X009774Y006518D02*
X010212Y006518D01*
X010271Y006460D02*
X009833Y006460D01*
X009845Y006401D02*
X010329Y006401D01*
X010388Y006343D02*
X009845Y006343D01*
X009845Y006284D02*
X010446Y006284D01*
X010505Y006226D02*
X009845Y006226D01*
X009845Y006167D02*
X010563Y006167D01*
X010622Y006109D02*
X009845Y006109D01*
X009845Y006050D02*
X010680Y006050D01*
X010739Y005992D02*
X009845Y005992D01*
X009825Y005933D02*
X010797Y005933D01*
X010856Y005875D02*
X009767Y005875D01*
X010600Y006700D02*
X013200Y004100D01*
X012765Y004705D02*
X015070Y004705D01*
X015070Y004763D02*
X012707Y004763D01*
X012648Y004822D02*
X014042Y004822D01*
X013940Y004880D02*
X012590Y004880D01*
X012531Y004939D02*
X013882Y004939D01*
X013840Y004997D02*
X012473Y004997D01*
X012414Y005056D02*
X013816Y005056D01*
X013792Y005114D02*
X012356Y005114D01*
X012297Y005173D02*
X013790Y005173D01*
X013790Y005231D02*
X012239Y005231D01*
X012180Y005290D02*
X013793Y005290D01*
X013818Y005348D02*
X012122Y005348D01*
X012063Y005407D02*
X013724Y005407D01*
X013665Y005465D02*
X012005Y005465D01*
X011946Y005524D02*
X013607Y005524D01*
X013548Y005582D02*
X011888Y005582D01*
X011829Y005641D02*
X013490Y005641D01*
X013431Y005699D02*
X011771Y005699D01*
X011712Y005758D02*
X013373Y005758D01*
X013314Y005816D02*
X011654Y005816D01*
X011595Y005875D02*
X013256Y005875D01*
X013197Y005933D02*
X011537Y005933D01*
X011478Y005992D02*
X013139Y005992D01*
X013080Y006050D02*
X011420Y006050D01*
X011361Y006109D02*
X013022Y006109D01*
X012963Y006167D02*
X011303Y006167D01*
X011244Y006226D02*
X012905Y006226D01*
X012846Y006284D02*
X011186Y006284D01*
X011127Y006343D02*
X012788Y006343D01*
X012729Y006401D02*
X011069Y006401D01*
X011010Y006460D02*
X012671Y006460D01*
X012612Y006518D02*
X010952Y006518D01*
X010893Y006577D02*
X012554Y006577D01*
X012495Y006635D02*
X010835Y006635D01*
X010914Y005816D02*
X005920Y005816D01*
X005920Y005758D02*
X010973Y005758D01*
X011031Y005699D02*
X005869Y005699D01*
X005810Y005641D02*
X011090Y005641D01*
X011148Y005582D02*
X005752Y005582D01*
X005649Y005875D02*
X005515Y005875D01*
X005573Y005933D02*
X005591Y005933D01*
X005987Y005875D02*
X006121Y005875D01*
X006063Y005933D02*
X006046Y005933D01*
X006291Y006200D02*
X006300Y006209D01*
X006300Y008300D01*
X006800Y008800D01*
X006678Y008975D02*
X004524Y008975D01*
X004500Y008917D02*
X006620Y008917D01*
X006590Y008858D02*
X004474Y008858D01*
X004416Y008800D02*
X006590Y008800D01*
X006571Y008741D02*
X004357Y008741D01*
X004299Y008683D02*
X006513Y008683D01*
X006454Y008624D02*
X004176Y008624D01*
X003860Y008098D02*
X003800Y008098D01*
X003800Y008039D02*
X003860Y008039D01*
X003860Y007981D02*
X003800Y007981D01*
X003800Y007922D02*
X003860Y007922D01*
X003860Y007864D02*
X003800Y007864D01*
X003800Y007688D02*
X003860Y007688D01*
X003860Y007630D02*
X003800Y007630D01*
X003800Y007571D02*
X003860Y007571D01*
X003860Y007513D02*
X003800Y007513D01*
X003800Y007396D02*
X003860Y007396D01*
X003860Y007337D02*
X003800Y007337D01*
X003800Y007279D02*
X003860Y007279D01*
X003860Y007220D02*
X003800Y007220D01*
X003800Y007162D02*
X003860Y007162D01*
X003860Y006986D02*
X003800Y006986D01*
X003800Y006928D02*
X003860Y006928D01*
X003860Y006869D02*
X003800Y006869D01*
X003800Y006811D02*
X003860Y006811D01*
X003655Y006811D02*
X003245Y006811D01*
X003361Y006869D02*
X003583Y006869D01*
X003539Y006928D02*
X003419Y006928D01*
X003443Y006986D02*
X003513Y006986D01*
X003501Y007045D02*
X003460Y007045D01*
X003170Y007100D02*
X002630Y007100D01*
X002873Y007279D02*
X002927Y007279D01*
X002985Y007337D02*
X002815Y007337D01*
X002710Y007513D02*
X003090Y007513D01*
X002977Y007571D02*
X002823Y007571D01*
X002880Y007630D02*
X002920Y007630D01*
X002900Y007922D02*
X002900Y007922D01*
X002871Y007981D02*
X002929Y007981D01*
X002987Y008039D02*
X002813Y008039D01*
X002630Y007800D02*
X003170Y007800D01*
X003460Y007747D02*
X003501Y007747D01*
X003513Y007688D02*
X003444Y007688D01*
X003420Y007630D02*
X003538Y007630D01*
X003581Y007571D02*
X003363Y007571D01*
X003250Y007513D02*
X003652Y007513D01*
X003452Y006518D02*
X004224Y006518D01*
X004166Y006460D02*
X003510Y006460D01*
X003569Y006401D02*
X004153Y006401D01*
X004153Y006343D02*
X003627Y006343D01*
X003686Y006284D02*
X004153Y006284D01*
X004153Y006226D02*
X003744Y006226D01*
X003803Y006167D02*
X004153Y006167D01*
X004153Y006109D02*
X003861Y006109D01*
X003920Y006050D02*
X004153Y006050D01*
X004153Y005992D02*
X003978Y005992D01*
X004037Y005933D02*
X004173Y005933D01*
X004232Y005875D02*
X004095Y005875D01*
X004570Y005875D02*
X004704Y005875D01*
X004646Y005933D02*
X004628Y005933D01*
X005042Y005875D02*
X005177Y005875D01*
X005118Y005933D02*
X005101Y005933D01*
X005108Y006460D02*
X005111Y006460D01*
X005169Y006518D02*
X005050Y006518D01*
X004697Y006518D02*
X004577Y006518D01*
X004636Y006460D02*
X004638Y006460D01*
X003707Y005524D02*
X003000Y005524D01*
X003000Y005582D02*
X003648Y005582D01*
X003590Y005641D02*
X003000Y005641D01*
X003000Y005699D02*
X003531Y005699D01*
X003473Y005758D02*
X003000Y005758D01*
X003000Y005816D02*
X003414Y005816D01*
X003356Y005875D02*
X003000Y005875D01*
X003000Y005933D02*
X003297Y005933D01*
X003239Y005992D02*
X003000Y005992D01*
X003000Y006050D02*
X003180Y006050D01*
X003122Y006109D02*
X003000Y006109D01*
X003000Y006167D02*
X003063Y006167D01*
X003005Y006226D02*
X003000Y006226D01*
X002888Y006343D02*
X000330Y006343D01*
X000330Y006401D02*
X002129Y006401D01*
X002071Y006460D02*
X000330Y006460D01*
X000330Y006518D02*
X002012Y006518D01*
X001954Y006577D02*
X000330Y006577D01*
X000330Y006635D02*
X001895Y006635D01*
X001880Y006694D02*
X000330Y006694D01*
X000330Y006752D02*
X001880Y006752D01*
X001880Y006811D02*
X000330Y006811D01*
X000330Y006869D02*
X001779Y006869D01*
X001721Y006928D02*
X000330Y006928D01*
X000330Y006986D02*
X001697Y006986D01*
X001680Y007045D02*
X000330Y007045D01*
X000330Y007103D02*
X001680Y007103D01*
X001680Y007162D02*
X000330Y007162D01*
X000330Y007220D02*
X001699Y007220D01*
X001727Y007279D02*
X000330Y007279D01*
X000330Y007337D02*
X001785Y007337D01*
X001890Y007513D02*
X000330Y007513D01*
X000330Y007571D02*
X001777Y007571D01*
X001720Y007630D02*
X000330Y007630D01*
X000330Y007688D02*
X001696Y007688D01*
X001680Y007747D02*
X000330Y007747D01*
X000330Y007805D02*
X001680Y007805D01*
X001680Y007864D02*
X000330Y007864D01*
X000330Y007922D02*
X001700Y007922D01*
X001729Y007981D02*
X000330Y007981D01*
X000330Y008039D02*
X001787Y008039D01*
X001970Y007800D02*
X002000Y007800D01*
X002300Y007500D01*
X002300Y006950D01*
X002500Y006750D01*
X002900Y006500D02*
X005100Y004300D01*
X010690Y004300D01*
X010700Y004310D01*
X010440Y004588D02*
X004982Y004588D01*
X004924Y004646D02*
X010381Y004646D01*
X010354Y004705D02*
X004865Y004705D01*
X004807Y004763D02*
X010354Y004763D01*
X010424Y004529D02*
X005041Y004529D01*
X005099Y004471D02*
X010366Y004471D01*
X010354Y004178D02*
X004292Y004178D01*
X004350Y004120D02*
X010396Y004120D01*
X010429Y004061D02*
X004409Y004061D01*
X004467Y004003D02*
X010370Y004003D01*
X010354Y003944D02*
X004526Y003944D01*
X004584Y003886D02*
X010354Y003886D01*
X010354Y003827D02*
X004643Y003827D01*
X004701Y003769D02*
X010354Y003769D01*
X010354Y003710D02*
X004760Y003710D01*
X004818Y003652D02*
X010392Y003652D01*
X010433Y003593D02*
X004877Y003593D01*
X004935Y003535D02*
X010375Y003535D01*
X010354Y003476D02*
X004994Y003476D01*
X005000Y003300D02*
X003200Y005100D01*
X003064Y004939D02*
X003000Y004939D01*
X003000Y004997D02*
X003006Y004997D01*
X003000Y004880D02*
X003250Y004880D01*
X003309Y004822D02*
X003000Y004822D01*
X003000Y004763D02*
X003367Y004763D01*
X003426Y004705D02*
X003000Y004705D01*
X003000Y004646D02*
X003484Y004646D01*
X003543Y004588D02*
X003000Y004588D01*
X003000Y004529D02*
X003601Y004529D01*
X003660Y004471D02*
X003000Y004471D01*
X003000Y004412D02*
X003718Y004412D01*
X003777Y004354D02*
X003000Y004354D01*
X003000Y004295D02*
X003835Y004295D01*
X003894Y004237D02*
X003000Y004237D01*
X003000Y004178D02*
X003952Y004178D01*
X004011Y004120D02*
X003000Y004120D01*
X003000Y004061D02*
X004069Y004061D01*
X004128Y004003D02*
X003000Y004003D01*
X003000Y003944D02*
X004186Y003944D01*
X004245Y003886D02*
X003000Y003886D01*
X003000Y003827D02*
X004303Y003827D01*
X004362Y003769D02*
X003000Y003769D01*
X003000Y003710D02*
X004420Y003710D01*
X004479Y003652D02*
X003000Y003652D01*
X003000Y003593D02*
X004537Y003593D01*
X004596Y003535D02*
X003000Y003535D01*
X003000Y003476D02*
X004654Y003476D01*
X004713Y003418D02*
X003000Y003418D01*
X003000Y003359D02*
X004771Y003359D01*
X004830Y003301D02*
X003000Y003301D01*
X003000Y003242D02*
X004888Y003242D01*
X004947Y003184D02*
X003000Y003184D01*
X003000Y003125D02*
X005805Y003125D01*
X005864Y003067D02*
X005430Y003067D01*
X005489Y003008D02*
X005922Y003008D01*
X005981Y002950D02*
X005510Y002950D01*
X005510Y002891D02*
X006039Y002891D01*
X006098Y002833D02*
X005510Y002833D01*
X005471Y002774D02*
X006156Y002774D01*
X006180Y002716D02*
X005420Y002716D01*
X005420Y002657D02*
X006180Y002657D01*
X006180Y002599D02*
X005420Y002599D01*
X005420Y002540D02*
X006180Y002540D01*
X006180Y002482D02*
X005420Y002482D01*
X005420Y002423D02*
X006180Y002423D01*
X006180Y002365D02*
X005420Y002365D01*
X005420Y002306D02*
X006180Y002306D01*
X006180Y002248D02*
X005420Y002248D01*
X005420Y002189D02*
X006180Y002189D01*
X006180Y002131D02*
X005420Y002131D01*
X005420Y002072D02*
X006180Y002072D01*
X006180Y002014D02*
X005420Y002014D01*
X005420Y001955D02*
X006180Y001955D01*
X006180Y001897D02*
X005420Y001897D01*
X005420Y001838D02*
X006180Y001838D01*
X006180Y001780D02*
X005420Y001780D01*
X005420Y001721D02*
X006180Y001721D01*
X006180Y001663D02*
X005420Y001663D01*
X005420Y001604D02*
X006180Y001604D01*
X006180Y001546D02*
X005420Y001546D01*
X005420Y001487D02*
X006180Y001487D01*
X006180Y001429D02*
X005420Y001429D01*
X005420Y001370D02*
X006180Y001370D01*
X006104Y001312D02*
X006004Y001312D01*
X006420Y001370D02*
X008958Y001370D01*
X008882Y001312D02*
X008839Y001312D01*
X009095Y001312D02*
X009155Y001312D01*
X009155Y001370D02*
X009095Y001370D01*
X009095Y001253D02*
X009155Y001253D01*
X009155Y001195D02*
X009095Y001195D01*
X009095Y001136D02*
X009155Y001136D01*
X009155Y001078D02*
X009095Y001078D01*
X009125Y001003D02*
X009125Y001725D01*
X009100Y001750D01*
X009390Y001721D02*
X006420Y001721D01*
X006420Y001663D02*
X009390Y001663D01*
X009399Y001604D02*
X006420Y001604D01*
X006420Y001546D02*
X009458Y001546D01*
X009478Y001487D02*
X006420Y001487D01*
X006420Y001429D02*
X009478Y001429D01*
X009478Y001370D02*
X009293Y001370D01*
X009368Y001312D02*
X009411Y001312D01*
X009718Y001370D02*
X011950Y001370D01*
X011968Y001352D02*
X011852Y001468D01*
X011790Y001618D01*
X011790Y001782D01*
X011852Y001932D01*
X011968Y002048D01*
X012118Y002110D01*
X012282Y002110D01*
X012432Y002048D01*
X012548Y001932D01*
X012610Y001782D01*
X012610Y001618D01*
X012548Y001468D01*
X012432Y001352D01*
X012282Y001290D01*
X012118Y001290D01*
X011968Y001352D01*
X012067Y001312D02*
X009784Y001312D01*
X009842Y001253D02*
X013146Y001253D01*
X013165Y001250D02*
X013170Y001250D01*
X013170Y001670D01*
X012750Y001670D01*
X012750Y001665D01*
X012761Y001595D01*
X012783Y001527D01*
X012815Y001464D01*
X012857Y001407D01*
X012907Y001357D01*
X012964Y001315D01*
X013027Y001283D01*
X013095Y001261D01*
X013165Y001250D01*
X013170Y001253D02*
X013230Y001253D01*
X013254Y001253D02*
X015070Y001253D01*
X015070Y001195D02*
X009845Y001195D01*
X009845Y001136D02*
X015070Y001136D01*
X015070Y001078D02*
X009845Y001078D01*
X009845Y001019D02*
X015070Y001019D01*
X015070Y000961D02*
X009845Y000961D01*
X009845Y000902D02*
X015070Y000902D01*
X015070Y000844D02*
X009845Y000844D01*
X009845Y000785D02*
X015070Y000785D01*
X015070Y000727D02*
X009816Y000727D01*
X009757Y000668D02*
X015070Y000668D01*
X015070Y000610D02*
X003000Y000610D01*
X003000Y000668D02*
X004241Y000668D01*
X004183Y000727D02*
X003000Y000727D01*
X003000Y000785D02*
X004153Y000785D01*
X004153Y000844D02*
X003000Y000844D01*
X003000Y000902D02*
X004153Y000902D01*
X004153Y000961D02*
X003000Y000961D01*
X003000Y001019D02*
X004153Y001019D01*
X004153Y001078D02*
X003000Y001078D01*
X003000Y001136D02*
X004153Y001136D01*
X004153Y001195D02*
X003000Y001195D01*
X003000Y001253D02*
X004156Y001253D01*
X004215Y001312D02*
X003000Y001312D01*
X003000Y001370D02*
X005180Y001370D01*
X005180Y001429D02*
X003000Y001429D01*
X003000Y001487D02*
X005180Y001487D01*
X005180Y001546D02*
X003000Y001546D01*
X003000Y001604D02*
X005180Y001604D01*
X005180Y001663D02*
X003000Y001663D01*
X003000Y001721D02*
X005180Y001721D01*
X005180Y001780D02*
X003000Y001780D01*
X003000Y001838D02*
X005180Y001838D01*
X005180Y001897D02*
X003000Y001897D01*
X003000Y001955D02*
X005180Y001955D01*
X005180Y002014D02*
X003000Y002014D01*
X003000Y002072D02*
X005180Y002072D01*
X005180Y002131D02*
X003000Y002131D01*
X003000Y002189D02*
X005180Y002189D01*
X005180Y002248D02*
X003000Y002248D01*
X003000Y002306D02*
X005180Y002306D01*
X005180Y002365D02*
X003000Y002365D01*
X003000Y002423D02*
X005180Y002423D01*
X005180Y002482D02*
X003000Y002482D01*
X003000Y002540D02*
X005180Y002540D01*
X005180Y002599D02*
X003000Y002599D01*
X003000Y002657D02*
X005180Y002657D01*
X005180Y002716D02*
X003000Y002716D01*
X003000Y002774D02*
X005129Y002774D01*
X005090Y002833D02*
X003000Y002833D01*
X003000Y002891D02*
X005090Y002891D01*
X005090Y002950D02*
X003000Y002950D01*
X003000Y003008D02*
X005111Y003008D01*
X005170Y003067D02*
X003000Y003067D01*
X004175Y004295D02*
X004935Y004295D01*
X004877Y004354D02*
X004116Y004354D01*
X004058Y004412D02*
X004818Y004412D01*
X004760Y004471D02*
X003999Y004471D01*
X003941Y004529D02*
X004701Y004529D01*
X004643Y004588D02*
X003882Y004588D01*
X003824Y004646D02*
X004584Y004646D01*
X004526Y004705D02*
X003765Y004705D01*
X003707Y004763D02*
X004467Y004763D01*
X004409Y004822D02*
X003648Y004822D01*
X003590Y004880D02*
X004350Y004880D01*
X004292Y004939D02*
X003531Y004939D01*
X003473Y004997D02*
X004233Y004997D01*
X004175Y005056D02*
X003414Y005056D01*
X003410Y005114D02*
X004116Y005114D01*
X004058Y005173D02*
X003410Y005173D01*
X003366Y005231D02*
X003999Y005231D01*
X003941Y005290D02*
X003307Y005290D01*
X003093Y005290D02*
X003000Y005290D01*
X003000Y005348D02*
X003882Y005348D01*
X003824Y005407D02*
X003000Y005407D01*
X003000Y005465D02*
X003765Y005465D01*
X003034Y005231D02*
X003000Y005231D01*
X004233Y004237D02*
X004994Y004237D01*
X005000Y003300D02*
X005800Y003300D01*
X006300Y002800D01*
X006300Y001013D01*
X006291Y001003D01*
X006508Y000727D02*
X006545Y000727D01*
X006604Y000668D02*
X006450Y000668D01*
X006131Y000668D02*
X005978Y000668D01*
X006036Y000727D02*
X006073Y000727D01*
X005659Y000668D02*
X005505Y000668D01*
X005564Y000727D02*
X005600Y000727D01*
X005346Y001003D02*
X005300Y001049D01*
X005300Y002900D01*
X005852Y003418D02*
X010354Y003418D01*
X010354Y003359D02*
X005911Y003359D01*
X005969Y003301D02*
X010354Y003301D01*
X010354Y003242D02*
X006028Y003242D01*
X006086Y003184D02*
X010387Y003184D01*
X010438Y003125D02*
X006145Y003125D01*
X006203Y003067D02*
X010379Y003067D01*
X010354Y003008D02*
X006262Y003008D01*
X006320Y002950D02*
X010354Y002950D01*
X010354Y002891D02*
X006379Y002891D01*
X006420Y002833D02*
X010354Y002833D01*
X010354Y002774D02*
X006420Y002774D01*
X006420Y002716D02*
X010383Y002716D01*
X010441Y002657D02*
X006420Y002657D01*
X006420Y002599D02*
X010423Y002599D01*
X010364Y002540D02*
X006420Y002540D01*
X006420Y002482D02*
X010354Y002482D01*
X010354Y002423D02*
X006420Y002423D01*
X006420Y002365D02*
X010354Y002365D01*
X010354Y002306D02*
X006420Y002306D01*
X006420Y002248D02*
X010354Y002248D01*
X010398Y002189D02*
X006420Y002189D01*
X006420Y002131D02*
X010354Y002131D01*
X010354Y002072D02*
X006420Y002072D01*
X006420Y002014D02*
X010354Y002014D01*
X010354Y001955D02*
X006420Y001955D01*
X006420Y001897D02*
X009500Y001897D01*
X009441Y001838D02*
X006420Y001838D01*
X006420Y001780D02*
X009390Y001780D01*
X009598Y001698D02*
X009600Y001700D01*
X009598Y001698D02*
X009598Y001003D01*
X009438Y000668D02*
X009341Y000668D01*
X009155Y000668D02*
X009095Y000668D01*
X009095Y000727D02*
X009155Y000727D01*
X009155Y000785D02*
X009095Y000785D01*
X009095Y000844D02*
X009155Y000844D01*
X009155Y000902D02*
X009095Y000902D01*
X009095Y000961D02*
X009155Y000961D01*
X008909Y000668D02*
X008812Y000668D01*
X008493Y000668D02*
X008340Y000668D01*
X008398Y000727D02*
X008435Y000727D01*
X008021Y000668D02*
X007867Y000668D01*
X007926Y000727D02*
X007962Y000727D01*
X007548Y000668D02*
X007395Y000668D01*
X007453Y000727D02*
X007490Y000727D01*
X007076Y000668D02*
X006922Y000668D01*
X006981Y000727D02*
X007018Y000727D01*
X007049Y001312D02*
X006949Y001312D01*
X006577Y001312D02*
X006477Y001312D01*
X005632Y001312D02*
X005532Y001312D01*
X005159Y001312D02*
X005059Y001312D01*
X004687Y001312D02*
X004587Y001312D01*
X004619Y000727D02*
X004655Y000727D01*
X004714Y000668D02*
X004560Y000668D01*
X005033Y000668D02*
X005186Y000668D01*
X005128Y000727D02*
X005091Y000727D01*
X003000Y000551D02*
X015070Y000551D01*
X015070Y000493D02*
X003000Y000493D01*
X003000Y000434D02*
X015070Y000434D01*
X015070Y000376D02*
X003000Y000376D01*
X007422Y001312D02*
X007522Y001312D01*
X007894Y001312D02*
X007994Y001312D01*
X008366Y001312D02*
X008467Y001312D01*
X009718Y001429D02*
X011892Y001429D01*
X011844Y001487D02*
X009718Y001487D01*
X009742Y001546D02*
X011820Y001546D01*
X011796Y001604D02*
X009801Y001604D01*
X009810Y001663D02*
X011790Y001663D01*
X011790Y001721D02*
X009810Y001721D01*
X009810Y001780D02*
X010413Y001780D01*
X010355Y001838D02*
X009759Y001838D01*
X009700Y001897D02*
X010354Y001897D01*
X010700Y002381D02*
X011281Y002381D01*
X011300Y002400D01*
X011156Y002248D02*
X011046Y002248D01*
X011002Y002189D02*
X012841Y002189D01*
X012900Y002131D02*
X011046Y002131D01*
X011046Y002072D02*
X012027Y002072D01*
X011934Y002014D02*
X011046Y002014D01*
X011046Y001955D02*
X011875Y001955D01*
X011838Y001897D02*
X011046Y001897D01*
X011045Y001838D02*
X011813Y001838D01*
X011790Y001780D02*
X010987Y001780D01*
X011036Y002540D02*
X011143Y002540D01*
X012320Y002306D02*
X012724Y002306D01*
X012666Y002365D02*
X012444Y002365D01*
X012503Y002423D02*
X012607Y002423D01*
X012580Y002482D02*
X012553Y002482D01*
X012578Y002540D02*
X012580Y002540D01*
X012373Y002072D02*
X012946Y002072D01*
X012877Y002014D02*
X012466Y002014D01*
X012525Y001955D02*
X012829Y001955D01*
X012795Y001897D02*
X012562Y001897D01*
X012587Y001838D02*
X012772Y001838D01*
X012757Y001780D02*
X012610Y001780D01*
X012610Y001721D02*
X013170Y001721D01*
X013170Y001663D02*
X013230Y001663D01*
X013230Y001721D02*
X013790Y001721D01*
X013939Y002131D02*
X015070Y002131D01*
X015070Y002189D02*
X013881Y002189D01*
X013822Y002248D02*
X015070Y002248D01*
X015070Y002306D02*
X014320Y002306D01*
X014444Y002365D02*
X015070Y002365D01*
X015070Y002423D02*
X014503Y002423D01*
X014553Y002482D02*
X015070Y002482D01*
X015070Y002540D02*
X014578Y002540D01*
X014602Y002599D02*
X015070Y002599D01*
X015070Y002657D02*
X014610Y002657D01*
X014610Y002716D02*
X015070Y002716D01*
X015070Y002774D02*
X014610Y002774D01*
X014589Y002833D02*
X015070Y002833D01*
X015070Y002891D02*
X014565Y002891D01*
X014530Y002950D02*
X015070Y002950D01*
X015070Y003008D02*
X014472Y003008D01*
X014080Y002306D02*
X013764Y002306D01*
X013230Y001604D02*
X013170Y001604D01*
X013170Y001546D02*
X013230Y001546D01*
X013230Y001487D02*
X013170Y001487D01*
X013170Y001429D02*
X013230Y001429D01*
X013230Y001370D02*
X013170Y001370D01*
X013170Y001312D02*
X013230Y001312D01*
X012971Y001312D02*
X012333Y001312D01*
X012450Y001370D02*
X012894Y001370D01*
X012841Y001429D02*
X012508Y001429D01*
X012556Y001487D02*
X012803Y001487D01*
X012777Y001546D02*
X012580Y001546D01*
X012604Y001604D02*
X012760Y001604D01*
X012750Y001663D02*
X012610Y001663D01*
X014579Y001312D02*
X015070Y001312D01*
X015070Y001370D02*
X014610Y001370D01*
X014610Y001429D02*
X015070Y001429D01*
X015070Y001487D02*
X014610Y001487D01*
X014610Y001546D02*
X015070Y001546D01*
X015070Y001604D02*
X014610Y001604D01*
X014610Y001663D02*
X015070Y001663D01*
X015070Y001721D02*
X014610Y001721D01*
X014610Y001780D02*
X015070Y001780D01*
X015070Y001838D02*
X014610Y001838D01*
X014610Y001897D02*
X015070Y001897D01*
X015070Y001955D02*
X014610Y001955D01*
X014610Y002014D02*
X015070Y002014D01*
X015070Y002072D02*
X014595Y002072D01*
X014358Y004822D02*
X015070Y004822D01*
X015070Y004880D02*
X014460Y004880D01*
X014518Y004939D02*
X015070Y004939D01*
X015070Y004997D02*
X014560Y004997D01*
X014584Y005056D02*
X015070Y005056D01*
X015070Y005114D02*
X014608Y005114D01*
X014610Y005173D02*
X015070Y005173D01*
X015070Y005231D02*
X014610Y005231D01*
X014607Y005290D02*
X015070Y005290D01*
X015070Y005348D02*
X014582Y005348D01*
X014558Y005407D02*
X015070Y005407D01*
X015070Y005465D02*
X014515Y005465D01*
X014456Y005524D02*
X015070Y005524D01*
X015070Y005582D02*
X014349Y005582D01*
X014344Y005816D02*
X015070Y005816D01*
X015070Y005758D02*
X013712Y005758D01*
X013654Y005816D02*
X014056Y005816D01*
X013946Y005875D02*
X013595Y005875D01*
X013537Y005933D02*
X013887Y005933D01*
X013843Y005992D02*
X013478Y005992D01*
X013420Y006050D02*
X013818Y006050D01*
X013794Y006109D02*
X013361Y006109D01*
X013303Y006167D02*
X013790Y006167D01*
X013790Y006226D02*
X013244Y006226D01*
X013186Y006284D02*
X013791Y006284D01*
X013815Y006343D02*
X013127Y006343D01*
X013069Y006401D02*
X013829Y006401D01*
X013771Y006460D02*
X013010Y006460D01*
X012952Y006518D02*
X013712Y006518D01*
X013654Y006577D02*
X012893Y006577D01*
X012835Y006635D02*
X013595Y006635D01*
X013537Y006694D02*
X012776Y006694D01*
X012718Y006752D02*
X013478Y006752D01*
X013420Y006811D02*
X012659Y006811D01*
X012601Y006869D02*
X013361Y006869D01*
X013303Y006928D02*
X012542Y006928D01*
X012484Y006986D02*
X013244Y006986D01*
X013186Y007045D02*
X012425Y007045D01*
X012367Y007103D02*
X013127Y007103D01*
X013069Y007162D02*
X012308Y007162D01*
X012250Y007220D02*
X013010Y007220D01*
X012952Y007279D02*
X012191Y007279D01*
X012133Y007337D02*
X012893Y007337D01*
X012835Y007396D02*
X012074Y007396D01*
X012016Y007454D02*
X012776Y007454D01*
X012800Y007600D02*
X014200Y006200D01*
X014038Y006577D02*
X013993Y006577D01*
X013935Y006635D02*
X015070Y006635D01*
X015070Y006577D02*
X014362Y006577D01*
X014462Y006518D02*
X015070Y006518D01*
X015070Y006460D02*
X014520Y006460D01*
X014561Y006401D02*
X015070Y006401D01*
X015070Y006343D02*
X014585Y006343D01*
X014609Y006284D02*
X015070Y006284D01*
X015070Y006226D02*
X014610Y006226D01*
X014610Y006167D02*
X015070Y006167D01*
X015070Y006109D02*
X014606Y006109D01*
X014582Y006050D02*
X015070Y006050D01*
X015070Y005992D02*
X014557Y005992D01*
X014513Y005933D02*
X015070Y005933D01*
X015070Y005875D02*
X014454Y005875D01*
X014051Y005582D02*
X013988Y005582D01*
X013900Y005500D02*
X014200Y005200D01*
X013900Y005500D02*
X013800Y005500D01*
X011015Y008285D01*
X011015Y008495D01*
X011330Y008495D02*
X011330Y008270D01*
X012000Y007600D01*
X012800Y007600D01*
X012882Y007688D02*
X013542Y007688D01*
X013484Y007747D02*
X012023Y007747D01*
X012000Y007900D02*
X013500Y007900D01*
X014200Y007200D01*
X013821Y007045D02*
X013525Y007045D01*
X013467Y007103D02*
X013796Y007103D01*
X013790Y007162D02*
X013408Y007162D01*
X013350Y007220D02*
X013790Y007220D01*
X013790Y007279D02*
X013291Y007279D01*
X013233Y007337D02*
X013813Y007337D01*
X013835Y007396D02*
X013174Y007396D01*
X013116Y007454D02*
X013776Y007454D01*
X013718Y007513D02*
X013057Y007513D01*
X012999Y007571D02*
X013659Y007571D01*
X013601Y007630D02*
X012940Y007630D01*
X012453Y008273D02*
X013790Y008273D01*
X013811Y008332D02*
X012453Y008332D01*
X012275Y008495D02*
X013495Y008495D01*
X014200Y009200D01*
X014496Y008917D02*
X015070Y008917D01*
X015070Y008975D02*
X014551Y008975D01*
X014575Y009034D02*
X015070Y009034D01*
X015070Y009092D02*
X014599Y009092D01*
X014610Y009151D02*
X015070Y009151D01*
X015070Y009209D02*
X014610Y009209D01*
X014610Y009268D02*
X015070Y009268D01*
X015070Y009326D02*
X014592Y009326D01*
X014567Y009385D02*
X015070Y009385D01*
X015070Y009443D02*
X014537Y009443D01*
X014478Y009502D02*
X015070Y009502D01*
X015070Y009560D02*
X014402Y009560D01*
X014291Y009794D02*
X015070Y009794D01*
X015070Y009736D02*
X014105Y009736D01*
X014047Y009677D02*
X015070Y009677D01*
X015070Y009619D02*
X013988Y009619D01*
X013998Y009560D02*
X013930Y009560D01*
X013922Y009502D02*
X013871Y009502D01*
X013863Y009443D02*
X013813Y009443D01*
X013833Y009385D02*
X013754Y009385D01*
X013808Y009326D02*
X013696Y009326D01*
X013637Y009268D02*
X013790Y009268D01*
X013790Y009209D02*
X013579Y009209D01*
X013520Y009151D02*
X013790Y009151D01*
X013801Y009092D02*
X013462Y009092D01*
X013403Y009034D02*
X013825Y009034D01*
X013805Y008975D02*
X013181Y008975D01*
X013325Y009125D02*
X012905Y009125D01*
X012629Y008975D02*
X010710Y008975D01*
X010710Y008917D02*
X013747Y008917D01*
X013688Y008858D02*
X010655Y008858D01*
X010822Y008800D02*
X010893Y008800D01*
X011137Y008800D02*
X011208Y008800D01*
X011452Y008800D02*
X011523Y008800D01*
X011767Y008800D02*
X011838Y008800D01*
X012082Y008800D02*
X012153Y008800D01*
X012397Y008800D02*
X013630Y008800D01*
X013571Y008741D02*
X012453Y008741D01*
X012453Y008683D02*
X013513Y008683D01*
X013454Y008624D02*
X012453Y008624D01*
X012579Y009034D02*
X010710Y009034D01*
X010705Y009092D02*
X012579Y009092D01*
X012579Y009151D02*
X010646Y009151D01*
X010588Y009209D02*
X012579Y009209D01*
X012905Y009440D02*
X013240Y009440D01*
X013700Y009900D01*
X013700Y010700D01*
X014200Y011200D01*
X014489Y011491D02*
X015070Y011491D01*
X015070Y011549D02*
X014429Y011549D01*
X014287Y011608D02*
X015070Y011608D01*
X015070Y011666D02*
X013836Y011666D01*
X013894Y011725D02*
X015070Y011725D01*
X015070Y011783D02*
X013953Y011783D01*
X014113Y011608D02*
X013777Y011608D01*
X013719Y011549D02*
X013971Y011549D01*
X013911Y011491D02*
X013670Y011491D01*
X013550Y011550D02*
X014200Y012200D01*
X014495Y012485D02*
X015070Y012485D01*
X015070Y012427D02*
X014550Y012427D01*
X014574Y012368D02*
X015070Y012368D01*
X015070Y012310D02*
X014598Y012310D01*
X014610Y012251D02*
X015070Y012251D01*
X015070Y012193D02*
X014610Y012193D01*
X014610Y012134D02*
X015070Y012134D01*
X015070Y012076D02*
X014592Y012076D01*
X014568Y012017D02*
X015070Y012017D01*
X015070Y011959D02*
X014538Y011959D01*
X014480Y011900D02*
X015070Y011900D01*
X015070Y011842D02*
X014406Y011842D01*
X014596Y011315D02*
X015070Y011315D01*
X015070Y011257D02*
X014610Y011257D01*
X014610Y011198D02*
X015070Y011198D01*
X015070Y011140D02*
X014610Y011140D01*
X014595Y011081D02*
X015070Y011081D01*
X015070Y011023D02*
X014570Y011023D01*
X014544Y010964D02*
X015070Y010964D01*
X015070Y010906D02*
X014485Y010906D01*
X014419Y010847D02*
X015070Y010847D01*
X015070Y010789D02*
X013958Y010789D01*
X013900Y010730D02*
X015070Y010730D01*
X015070Y010672D02*
X013841Y010672D01*
X013820Y010613D02*
X015070Y010613D01*
X015070Y010555D02*
X014415Y010555D01*
X014484Y010496D02*
X015070Y010496D01*
X015070Y010438D02*
X014542Y010438D01*
X014570Y010379D02*
X015070Y010379D01*
X015070Y010321D02*
X014594Y010321D01*
X014610Y010262D02*
X015070Y010262D01*
X015070Y010204D02*
X014610Y010204D01*
X014610Y010145D02*
X015070Y010145D01*
X015070Y010087D02*
X014597Y010087D01*
X014573Y010028D02*
X015070Y010028D01*
X015070Y009970D02*
X014548Y009970D01*
X014491Y009911D02*
X015070Y009911D01*
X015070Y009853D02*
X014432Y009853D01*
X014200Y010000D02*
X014200Y010200D01*
X014200Y010000D02*
X013325Y009125D01*
X013794Y008624D02*
X015070Y008624D01*
X015070Y008566D02*
X014389Y008566D01*
X014473Y008507D02*
X015070Y008507D01*
X015070Y008449D02*
X014531Y008449D01*
X014565Y008390D02*
X015070Y008390D01*
X015070Y008332D02*
X014589Y008332D01*
X014610Y008273D02*
X015070Y008273D01*
X015070Y008215D02*
X014610Y008215D01*
X014610Y008156D02*
X015070Y008156D01*
X015070Y008098D02*
X014601Y008098D01*
X014577Y008039D02*
X015070Y008039D01*
X015070Y007981D02*
X014553Y007981D01*
X014502Y007922D02*
X015070Y007922D01*
X015070Y007864D02*
X014443Y007864D01*
X014318Y007805D02*
X015070Y007805D01*
X015070Y007747D02*
X013823Y007747D01*
X013765Y007805D02*
X014082Y007805D01*
X013957Y007864D02*
X013706Y007864D01*
X013648Y007922D02*
X013898Y007922D01*
X013882Y007688D02*
X015070Y007688D01*
X015070Y007630D02*
X013940Y007630D01*
X013999Y007571D02*
X014024Y007571D01*
X014376Y007571D02*
X015070Y007571D01*
X015070Y007513D02*
X014467Y007513D01*
X014526Y007454D02*
X015070Y007454D01*
X015070Y007396D02*
X014563Y007396D01*
X014587Y007337D02*
X015070Y007337D01*
X015070Y007279D02*
X014610Y007279D01*
X014610Y007220D02*
X015070Y007220D01*
X015070Y007162D02*
X014610Y007162D01*
X014604Y007103D02*
X015070Y007103D01*
X015070Y007045D02*
X014579Y007045D01*
X014555Y006986D02*
X015070Y006986D01*
X015070Y006928D02*
X014507Y006928D01*
X014449Y006869D02*
X015070Y006869D01*
X015070Y006811D02*
X014331Y006811D01*
X014069Y006811D02*
X013759Y006811D01*
X013701Y006869D02*
X013951Y006869D01*
X013893Y006928D02*
X013642Y006928D01*
X013584Y006986D02*
X013845Y006986D01*
X013818Y006752D02*
X015070Y006752D01*
X015070Y006694D02*
X013876Y006694D01*
X013771Y005699D02*
X015070Y005699D01*
X015070Y005641D02*
X013829Y005641D01*
X012084Y004646D02*
X011443Y004646D01*
X011502Y004705D02*
X012026Y004705D01*
X011967Y004763D02*
X011510Y004763D01*
X011510Y004822D02*
X011909Y004822D01*
X011850Y004880D02*
X011510Y004880D01*
X011458Y004939D02*
X011792Y004939D01*
X011733Y004997D02*
X011400Y004997D01*
X011200Y004997D02*
X011020Y004997D01*
X011034Y005056D02*
X011675Y005056D01*
X011616Y005114D02*
X011046Y005114D01*
X011046Y005173D02*
X011558Y005173D01*
X011499Y005231D02*
X011046Y005231D01*
X011046Y005290D02*
X011441Y005290D01*
X011382Y005348D02*
X011046Y005348D01*
X011004Y005407D02*
X011324Y005407D01*
X011130Y007600D02*
X010700Y008030D01*
X010700Y008495D01*
X011645Y008495D02*
X011645Y008255D01*
X012000Y007900D01*
X012200Y008100D02*
X014100Y008100D01*
X014200Y008200D01*
X013927Y008507D02*
X013677Y008507D01*
X013735Y008566D02*
X014011Y008566D01*
X013869Y008449D02*
X013618Y008449D01*
X013560Y008390D02*
X013835Y008390D01*
X013852Y008683D02*
X015070Y008683D01*
X015070Y008741D02*
X013911Y008741D01*
X013969Y008800D02*
X014095Y008800D01*
X014305Y008800D02*
X015070Y008800D01*
X015070Y008858D02*
X014438Y008858D01*
X013255Y009755D02*
X013550Y010050D01*
X013550Y011550D01*
X013670Y011315D02*
X013804Y011315D01*
X013790Y011257D02*
X013670Y011257D01*
X013670Y011198D02*
X013790Y011198D01*
X013790Y011140D02*
X013670Y011140D01*
X013670Y011081D02*
X013805Y011081D01*
X013830Y011023D02*
X013670Y011023D01*
X013670Y010964D02*
X013794Y010964D01*
X013736Y010906D02*
X013670Y010906D01*
X013670Y010847D02*
X013677Y010847D01*
X013820Y010555D02*
X013985Y010555D01*
X013916Y010496D02*
X013820Y010496D01*
X013820Y010438D02*
X013858Y010438D01*
X013830Y010379D02*
X013820Y010379D01*
X012905Y010070D02*
X012875Y010100D01*
X012579Y011023D02*
X012520Y011023D01*
X012578Y011081D02*
X012579Y011081D01*
X012400Y011200D02*
X012530Y011330D01*
X012905Y011330D01*
X012579Y012368D02*
X012338Y012368D01*
X012395Y012427D02*
X012630Y012427D01*
X012453Y012661D02*
X015070Y012661D01*
X015070Y012719D02*
X012453Y012719D01*
X012453Y012778D02*
X014044Y012778D01*
X014027Y012783D02*
X014095Y012761D01*
X014165Y012750D01*
X014170Y012750D01*
X014170Y013170D01*
X014230Y013170D01*
X014230Y013230D01*
X014650Y013230D01*
X014650Y013235D01*
X014639Y013305D01*
X014617Y013373D01*
X014585Y013436D01*
X014543Y013493D01*
X014493Y013543D01*
X014436Y013585D01*
X014373Y013617D01*
X014305Y013639D01*
X014235Y013650D01*
X014230Y013650D01*
X014230Y013230D01*
X014170Y013230D01*
X014170Y013650D01*
X014165Y013650D01*
X014095Y013639D01*
X014027Y013617D01*
X013964Y013585D01*
X013907Y013543D01*
X013857Y013493D01*
X013815Y013436D01*
X013783Y013373D01*
X013761Y013305D01*
X013750Y013235D01*
X013750Y013230D01*
X014170Y013230D01*
X014170Y013170D01*
X013750Y013170D01*
X013750Y013165D01*
X013761Y013095D01*
X013783Y013027D01*
X013815Y012964D01*
X013857Y012907D01*
X013907Y012857D01*
X013964Y012815D01*
X014027Y012783D01*
X013935Y012836D02*
X012453Y012836D01*
X012453Y012895D02*
X013869Y012895D01*
X013823Y012953D02*
X012453Y012953D01*
X012453Y013012D02*
X013791Y013012D01*
X013769Y013070D02*
X012453Y013070D01*
X012453Y013129D02*
X013756Y013129D01*
X013752Y013246D02*
X012080Y013246D01*
X012080Y013304D02*
X013761Y013304D01*
X013780Y013363D02*
X012080Y013363D01*
X012080Y013421D02*
X013808Y013421D01*
X013847Y013480D02*
X012080Y013480D01*
X012032Y013538D02*
X013902Y013538D01*
X013987Y013597D02*
X011973Y013597D01*
X011915Y013655D02*
X015070Y013655D01*
X015070Y013597D02*
X014413Y013597D01*
X014498Y013538D02*
X015070Y013538D01*
X015070Y013480D02*
X014553Y013480D01*
X014592Y013421D02*
X015070Y013421D01*
X015070Y013363D02*
X014620Y013363D01*
X014639Y013304D02*
X015070Y013304D01*
X015070Y013246D02*
X014648Y013246D01*
X014650Y013170D02*
X014230Y013170D01*
X014230Y012750D01*
X014235Y012750D01*
X014305Y012761D01*
X014373Y012783D01*
X014436Y012815D01*
X014493Y012857D01*
X014543Y012907D01*
X014585Y012964D01*
X014617Y013027D01*
X014639Y013095D01*
X014650Y013165D01*
X014650Y013170D01*
X014644Y013129D02*
X015070Y013129D01*
X015070Y013187D02*
X014230Y013187D01*
X014230Y013129D02*
X014170Y013129D01*
X014170Y013187D02*
X012419Y013187D01*
X012131Y013187D02*
X012104Y013187D01*
X011960Y013440D02*
X011200Y014200D01*
X011579Y014357D02*
X011821Y014357D01*
X011797Y014299D02*
X011603Y014299D01*
X011610Y014240D02*
X011790Y014240D01*
X011790Y014182D02*
X011610Y014182D01*
X011610Y014123D02*
X011790Y014123D01*
X011812Y014065D02*
X011588Y014065D01*
X011681Y013889D02*
X011931Y013889D01*
X012021Y013831D02*
X011739Y013831D01*
X011798Y013772D02*
X015070Y013772D01*
X015070Y013714D02*
X011856Y013714D01*
X011960Y013440D02*
X011960Y012905D01*
X012275Y012905D02*
X012275Y012475D01*
X012395Y012485D02*
X013905Y012485D01*
X013964Y012544D02*
X012395Y012544D01*
X012398Y012602D02*
X014099Y012602D01*
X014170Y012778D02*
X014230Y012778D01*
X014230Y012836D02*
X014170Y012836D01*
X014170Y012895D02*
X014230Y012895D01*
X014230Y012953D02*
X014170Y012953D01*
X014170Y013012D02*
X014230Y013012D01*
X014230Y013070D02*
X014170Y013070D01*
X014170Y013246D02*
X014230Y013246D01*
X014230Y013304D02*
X014170Y013304D01*
X014170Y013363D02*
X014230Y013363D01*
X014230Y013421D02*
X014170Y013421D01*
X014170Y013480D02*
X014230Y013480D01*
X014230Y013538D02*
X014170Y013538D01*
X014170Y013597D02*
X014230Y013597D01*
X014631Y013070D02*
X015070Y013070D01*
X015070Y013012D02*
X014609Y013012D01*
X014577Y012953D02*
X015070Y012953D01*
X015070Y012895D02*
X014531Y012895D01*
X014465Y012836D02*
X015070Y012836D01*
X015070Y012778D02*
X014356Y012778D01*
X014301Y012602D02*
X015070Y012602D01*
X015070Y012544D02*
X014436Y012544D01*
X015070Y013831D02*
X012379Y013831D01*
X012469Y013889D02*
X015070Y013889D01*
X015070Y013948D02*
X012527Y013948D01*
X012563Y014006D02*
X015070Y014006D01*
X015070Y014065D02*
X012588Y014065D01*
X012610Y014123D02*
X015070Y014123D01*
X015070Y014182D02*
X012610Y014182D01*
X012610Y014240D02*
X015070Y014240D01*
X015070Y014299D02*
X012603Y014299D01*
X012579Y014357D02*
X015070Y014357D01*
X015070Y014416D02*
X012554Y014416D01*
X012506Y014474D02*
X015070Y014474D01*
X015070Y014533D02*
X012447Y014533D01*
X012327Y014591D02*
X015070Y014591D01*
X015070Y014767D02*
X000330Y014767D01*
X000330Y014825D02*
X015070Y014825D01*
X015070Y014884D02*
X000330Y014884D01*
X000330Y014942D02*
X015070Y014942D01*
X015070Y015001D02*
X000330Y015001D01*
X000330Y015059D02*
X015070Y015059D01*
X012073Y014591D02*
X011327Y014591D01*
X011447Y014533D02*
X011953Y014533D01*
X011894Y014474D02*
X011506Y014474D01*
X011554Y014416D02*
X011846Y014416D01*
X011073Y014591D02*
X010327Y014591D01*
X010447Y014533D02*
X010953Y014533D01*
X010894Y014474D02*
X010506Y014474D01*
X010554Y014416D02*
X010846Y014416D01*
X010821Y014357D02*
X010579Y014357D01*
X010603Y014299D02*
X010797Y014299D01*
X010790Y014240D02*
X010610Y014240D01*
X010610Y014182D02*
X010790Y014182D01*
X010790Y014123D02*
X010610Y014123D01*
X010610Y014118D02*
X010564Y014006D01*
X010622Y013948D02*
X010873Y013948D01*
X010931Y013889D02*
X010681Y013889D01*
X010073Y014591D02*
X009327Y014591D01*
X009447Y014533D02*
X009953Y014533D01*
X009894Y014474D02*
X009506Y014474D01*
X009554Y014416D02*
X009846Y014416D01*
X011138Y012602D02*
X011206Y012602D01*
X011453Y012602D02*
X011521Y012602D01*
X011634Y010204D02*
X011351Y010204D01*
X011575Y010145D02*
X010825Y010145D01*
X011960Y008495D02*
X011960Y008340D01*
X012200Y008100D01*
X008435Y011900D02*
X008495Y011960D01*
X008821Y012193D02*
X008938Y012193D01*
X008879Y012251D02*
X008821Y012251D01*
X008221Y012427D02*
X007145Y012427D01*
X007379Y013831D02*
X007400Y013831D01*
X003976Y014591D02*
X003344Y014591D01*
X003419Y014533D02*
X003896Y014533D01*
X003843Y014474D02*
X003461Y014474D01*
X003485Y014416D02*
X003805Y014416D01*
X003778Y014357D02*
X003490Y014357D01*
X003490Y014299D02*
X003760Y014299D01*
X003751Y014240D02*
X003483Y014240D01*
X003230Y013948D02*
X003170Y013948D01*
X003170Y013889D02*
X003230Y013889D01*
X003230Y013831D02*
X003170Y013831D01*
X003170Y013772D02*
X003230Y013772D01*
X003230Y013714D02*
X003170Y013714D01*
X003170Y013700D02*
X003170Y013640D01*
X003230Y013640D01*
X003230Y013340D01*
X003251Y013340D01*
X003230Y013363D02*
X003170Y013363D01*
X003170Y013340D02*
X003170Y013640D01*
X002958Y013640D01*
X002960Y013649D01*
X002960Y013670D01*
X002660Y013670D01*
X002630Y013700D01*
X002660Y013714D02*
X002870Y013714D01*
X002870Y013721D02*
X002870Y013700D01*
X003170Y013700D01*
X003170Y013655D02*
X002960Y013655D01*
X002870Y013721D02*
X002872Y013730D01*
X002660Y013730D01*
X002660Y013670D01*
X002660Y013370D01*
X002681Y013370D01*
X002740Y013382D01*
X002797Y013405D01*
X002848Y013439D01*
X002891Y013482D01*
X002905Y013504D01*
X002905Y013503D01*
X002939Y013452D01*
X002982Y013409D01*
X003033Y013375D01*
X003090Y013352D01*
X003149Y013340D01*
X003170Y013340D01*
X003170Y013421D02*
X003230Y013421D01*
X003230Y013480D02*
X003170Y013480D01*
X003170Y013538D02*
X003230Y013538D01*
X003230Y013597D02*
X003170Y013597D01*
X003064Y013363D02*
X000330Y013363D01*
X000330Y013421D02*
X001870Y013421D01*
X001769Y013480D02*
X000330Y013480D01*
X000330Y013538D02*
X001717Y013538D01*
X001692Y013597D02*
X000330Y013597D01*
X000330Y013655D02*
X001680Y013655D01*
X001680Y013714D02*
X000330Y013714D01*
X000330Y013772D02*
X001680Y013772D01*
X001704Y013831D02*
X000330Y013831D01*
X000330Y013889D02*
X001737Y013889D01*
X001796Y013948D02*
X000330Y013948D01*
X000330Y014006D02*
X002066Y014006D01*
X002260Y014240D02*
X002340Y014240D01*
X002340Y014299D02*
X002260Y014299D01*
X002260Y014357D02*
X002340Y014357D01*
X002357Y014416D02*
X002243Y014416D01*
X002218Y014474D02*
X002382Y014474D01*
X002441Y014533D02*
X002159Y014533D01*
X001781Y014533D02*
X000330Y014533D01*
X000330Y014591D02*
X003056Y014591D01*
X002981Y014533D02*
X002819Y014533D01*
X002878Y014474D02*
X002939Y014474D01*
X003170Y014300D02*
X002630Y014300D01*
X002875Y014123D02*
X002985Y014123D01*
X003067Y014065D02*
X002816Y014065D01*
X002769Y014006D02*
X003794Y014006D01*
X003200Y014330D02*
X003170Y014300D01*
X003007Y013948D02*
X002861Y013948D01*
X002910Y013889D02*
X002941Y013889D01*
X002660Y013655D02*
X002600Y013655D01*
X002600Y013670D02*
X002600Y013370D01*
X002579Y013370D01*
X002520Y013382D01*
X002463Y013405D01*
X002412Y013439D01*
X002369Y013482D01*
X002335Y013533D01*
X002312Y013590D01*
X002300Y013649D01*
X002300Y013670D01*
X002600Y013670D01*
X002600Y013714D02*
X002260Y013714D01*
X002260Y013772D02*
X002304Y013772D01*
X002300Y013655D02*
X002260Y013655D01*
X002248Y013597D02*
X002311Y013597D01*
X002333Y013538D02*
X002223Y013538D01*
X002171Y013480D02*
X002372Y013480D01*
X002440Y013421D02*
X002070Y013421D01*
X002600Y013421D02*
X002660Y013421D01*
X002660Y013480D02*
X002600Y013480D01*
X002600Y013538D02*
X002660Y013538D01*
X002660Y013597D02*
X002600Y013597D01*
X002820Y013421D02*
X002971Y013421D01*
X002921Y013480D02*
X002888Y013480D01*
X001784Y014065D02*
X000330Y014065D01*
X000330Y014123D02*
X001725Y014123D01*
X001699Y014182D02*
X000330Y014182D01*
X000330Y014240D02*
X001680Y014240D01*
X001680Y014299D02*
X000330Y014299D01*
X000330Y014357D02*
X001680Y014357D01*
X001697Y014416D02*
X000330Y014416D01*
X000330Y014474D02*
X001722Y014474D01*
X001762Y012310D02*
X001893Y012310D01*
X002153Y008039D02*
X002447Y008039D01*
X002389Y007981D02*
X002211Y007981D01*
X002240Y007922D02*
X002360Y007922D01*
X002340Y007864D02*
X002260Y007864D01*
X002260Y007805D02*
X002340Y007805D01*
X002340Y007747D02*
X002260Y007747D01*
X002282Y007688D02*
X002356Y007688D01*
X002340Y007630D02*
X002380Y007630D01*
X002399Y007571D02*
X002437Y007571D01*
X002420Y007513D02*
X002550Y007513D01*
X002445Y007337D02*
X002420Y007337D01*
X002180Y007337D02*
X002155Y007337D01*
X002180Y007396D02*
X000330Y007396D01*
X000330Y007454D02*
X002176Y007454D01*
X002118Y007513D02*
X002050Y007513D01*
X006460Y005875D02*
X006594Y005875D01*
X006535Y005933D02*
X006518Y005933D01*
X006932Y005875D02*
X007066Y005875D01*
X007008Y005933D02*
X006991Y005933D01*
X007404Y005875D02*
X007539Y005875D01*
X007480Y005933D02*
X007463Y005933D01*
X007877Y005875D02*
X008011Y005875D01*
X007953Y005933D02*
X007935Y005933D01*
X007943Y006460D02*
X007945Y006460D01*
X008004Y006518D02*
X007884Y006518D01*
X007531Y006518D02*
X007412Y006518D01*
X007470Y006460D02*
X007473Y006460D01*
D24*
X006800Y008400D03*
X006800Y008800D03*
X005000Y010900D03*
X005295Y011315D03*
X004900Y012500D03*
X007050Y011650D03*
X007450Y011900D03*
X007800Y011900D03*
X008800Y012900D03*
X010100Y012400D03*
X010600Y012400D03*
X011500Y011000D03*
X011000Y010700D03*
X011250Y010400D03*
X012400Y011200D03*
X012400Y011600D03*
X010500Y009000D03*
X008975Y009755D03*
X009000Y010200D03*
X011300Y004800D03*
X011300Y002400D03*
X009600Y001700D03*
X009100Y001750D03*
X005300Y002900D03*
X003200Y005100D03*
X002000Y012500D03*
X002300Y014000D03*
D25*
X002270Y014000D01*
X001970Y014300D01*
X002270Y014000D02*
X001970Y013700D01*
D26*
X003546Y010270D02*
X003716Y010100D01*
X004800Y010100D01*
X005406Y010706D01*
X005905Y010706D01*
M02*
