G75*
G70*
%OFA0B0*%
%FSLAX24Y24*%
%IPPOS*%
%LPD*%
%AMOC8*
5,1,8,0,0,1.08239X$1,22.5*
%
%ADD10C,0.0000*%
%ADD11C,0.0060*%
%ADD12C,0.0110*%
%ADD13C,0.0360*%
%ADD14C,0.0436*%
%ADD15C,0.1181*%
%ADD16C,0.0236*%
%ADD17C,0.0173*%
%ADD18C,0.0500*%
%ADD19C,0.0197*%
%ADD20C,0.0640*%
%ADD21R,0.0640X0.0640*%
%ADD22C,0.0240*%
%ADD23C,0.0100*%
%ADD24C,0.0200*%
D10*
X000100Y000100D02*
X000100Y015100D01*
X000200Y015200D02*
X000200Y000200D01*
X000200Y000100D01*
X000200Y000200D02*
X015200Y000200D01*
X015200Y015200D01*
X000200Y015200D01*
D11*
X000330Y015070D02*
X015070Y015070D01*
X015070Y000330D01*
X003800Y000330D01*
X003800Y003400D01*
X003000Y003400D01*
X003000Y005003D01*
X003113Y004890D01*
X003287Y004890D01*
X003410Y005013D01*
X003410Y005187D01*
X003287Y005310D01*
X003160Y005310D01*
X003000Y005470D01*
X003000Y006300D01*
X002520Y006300D01*
X002520Y012550D01*
X003550Y013580D01*
X007950Y013580D01*
X008590Y012940D01*
X008590Y012813D01*
X008713Y012690D01*
X008887Y012690D01*
X009010Y012813D01*
X009010Y012987D01*
X008887Y013110D01*
X008760Y013110D01*
X008052Y013817D01*
X008118Y013790D01*
X008282Y013790D01*
X008432Y013852D01*
X008548Y013968D01*
X008610Y014118D01*
X008610Y014282D01*
X008548Y014432D01*
X008432Y014548D01*
X008282Y014610D01*
X008118Y014610D01*
X007968Y014548D01*
X007852Y014432D01*
X007790Y014282D01*
X007790Y014118D01*
X007852Y013968D01*
X007968Y013852D01*
X008046Y013820D01*
X007354Y013820D01*
X007432Y013852D01*
X007548Y013968D01*
X007610Y014118D01*
X007610Y014282D01*
X007548Y014432D01*
X007432Y014548D01*
X007282Y014610D01*
X007118Y014610D01*
X006968Y014548D01*
X006852Y014432D01*
X006790Y014282D01*
X006790Y014118D01*
X006852Y013968D01*
X006968Y013852D01*
X007046Y013820D01*
X006354Y013820D01*
X006432Y013852D01*
X006548Y013968D01*
X006610Y014118D01*
X006610Y014282D01*
X006548Y014432D01*
X006432Y014548D01*
X006282Y014610D01*
X006118Y014610D01*
X005968Y014548D01*
X005852Y014432D01*
X005790Y014282D01*
X005790Y014118D01*
X005852Y013968D01*
X005968Y013852D01*
X006046Y013820D01*
X005354Y013820D01*
X005432Y013852D01*
X005548Y013968D01*
X005610Y014118D01*
X005610Y014282D01*
X005548Y014432D01*
X005432Y014548D01*
X005282Y014610D01*
X005118Y014610D01*
X004968Y014548D01*
X004852Y014432D01*
X004790Y014282D01*
X004790Y014118D01*
X004852Y013968D01*
X004968Y013852D01*
X005046Y013820D01*
X004354Y013820D01*
X004432Y013852D01*
X004548Y013968D01*
X004610Y014118D01*
X004610Y014282D01*
X004548Y014432D01*
X004432Y014548D01*
X004282Y014610D01*
X004118Y014610D01*
X003968Y014548D01*
X003852Y014432D01*
X003790Y014282D01*
X003790Y014118D01*
X003852Y013968D01*
X003968Y013852D01*
X004046Y013820D01*
X003450Y013820D01*
X003380Y013750D01*
X002280Y012650D01*
X002280Y006300D01*
X001600Y006300D01*
X001600Y007300D01*
X000330Y007300D01*
X000330Y015070D01*
X000330Y015059D02*
X015070Y015059D01*
X015070Y015001D02*
X000330Y015001D01*
X000330Y014942D02*
X015070Y014942D01*
X015070Y014884D02*
X000330Y014884D01*
X000330Y014825D02*
X015070Y014825D01*
X015070Y014767D02*
X000330Y014767D01*
X000330Y014708D02*
X015070Y014708D01*
X015070Y014650D02*
X012238Y014650D01*
X012235Y014650D02*
X012230Y014650D01*
X012230Y014230D01*
X012650Y014230D01*
X012650Y014235D01*
X012639Y014305D01*
X012617Y014373D01*
X012585Y014436D01*
X012543Y014493D01*
X012493Y014543D01*
X012436Y014585D01*
X012373Y014617D01*
X012305Y014639D01*
X012235Y014650D01*
X012230Y014650D02*
X012170Y014650D01*
X012165Y014650D01*
X012095Y014639D01*
X012027Y014617D01*
X011964Y014585D01*
X011907Y014543D01*
X011857Y014493D01*
X011815Y014436D01*
X011783Y014373D01*
X011761Y014305D01*
X011750Y014235D01*
X011750Y014230D01*
X012170Y014230D01*
X012170Y014650D01*
X012162Y014650D02*
X000330Y014650D01*
X000330Y014591D02*
X004073Y014591D01*
X003953Y014533D02*
X000330Y014533D01*
X000330Y014474D02*
X003894Y014474D01*
X003846Y014416D02*
X000330Y014416D01*
X000330Y014357D02*
X003821Y014357D01*
X003797Y014299D02*
X000330Y014299D01*
X000330Y014240D02*
X003790Y014240D01*
X003790Y014182D02*
X000330Y014182D01*
X000330Y014123D02*
X003790Y014123D01*
X003812Y014065D02*
X000330Y014065D01*
X000330Y014006D02*
X003837Y014006D01*
X003873Y013948D02*
X000330Y013948D01*
X000330Y013889D02*
X003931Y013889D01*
X004021Y013831D02*
X000330Y013831D01*
X000330Y013772D02*
X003402Y013772D01*
X003344Y013714D02*
X000330Y013714D01*
X000330Y013655D02*
X003285Y013655D01*
X003227Y013597D02*
X000330Y013597D01*
X000330Y013538D02*
X003168Y013538D01*
X003110Y013480D02*
X000330Y013480D01*
X000330Y013421D02*
X003051Y013421D01*
X002993Y013363D02*
X000330Y013363D01*
X000330Y013304D02*
X002934Y013304D01*
X002876Y013246D02*
X000330Y013246D01*
X000330Y013187D02*
X002817Y013187D01*
X002759Y013129D02*
X000330Y013129D01*
X000330Y013070D02*
X002700Y013070D01*
X002642Y013012D02*
X000330Y013012D01*
X000330Y012953D02*
X002583Y012953D01*
X002525Y012895D02*
X000330Y012895D01*
X000330Y012836D02*
X002466Y012836D01*
X002408Y012778D02*
X000330Y012778D01*
X000330Y012719D02*
X002349Y012719D01*
X002291Y012661D02*
X000330Y012661D01*
X000330Y012602D02*
X002280Y012602D01*
X002280Y012544D02*
X000330Y012544D01*
X000330Y012485D02*
X002280Y012485D01*
X002280Y012427D02*
X000330Y012427D01*
X000330Y012368D02*
X002280Y012368D01*
X002280Y012310D02*
X000330Y012310D01*
X000330Y012251D02*
X002280Y012251D01*
X002280Y012193D02*
X000330Y012193D01*
X000330Y012134D02*
X002280Y012134D01*
X002280Y012076D02*
X000330Y012076D01*
X000330Y012017D02*
X002280Y012017D01*
X002280Y011959D02*
X000330Y011959D01*
X000330Y011900D02*
X002280Y011900D01*
X002280Y011842D02*
X000330Y011842D01*
X000330Y011783D02*
X002280Y011783D01*
X002280Y011725D02*
X000330Y011725D01*
X000330Y011666D02*
X002280Y011666D01*
X002280Y011608D02*
X000330Y011608D01*
X000330Y011549D02*
X002280Y011549D01*
X002280Y011491D02*
X000330Y011491D01*
X000330Y011432D02*
X002280Y011432D01*
X002280Y011374D02*
X000330Y011374D01*
X000330Y011315D02*
X002280Y011315D01*
X002280Y011257D02*
X000330Y011257D01*
X000330Y011198D02*
X002280Y011198D01*
X002280Y011140D02*
X000330Y011140D01*
X000330Y011081D02*
X002280Y011081D01*
X002280Y011023D02*
X000330Y011023D01*
X000330Y010964D02*
X002280Y010964D01*
X002280Y010906D02*
X000330Y010906D01*
X000330Y010847D02*
X002280Y010847D01*
X002280Y010789D02*
X000330Y010789D01*
X000330Y010730D02*
X002280Y010730D01*
X002280Y010672D02*
X000330Y010672D01*
X000330Y010613D02*
X002280Y010613D01*
X002280Y010555D02*
X000330Y010555D01*
X000330Y010496D02*
X002280Y010496D01*
X002280Y010438D02*
X000330Y010438D01*
X000330Y010379D02*
X002280Y010379D01*
X002280Y010321D02*
X000330Y010321D01*
X000330Y010262D02*
X002280Y010262D01*
X002280Y010204D02*
X000330Y010204D01*
X000330Y010145D02*
X002280Y010145D01*
X002280Y010087D02*
X000330Y010087D01*
X000330Y010028D02*
X002280Y010028D01*
X002280Y009970D02*
X000330Y009970D01*
X000330Y009911D02*
X002280Y009911D01*
X002280Y009853D02*
X000330Y009853D01*
X000330Y009794D02*
X002280Y009794D01*
X002280Y009736D02*
X000330Y009736D01*
X000330Y009677D02*
X002280Y009677D01*
X002280Y009619D02*
X000330Y009619D01*
X000330Y009560D02*
X002280Y009560D01*
X002280Y009502D02*
X000330Y009502D01*
X000330Y009443D02*
X002280Y009443D01*
X002280Y009385D02*
X000330Y009385D01*
X000330Y009326D02*
X002280Y009326D01*
X002280Y009268D02*
X000330Y009268D01*
X000330Y009209D02*
X002280Y009209D01*
X002280Y009151D02*
X000330Y009151D01*
X000330Y009092D02*
X002280Y009092D01*
X002280Y009034D02*
X000330Y009034D01*
X000330Y008975D02*
X002280Y008975D01*
X002280Y008917D02*
X000330Y008917D01*
X000330Y008858D02*
X002280Y008858D01*
X002280Y008800D02*
X000330Y008800D01*
X000330Y008741D02*
X002280Y008741D01*
X002280Y008683D02*
X000330Y008683D01*
X000330Y008624D02*
X002280Y008624D01*
X002280Y008566D02*
X000330Y008566D01*
X000330Y008507D02*
X002280Y008507D01*
X002280Y008449D02*
X000330Y008449D01*
X000330Y008390D02*
X002280Y008390D01*
X002280Y008332D02*
X000330Y008332D01*
X000330Y008273D02*
X002280Y008273D01*
X002280Y008215D02*
X000330Y008215D01*
X000330Y008156D02*
X002280Y008156D01*
X002280Y008098D02*
X000330Y008098D01*
X000330Y008039D02*
X002280Y008039D01*
X002280Y007981D02*
X000330Y007981D01*
X000330Y007922D02*
X002280Y007922D01*
X002280Y007864D02*
X000330Y007864D01*
X000330Y007805D02*
X002280Y007805D01*
X002280Y007747D02*
X000330Y007747D01*
X000330Y007688D02*
X002280Y007688D01*
X002280Y007630D02*
X000330Y007630D01*
X000330Y007571D02*
X002280Y007571D01*
X002280Y007513D02*
X000330Y007513D01*
X000330Y007454D02*
X002280Y007454D01*
X002280Y007396D02*
X000330Y007396D01*
X000330Y007337D02*
X002280Y007337D01*
X002280Y007279D02*
X001600Y007279D01*
X001600Y007220D02*
X002280Y007220D01*
X002280Y007162D02*
X001600Y007162D01*
X001600Y007103D02*
X002280Y007103D01*
X002280Y007045D02*
X001600Y007045D01*
X001600Y006986D02*
X002280Y006986D01*
X002280Y006928D02*
X001600Y006928D01*
X001600Y006869D02*
X002280Y006869D01*
X002280Y006811D02*
X001600Y006811D01*
X001600Y006752D02*
X002280Y006752D01*
X002280Y006694D02*
X001600Y006694D01*
X001600Y006635D02*
X002280Y006635D01*
X002280Y006577D02*
X001600Y006577D01*
X001600Y006518D02*
X002280Y006518D01*
X002280Y006460D02*
X001600Y006460D01*
X001600Y006401D02*
X002280Y006401D01*
X002280Y006343D02*
X001600Y006343D01*
X002400Y005900D02*
X003200Y005100D01*
X003336Y004939D02*
X005480Y004939D01*
X005480Y004997D02*
X003394Y004997D01*
X003410Y005056D02*
X005480Y005056D01*
X005480Y005114D02*
X003410Y005114D01*
X003410Y005173D02*
X005480Y005173D01*
X005480Y005231D02*
X003366Y005231D01*
X003307Y005290D02*
X005480Y005290D01*
X005480Y005348D02*
X003122Y005348D01*
X003063Y005407D02*
X005480Y005407D01*
X005480Y005465D02*
X003005Y005465D01*
X003000Y005524D02*
X005480Y005524D01*
X005480Y005582D02*
X005380Y005582D01*
X005358Y005560D02*
X005440Y005642D01*
X005440Y008042D01*
X005480Y008082D01*
X005480Y003250D01*
X005340Y003110D01*
X005213Y003110D01*
X005090Y002987D01*
X005090Y002813D01*
X005213Y002690D01*
X005387Y002690D01*
X005510Y002813D01*
X005510Y002940D01*
X005650Y003080D01*
X005720Y003150D01*
X005720Y006158D01*
X005762Y006057D01*
X005857Y005962D01*
X005982Y005910D01*
X006618Y005910D01*
X006743Y005962D01*
X006838Y006057D01*
X006890Y006182D01*
X006890Y006310D01*
X006988Y006310D01*
X007377Y006699D01*
X007855Y006699D01*
X007937Y006781D01*
X008019Y006699D01*
X008232Y006699D01*
X008410Y006521D01*
X008410Y006388D01*
X008701Y006097D01*
X008701Y005824D01*
X008812Y005713D01*
X009322Y005713D01*
X009433Y005824D01*
X009433Y006176D01*
X009322Y006287D01*
X009049Y006287D01*
X008790Y006546D01*
X008790Y006679D01*
X008679Y006790D01*
X008529Y006940D01*
X008529Y007366D01*
X008466Y007429D01*
X008529Y007491D01*
X008529Y007504D01*
X008694Y007504D01*
X008701Y007497D01*
X008701Y007224D01*
X008812Y007113D01*
X009322Y007113D01*
X009433Y007224D01*
X009433Y007576D01*
X009322Y007687D01*
X009049Y007687D01*
X008851Y007884D01*
X008529Y007884D01*
X008529Y007898D01*
X008466Y007960D01*
X008529Y008023D01*
X008529Y008115D01*
X008650Y008115D01*
X009049Y008513D01*
X009322Y008513D01*
X009433Y008624D01*
X009561Y008624D01*
X009553Y008613D02*
X009536Y008571D01*
X009527Y008527D01*
X009527Y008436D01*
X009903Y008436D01*
X009903Y008376D01*
X009963Y008376D01*
X009963Y008079D01*
X010133Y008079D01*
X010177Y008088D01*
X010218Y008105D01*
X010256Y008130D01*
X010288Y008162D01*
X010313Y008200D01*
X010330Y008241D01*
X010339Y008285D01*
X010339Y008376D01*
X009963Y008376D01*
X009963Y008436D01*
X010339Y008436D01*
X010339Y008527D01*
X010330Y008571D01*
X010313Y008613D01*
X010288Y008650D01*
X010256Y008682D01*
X010218Y008707D01*
X010177Y008724D01*
X010133Y008733D01*
X009963Y008733D01*
X009963Y008436D01*
X009903Y008436D01*
X009903Y008733D01*
X009733Y008733D01*
X009689Y008724D01*
X009648Y008707D01*
X009610Y008682D01*
X009578Y008650D01*
X009553Y008613D01*
X009535Y008566D02*
X009375Y008566D01*
X009433Y008624D02*
X009433Y008976D01*
X009322Y009087D01*
X008812Y009087D01*
X008701Y008976D01*
X008701Y008703D01*
X008529Y008530D01*
X008529Y008587D01*
X008425Y008690D01*
X008019Y008690D01*
X007937Y008608D01*
X007855Y008690D01*
X007590Y008690D01*
X007590Y008810D01*
X007718Y008810D01*
X007843Y008862D01*
X007938Y008957D01*
X007990Y009082D01*
X007990Y009718D01*
X007938Y009843D01*
X007843Y009938D01*
X007718Y009990D01*
X007082Y009990D01*
X006957Y009938D01*
X006920Y009901D01*
X006920Y010250D01*
X007850Y011180D01*
X007920Y011250D01*
X007920Y011723D01*
X008010Y011813D01*
X008010Y011987D01*
X007887Y012110D01*
X007713Y012110D01*
X007625Y012022D01*
X007537Y012110D01*
X007363Y012110D01*
X007240Y011987D01*
X007240Y011813D01*
X007330Y011723D01*
X007330Y011450D01*
X006520Y010640D01*
X006520Y010950D01*
X007010Y011440D01*
X007137Y011440D01*
X007260Y011563D01*
X007260Y011737D01*
X007137Y011860D01*
X006963Y011860D01*
X006840Y011737D01*
X006840Y011610D01*
X006314Y011084D01*
X005440Y011958D01*
X005358Y012040D01*
X004349Y012040D01*
X004477Y012168D01*
X004581Y012418D01*
X004581Y012689D01*
X004477Y012939D01*
X004286Y013130D01*
X004035Y013234D01*
X003765Y013234D01*
X003514Y013130D01*
X003323Y012939D01*
X003219Y012689D01*
X003219Y012418D01*
X003323Y012168D01*
X003451Y012040D01*
X003042Y012040D01*
X002960Y011958D01*
X002960Y011142D01*
X003042Y011060D01*
X003278Y011060D01*
X003238Y010961D01*
X003238Y010839D01*
X003284Y010725D01*
X003371Y010639D01*
X003450Y010606D01*
X003444Y010605D01*
X003381Y010579D01*
X003324Y010540D01*
X003275Y010492D01*
X003237Y010435D01*
X003211Y010372D01*
X003198Y010304D01*
X003198Y010299D01*
X003517Y010299D01*
X003517Y010241D01*
X003575Y010241D01*
X003575Y010299D01*
X003894Y010299D01*
X003894Y010304D01*
X003880Y010372D01*
X003854Y010435D01*
X003816Y010492D01*
X003768Y010540D01*
X003711Y010579D01*
X003647Y010605D01*
X003641Y010606D01*
X003720Y010639D01*
X003807Y010725D01*
X003829Y010780D01*
X004014Y010780D01*
X003993Y010760D01*
X003946Y010646D01*
X003946Y010524D01*
X003993Y010411D01*
X004080Y010324D01*
X004193Y010277D01*
X004316Y010277D01*
X004429Y010324D01*
X004460Y010355D01*
X004460Y009649D01*
X004286Y009823D01*
X004035Y009927D01*
X003765Y009927D01*
X003514Y009823D01*
X003323Y009632D01*
X003219Y009382D01*
X003219Y009111D01*
X003323Y008861D01*
X003514Y008670D01*
X003696Y008594D01*
X003442Y008340D01*
X003360Y008258D01*
X003360Y005942D01*
X003660Y005642D01*
X003742Y005560D01*
X005358Y005560D01*
X005439Y005641D02*
X005480Y005641D01*
X005480Y005699D02*
X005440Y005699D01*
X005440Y005758D02*
X005480Y005758D01*
X005480Y005816D02*
X005440Y005816D01*
X005440Y005875D02*
X005480Y005875D01*
X005480Y005933D02*
X005440Y005933D01*
X005440Y005992D02*
X005480Y005992D01*
X005480Y006050D02*
X005440Y006050D01*
X005440Y006109D02*
X005480Y006109D01*
X005480Y006167D02*
X005440Y006167D01*
X005440Y006226D02*
X005480Y006226D01*
X005480Y006284D02*
X005440Y006284D01*
X005440Y006343D02*
X005480Y006343D01*
X005480Y006401D02*
X005440Y006401D01*
X005440Y006460D02*
X005480Y006460D01*
X005480Y006518D02*
X005440Y006518D01*
X005440Y006577D02*
X005480Y006577D01*
X005480Y006635D02*
X005440Y006635D01*
X005440Y006694D02*
X005480Y006694D01*
X005480Y006752D02*
X005440Y006752D01*
X005440Y006811D02*
X005480Y006811D01*
X005480Y006869D02*
X005440Y006869D01*
X005440Y006928D02*
X005480Y006928D01*
X005480Y006986D02*
X005440Y006986D01*
X005440Y007045D02*
X005480Y007045D01*
X005480Y007103D02*
X005440Y007103D01*
X005440Y007162D02*
X005480Y007162D01*
X005480Y007220D02*
X005440Y007220D01*
X005440Y007279D02*
X005480Y007279D01*
X005480Y007337D02*
X005440Y007337D01*
X005440Y007396D02*
X005480Y007396D01*
X005480Y007454D02*
X005440Y007454D01*
X005440Y007513D02*
X005480Y007513D01*
X005480Y007571D02*
X005440Y007571D01*
X005440Y007630D02*
X005480Y007630D01*
X005480Y007688D02*
X005440Y007688D01*
X005440Y007747D02*
X005480Y007747D01*
X005480Y007805D02*
X005440Y007805D01*
X005440Y007864D02*
X005480Y007864D01*
X005480Y007922D02*
X005440Y007922D01*
X005440Y007981D02*
X005480Y007981D01*
X005480Y008039D02*
X005440Y008039D01*
X005600Y008100D02*
X006400Y008900D01*
X006400Y011000D01*
X007050Y011650D01*
X007188Y011491D02*
X007330Y011491D01*
X007330Y011549D02*
X007246Y011549D01*
X007260Y011608D02*
X007330Y011608D01*
X007330Y011666D02*
X007260Y011666D01*
X007260Y011725D02*
X007328Y011725D01*
X007270Y011783D02*
X007214Y011783D01*
X007240Y011842D02*
X007155Y011842D01*
X007240Y011900D02*
X005498Y011900D01*
X005440Y011958D02*
X005440Y011958D01*
X005439Y011959D02*
X007240Y011959D01*
X007270Y012017D02*
X005381Y012017D01*
X005556Y011842D02*
X006945Y011842D01*
X006886Y011783D02*
X005615Y011783D01*
X005673Y011725D02*
X006840Y011725D01*
X006840Y011666D02*
X005732Y011666D01*
X005790Y011608D02*
X006838Y011608D01*
X006779Y011549D02*
X005849Y011549D01*
X005907Y011491D02*
X006721Y011491D01*
X006662Y011432D02*
X005966Y011432D01*
X006024Y011374D02*
X006604Y011374D01*
X006545Y011315D02*
X006083Y011315D01*
X006141Y011257D02*
X006487Y011257D01*
X006428Y011198D02*
X006200Y011198D01*
X006258Y011140D02*
X006370Y011140D01*
X006534Y010964D02*
X006844Y010964D01*
X006786Y010906D02*
X006520Y010906D01*
X006520Y010847D02*
X006727Y010847D01*
X006669Y010789D02*
X006520Y010789D01*
X006520Y010730D02*
X006610Y010730D01*
X006552Y010672D02*
X006520Y010672D01*
X006550Y010500D02*
X007450Y011400D01*
X007450Y011900D01*
X007571Y012076D02*
X007679Y012076D01*
X007800Y011900D02*
X007800Y011300D01*
X006800Y010300D01*
X006800Y008800D01*
X006550Y008650D02*
X006800Y008400D01*
X006550Y008650D02*
X006550Y010500D01*
X006932Y010262D02*
X009293Y010262D01*
X009282Y010269D02*
X009333Y010235D01*
X009390Y010212D01*
X009449Y010200D01*
X009470Y010200D01*
X009470Y010500D01*
X009530Y010500D01*
X009530Y010560D01*
X009830Y010560D01*
X009830Y010581D01*
X009818Y010640D01*
X009795Y010697D01*
X009761Y010748D01*
X009718Y010791D01*
X009667Y010825D01*
X009610Y010848D01*
X009551Y010860D01*
X009530Y010860D01*
X009530Y010560D01*
X009470Y010560D01*
X009470Y010860D01*
X009449Y010860D01*
X009390Y010848D01*
X009333Y010825D01*
X009282Y010791D01*
X009239Y010748D01*
X009205Y010697D01*
X009182Y010640D01*
X009170Y010581D01*
X009170Y010560D01*
X009470Y010560D01*
X009470Y010500D01*
X009170Y010500D01*
X009170Y010479D01*
X009182Y010420D01*
X009205Y010363D01*
X009239Y010312D01*
X009282Y010269D01*
X009234Y010321D02*
X006990Y010321D01*
X007049Y010379D02*
X009199Y010379D01*
X009178Y010438D02*
X007107Y010438D01*
X007166Y010496D02*
X009170Y010496D01*
X009176Y010613D02*
X007283Y010613D01*
X007341Y010672D02*
X009195Y010672D01*
X009227Y010730D02*
X007400Y010730D01*
X007458Y010789D02*
X009280Y010789D01*
X009387Y010847D02*
X007517Y010847D01*
X007575Y010906D02*
X010536Y010906D01*
X010594Y010964D02*
X010240Y010964D01*
X010267Y010975D02*
X010318Y011009D01*
X010361Y011052D01*
X010395Y011103D01*
X010418Y011160D01*
X010430Y011219D01*
X010430Y011240D01*
X010130Y011240D01*
X010130Y011300D01*
X010070Y011300D01*
X010070Y011600D01*
X010049Y011600D01*
X009990Y011588D01*
X009933Y011565D01*
X009882Y011531D01*
X009839Y011488D01*
X009805Y011437D01*
X009782Y011380D01*
X009770Y011321D01*
X009770Y011300D01*
X010070Y011300D01*
X010070Y011240D01*
X009770Y011240D01*
X009770Y011219D01*
X009782Y011160D01*
X009805Y011103D01*
X009839Y011052D01*
X009882Y011009D01*
X009933Y010975D01*
X009990Y010952D01*
X010049Y010940D01*
X010070Y010940D01*
X010070Y011240D01*
X010130Y011240D01*
X010130Y010940D01*
X010151Y010940D01*
X010210Y010952D01*
X010267Y010975D01*
X010331Y011023D02*
X010653Y011023D01*
X010711Y011081D02*
X010380Y011081D01*
X010410Y011140D02*
X011343Y011140D01*
X011323Y011120D02*
X010750Y011120D01*
X009883Y010253D01*
X009813Y010183D01*
X009813Y009461D01*
X009678Y009461D01*
X009567Y009350D01*
X009567Y008998D01*
X009678Y008887D01*
X010188Y008887D01*
X010299Y008998D01*
X010299Y009350D01*
X010188Y009461D01*
X010053Y009461D01*
X010053Y010083D01*
X010850Y010880D01*
X010883Y010880D01*
X010790Y010787D01*
X010790Y010613D01*
X010913Y010490D01*
X011043Y010490D01*
X011040Y010487D01*
X011040Y010313D01*
X011130Y010223D01*
X011130Y008500D01*
X010550Y007920D01*
X010299Y007920D01*
X010299Y007950D01*
X010188Y008061D01*
X009678Y008061D01*
X009567Y007950D01*
X009567Y007598D01*
X009678Y007487D01*
X010188Y007487D01*
X010299Y007598D01*
X010299Y007680D01*
X010650Y007680D01*
X011300Y008330D01*
X011370Y008400D01*
X011370Y010223D01*
X011460Y010313D01*
X011460Y010470D01*
X011580Y010350D01*
X011580Y008050D01*
X010190Y006659D01*
X010188Y006661D01*
X009678Y006661D01*
X009567Y006550D01*
X009567Y006198D01*
X009678Y006087D01*
X010188Y006087D01*
X010299Y006198D01*
X010299Y006429D01*
X011750Y007880D01*
X011820Y007950D01*
X011820Y010450D01*
X011750Y010520D01*
X011520Y010750D01*
X011480Y010790D01*
X011587Y010790D01*
X011710Y010913D01*
X011710Y011087D01*
X011587Y011210D01*
X011413Y011210D01*
X011323Y011120D01*
X011401Y011198D02*
X010426Y011198D01*
X010430Y011300D02*
X010430Y011321D01*
X010418Y011380D01*
X010395Y011437D01*
X010361Y011488D01*
X010318Y011531D01*
X010267Y011565D01*
X010210Y011588D01*
X010151Y011600D01*
X010130Y011600D01*
X010130Y011300D01*
X010430Y011300D01*
X010430Y011315D02*
X013804Y011315D01*
X013790Y011282D02*
X013790Y011118D01*
X013852Y010968D01*
X013968Y010852D01*
X014118Y010790D01*
X014282Y010790D01*
X014432Y010852D01*
X014548Y010968D01*
X014610Y011118D01*
X014610Y011282D01*
X014548Y011432D01*
X015070Y011432D01*
X015070Y011374D02*
X014572Y011374D01*
X014548Y011432D02*
X014432Y011548D01*
X014282Y011610D01*
X014118Y011610D01*
X013968Y011548D01*
X013852Y011432D01*
X012529Y011432D01*
X012487Y011390D02*
X012313Y011390D01*
X012190Y011513D01*
X012190Y011540D01*
X012186Y011544D01*
X012179Y011527D01*
X012103Y011451D01*
X012004Y011410D01*
X011856Y011410D01*
X011757Y011451D01*
X011681Y011527D01*
X011640Y011626D01*
X011640Y011774D01*
X011681Y011873D01*
X011757Y011949D01*
X011856Y011990D01*
X012004Y011990D01*
X012103Y011949D01*
X012179Y011873D01*
X012201Y011820D01*
X012250Y011820D01*
X012286Y011783D01*
X012313Y011810D01*
X012487Y011810D01*
X012610Y011687D01*
X012610Y011513D01*
X012487Y011390D01*
X012588Y011491D02*
X013911Y011491D01*
X013852Y011432D02*
X013790Y011282D01*
X013790Y011257D02*
X010130Y011257D01*
X010130Y011315D02*
X010070Y011315D01*
X010070Y011257D02*
X007920Y011257D01*
X007920Y011315D02*
X009770Y011315D01*
X009781Y011374D02*
X007920Y011374D01*
X007920Y011432D02*
X009803Y011432D01*
X009842Y011491D02*
X007920Y011491D01*
X007920Y011549D02*
X009910Y011549D01*
X009963Y011666D02*
X007920Y011666D01*
X007920Y011608D02*
X010948Y011608D01*
X010952Y011590D02*
X010975Y011533D01*
X011009Y011482D01*
X011052Y011439D01*
X011103Y011405D01*
X011160Y011382D01*
X011219Y011370D01*
X011240Y011370D01*
X011240Y011670D01*
X011300Y011670D01*
X011300Y011730D01*
X011240Y011730D01*
X011240Y012030D01*
X011219Y012030D01*
X011160Y012018D01*
X011103Y011995D01*
X011052Y011961D01*
X011009Y011918D01*
X010975Y011867D01*
X010952Y011810D01*
X010940Y011751D01*
X010940Y011730D01*
X011240Y011730D01*
X011240Y011670D01*
X010940Y011670D01*
X010940Y011649D01*
X010952Y011590D01*
X010969Y011549D02*
X010290Y011549D01*
X010358Y011491D02*
X011004Y011491D01*
X011063Y011432D02*
X010397Y011432D01*
X010419Y011374D02*
X011202Y011374D01*
X011240Y011374D02*
X011300Y011374D01*
X011300Y011370D02*
X011321Y011370D01*
X011380Y011382D01*
X011437Y011405D01*
X011488Y011439D01*
X011531Y011482D01*
X011565Y011533D01*
X011588Y011590D01*
X011600Y011649D01*
X011600Y011670D01*
X011300Y011670D01*
X011300Y011370D01*
X011338Y011374D02*
X013828Y011374D01*
X013790Y011198D02*
X011599Y011198D01*
X011657Y011140D02*
X013790Y011140D01*
X013805Y011081D02*
X011710Y011081D01*
X011710Y011023D02*
X013830Y011023D01*
X013856Y010964D02*
X011710Y010964D01*
X011703Y010906D02*
X013915Y010906D01*
X013981Y010847D02*
X011644Y010847D01*
X011540Y010730D02*
X015070Y010730D01*
X015070Y010672D02*
X011598Y010672D01*
X011657Y010613D02*
X015070Y010613D01*
X015070Y010555D02*
X014415Y010555D01*
X014432Y010548D02*
X014282Y010610D01*
X014118Y010610D01*
X013968Y010548D01*
X013852Y010432D01*
X013790Y010282D01*
X013790Y010118D01*
X013852Y009968D01*
X013968Y009852D01*
X014118Y009790D01*
X014282Y009790D01*
X014432Y009852D01*
X014548Y009968D01*
X014610Y010118D01*
X014610Y010282D01*
X014548Y010432D01*
X014432Y010548D01*
X014484Y010496D02*
X015070Y010496D01*
X015070Y010438D02*
X014542Y010438D01*
X014570Y010379D02*
X015070Y010379D01*
X015070Y010321D02*
X014594Y010321D01*
X014610Y010262D02*
X015070Y010262D01*
X015070Y010204D02*
X014610Y010204D01*
X014610Y010145D02*
X015070Y010145D01*
X015070Y010087D02*
X014597Y010087D01*
X014573Y010028D02*
X015070Y010028D01*
X015070Y009970D02*
X014548Y009970D01*
X014491Y009911D02*
X015070Y009911D01*
X015070Y009853D02*
X014432Y009853D01*
X014291Y009794D02*
X015070Y009794D01*
X015070Y009736D02*
X011820Y009736D01*
X011820Y009794D02*
X014109Y009794D01*
X013968Y009853D02*
X011820Y009853D01*
X011820Y009911D02*
X013909Y009911D01*
X013852Y009970D02*
X011820Y009970D01*
X011820Y010028D02*
X013827Y010028D01*
X013803Y010087D02*
X011820Y010087D01*
X011820Y010145D02*
X013790Y010145D01*
X013790Y010204D02*
X011820Y010204D01*
X011820Y010262D02*
X013790Y010262D01*
X013806Y010321D02*
X011820Y010321D01*
X011820Y010379D02*
X013830Y010379D01*
X013858Y010438D02*
X011820Y010438D01*
X011774Y010496D02*
X013916Y010496D01*
X013985Y010555D02*
X011715Y010555D01*
X011700Y010400D02*
X011700Y008000D01*
X010074Y006374D01*
X009933Y006374D01*
X009903Y006679D02*
X009733Y006679D01*
X009689Y006688D01*
X009648Y006705D01*
X009610Y006730D01*
X009578Y006762D01*
X009553Y006800D01*
X009536Y006841D01*
X009527Y006885D01*
X009527Y006976D01*
X009903Y006976D01*
X009963Y006976D01*
X009963Y006679D01*
X010133Y006679D01*
X010177Y006688D01*
X010218Y006705D01*
X010256Y006730D01*
X010288Y006762D01*
X010313Y006800D01*
X010330Y006841D01*
X010339Y006885D01*
X010339Y006976D01*
X009963Y006976D01*
X009963Y007036D01*
X010339Y007036D01*
X010339Y007127D01*
X010330Y007171D01*
X010313Y007213D01*
X010288Y007250D01*
X010256Y007282D01*
X010218Y007307D01*
X010177Y007324D01*
X010133Y007333D01*
X009963Y007333D01*
X009963Y007036D01*
X009903Y007036D01*
X009903Y006976D01*
X009903Y006679D01*
X009903Y006694D02*
X009963Y006694D01*
X009963Y006752D02*
X009903Y006752D01*
X009903Y006811D02*
X009963Y006811D01*
X009963Y006869D02*
X009903Y006869D01*
X009903Y006928D02*
X009963Y006928D01*
X009963Y006986D02*
X010516Y006986D01*
X010458Y006928D02*
X010339Y006928D01*
X010335Y006869D02*
X010399Y006869D01*
X010341Y006811D02*
X010317Y006811D01*
X010282Y006752D02*
X010277Y006752D01*
X010224Y006694D02*
X010190Y006694D01*
X010388Y006518D02*
X013938Y006518D01*
X013968Y006548D02*
X013852Y006432D01*
X013790Y006282D01*
X013790Y006118D01*
X013852Y005968D01*
X013968Y005852D01*
X014118Y005790D01*
X014282Y005790D01*
X014432Y005852D01*
X014548Y005968D01*
X014610Y006118D01*
X014610Y006282D01*
X014548Y006432D01*
X014432Y006548D01*
X014282Y006610D01*
X014118Y006610D01*
X013968Y006548D01*
X014038Y006577D02*
X010446Y006577D01*
X010505Y006635D02*
X015070Y006635D01*
X015070Y006577D02*
X014362Y006577D01*
X014462Y006518D02*
X015070Y006518D01*
X015070Y006460D02*
X014520Y006460D01*
X014561Y006401D02*
X015070Y006401D01*
X015070Y006343D02*
X014585Y006343D01*
X014609Y006284D02*
X015070Y006284D01*
X015070Y006226D02*
X014610Y006226D01*
X014610Y006167D02*
X015070Y006167D01*
X015070Y006109D02*
X014606Y006109D01*
X014582Y006050D02*
X015070Y006050D01*
X015070Y005992D02*
X014557Y005992D01*
X014513Y005933D02*
X015070Y005933D01*
X015070Y005875D02*
X014454Y005875D01*
X014344Y005816D02*
X015070Y005816D01*
X015070Y005758D02*
X010333Y005758D01*
X010330Y005771D02*
X010313Y005813D01*
X010288Y005850D01*
X010256Y005882D01*
X010218Y005907D01*
X010177Y005924D01*
X010133Y005933D01*
X009963Y005933D01*
X009903Y005933D01*
X009733Y005933D01*
X009433Y005933D01*
X009433Y005875D02*
X009603Y005875D01*
X009610Y005882D02*
X009578Y005850D01*
X009553Y005813D01*
X009536Y005771D01*
X009527Y005727D01*
X009527Y005636D01*
X009903Y005636D01*
X009903Y005576D01*
X009963Y005576D01*
X009963Y005279D01*
X010133Y005279D01*
X010177Y005288D01*
X010218Y005305D01*
X010256Y005330D01*
X010288Y005362D01*
X010313Y005400D01*
X010330Y005441D01*
X010339Y005485D01*
X010339Y005576D01*
X009963Y005576D01*
X009963Y005636D01*
X010339Y005636D01*
X010339Y005727D01*
X010330Y005771D01*
X010311Y005816D02*
X014056Y005816D01*
X013946Y005875D02*
X010263Y005875D01*
X010133Y005933D02*
X013887Y005933D01*
X013843Y005992D02*
X009433Y005992D01*
X009433Y006050D02*
X013818Y006050D01*
X013794Y006109D02*
X010210Y006109D01*
X010268Y006167D02*
X013790Y006167D01*
X013790Y006226D02*
X010299Y006226D01*
X010299Y006284D02*
X013791Y006284D01*
X013815Y006343D02*
X010299Y006343D01*
X010299Y006401D02*
X013839Y006401D01*
X013880Y006460D02*
X010329Y006460D01*
X010563Y006694D02*
X015070Y006694D01*
X015070Y006752D02*
X010622Y006752D01*
X010680Y006811D02*
X014069Y006811D01*
X014118Y006790D02*
X013968Y006852D01*
X013852Y006968D01*
X013790Y007118D01*
X013790Y007282D01*
X013852Y007432D01*
X013968Y007548D01*
X014118Y007610D01*
X014282Y007610D01*
X014432Y007548D01*
X014548Y007432D01*
X014610Y007282D01*
X014610Y007118D01*
X014548Y006968D01*
X014432Y006852D01*
X014282Y006790D01*
X014118Y006790D01*
X013951Y006869D02*
X010739Y006869D01*
X010797Y006928D02*
X013893Y006928D01*
X013845Y006986D02*
X010856Y006986D01*
X010914Y007045D02*
X013821Y007045D01*
X013796Y007103D02*
X010973Y007103D01*
X011031Y007162D02*
X013790Y007162D01*
X013790Y007220D02*
X011090Y007220D01*
X011148Y007279D02*
X013790Y007279D01*
X013813Y007337D02*
X011207Y007337D01*
X011265Y007396D02*
X013837Y007396D01*
X013874Y007454D02*
X011324Y007454D01*
X011382Y007513D02*
X013933Y007513D01*
X014024Y007571D02*
X011441Y007571D01*
X011499Y007630D02*
X015070Y007630D01*
X015070Y007688D02*
X011558Y007688D01*
X011616Y007747D02*
X015070Y007747D01*
X015070Y007805D02*
X014318Y007805D01*
X014282Y007790D02*
X014432Y007852D01*
X014548Y007968D01*
X014610Y008118D01*
X014610Y008282D01*
X014548Y008432D01*
X014432Y008548D01*
X014282Y008610D01*
X014118Y008610D01*
X013968Y008548D01*
X013852Y008432D01*
X013790Y008282D01*
X013790Y008118D01*
X013852Y007968D01*
X013968Y007852D01*
X014118Y007790D01*
X014282Y007790D01*
X014443Y007864D02*
X015070Y007864D01*
X015070Y007922D02*
X014502Y007922D01*
X014553Y007981D02*
X015070Y007981D01*
X015070Y008039D02*
X014577Y008039D01*
X014601Y008098D02*
X015070Y008098D01*
X015070Y008156D02*
X014610Y008156D01*
X014610Y008215D02*
X015070Y008215D01*
X015070Y008273D02*
X014610Y008273D01*
X014589Y008332D02*
X015070Y008332D01*
X015070Y008390D02*
X014565Y008390D01*
X014531Y008449D02*
X015070Y008449D01*
X015070Y008507D02*
X014473Y008507D01*
X014389Y008566D02*
X015070Y008566D01*
X015070Y008624D02*
X011820Y008624D01*
X011820Y008566D02*
X014011Y008566D01*
X013927Y008507D02*
X011820Y008507D01*
X011820Y008449D02*
X013869Y008449D01*
X013835Y008390D02*
X011820Y008390D01*
X011820Y008332D02*
X013811Y008332D01*
X013790Y008273D02*
X011820Y008273D01*
X011820Y008215D02*
X013790Y008215D01*
X013790Y008156D02*
X011820Y008156D01*
X011820Y008098D02*
X013799Y008098D01*
X013823Y008039D02*
X011820Y008039D01*
X011820Y007981D02*
X013847Y007981D01*
X013898Y007922D02*
X011792Y007922D01*
X011733Y007864D02*
X013957Y007864D01*
X014082Y007805D02*
X011675Y007805D01*
X011511Y007981D02*
X010950Y007981D01*
X011009Y008039D02*
X011569Y008039D01*
X011580Y008098D02*
X011067Y008098D01*
X011126Y008156D02*
X011580Y008156D01*
X011580Y008215D02*
X011184Y008215D01*
X011243Y008273D02*
X011580Y008273D01*
X011580Y008332D02*
X011301Y008332D01*
X011360Y008390D02*
X011580Y008390D01*
X011580Y008449D02*
X011370Y008449D01*
X011370Y008507D02*
X011580Y008507D01*
X011580Y008566D02*
X011370Y008566D01*
X011370Y008624D02*
X011580Y008624D01*
X011580Y008683D02*
X011370Y008683D01*
X011370Y008741D02*
X011580Y008741D01*
X011580Y008800D02*
X011370Y008800D01*
X011370Y008858D02*
X011580Y008858D01*
X011580Y008917D02*
X011370Y008917D01*
X011370Y008975D02*
X011580Y008975D01*
X011580Y009034D02*
X011370Y009034D01*
X011370Y009092D02*
X011580Y009092D01*
X011580Y009151D02*
X011370Y009151D01*
X011370Y009209D02*
X011580Y009209D01*
X011580Y009268D02*
X011370Y009268D01*
X011370Y009326D02*
X011580Y009326D01*
X011580Y009385D02*
X011370Y009385D01*
X011370Y009443D02*
X011580Y009443D01*
X011580Y009502D02*
X011370Y009502D01*
X011370Y009560D02*
X011580Y009560D01*
X011580Y009619D02*
X011370Y009619D01*
X011370Y009677D02*
X011580Y009677D01*
X011580Y009736D02*
X011370Y009736D01*
X011370Y009794D02*
X011580Y009794D01*
X011580Y009853D02*
X011370Y009853D01*
X011370Y009911D02*
X011580Y009911D01*
X011580Y009970D02*
X011370Y009970D01*
X011370Y010028D02*
X011580Y010028D01*
X011580Y010087D02*
X011370Y010087D01*
X011370Y010145D02*
X011580Y010145D01*
X011580Y010204D02*
X011370Y010204D01*
X011409Y010262D02*
X011580Y010262D01*
X011580Y010321D02*
X011460Y010321D01*
X011460Y010379D02*
X011551Y010379D01*
X011493Y010438D02*
X011460Y010438D01*
X011250Y010400D02*
X011250Y008450D01*
X010600Y007800D01*
X009959Y007800D01*
X009933Y007774D01*
X009903Y008079D02*
X009733Y008079D01*
X009689Y008088D01*
X009648Y008105D01*
X009610Y008130D01*
X009578Y008162D01*
X009553Y008200D01*
X009536Y008241D01*
X009527Y008285D01*
X009527Y008376D01*
X009903Y008376D01*
X009903Y008079D01*
X009903Y008098D02*
X009963Y008098D01*
X009963Y008156D02*
X009903Y008156D01*
X009903Y008215D02*
X009963Y008215D01*
X009963Y008273D02*
X009903Y008273D01*
X009903Y008332D02*
X009963Y008332D01*
X009963Y008390D02*
X011020Y008390D01*
X010962Y008332D02*
X010339Y008332D01*
X010336Y008273D02*
X010903Y008273D01*
X010845Y008215D02*
X010319Y008215D01*
X010281Y008156D02*
X010786Y008156D01*
X010728Y008098D02*
X010199Y008098D01*
X010210Y008039D02*
X010669Y008039D01*
X010611Y007981D02*
X010269Y007981D01*
X010299Y007922D02*
X010552Y007922D01*
X010716Y007747D02*
X011277Y007747D01*
X011335Y007805D02*
X010775Y007805D01*
X010833Y007864D02*
X011394Y007864D01*
X011452Y007922D02*
X010892Y007922D01*
X011160Y007630D02*
X010299Y007630D01*
X010272Y007571D02*
X011101Y007571D01*
X011043Y007513D02*
X010214Y007513D01*
X010259Y007279D02*
X010809Y007279D01*
X010867Y007337D02*
X009433Y007337D01*
X009433Y007279D02*
X009607Y007279D01*
X009610Y007282D02*
X009578Y007250D01*
X009553Y007213D01*
X009536Y007171D01*
X009527Y007127D01*
X009527Y007036D01*
X009903Y007036D01*
X009903Y007333D01*
X009733Y007333D01*
X009689Y007324D01*
X009648Y007307D01*
X009610Y007282D01*
X009558Y007220D02*
X009429Y007220D01*
X009371Y007162D02*
X009534Y007162D01*
X009527Y007103D02*
X008529Y007103D01*
X008529Y007045D02*
X009527Y007045D01*
X009527Y006928D02*
X008541Y006928D01*
X008529Y006986D02*
X009903Y006986D01*
X009903Y007045D02*
X009963Y007045D01*
X009963Y007103D02*
X009903Y007103D01*
X009903Y007162D02*
X009963Y007162D01*
X009963Y007220D02*
X009903Y007220D01*
X009903Y007279D02*
X009963Y007279D01*
X009652Y007513D02*
X009433Y007513D01*
X009433Y007571D02*
X009594Y007571D01*
X009567Y007630D02*
X009379Y007630D01*
X009433Y007454D02*
X010984Y007454D01*
X010926Y007396D02*
X009433Y007396D01*
X009567Y007688D02*
X009048Y007688D01*
X008989Y007747D02*
X009567Y007747D01*
X009567Y007805D02*
X008931Y007805D01*
X008872Y007864D02*
X009567Y007864D01*
X009567Y007922D02*
X008504Y007922D01*
X008486Y007981D02*
X009598Y007981D01*
X009656Y008039D02*
X008529Y008039D01*
X008529Y008098D02*
X009667Y008098D01*
X009585Y008156D02*
X008692Y008156D01*
X008750Y008215D02*
X009547Y008215D01*
X009530Y008273D02*
X008809Y008273D01*
X008867Y008332D02*
X009527Y008332D01*
X009527Y008449D02*
X008984Y008449D01*
X009043Y008507D02*
X009527Y008507D01*
X009611Y008683D02*
X009433Y008683D01*
X009433Y008741D02*
X011130Y008741D01*
X011130Y008683D02*
X010255Y008683D01*
X010305Y008624D02*
X011130Y008624D01*
X011130Y008566D02*
X010331Y008566D01*
X010339Y008507D02*
X011130Y008507D01*
X011079Y008449D02*
X010339Y008449D01*
X009963Y008449D02*
X009903Y008449D01*
X009903Y008507D02*
X009963Y008507D01*
X009963Y008566D02*
X009903Y008566D01*
X009903Y008624D02*
X009963Y008624D01*
X009963Y008683D02*
X009903Y008683D01*
X009903Y008390D02*
X008926Y008390D01*
X008681Y008683D02*
X008433Y008683D01*
X008491Y008624D02*
X008622Y008624D01*
X008564Y008566D02*
X008529Y008566D01*
X008701Y008741D02*
X007590Y008741D01*
X007590Y008800D02*
X008701Y008800D01*
X008701Y008858D02*
X007834Y008858D01*
X007897Y008917D02*
X008701Y008917D01*
X008701Y008975D02*
X007946Y008975D01*
X007970Y009034D02*
X008758Y009034D01*
X008888Y009545D02*
X009062Y009545D01*
X009185Y009668D01*
X009185Y009750D01*
X009229Y009750D01*
X009251Y009697D01*
X009327Y009621D01*
X009426Y009580D01*
X009574Y009580D01*
X009673Y009621D01*
X009749Y009697D01*
X009790Y009796D01*
X009790Y009944D01*
X009749Y010043D01*
X009673Y010119D01*
X009574Y010160D01*
X009426Y010160D01*
X009327Y010119D01*
X009251Y010043D01*
X009229Y009990D01*
X009040Y009990D01*
X009015Y009965D01*
X008888Y009965D01*
X008765Y009842D01*
X008765Y009668D01*
X008888Y009545D01*
X008873Y009560D02*
X007990Y009560D01*
X007990Y009502D02*
X009813Y009502D01*
X009813Y009560D02*
X009077Y009560D01*
X009135Y009619D02*
X009333Y009619D01*
X009271Y009677D02*
X009185Y009677D01*
X009185Y009736D02*
X009235Y009736D01*
X009090Y009870D02*
X008975Y009755D01*
X009090Y009870D02*
X009500Y009870D01*
X009295Y010087D02*
X006920Y010087D01*
X006920Y010145D02*
X009390Y010145D01*
X009432Y010204D02*
X006920Y010204D01*
X006920Y010028D02*
X009245Y010028D01*
X009470Y010204D02*
X009530Y010204D01*
X009530Y010200D02*
X009551Y010200D01*
X009610Y010212D01*
X009667Y010235D01*
X009718Y010269D01*
X009761Y010312D01*
X009795Y010363D01*
X009818Y010420D01*
X009830Y010479D01*
X009830Y010500D01*
X009530Y010500D01*
X009530Y010200D01*
X009568Y010204D02*
X009834Y010204D01*
X009813Y010145D02*
X009610Y010145D01*
X009705Y010087D02*
X009813Y010087D01*
X009813Y010028D02*
X009755Y010028D01*
X009779Y009970D02*
X009813Y009970D01*
X009813Y009911D02*
X009790Y009911D01*
X009790Y009853D02*
X009813Y009853D01*
X009813Y009794D02*
X009789Y009794D01*
X009765Y009736D02*
X009813Y009736D01*
X009813Y009677D02*
X009729Y009677D01*
X009667Y009619D02*
X009813Y009619D01*
X009660Y009443D02*
X007990Y009443D01*
X007990Y009385D02*
X009602Y009385D01*
X009567Y009326D02*
X007990Y009326D01*
X007990Y009268D02*
X009567Y009268D01*
X009567Y009209D02*
X007990Y009209D01*
X007990Y009151D02*
X009567Y009151D01*
X009567Y009092D02*
X007990Y009092D01*
X008012Y008683D02*
X007863Y008683D01*
X007921Y008624D02*
X007953Y008624D01*
X007990Y009619D02*
X008814Y009619D01*
X008765Y009677D02*
X007990Y009677D01*
X007983Y009736D02*
X008765Y009736D01*
X008765Y009794D02*
X007958Y009794D01*
X007928Y009853D02*
X008775Y009853D01*
X008834Y009911D02*
X007870Y009911D01*
X007767Y009970D02*
X009020Y009970D01*
X009470Y010262D02*
X009530Y010262D01*
X009530Y010321D02*
X009470Y010321D01*
X009470Y010379D02*
X009530Y010379D01*
X009530Y010438D02*
X009470Y010438D01*
X009470Y010496D02*
X009530Y010496D01*
X009530Y010555D02*
X010185Y010555D01*
X010243Y010613D02*
X009824Y010613D01*
X009805Y010672D02*
X010302Y010672D01*
X010360Y010730D02*
X009773Y010730D01*
X009720Y010789D02*
X010419Y010789D01*
X010477Y010847D02*
X009613Y010847D01*
X009530Y010847D02*
X009470Y010847D01*
X009470Y010789D02*
X009530Y010789D01*
X009530Y010730D02*
X009470Y010730D01*
X009470Y010672D02*
X009530Y010672D01*
X009530Y010613D02*
X009470Y010613D01*
X009470Y010555D02*
X007224Y010555D01*
X006903Y011023D02*
X006592Y011023D01*
X006651Y011081D02*
X006961Y011081D01*
X007020Y011140D02*
X006709Y011140D01*
X006768Y011198D02*
X007078Y011198D01*
X007137Y011257D02*
X006826Y011257D01*
X006885Y011315D02*
X007195Y011315D01*
X007254Y011374D02*
X006943Y011374D01*
X007002Y011432D02*
X007312Y011432D01*
X007692Y011023D02*
X009869Y011023D01*
X009820Y011081D02*
X007751Y011081D01*
X007809Y011140D02*
X009790Y011140D01*
X009774Y011198D02*
X007868Y011198D01*
X007634Y010964D02*
X009960Y010964D01*
X010070Y010964D02*
X010130Y010964D01*
X010130Y011023D02*
X010070Y011023D01*
X010070Y011081D02*
X010130Y011081D01*
X010130Y011140D02*
X010070Y011140D01*
X010070Y011198D02*
X010130Y011198D01*
X010130Y011374D02*
X010070Y011374D01*
X010070Y011432D02*
X010130Y011432D01*
X010130Y011491D02*
X010070Y011491D01*
X010070Y011549D02*
X010130Y011549D01*
X010174Y011640D02*
X010026Y011640D01*
X009927Y011681D01*
X009851Y011757D01*
X009810Y011856D01*
X009810Y012004D01*
X009851Y012103D01*
X009927Y012179D01*
X009980Y012201D01*
X009980Y012223D01*
X009890Y012313D01*
X009890Y012487D01*
X010013Y012610D01*
X010187Y012610D01*
X010310Y012487D01*
X010310Y012313D01*
X010220Y012223D01*
X010220Y012201D01*
X010273Y012179D01*
X010349Y012103D01*
X010390Y012004D01*
X010390Y011856D01*
X010349Y011757D01*
X010273Y011681D01*
X010174Y011640D01*
X010237Y011666D02*
X010940Y011666D01*
X010946Y011783D02*
X010360Y011783D01*
X010384Y011842D02*
X010965Y011842D01*
X010997Y011900D02*
X010390Y011900D01*
X010390Y011959D02*
X011050Y011959D01*
X011157Y012017D02*
X010384Y012017D01*
X010360Y012076D02*
X013808Y012076D01*
X013790Y012118D02*
X013790Y012282D01*
X013852Y012432D01*
X013968Y012548D01*
X014118Y012610D01*
X014282Y012610D01*
X014432Y012548D01*
X014548Y012432D01*
X014610Y012282D01*
X014610Y012118D01*
X014548Y011968D01*
X014432Y011852D01*
X014282Y011790D01*
X014118Y011790D01*
X013968Y011852D01*
X013852Y011968D01*
X013790Y012118D01*
X013790Y012134D02*
X010318Y012134D01*
X010240Y012193D02*
X013790Y012193D01*
X013790Y012251D02*
X010248Y012251D01*
X010307Y012310D02*
X013802Y012310D01*
X013826Y012368D02*
X010310Y012368D01*
X010310Y012427D02*
X013850Y012427D01*
X013905Y012485D02*
X010310Y012485D01*
X010253Y012544D02*
X013964Y012544D01*
X014099Y012602D02*
X010195Y012602D01*
X010005Y012602D02*
X004581Y012602D01*
X004581Y012544D02*
X009947Y012544D01*
X009890Y012485D02*
X004581Y012485D01*
X004581Y012427D02*
X009890Y012427D01*
X009890Y012368D02*
X004560Y012368D01*
X004536Y012310D02*
X009893Y012310D01*
X009952Y012251D02*
X004511Y012251D01*
X004487Y012193D02*
X009960Y012193D01*
X009882Y012134D02*
X004443Y012134D01*
X004384Y012076D02*
X007329Y012076D01*
X007921Y012076D02*
X009840Y012076D01*
X009816Y012017D02*
X007980Y012017D01*
X008010Y011959D02*
X009810Y011959D01*
X009810Y011900D02*
X008010Y011900D01*
X008010Y011842D02*
X009816Y011842D01*
X009840Y011783D02*
X007980Y011783D01*
X007922Y011725D02*
X009884Y011725D01*
X010100Y011930D02*
X010100Y012400D01*
X010316Y011725D02*
X011240Y011725D01*
X011240Y011783D02*
X011300Y011783D01*
X011300Y011730D02*
X011300Y012030D01*
X011321Y012030D01*
X011380Y012018D01*
X011437Y011995D01*
X011488Y011961D01*
X011531Y011918D01*
X011565Y011867D01*
X011588Y011810D01*
X011600Y011751D01*
X011600Y011730D01*
X011300Y011730D01*
X011300Y011725D02*
X011640Y011725D01*
X011644Y011783D02*
X011594Y011783D01*
X011575Y011842D02*
X011668Y011842D01*
X011708Y011900D02*
X011543Y011900D01*
X011490Y011959D02*
X011780Y011959D01*
X011930Y011700D02*
X012200Y011700D01*
X012300Y011600D01*
X012400Y011600D01*
X012271Y011432D02*
X012057Y011432D01*
X012142Y011491D02*
X012212Y011491D01*
X012192Y011842D02*
X013994Y011842D01*
X013920Y011900D02*
X012152Y011900D01*
X012080Y011959D02*
X013862Y011959D01*
X013832Y012017D02*
X011383Y012017D01*
X011300Y012017D02*
X011240Y012017D01*
X011240Y011959D02*
X011300Y011959D01*
X011300Y011900D02*
X011240Y011900D01*
X011240Y011842D02*
X011300Y011842D01*
X011300Y011666D02*
X011240Y011666D01*
X011240Y011608D02*
X011300Y011608D01*
X011300Y011549D02*
X011240Y011549D01*
X011240Y011491D02*
X011300Y011491D01*
X011300Y011432D02*
X011240Y011432D01*
X011477Y011432D02*
X011803Y011432D01*
X011718Y011491D02*
X011536Y011491D01*
X011571Y011549D02*
X011672Y011549D01*
X011648Y011608D02*
X011592Y011608D01*
X011600Y011666D02*
X011640Y011666D01*
X011500Y011000D02*
X010800Y011000D01*
X009933Y010133D01*
X009933Y009174D01*
X010053Y009502D02*
X011130Y009502D01*
X011130Y009560D02*
X010053Y009560D01*
X010053Y009619D02*
X011130Y009619D01*
X011130Y009677D02*
X010053Y009677D01*
X010053Y009736D02*
X011130Y009736D01*
X011130Y009794D02*
X010053Y009794D01*
X010053Y009853D02*
X011130Y009853D01*
X011130Y009911D02*
X010053Y009911D01*
X010053Y009970D02*
X011130Y009970D01*
X011130Y010028D02*
X010053Y010028D01*
X010056Y010087D02*
X011130Y010087D01*
X011130Y010145D02*
X010115Y010145D01*
X010173Y010204D02*
X011130Y010204D01*
X011091Y010262D02*
X010232Y010262D01*
X010290Y010321D02*
X011040Y010321D01*
X011040Y010379D02*
X010349Y010379D01*
X010407Y010438D02*
X011040Y010438D01*
X010907Y010496D02*
X010466Y010496D01*
X010524Y010555D02*
X010848Y010555D01*
X010790Y010613D02*
X010583Y010613D01*
X010641Y010672D02*
X010790Y010672D01*
X010790Y010730D02*
X010700Y010730D01*
X010758Y010789D02*
X010792Y010789D01*
X010817Y010847D02*
X010850Y010847D01*
X011000Y010700D02*
X011400Y010700D01*
X011700Y010400D01*
X011481Y010789D02*
X015070Y010789D01*
X015070Y010847D02*
X014419Y010847D01*
X014485Y010906D02*
X015070Y010906D01*
X015070Y010964D02*
X014544Y010964D01*
X014570Y011023D02*
X015070Y011023D01*
X015070Y011081D02*
X014595Y011081D01*
X014610Y011140D02*
X015070Y011140D01*
X015070Y011198D02*
X014610Y011198D01*
X014610Y011257D02*
X015070Y011257D01*
X015070Y011315D02*
X014596Y011315D01*
X014489Y011491D02*
X015070Y011491D01*
X015070Y011549D02*
X014429Y011549D01*
X014287Y011608D02*
X015070Y011608D01*
X015070Y011666D02*
X012610Y011666D01*
X012610Y011608D02*
X014113Y011608D01*
X013971Y011549D02*
X012610Y011549D01*
X012572Y011725D02*
X015070Y011725D01*
X015070Y011783D02*
X012514Y011783D01*
X013852Y012968D02*
X013790Y013118D01*
X013790Y013282D01*
X013852Y013432D01*
X013968Y013548D01*
X014118Y013610D01*
X014282Y013610D01*
X014432Y013548D01*
X014548Y013432D01*
X014610Y013282D01*
X014610Y013118D01*
X014548Y012968D01*
X014432Y012852D01*
X014282Y012790D01*
X014118Y012790D01*
X013968Y012852D01*
X013852Y012968D01*
X013867Y012953D02*
X009010Y012953D01*
X009010Y012895D02*
X013926Y012895D01*
X014007Y012836D02*
X009010Y012836D01*
X008975Y012778D02*
X015070Y012778D01*
X015070Y012836D02*
X014393Y012836D01*
X014474Y012895D02*
X015070Y012895D01*
X015070Y012953D02*
X014533Y012953D01*
X014566Y013012D02*
X015070Y013012D01*
X015070Y013070D02*
X014590Y013070D01*
X014610Y013129D02*
X015070Y013129D01*
X015070Y013187D02*
X014610Y013187D01*
X014610Y013246D02*
X015070Y013246D01*
X015070Y013304D02*
X014601Y013304D01*
X014576Y013363D02*
X015070Y013363D01*
X015070Y013421D02*
X014552Y013421D01*
X014500Y013480D02*
X015070Y013480D01*
X015070Y013538D02*
X014442Y013538D01*
X014314Y013597D02*
X015070Y013597D01*
X015070Y013655D02*
X008215Y013655D01*
X008273Y013597D02*
X014086Y013597D01*
X013958Y013538D02*
X008332Y013538D01*
X008390Y013480D02*
X013900Y013480D01*
X013848Y013421D02*
X008449Y013421D01*
X008507Y013363D02*
X013824Y013363D01*
X013799Y013304D02*
X008566Y013304D01*
X008624Y013246D02*
X013790Y013246D01*
X013790Y013187D02*
X008683Y013187D01*
X008741Y013129D02*
X013790Y013129D01*
X013810Y013070D02*
X008927Y013070D01*
X008985Y013012D02*
X013834Y013012D01*
X014301Y012602D02*
X015070Y012602D01*
X015070Y012544D02*
X014436Y012544D01*
X014495Y012485D02*
X015070Y012485D01*
X015070Y012427D02*
X014550Y012427D01*
X014574Y012368D02*
X015070Y012368D01*
X015070Y012310D02*
X014598Y012310D01*
X014610Y012251D02*
X015070Y012251D01*
X015070Y012193D02*
X014610Y012193D01*
X014610Y012134D02*
X015070Y012134D01*
X015070Y012076D02*
X014592Y012076D01*
X014568Y012017D02*
X015070Y012017D01*
X015070Y011959D02*
X014538Y011959D01*
X014480Y011900D02*
X015070Y011900D01*
X015070Y011842D02*
X014406Y011842D01*
X015070Y012661D02*
X004581Y012661D01*
X004568Y012719D02*
X008684Y012719D01*
X008625Y012778D02*
X004544Y012778D01*
X004520Y012836D02*
X008590Y012836D01*
X008590Y012895D02*
X004495Y012895D01*
X004463Y012953D02*
X008577Y012953D01*
X008519Y013012D02*
X004404Y013012D01*
X004346Y013070D02*
X008460Y013070D01*
X008402Y013129D02*
X004287Y013129D01*
X004149Y013187D02*
X008343Y013187D01*
X008285Y013246D02*
X003215Y013246D01*
X003274Y013304D02*
X008226Y013304D01*
X008168Y013363D02*
X003332Y013363D01*
X003391Y013421D02*
X008109Y013421D01*
X008051Y013480D02*
X003449Y013480D01*
X003508Y013538D02*
X007992Y013538D01*
X008000Y013700D02*
X008800Y012900D01*
X008916Y012719D02*
X015070Y012719D01*
X015070Y013714D02*
X008156Y013714D01*
X008098Y013772D02*
X012061Y013772D01*
X012095Y013761D02*
X012165Y013750D01*
X012170Y013750D01*
X012170Y014170D01*
X012230Y014170D01*
X012230Y014230D01*
X012170Y014230D01*
X012170Y014170D01*
X011750Y014170D01*
X011750Y014165D01*
X011761Y014095D01*
X011783Y014027D01*
X011815Y013964D01*
X011857Y013907D01*
X011907Y013857D01*
X011964Y013815D01*
X012027Y013783D01*
X012095Y013761D01*
X012170Y013772D02*
X012230Y013772D01*
X012230Y013750D02*
X012235Y013750D01*
X012305Y013761D01*
X012373Y013783D01*
X012436Y013815D01*
X012493Y013857D01*
X012543Y013907D01*
X012585Y013964D01*
X012617Y014027D01*
X012639Y014095D01*
X012650Y014165D01*
X012650Y014170D01*
X012230Y014170D01*
X012230Y013750D01*
X012230Y013831D02*
X012170Y013831D01*
X012170Y013889D02*
X012230Y013889D01*
X012230Y013948D02*
X012170Y013948D01*
X012170Y014006D02*
X012230Y014006D01*
X012230Y014065D02*
X012170Y014065D01*
X012170Y014123D02*
X012230Y014123D01*
X012230Y014182D02*
X015070Y014182D01*
X015070Y014240D02*
X012649Y014240D01*
X012640Y014299D02*
X015070Y014299D01*
X015070Y014357D02*
X012622Y014357D01*
X012595Y014416D02*
X015070Y014416D01*
X015070Y014474D02*
X012557Y014474D01*
X012504Y014533D02*
X015070Y014533D01*
X015070Y014591D02*
X012424Y014591D01*
X012230Y014591D02*
X012170Y014591D01*
X012170Y014533D02*
X012230Y014533D01*
X012230Y014474D02*
X012170Y014474D01*
X012170Y014416D02*
X012230Y014416D01*
X012230Y014357D02*
X012170Y014357D01*
X012170Y014299D02*
X012230Y014299D01*
X012230Y014240D02*
X012170Y014240D01*
X012170Y014182D02*
X011610Y014182D01*
X011610Y014240D02*
X011751Y014240D01*
X011760Y014299D02*
X011603Y014299D01*
X011610Y014282D02*
X011548Y014432D01*
X011432Y014548D01*
X011282Y014610D01*
X011118Y014610D01*
X010968Y014548D01*
X010852Y014432D01*
X010790Y014282D01*
X010790Y014118D01*
X010852Y013968D01*
X010968Y013852D01*
X011118Y013790D01*
X011282Y013790D01*
X011432Y013852D01*
X011548Y013968D01*
X011610Y014118D01*
X011610Y014282D01*
X011579Y014357D02*
X011778Y014357D01*
X011805Y014416D02*
X011554Y014416D01*
X011506Y014474D02*
X011843Y014474D01*
X011896Y014533D02*
X011447Y014533D01*
X011327Y014591D02*
X011976Y014591D01*
X011757Y014123D02*
X011610Y014123D01*
X011588Y014065D02*
X011771Y014065D01*
X011794Y014006D02*
X011563Y014006D01*
X011527Y013948D02*
X011827Y013948D01*
X011875Y013889D02*
X011469Y013889D01*
X011379Y013831D02*
X011943Y013831D01*
X012339Y013772D02*
X015070Y013772D01*
X015070Y013831D02*
X012457Y013831D01*
X012525Y013889D02*
X015070Y013889D01*
X015070Y013948D02*
X012573Y013948D01*
X012606Y014006D02*
X015070Y014006D01*
X015070Y014065D02*
X012629Y014065D01*
X012643Y014123D02*
X015070Y014123D01*
X011073Y014591D02*
X010327Y014591D01*
X010282Y014610D02*
X010118Y014610D01*
X009968Y014548D01*
X009852Y014432D01*
X009790Y014282D01*
X009790Y014118D01*
X009852Y013968D01*
X009968Y013852D01*
X010118Y013790D01*
X010282Y013790D01*
X010432Y013852D01*
X010548Y013968D01*
X010610Y014118D01*
X010610Y014282D01*
X010548Y014432D01*
X010432Y014548D01*
X010282Y014610D01*
X010447Y014533D02*
X010953Y014533D01*
X010894Y014474D02*
X010506Y014474D01*
X010554Y014416D02*
X010846Y014416D01*
X010821Y014357D02*
X010579Y014357D01*
X010603Y014299D02*
X010797Y014299D01*
X010790Y014240D02*
X010610Y014240D01*
X010610Y014182D02*
X010790Y014182D01*
X010790Y014123D02*
X010610Y014123D01*
X010588Y014065D02*
X010812Y014065D01*
X010837Y014006D02*
X010563Y014006D01*
X010527Y013948D02*
X010873Y013948D01*
X010931Y013889D02*
X010469Y013889D01*
X010379Y013831D02*
X011021Y013831D01*
X010021Y013831D02*
X009379Y013831D01*
X009432Y013852D02*
X009548Y013968D01*
X009610Y014118D01*
X009610Y014282D01*
X009548Y014432D01*
X009432Y014548D01*
X009282Y014610D01*
X009118Y014610D01*
X008968Y014548D01*
X008852Y014432D01*
X008790Y014282D01*
X008790Y014118D01*
X008852Y013968D01*
X008968Y013852D01*
X009118Y013790D01*
X009282Y013790D01*
X009432Y013852D01*
X009469Y013889D02*
X009931Y013889D01*
X009873Y013948D02*
X009527Y013948D01*
X009563Y014006D02*
X009837Y014006D01*
X009812Y014065D02*
X009588Y014065D01*
X009610Y014123D02*
X009790Y014123D01*
X009790Y014182D02*
X009610Y014182D01*
X009610Y014240D02*
X009790Y014240D01*
X009797Y014299D02*
X009603Y014299D01*
X009579Y014357D02*
X009821Y014357D01*
X009846Y014416D02*
X009554Y014416D01*
X009506Y014474D02*
X009894Y014474D01*
X009953Y014533D02*
X009447Y014533D01*
X009327Y014591D02*
X010073Y014591D01*
X009073Y014591D02*
X008327Y014591D01*
X008447Y014533D02*
X008953Y014533D01*
X008894Y014474D02*
X008506Y014474D01*
X008554Y014416D02*
X008846Y014416D01*
X008821Y014357D02*
X008579Y014357D01*
X008603Y014299D02*
X008797Y014299D01*
X008790Y014240D02*
X008610Y014240D01*
X008610Y014182D02*
X008790Y014182D01*
X008790Y014123D02*
X008610Y014123D01*
X008588Y014065D02*
X008812Y014065D01*
X008837Y014006D02*
X008563Y014006D01*
X008527Y013948D02*
X008873Y013948D01*
X008931Y013889D02*
X008469Y013889D01*
X008379Y013831D02*
X009021Y013831D01*
X008021Y013831D02*
X007379Y013831D01*
X007469Y013889D02*
X007931Y013889D01*
X007873Y013948D02*
X007527Y013948D01*
X007563Y014006D02*
X007837Y014006D01*
X007812Y014065D02*
X007588Y014065D01*
X007610Y014123D02*
X007790Y014123D01*
X007790Y014182D02*
X007610Y014182D01*
X007610Y014240D02*
X007790Y014240D01*
X007797Y014299D02*
X007603Y014299D01*
X007579Y014357D02*
X007821Y014357D01*
X007846Y014416D02*
X007554Y014416D01*
X007506Y014474D02*
X007894Y014474D01*
X007953Y014533D02*
X007447Y014533D01*
X007327Y014591D02*
X008073Y014591D01*
X008000Y013700D02*
X003500Y013700D01*
X002400Y012600D01*
X002400Y005900D01*
X002520Y006343D02*
X003360Y006343D01*
X003360Y006401D02*
X002520Y006401D01*
X002520Y006460D02*
X003360Y006460D01*
X003360Y006518D02*
X002520Y006518D01*
X002520Y006577D02*
X003360Y006577D01*
X003360Y006635D02*
X002520Y006635D01*
X002520Y006694D02*
X003360Y006694D01*
X003360Y006752D02*
X002520Y006752D01*
X002520Y006811D02*
X003360Y006811D01*
X003360Y006869D02*
X002520Y006869D01*
X002520Y006928D02*
X003360Y006928D01*
X003360Y006986D02*
X002520Y006986D01*
X002520Y007045D02*
X003360Y007045D01*
X003360Y007103D02*
X002520Y007103D01*
X002520Y007162D02*
X003360Y007162D01*
X003360Y007220D02*
X002520Y007220D01*
X002520Y007279D02*
X003360Y007279D01*
X003360Y007337D02*
X002520Y007337D01*
X002520Y007396D02*
X003360Y007396D01*
X003360Y007454D02*
X002520Y007454D01*
X002520Y007513D02*
X003360Y007513D01*
X003360Y007571D02*
X002520Y007571D01*
X002520Y007630D02*
X003360Y007630D01*
X003360Y007688D02*
X002520Y007688D01*
X002520Y007747D02*
X003360Y007747D01*
X003360Y007805D02*
X002520Y007805D01*
X002520Y007864D02*
X003360Y007864D01*
X003360Y007922D02*
X002520Y007922D01*
X002520Y007981D02*
X003360Y007981D01*
X003360Y008039D02*
X002520Y008039D01*
X002520Y008098D02*
X003360Y008098D01*
X003360Y008156D02*
X002520Y008156D01*
X002520Y008215D02*
X003360Y008215D01*
X003375Y008273D02*
X002520Y008273D01*
X002520Y008332D02*
X003434Y008332D01*
X003492Y008390D02*
X002520Y008390D01*
X002520Y008449D02*
X003551Y008449D01*
X003609Y008507D02*
X002520Y008507D01*
X002520Y008566D02*
X003668Y008566D01*
X003624Y008624D02*
X002520Y008624D01*
X002520Y008683D02*
X003501Y008683D01*
X003443Y008741D02*
X002520Y008741D01*
X002520Y008800D02*
X003384Y008800D01*
X003326Y008858D02*
X002520Y008858D01*
X002520Y008917D02*
X003300Y008917D01*
X003276Y008975D02*
X002520Y008975D01*
X002520Y009034D02*
X003252Y009034D01*
X003227Y009092D02*
X002520Y009092D01*
X002520Y009151D02*
X003219Y009151D01*
X003219Y009209D02*
X002520Y009209D01*
X002520Y009268D02*
X003219Y009268D01*
X003219Y009326D02*
X002520Y009326D01*
X002520Y009385D02*
X003221Y009385D01*
X003245Y009443D02*
X002520Y009443D01*
X002520Y009502D02*
X003269Y009502D01*
X003293Y009560D02*
X002520Y009560D01*
X002520Y009619D02*
X003317Y009619D01*
X003368Y009677D02*
X002520Y009677D01*
X002520Y009736D02*
X003427Y009736D01*
X003485Y009794D02*
X002520Y009794D01*
X002520Y009853D02*
X003585Y009853D01*
X003580Y009922D02*
X003647Y009935D01*
X003711Y009962D01*
X003768Y010000D01*
X003816Y010048D01*
X003854Y010105D01*
X003880Y010169D01*
X003894Y010236D01*
X003894Y010241D01*
X003575Y010241D01*
X003575Y009922D01*
X003580Y009922D01*
X003575Y009970D02*
X003517Y009970D01*
X003517Y009922D02*
X003517Y010241D01*
X003198Y010241D01*
X003198Y010236D01*
X003211Y010169D01*
X003237Y010105D01*
X003275Y010048D01*
X003324Y010000D01*
X003381Y009962D01*
X003444Y009935D01*
X003511Y009922D01*
X003517Y009922D01*
X003517Y010028D02*
X003575Y010028D01*
X003575Y010087D02*
X003517Y010087D01*
X003517Y010145D02*
X003575Y010145D01*
X003575Y010204D02*
X003517Y010204D01*
X003517Y010262D02*
X002520Y010262D01*
X002520Y010204D02*
X003204Y010204D01*
X003221Y010145D02*
X002520Y010145D01*
X002520Y010087D02*
X003250Y010087D01*
X003295Y010028D02*
X002520Y010028D01*
X002520Y009970D02*
X003369Y009970D01*
X003575Y010262D02*
X004460Y010262D01*
X004460Y010204D02*
X003887Y010204D01*
X003871Y010145D02*
X004460Y010145D01*
X004460Y010087D02*
X003842Y010087D01*
X003796Y010028D02*
X004460Y010028D01*
X004460Y009970D02*
X003722Y009970D01*
X003726Y009911D02*
X002520Y009911D01*
X002520Y010321D02*
X003201Y010321D01*
X003214Y010379D02*
X002520Y010379D01*
X002520Y010438D02*
X003239Y010438D01*
X003279Y010496D02*
X002520Y010496D01*
X002520Y010555D02*
X003345Y010555D01*
X003433Y010613D02*
X002520Y010613D01*
X002520Y010672D02*
X003338Y010672D01*
X003283Y010730D02*
X002520Y010730D01*
X002520Y010789D02*
X003258Y010789D01*
X003238Y010847D02*
X002520Y010847D01*
X002520Y010906D02*
X003238Y010906D01*
X003239Y010964D02*
X002520Y010964D01*
X002520Y011023D02*
X003263Y011023D01*
X003021Y011081D02*
X002520Y011081D01*
X002520Y011140D02*
X002962Y011140D01*
X002960Y011198D02*
X002520Y011198D01*
X002520Y011257D02*
X002960Y011257D01*
X002960Y011315D02*
X002520Y011315D01*
X002520Y011374D02*
X002960Y011374D01*
X002960Y011432D02*
X002520Y011432D01*
X002520Y011491D02*
X002960Y011491D01*
X002960Y011549D02*
X002520Y011549D01*
X002520Y011608D02*
X002960Y011608D01*
X002960Y011666D02*
X002520Y011666D01*
X002520Y011725D02*
X002960Y011725D01*
X002960Y011783D02*
X002520Y011783D01*
X002520Y011842D02*
X002960Y011842D01*
X002960Y011900D02*
X002520Y011900D01*
X002520Y011959D02*
X002961Y011959D01*
X003019Y012017D02*
X002520Y012017D01*
X002520Y012076D02*
X003416Y012076D01*
X003357Y012134D02*
X002520Y012134D01*
X002520Y012193D02*
X003313Y012193D01*
X003289Y012251D02*
X002520Y012251D01*
X002520Y012310D02*
X003264Y012310D01*
X003240Y012368D02*
X002520Y012368D01*
X002520Y012427D02*
X003219Y012427D01*
X003219Y012485D02*
X002520Y012485D01*
X002520Y012544D02*
X003219Y012544D01*
X003219Y012602D02*
X002572Y012602D01*
X002630Y012661D02*
X003219Y012661D01*
X003232Y012719D02*
X002689Y012719D01*
X002747Y012778D02*
X003256Y012778D01*
X003280Y012836D02*
X002806Y012836D01*
X002864Y012895D02*
X003305Y012895D01*
X003337Y012953D02*
X002923Y012953D01*
X002981Y013012D02*
X003396Y013012D01*
X003454Y013070D02*
X003040Y013070D01*
X003098Y013129D02*
X003513Y013129D01*
X003651Y013187D02*
X003157Y013187D01*
X004379Y013831D02*
X005021Y013831D01*
X004931Y013889D02*
X004469Y013889D01*
X004527Y013948D02*
X004873Y013948D01*
X004837Y014006D02*
X004563Y014006D01*
X004588Y014065D02*
X004812Y014065D01*
X004790Y014123D02*
X004610Y014123D01*
X004610Y014182D02*
X004790Y014182D01*
X004790Y014240D02*
X004610Y014240D01*
X004603Y014299D02*
X004797Y014299D01*
X004821Y014357D02*
X004579Y014357D01*
X004554Y014416D02*
X004846Y014416D01*
X004894Y014474D02*
X004506Y014474D01*
X004447Y014533D02*
X004953Y014533D01*
X005073Y014591D02*
X004327Y014591D01*
X005327Y014591D02*
X006073Y014591D01*
X005953Y014533D02*
X005447Y014533D01*
X005506Y014474D02*
X005894Y014474D01*
X005846Y014416D02*
X005554Y014416D01*
X005579Y014357D02*
X005821Y014357D01*
X005797Y014299D02*
X005603Y014299D01*
X005610Y014240D02*
X005790Y014240D01*
X005790Y014182D02*
X005610Y014182D01*
X005610Y014123D02*
X005790Y014123D01*
X005812Y014065D02*
X005588Y014065D01*
X005563Y014006D02*
X005837Y014006D01*
X005873Y013948D02*
X005527Y013948D01*
X005469Y013889D02*
X005931Y013889D01*
X006021Y013831D02*
X005379Y013831D01*
X006379Y013831D02*
X007021Y013831D01*
X006931Y013889D02*
X006469Y013889D01*
X006527Y013948D02*
X006873Y013948D01*
X006837Y014006D02*
X006563Y014006D01*
X006588Y014065D02*
X006812Y014065D01*
X006790Y014123D02*
X006610Y014123D01*
X006610Y014182D02*
X006790Y014182D01*
X006790Y014240D02*
X006610Y014240D01*
X006603Y014299D02*
X006797Y014299D01*
X006821Y014357D02*
X006579Y014357D01*
X006554Y014416D02*
X006846Y014416D01*
X006894Y014474D02*
X006506Y014474D01*
X006447Y014533D02*
X006953Y014533D01*
X007073Y014591D02*
X006327Y014591D01*
X005000Y010900D02*
X003546Y010900D01*
X003753Y010672D02*
X003957Y010672D01*
X003946Y010613D02*
X003658Y010613D01*
X003747Y010555D02*
X003946Y010555D01*
X003958Y010496D02*
X003812Y010496D01*
X003852Y010438D02*
X003982Y010438D01*
X004025Y010379D02*
X003877Y010379D01*
X003891Y010321D02*
X004088Y010321D01*
X004421Y010321D02*
X004460Y010321D01*
X004460Y009911D02*
X004074Y009911D01*
X004215Y009853D02*
X004460Y009853D01*
X004460Y009794D02*
X004315Y009794D01*
X004373Y009736D02*
X004460Y009736D01*
X004460Y009677D02*
X004432Y009677D01*
X003981Y010730D02*
X003809Y010730D01*
X005600Y008100D02*
X005600Y003200D01*
X005300Y002900D01*
X005510Y002891D02*
X008894Y002891D01*
X008905Y002863D02*
X008939Y002812D01*
X008982Y002769D01*
X009033Y002735D01*
X009090Y002712D01*
X009149Y002700D01*
X009170Y002700D01*
X009170Y003000D01*
X009230Y003000D01*
X009230Y003060D01*
X009530Y003060D01*
X009530Y003081D01*
X009518Y003140D01*
X009495Y003197D01*
X009461Y003248D01*
X009418Y003291D01*
X009367Y003325D01*
X009310Y003348D01*
X009251Y003360D01*
X009230Y003360D01*
X009230Y003060D01*
X009170Y003060D01*
X009170Y003360D01*
X009149Y003360D01*
X009090Y003348D01*
X009033Y003325D01*
X008982Y003291D01*
X008939Y003248D01*
X008905Y003197D01*
X008882Y003140D01*
X008870Y003081D01*
X008870Y003060D01*
X009170Y003060D01*
X009170Y003000D01*
X008870Y003000D01*
X008870Y002979D01*
X008882Y002920D01*
X008905Y002863D01*
X008926Y002833D02*
X005510Y002833D01*
X005471Y002774D02*
X008978Y002774D01*
X009081Y002716D02*
X005412Y002716D01*
X005519Y002950D02*
X008876Y002950D01*
X008870Y003067D02*
X005636Y003067D01*
X005695Y003125D02*
X008879Y003125D01*
X008900Y003184D02*
X005720Y003184D01*
X005720Y003242D02*
X008935Y003242D01*
X008997Y003301D02*
X005720Y003301D01*
X005720Y003359D02*
X009145Y003359D01*
X009170Y003359D02*
X009230Y003359D01*
X009255Y003359D02*
X015070Y003359D01*
X015070Y003301D02*
X009403Y003301D01*
X009465Y003242D02*
X015070Y003242D01*
X015070Y003184D02*
X009500Y003184D01*
X009521Y003125D02*
X014052Y003125D01*
X014027Y003117D02*
X013964Y003085D01*
X013907Y003043D01*
X013857Y002993D01*
X013815Y002936D01*
X013783Y002873D01*
X013761Y002805D01*
X013750Y002735D01*
X013750Y002730D01*
X014170Y002730D01*
X014170Y003150D01*
X014165Y003150D01*
X014095Y003139D01*
X014027Y003117D01*
X013939Y003067D02*
X013387Y003067D01*
X013432Y003048D02*
X013282Y003110D01*
X013118Y003110D01*
X012968Y003048D01*
X012852Y002932D01*
X012790Y002782D01*
X012790Y002618D01*
X012852Y002468D01*
X012968Y002352D01*
X013118Y002290D01*
X013282Y002290D01*
X013432Y002352D01*
X013548Y002468D01*
X013610Y002618D01*
X013610Y002782D01*
X013548Y002932D01*
X013432Y003048D01*
X013472Y003008D02*
X013872Y003008D01*
X013825Y002950D02*
X013530Y002950D01*
X013565Y002891D02*
X013792Y002891D01*
X013770Y002833D02*
X013589Y002833D01*
X013610Y002774D02*
X013756Y002774D01*
X013750Y002670D02*
X013750Y002665D01*
X013761Y002595D01*
X013783Y002527D01*
X013815Y002464D01*
X013857Y002407D01*
X013907Y002357D01*
X013964Y002315D01*
X014027Y002283D01*
X014095Y002261D01*
X014165Y002250D01*
X014170Y002250D01*
X014170Y002670D01*
X014230Y002670D01*
X014230Y002730D01*
X014650Y002730D01*
X014650Y002735D01*
X014639Y002805D01*
X014617Y002873D01*
X014585Y002936D01*
X014543Y002993D01*
X014493Y003043D01*
X014436Y003085D01*
X014373Y003117D01*
X014305Y003139D01*
X014235Y003150D01*
X014230Y003150D01*
X014230Y002730D01*
X014170Y002730D01*
X014170Y002670D01*
X013750Y002670D01*
X013751Y002657D02*
X013610Y002657D01*
X013610Y002716D02*
X014170Y002716D01*
X014170Y002774D02*
X014230Y002774D01*
X014230Y002716D02*
X015070Y002716D01*
X015070Y002774D02*
X014644Y002774D01*
X014630Y002833D02*
X015070Y002833D01*
X015070Y002891D02*
X014608Y002891D01*
X014575Y002950D02*
X015070Y002950D01*
X015070Y003008D02*
X014528Y003008D01*
X014461Y003067D02*
X015070Y003067D01*
X015070Y003125D02*
X014348Y003125D01*
X014230Y003125D02*
X014170Y003125D01*
X014170Y003067D02*
X014230Y003067D01*
X014230Y003008D02*
X014170Y003008D01*
X014170Y002950D02*
X014230Y002950D01*
X014230Y002891D02*
X014170Y002891D01*
X014170Y002833D02*
X014230Y002833D01*
X014230Y002670D02*
X014650Y002670D01*
X014650Y002665D01*
X014639Y002595D01*
X014617Y002527D01*
X014585Y002464D01*
X014543Y002407D01*
X014493Y002357D01*
X014436Y002315D01*
X014373Y002283D01*
X014305Y002261D01*
X014235Y002250D01*
X014230Y002250D01*
X014230Y002670D01*
X014230Y002657D02*
X014170Y002657D01*
X014170Y002599D02*
X014230Y002599D01*
X014230Y002540D02*
X014170Y002540D01*
X014170Y002482D02*
X014230Y002482D01*
X014230Y002423D02*
X014170Y002423D01*
X014170Y002365D02*
X014230Y002365D01*
X014230Y002306D02*
X014170Y002306D01*
X013982Y002306D02*
X013320Y002306D01*
X013444Y002365D02*
X013899Y002365D01*
X013845Y002423D02*
X013503Y002423D01*
X013553Y002482D02*
X013806Y002482D01*
X013779Y002540D02*
X013578Y002540D01*
X013602Y002599D02*
X013760Y002599D01*
X013843Y002110D02*
X013790Y002057D01*
X013790Y001343D01*
X013843Y001290D01*
X014557Y001290D01*
X014610Y001343D01*
X014610Y002057D01*
X014557Y002110D01*
X013843Y002110D01*
X013805Y002072D02*
X013373Y002072D01*
X013432Y002048D02*
X013282Y002110D01*
X013118Y002110D01*
X012968Y002048D01*
X012852Y001932D01*
X012790Y001782D01*
X012790Y001618D01*
X012852Y001468D01*
X012968Y001352D01*
X013118Y001290D01*
X013282Y001290D01*
X013432Y001352D01*
X013548Y001468D01*
X013610Y001618D01*
X013610Y001782D01*
X013548Y001932D01*
X013432Y002048D01*
X013466Y002014D02*
X013790Y002014D01*
X013790Y001955D02*
X013525Y001955D01*
X013562Y001897D02*
X013790Y001897D01*
X013790Y001838D02*
X013587Y001838D01*
X013610Y001780D02*
X013790Y001780D01*
X013790Y001721D02*
X013610Y001721D01*
X013610Y001663D02*
X013790Y001663D01*
X013790Y001604D02*
X013604Y001604D01*
X013580Y001546D02*
X013790Y001546D01*
X013790Y001487D02*
X013556Y001487D01*
X013508Y001429D02*
X013790Y001429D01*
X013790Y001370D02*
X013450Y001370D01*
X013333Y001312D02*
X013821Y001312D01*
X013067Y001312D02*
X012333Y001312D01*
X012282Y001290D02*
X012432Y001352D01*
X012548Y001468D01*
X012610Y001618D01*
X012610Y001782D01*
X012548Y001932D01*
X012432Y002048D01*
X012282Y002110D01*
X012118Y002110D01*
X011968Y002048D01*
X011852Y001932D01*
X011790Y001782D01*
X011790Y001618D01*
X011852Y001468D01*
X011968Y001352D01*
X012118Y001290D01*
X012282Y001290D01*
X012450Y001370D02*
X012950Y001370D01*
X012892Y001429D02*
X012508Y001429D01*
X012556Y001487D02*
X012844Y001487D01*
X012820Y001546D02*
X012580Y001546D01*
X012604Y001604D02*
X012796Y001604D01*
X012790Y001663D02*
X012610Y001663D01*
X012610Y001721D02*
X012790Y001721D01*
X012790Y001780D02*
X012610Y001780D01*
X012587Y001838D02*
X012813Y001838D01*
X012838Y001897D02*
X012562Y001897D01*
X012525Y001955D02*
X012875Y001955D01*
X012934Y002014D02*
X012466Y002014D01*
X012373Y002072D02*
X013027Y002072D01*
X013080Y002306D02*
X012320Y002306D01*
X012282Y002290D02*
X012432Y002352D01*
X012548Y002468D01*
X012610Y002618D01*
X012610Y002782D01*
X012548Y002932D01*
X012432Y003048D01*
X012282Y003110D01*
X012118Y003110D01*
X011968Y003048D01*
X011852Y002932D01*
X011790Y002782D01*
X011790Y002618D01*
X011852Y002468D01*
X011968Y002352D01*
X012118Y002290D01*
X012282Y002290D01*
X012444Y002365D02*
X012956Y002365D01*
X012897Y002423D02*
X012503Y002423D01*
X012553Y002482D02*
X012847Y002482D01*
X012822Y002540D02*
X012578Y002540D01*
X012602Y002599D02*
X012798Y002599D01*
X012790Y002657D02*
X012610Y002657D01*
X012610Y002716D02*
X012790Y002716D01*
X012790Y002774D02*
X012610Y002774D01*
X012589Y002833D02*
X012811Y002833D01*
X012835Y002891D02*
X012565Y002891D01*
X012530Y002950D02*
X012870Y002950D01*
X012928Y003008D02*
X012472Y003008D01*
X012387Y003067D02*
X013013Y003067D01*
X012013Y003067D02*
X009530Y003067D01*
X009530Y003000D02*
X009230Y003000D01*
X009230Y002700D01*
X009251Y002700D01*
X009310Y002712D01*
X009367Y002735D01*
X009418Y002769D01*
X009461Y002812D01*
X009495Y002863D01*
X009518Y002920D01*
X009530Y002979D01*
X009530Y003000D01*
X009524Y002950D02*
X011870Y002950D01*
X011835Y002891D02*
X009506Y002891D01*
X009474Y002833D02*
X011811Y002833D01*
X011790Y002774D02*
X009422Y002774D01*
X009319Y002716D02*
X011790Y002716D01*
X011790Y002657D02*
X009281Y002657D01*
X009274Y002660D02*
X009126Y002660D01*
X009027Y002619D01*
X008951Y002543D01*
X008910Y002444D01*
X008910Y002296D01*
X008951Y002197D01*
X009027Y002121D01*
X009080Y002099D01*
X009080Y002050D01*
X009050Y002020D01*
X008980Y001950D01*
X008980Y001927D01*
X008890Y001837D01*
X008890Y001663D01*
X009013Y001540D01*
X009187Y001540D01*
X009310Y001663D01*
X009310Y001837D01*
X009258Y001889D01*
X009320Y001950D01*
X009320Y002099D01*
X009373Y002121D01*
X009449Y002197D01*
X009490Y002296D01*
X009490Y002444D01*
X009449Y002543D01*
X009373Y002619D01*
X009274Y002660D01*
X009230Y002716D02*
X009170Y002716D01*
X009170Y002774D02*
X009230Y002774D01*
X009230Y002833D02*
X009170Y002833D01*
X009170Y002891D02*
X009230Y002891D01*
X009230Y002950D02*
X009170Y002950D01*
X009170Y003008D02*
X005578Y003008D01*
X005414Y003184D02*
X003800Y003184D01*
X003800Y003242D02*
X005472Y003242D01*
X005480Y003301D02*
X003800Y003301D01*
X003800Y003359D02*
X005480Y003359D01*
X005480Y003418D02*
X003000Y003418D01*
X003000Y003476D02*
X005480Y003476D01*
X005480Y003535D02*
X003000Y003535D01*
X003000Y003593D02*
X005480Y003593D01*
X005480Y003652D02*
X003000Y003652D01*
X003000Y003710D02*
X005480Y003710D01*
X005480Y003769D02*
X003000Y003769D01*
X003000Y003827D02*
X005480Y003827D01*
X005480Y003886D02*
X003000Y003886D01*
X003000Y003944D02*
X005480Y003944D01*
X005480Y004003D02*
X003000Y004003D01*
X003000Y004061D02*
X005480Y004061D01*
X005480Y004120D02*
X003000Y004120D01*
X003000Y004178D02*
X005480Y004178D01*
X005480Y004237D02*
X003000Y004237D01*
X003000Y004295D02*
X005480Y004295D01*
X005480Y004354D02*
X003000Y004354D01*
X003000Y004412D02*
X005480Y004412D01*
X005480Y004471D02*
X003000Y004471D01*
X003000Y004529D02*
X005480Y004529D01*
X005480Y004588D02*
X003000Y004588D01*
X003000Y004646D02*
X005480Y004646D01*
X005480Y004705D02*
X003000Y004705D01*
X003000Y004763D02*
X005480Y004763D01*
X005480Y004822D02*
X003000Y004822D01*
X003000Y004880D02*
X005480Y004880D01*
X005720Y004880D02*
X013940Y004880D01*
X013968Y004852D02*
X013852Y004968D01*
X013790Y005118D01*
X013790Y005282D01*
X013852Y005432D01*
X013968Y005548D01*
X014118Y005610D01*
X014282Y005610D01*
X014432Y005548D01*
X014548Y005432D01*
X014610Y005282D01*
X014610Y005118D01*
X014548Y004968D01*
X014432Y004852D01*
X014282Y004790D01*
X014118Y004790D01*
X013968Y004852D01*
X014042Y004822D02*
X005720Y004822D01*
X005720Y004763D02*
X015070Y004763D01*
X015070Y004705D02*
X005720Y004705D01*
X005720Y004646D02*
X014139Y004646D01*
X014165Y004650D02*
X014095Y004639D01*
X014027Y004617D01*
X013964Y004585D01*
X013907Y004543D01*
X013857Y004493D01*
X013815Y004436D01*
X013783Y004373D01*
X013761Y004305D01*
X013750Y004235D01*
X013750Y004230D01*
X014170Y004230D01*
X014170Y004650D01*
X014165Y004650D01*
X014170Y004646D02*
X014230Y004646D01*
X014230Y004650D02*
X014235Y004650D01*
X014305Y004639D01*
X014373Y004617D01*
X014436Y004585D01*
X014493Y004543D01*
X014543Y004493D01*
X014585Y004436D01*
X014617Y004373D01*
X014639Y004305D01*
X014650Y004235D01*
X014650Y004230D01*
X014230Y004230D01*
X014230Y004170D01*
X014650Y004170D01*
X014650Y004165D01*
X014639Y004095D01*
X014617Y004027D01*
X014585Y003964D01*
X014543Y003907D01*
X014493Y003857D01*
X014436Y003815D01*
X014373Y003783D01*
X014305Y003761D01*
X014235Y003750D01*
X014230Y003750D01*
X014230Y004170D01*
X014170Y004170D01*
X014170Y003750D01*
X014165Y003750D01*
X014095Y003761D01*
X014027Y003783D01*
X013964Y003815D01*
X013907Y003857D01*
X013857Y003907D01*
X013815Y003964D01*
X013783Y004027D01*
X013761Y004095D01*
X013750Y004165D01*
X013750Y004170D01*
X014170Y004170D01*
X014170Y004230D01*
X014230Y004230D01*
X014230Y004650D01*
X014261Y004646D02*
X015070Y004646D01*
X015070Y004588D02*
X014431Y004588D01*
X014507Y004529D02*
X015070Y004529D01*
X015070Y004471D02*
X014560Y004471D01*
X014597Y004412D02*
X015070Y004412D01*
X015070Y004354D02*
X014623Y004354D01*
X014641Y004295D02*
X015070Y004295D01*
X015070Y004237D02*
X014650Y004237D01*
X014643Y004120D02*
X015070Y004120D01*
X015070Y004178D02*
X014230Y004178D01*
X014230Y004120D02*
X014170Y004120D01*
X014170Y004178D02*
X005720Y004178D01*
X005720Y004120D02*
X013757Y004120D01*
X013772Y004061D02*
X005720Y004061D01*
X005720Y004003D02*
X013796Y004003D01*
X013830Y003944D02*
X005720Y003944D01*
X005720Y003886D02*
X013878Y003886D01*
X013948Y003827D02*
X005720Y003827D01*
X005720Y003769D02*
X014072Y003769D01*
X014170Y003769D02*
X014230Y003769D01*
X014230Y003827D02*
X014170Y003827D01*
X014170Y003886D02*
X014230Y003886D01*
X014230Y003944D02*
X014170Y003944D01*
X014170Y004003D02*
X014230Y004003D01*
X014230Y004061D02*
X014170Y004061D01*
X014170Y004237D02*
X014230Y004237D01*
X014230Y004295D02*
X014170Y004295D01*
X014170Y004354D02*
X014230Y004354D01*
X014230Y004412D02*
X014170Y004412D01*
X014170Y004471D02*
X014230Y004471D01*
X014230Y004529D02*
X014170Y004529D01*
X014170Y004588D02*
X014230Y004588D01*
X013969Y004588D02*
X005720Y004588D01*
X005720Y004529D02*
X013893Y004529D01*
X013840Y004471D02*
X005720Y004471D01*
X005720Y004412D02*
X013803Y004412D01*
X013777Y004354D02*
X005720Y004354D01*
X005720Y004295D02*
X013759Y004295D01*
X013750Y004237D02*
X005720Y004237D01*
X005720Y003710D02*
X015070Y003710D01*
X015070Y003652D02*
X005720Y003652D01*
X005720Y003593D02*
X015070Y003593D01*
X015070Y003535D02*
X005720Y003535D01*
X005720Y003476D02*
X015070Y003476D01*
X015070Y003418D02*
X005720Y003418D01*
X005355Y003125D02*
X003800Y003125D01*
X003800Y003067D02*
X005170Y003067D01*
X005111Y003008D02*
X003800Y003008D01*
X003800Y002950D02*
X005090Y002950D01*
X005090Y002891D02*
X003800Y002891D01*
X003800Y002833D02*
X005090Y002833D01*
X005129Y002774D02*
X003800Y002774D01*
X003800Y002716D02*
X005188Y002716D01*
X003800Y002657D02*
X009119Y002657D01*
X009007Y002599D02*
X003800Y002599D01*
X003800Y002540D02*
X008950Y002540D01*
X008926Y002482D02*
X003800Y002482D01*
X003800Y002423D02*
X008910Y002423D01*
X008910Y002365D02*
X003800Y002365D01*
X003800Y002306D02*
X008910Y002306D01*
X008930Y002248D02*
X003800Y002248D01*
X003800Y002189D02*
X008959Y002189D01*
X009018Y002131D02*
X003800Y002131D01*
X003800Y002072D02*
X009080Y002072D01*
X009044Y002014D02*
X003800Y002014D01*
X003800Y001955D02*
X008985Y001955D01*
X008950Y001897D02*
X003800Y001897D01*
X003800Y001838D02*
X008891Y001838D01*
X008890Y001780D02*
X003800Y001780D01*
X003800Y001721D02*
X008890Y001721D01*
X008891Y001663D02*
X003800Y001663D01*
X003800Y001604D02*
X008949Y001604D01*
X009008Y001546D02*
X003800Y001546D01*
X003800Y001487D02*
X011844Y001487D01*
X011820Y001546D02*
X009192Y001546D01*
X009251Y001604D02*
X011796Y001604D01*
X011790Y001663D02*
X009309Y001663D01*
X009310Y001721D02*
X011790Y001721D01*
X011790Y001780D02*
X009310Y001780D01*
X009309Y001838D02*
X011813Y001838D01*
X011838Y001897D02*
X009266Y001897D01*
X009320Y001955D02*
X011875Y001955D01*
X011934Y002014D02*
X009320Y002014D01*
X009320Y002072D02*
X012027Y002072D01*
X012080Y002306D02*
X009490Y002306D01*
X009490Y002365D02*
X011956Y002365D01*
X011897Y002423D02*
X009490Y002423D01*
X009474Y002482D02*
X011847Y002482D01*
X011822Y002540D02*
X009450Y002540D01*
X009393Y002599D02*
X011798Y002599D01*
X011928Y003008D02*
X009230Y003008D01*
X009230Y003067D02*
X009170Y003067D01*
X009170Y003125D02*
X009230Y003125D01*
X009230Y003184D02*
X009170Y003184D01*
X009170Y003242D02*
X009230Y003242D01*
X009230Y003301D02*
X009170Y003301D01*
X009200Y002370D02*
X009200Y002000D01*
X009100Y001900D01*
X009100Y001750D01*
X009382Y002131D02*
X015070Y002131D01*
X015070Y002189D02*
X009441Y002189D01*
X009470Y002248D02*
X015070Y002248D01*
X015070Y002306D02*
X014418Y002306D01*
X014501Y002365D02*
X015070Y002365D01*
X015070Y002423D02*
X014555Y002423D01*
X014594Y002482D02*
X015070Y002482D01*
X015070Y002540D02*
X014621Y002540D01*
X014640Y002599D02*
X015070Y002599D01*
X015070Y002657D02*
X014649Y002657D01*
X014595Y002072D02*
X015070Y002072D01*
X015070Y002014D02*
X014610Y002014D01*
X014610Y001955D02*
X015070Y001955D01*
X015070Y001897D02*
X014610Y001897D01*
X014610Y001838D02*
X015070Y001838D01*
X015070Y001780D02*
X014610Y001780D01*
X014610Y001721D02*
X015070Y001721D01*
X015070Y001663D02*
X014610Y001663D01*
X014610Y001604D02*
X015070Y001604D01*
X015070Y001546D02*
X014610Y001546D01*
X014610Y001487D02*
X015070Y001487D01*
X015070Y001429D02*
X014610Y001429D01*
X014610Y001370D02*
X015070Y001370D01*
X015070Y001312D02*
X014579Y001312D01*
X015070Y001253D02*
X003800Y001253D01*
X003800Y001195D02*
X015070Y001195D01*
X015070Y001136D02*
X003800Y001136D01*
X003800Y001078D02*
X015070Y001078D01*
X015070Y001019D02*
X003800Y001019D01*
X003800Y000961D02*
X015070Y000961D01*
X015070Y000902D02*
X003800Y000902D01*
X003800Y000844D02*
X015070Y000844D01*
X015070Y000785D02*
X003800Y000785D01*
X003800Y000727D02*
X015070Y000727D01*
X015070Y000668D02*
X003800Y000668D01*
X003800Y000610D02*
X015070Y000610D01*
X015070Y000551D02*
X003800Y000551D01*
X003800Y000493D02*
X015070Y000493D01*
X015070Y000434D02*
X003800Y000434D01*
X003800Y000376D02*
X015070Y000376D01*
X012067Y001312D02*
X003800Y001312D01*
X003800Y001370D02*
X011950Y001370D01*
X011892Y001429D02*
X003800Y001429D01*
X003290Y001453D02*
X003290Y001273D01*
X003200Y001182D01*
X003020Y001182D01*
X002930Y001273D01*
X002930Y001453D01*
X003110Y001543D02*
X003110Y001182D01*
X002930Y000990D02*
X003200Y000720D01*
X003110Y000630D02*
X003470Y000990D01*
X003470Y000630D02*
X002930Y000630D01*
X002570Y000630D02*
X002030Y000630D01*
X002210Y000630D02*
X002570Y000990D01*
X002300Y001182D02*
X002390Y001273D01*
X002390Y001453D01*
X002300Y001543D01*
X002210Y001543D01*
X002210Y001182D01*
X002120Y001182D02*
X002030Y001273D01*
X002030Y001453D01*
X002030Y001735D02*
X002390Y001735D01*
X002390Y001825D01*
X002300Y001915D01*
X002390Y002005D01*
X002300Y002095D01*
X002030Y002095D01*
X002030Y001915D02*
X002300Y001915D01*
X002390Y002287D02*
X002390Y002558D01*
X002300Y002648D01*
X002120Y002648D01*
X002030Y002558D01*
X002030Y002287D01*
X001850Y002287D02*
X002390Y002287D01*
X002300Y002840D02*
X002120Y002840D01*
X002030Y002930D01*
X002030Y003110D01*
X002210Y003200D02*
X002210Y002840D01*
X002300Y002840D02*
X002390Y002930D01*
X002390Y003110D01*
X002300Y003200D01*
X002210Y003200D01*
X002210Y003392D02*
X002390Y003573D01*
X002390Y003663D01*
X002390Y003392D02*
X002030Y003392D01*
X002930Y003016D02*
X003200Y003016D01*
X003290Y002926D01*
X003290Y002656D01*
X002930Y002656D01*
X002930Y002468D02*
X002930Y002287D01*
X002930Y002377D02*
X003290Y002377D01*
X003290Y002287D01*
X003290Y002095D02*
X002930Y001915D01*
X003290Y001735D01*
X003200Y001543D02*
X003110Y001543D01*
X003200Y001543D02*
X003290Y001453D01*
X003470Y002377D02*
X003561Y002377D01*
X002300Y001182D02*
X002120Y001182D01*
X002030Y000990D02*
X002300Y000720D01*
X003000Y004939D02*
X003064Y004939D01*
X003006Y004997D02*
X003000Y004997D01*
X003000Y005582D02*
X003720Y005582D01*
X003661Y005641D02*
X003000Y005641D01*
X003000Y005699D02*
X003603Y005699D01*
X003544Y005758D02*
X003000Y005758D01*
X003000Y005816D02*
X003486Y005816D01*
X003427Y005875D02*
X003000Y005875D01*
X003000Y005933D02*
X003369Y005933D01*
X003360Y005992D02*
X003000Y005992D01*
X003000Y006050D02*
X003360Y006050D01*
X003360Y006109D02*
X003000Y006109D01*
X003000Y006167D02*
X003360Y006167D01*
X003360Y006226D02*
X003000Y006226D01*
X003000Y006284D02*
X003360Y006284D01*
X005720Y006109D02*
X005741Y006109D01*
X005720Y006050D02*
X005769Y006050D01*
X005720Y005992D02*
X005828Y005992D01*
X005927Y005933D02*
X005720Y005933D01*
X005720Y005875D02*
X008701Y005875D01*
X008701Y005933D02*
X006673Y005933D01*
X006772Y005992D02*
X008701Y005992D01*
X008701Y006050D02*
X006831Y006050D01*
X006859Y006109D02*
X008690Y006109D01*
X008631Y006167D02*
X006884Y006167D01*
X006890Y006226D02*
X008573Y006226D01*
X008514Y006284D02*
X006890Y006284D01*
X007021Y006343D02*
X008456Y006343D01*
X008410Y006401D02*
X007079Y006401D01*
X007138Y006460D02*
X008410Y006460D01*
X008410Y006518D02*
X007196Y006518D01*
X007255Y006577D02*
X008355Y006577D01*
X008296Y006635D02*
X007313Y006635D01*
X007372Y006694D02*
X008238Y006694D01*
X007966Y006752D02*
X007909Y006752D01*
X008529Y007162D02*
X008763Y007162D01*
X008705Y007220D02*
X008529Y007220D01*
X008529Y007279D02*
X008701Y007279D01*
X008701Y007337D02*
X008529Y007337D01*
X008499Y007396D02*
X008701Y007396D01*
X008701Y007454D02*
X008491Y007454D01*
X008600Y006869D02*
X009531Y006869D01*
X009549Y006811D02*
X008658Y006811D01*
X008717Y006752D02*
X009589Y006752D01*
X009676Y006694D02*
X008775Y006694D01*
X008790Y006635D02*
X009652Y006635D01*
X009594Y006577D02*
X008790Y006577D01*
X008818Y006518D02*
X009567Y006518D01*
X009567Y006460D02*
X008876Y006460D01*
X008935Y006401D02*
X009567Y006401D01*
X009567Y006343D02*
X008993Y006343D01*
X009325Y006284D02*
X009567Y006284D01*
X009567Y006226D02*
X009383Y006226D01*
X009433Y006167D02*
X009598Y006167D01*
X009656Y006109D02*
X009433Y006109D01*
X009610Y005882D02*
X009648Y005907D01*
X009689Y005924D01*
X009733Y005933D01*
X009903Y005933D02*
X009903Y005636D01*
X009963Y005636D01*
X009963Y005933D01*
X009963Y005875D02*
X009903Y005875D01*
X009903Y005816D02*
X009963Y005816D01*
X009963Y005758D02*
X009903Y005758D01*
X009903Y005699D02*
X009963Y005699D01*
X009963Y005641D02*
X009903Y005641D01*
X009903Y005582D02*
X005720Y005582D01*
X005720Y005524D02*
X009527Y005524D01*
X009527Y005485D02*
X009536Y005441D01*
X009553Y005400D01*
X009578Y005362D01*
X009610Y005330D01*
X009648Y005305D01*
X009689Y005288D01*
X009733Y005279D01*
X009903Y005279D01*
X009903Y005576D01*
X009527Y005576D01*
X009527Y005485D01*
X009532Y005465D02*
X005720Y005465D01*
X005720Y005407D02*
X009551Y005407D01*
X009593Y005348D02*
X005720Y005348D01*
X005720Y005290D02*
X009686Y005290D01*
X009903Y005290D02*
X009963Y005290D01*
X009963Y005348D02*
X009903Y005348D01*
X009903Y005407D02*
X009963Y005407D01*
X009963Y005465D02*
X009903Y005465D01*
X009903Y005524D02*
X009963Y005524D01*
X009963Y005582D02*
X014051Y005582D01*
X013944Y005524D02*
X010339Y005524D01*
X010335Y005465D02*
X013885Y005465D01*
X013842Y005407D02*
X010315Y005407D01*
X010273Y005348D02*
X013818Y005348D01*
X013793Y005290D02*
X010180Y005290D01*
X010339Y005641D02*
X015070Y005641D01*
X015070Y005699D02*
X010339Y005699D01*
X009556Y005816D02*
X009425Y005816D01*
X009367Y005758D02*
X009534Y005758D01*
X009527Y005699D02*
X005720Y005699D01*
X005720Y005641D02*
X009527Y005641D01*
X008767Y005758D02*
X005720Y005758D01*
X005720Y005816D02*
X008709Y005816D01*
X010339Y007045D02*
X010575Y007045D01*
X010633Y007103D02*
X010339Y007103D01*
X010332Y007162D02*
X010692Y007162D01*
X010750Y007220D02*
X010308Y007220D01*
X010658Y007688D02*
X011218Y007688D01*
X011820Y008683D02*
X015070Y008683D01*
X015070Y008741D02*
X011820Y008741D01*
X011820Y008800D02*
X014095Y008800D01*
X014118Y008790D02*
X013968Y008852D01*
X013852Y008968D01*
X013790Y009118D01*
X013790Y009282D01*
X013852Y009432D01*
X013968Y009548D01*
X014118Y009610D01*
X014282Y009610D01*
X014432Y009548D01*
X014548Y009432D01*
X014610Y009282D01*
X014610Y009118D01*
X014548Y008968D01*
X014432Y008852D01*
X014282Y008790D01*
X014118Y008790D01*
X013962Y008858D02*
X011820Y008858D01*
X011820Y008917D02*
X013904Y008917D01*
X013849Y008975D02*
X011820Y008975D01*
X011820Y009034D02*
X013825Y009034D01*
X013801Y009092D02*
X011820Y009092D01*
X011820Y009151D02*
X013790Y009151D01*
X013790Y009209D02*
X011820Y009209D01*
X011820Y009268D02*
X013790Y009268D01*
X013808Y009326D02*
X011820Y009326D01*
X011820Y009385D02*
X013833Y009385D01*
X013863Y009443D02*
X011820Y009443D01*
X011820Y009502D02*
X013922Y009502D01*
X013998Y009560D02*
X011820Y009560D01*
X011820Y009619D02*
X015070Y009619D01*
X015070Y009677D02*
X011820Y009677D01*
X011130Y009443D02*
X010206Y009443D01*
X010265Y009385D02*
X011130Y009385D01*
X011130Y009326D02*
X010299Y009326D01*
X010299Y009268D02*
X011130Y009268D01*
X011130Y009209D02*
X010299Y009209D01*
X010299Y009151D02*
X011130Y009151D01*
X011130Y009092D02*
X010299Y009092D01*
X010299Y009034D02*
X011130Y009034D01*
X011130Y008975D02*
X010276Y008975D01*
X010218Y008917D02*
X011130Y008917D01*
X011130Y008858D02*
X009433Y008858D01*
X009433Y008800D02*
X011130Y008800D01*
X009892Y010262D02*
X009707Y010262D01*
X009766Y010321D02*
X009951Y010321D01*
X010009Y010379D02*
X009801Y010379D01*
X009822Y010438D02*
X010068Y010438D01*
X010126Y010496D02*
X009830Y010496D01*
X009567Y009034D02*
X009375Y009034D01*
X009433Y008975D02*
X009590Y008975D01*
X009648Y008917D02*
X009433Y008917D01*
X007033Y009970D02*
X006920Y009970D01*
X006920Y009911D02*
X006930Y009911D01*
X005720Y005231D02*
X013790Y005231D01*
X013790Y005173D02*
X005720Y005173D01*
X005720Y005114D02*
X013792Y005114D01*
X013816Y005056D02*
X005720Y005056D01*
X005720Y004997D02*
X013840Y004997D01*
X013882Y004939D02*
X005720Y004939D01*
X014358Y004822D02*
X015070Y004822D01*
X015070Y004880D02*
X014460Y004880D01*
X014518Y004939D02*
X015070Y004939D01*
X015070Y004997D02*
X014560Y004997D01*
X014584Y005056D02*
X015070Y005056D01*
X015070Y005114D02*
X014608Y005114D01*
X014610Y005173D02*
X015070Y005173D01*
X015070Y005231D02*
X014610Y005231D01*
X014607Y005290D02*
X015070Y005290D01*
X015070Y005348D02*
X014582Y005348D01*
X014558Y005407D02*
X015070Y005407D01*
X015070Y005465D02*
X014515Y005465D01*
X014456Y005524D02*
X015070Y005524D01*
X015070Y005582D02*
X014349Y005582D01*
X014331Y006811D02*
X015070Y006811D01*
X015070Y006869D02*
X014449Y006869D01*
X014507Y006928D02*
X015070Y006928D01*
X015070Y006986D02*
X014555Y006986D01*
X014579Y007045D02*
X015070Y007045D01*
X015070Y007103D02*
X014604Y007103D01*
X014610Y007162D02*
X015070Y007162D01*
X015070Y007220D02*
X014610Y007220D01*
X014610Y007279D02*
X015070Y007279D01*
X015070Y007337D02*
X014587Y007337D01*
X014563Y007396D02*
X015070Y007396D01*
X015070Y007454D02*
X014526Y007454D01*
X014467Y007513D02*
X015070Y007513D01*
X015070Y007571D02*
X014376Y007571D01*
X014305Y008800D02*
X015070Y008800D01*
X015070Y008858D02*
X014438Y008858D01*
X014496Y008917D02*
X015070Y008917D01*
X015070Y008975D02*
X014551Y008975D01*
X014575Y009034D02*
X015070Y009034D01*
X015070Y009092D02*
X014599Y009092D01*
X014610Y009151D02*
X015070Y009151D01*
X015070Y009209D02*
X014610Y009209D01*
X014610Y009268D02*
X015070Y009268D01*
X015070Y009326D02*
X014592Y009326D01*
X014567Y009385D02*
X015070Y009385D01*
X015070Y009443D02*
X014537Y009443D01*
X014478Y009502D02*
X015070Y009502D01*
X015070Y009560D02*
X014402Y009560D01*
X014628Y004061D02*
X015070Y004061D01*
X015070Y004003D02*
X014604Y004003D01*
X014570Y003944D02*
X015070Y003944D01*
X015070Y003886D02*
X014522Y003886D01*
X014452Y003827D02*
X015070Y003827D01*
X015070Y003769D02*
X014328Y003769D01*
D12*
X001444Y001398D02*
X001346Y001398D01*
X001149Y001398D02*
X000755Y001398D01*
X000755Y001300D02*
X000755Y001496D01*
X000853Y001729D02*
X000755Y001828D01*
X000755Y002123D01*
X000657Y002123D02*
X001149Y002123D01*
X001149Y001828D01*
X001050Y001729D01*
X000853Y001729D01*
X000558Y001926D02*
X000558Y002025D01*
X000657Y002123D01*
X000755Y002374D02*
X001346Y002374D01*
X001149Y002472D02*
X001149Y002669D01*
X001050Y002767D01*
X000755Y002767D01*
X000853Y003117D02*
X000755Y003215D01*
X000853Y003117D02*
X001247Y003117D01*
X001149Y003215D02*
X001149Y003018D01*
X001247Y003448D02*
X000853Y003448D01*
X000755Y003546D01*
X000755Y003743D01*
X000853Y003842D01*
X000755Y004093D02*
X000755Y004289D01*
X000755Y004191D02*
X001346Y004191D01*
X001346Y004093D01*
X001247Y003842D02*
X001346Y003743D01*
X001346Y003546D01*
X001247Y003448D01*
X001149Y002472D02*
X001050Y002374D01*
X001149Y001398D02*
X001149Y001300D01*
X000755Y001049D02*
X000755Y000655D01*
X001346Y000655D01*
X001050Y004522D02*
X000853Y004522D01*
X000755Y004621D01*
X000755Y004818D01*
X000853Y004916D01*
X001050Y004916D01*
X001149Y004818D01*
X001149Y004621D01*
X001050Y004522D01*
X001050Y005167D02*
X000853Y005167D01*
X000755Y005265D01*
X000755Y005561D01*
X000755Y005811D02*
X001346Y005811D01*
X001149Y005561D02*
X001149Y005265D01*
X001050Y005167D01*
X000952Y005811D02*
X001149Y006107D01*
X000952Y005811D02*
X000755Y006107D01*
X000755Y006349D02*
X000755Y006447D01*
X000853Y006447D01*
X000853Y006349D01*
X000755Y006349D01*
X000853Y006671D02*
X000755Y006769D01*
X000755Y006966D01*
X000853Y007064D01*
X001247Y007064D01*
X000853Y006671D01*
X001247Y006671D01*
X001346Y006769D01*
X001346Y006966D01*
X001247Y007064D01*
D13*
X009180Y003010D02*
X009220Y003010D01*
X009180Y003010D02*
X009180Y003050D01*
X009220Y003050D01*
X009220Y003010D01*
X009220Y002350D02*
X009180Y002350D01*
X009180Y002390D01*
X009220Y002390D01*
X009220Y002350D01*
X009480Y009850D02*
X009520Y009850D01*
X009480Y009850D02*
X009480Y009890D01*
X009520Y009890D01*
X009520Y009850D01*
X009520Y010510D02*
X009480Y010510D01*
X009480Y010550D01*
X009520Y010550D01*
X009520Y010510D01*
X010080Y011290D02*
X010120Y011290D01*
X010120Y011250D01*
X010080Y011250D01*
X010080Y011290D01*
X010080Y011950D02*
X010120Y011950D01*
X010120Y011910D01*
X010080Y011910D01*
X010080Y011950D01*
X011290Y011720D02*
X011290Y011680D01*
X011250Y011680D01*
X011250Y011720D01*
X011290Y011720D01*
X011950Y011720D02*
X011950Y011680D01*
X011910Y011680D01*
X011910Y011720D01*
X011950Y011720D01*
D14*
X004254Y011215D03*
X004254Y010585D03*
X003546Y010270D03*
X003546Y010900D03*
X003546Y011530D03*
D15*
X003900Y012554D03*
X003900Y009246D03*
D16*
X007219Y008128D02*
X007769Y008128D01*
X007219Y008128D02*
X007219Y008482D01*
X007769Y008482D01*
X007769Y008128D01*
X007769Y008363D02*
X007219Y008363D01*
X007219Y006907D02*
X007769Y006907D01*
X007219Y006907D02*
X007219Y007261D01*
X007769Y007261D01*
X007769Y006907D01*
X007769Y007142D02*
X007219Y007142D01*
D17*
X007187Y007564D02*
X007447Y007564D01*
X007187Y007564D02*
X007187Y007824D01*
X007447Y007824D01*
X007447Y007564D01*
X007447Y007736D02*
X007187Y007736D01*
X007738Y007564D02*
X008352Y007564D01*
X007738Y007564D02*
X007738Y007824D01*
X008352Y007824D01*
X008352Y007564D01*
X008352Y007736D02*
X007738Y007736D01*
X008092Y008096D02*
X008352Y008096D01*
X008092Y008096D02*
X008092Y008514D01*
X008352Y008514D01*
X008352Y008096D01*
X008352Y008268D02*
X008092Y008268D01*
X008092Y008440D02*
X008352Y008440D01*
X008352Y006875D02*
X008092Y006875D01*
X008092Y007293D01*
X008352Y007293D01*
X008352Y006875D01*
X008352Y007047D02*
X008092Y007047D01*
X008092Y007219D02*
X008352Y007219D01*
D18*
X006550Y007950D02*
X006050Y007950D01*
X006550Y007950D02*
X006550Y007450D01*
X006050Y007450D01*
X006050Y007950D01*
X006050Y007949D02*
X006550Y007949D01*
X006550Y006750D02*
X006050Y006750D01*
X006550Y006750D02*
X006550Y006250D01*
X006050Y006250D01*
X006050Y006750D01*
X006050Y006749D02*
X006550Y006749D01*
X004550Y006750D02*
X004050Y006750D01*
X004550Y006750D02*
X004550Y006250D01*
X004050Y006250D01*
X004050Y006750D01*
X004050Y006749D02*
X004550Y006749D01*
X004550Y007950D02*
X004050Y007950D01*
X004550Y007950D02*
X004550Y007450D01*
X004050Y007450D01*
X004050Y007950D01*
X004050Y007949D02*
X004550Y007949D01*
X005150Y009650D02*
X005650Y009650D01*
X005650Y009150D01*
X005150Y009150D01*
X005150Y009650D01*
X005150Y009649D02*
X005650Y009649D01*
X007150Y009650D02*
X007650Y009650D01*
X007650Y009150D01*
X007150Y009150D01*
X007150Y009650D01*
X007150Y009649D02*
X007650Y009649D01*
D19*
X008890Y008899D02*
X008890Y008701D01*
X008890Y008899D02*
X009244Y008899D01*
X009244Y008701D01*
X008890Y008701D01*
X008890Y008897D02*
X009244Y008897D01*
X009756Y009075D02*
X009756Y009273D01*
X010110Y009273D01*
X010110Y009075D01*
X009756Y009075D01*
X009756Y009271D02*
X010110Y009271D01*
X009756Y008505D02*
X009756Y008307D01*
X009756Y008505D02*
X010110Y008505D01*
X010110Y008307D01*
X009756Y008307D01*
X009756Y008503D02*
X010110Y008503D01*
X009756Y007873D02*
X009756Y007675D01*
X009756Y007873D02*
X010110Y007873D01*
X010110Y007675D01*
X009756Y007675D01*
X009756Y007871D02*
X010110Y007871D01*
X009756Y007105D02*
X009756Y006907D01*
X009756Y007105D02*
X010110Y007105D01*
X010110Y006907D01*
X009756Y006907D01*
X009756Y007103D02*
X010110Y007103D01*
X009756Y006473D02*
X009756Y006275D01*
X009756Y006473D02*
X010110Y006473D01*
X010110Y006275D01*
X009756Y006275D01*
X009756Y006471D02*
X010110Y006471D01*
X009756Y005705D02*
X009756Y005507D01*
X009756Y005705D02*
X010110Y005705D01*
X010110Y005507D01*
X009756Y005507D01*
X009756Y005703D02*
X010110Y005703D01*
X008890Y005901D02*
X008890Y006099D01*
X009244Y006099D01*
X009244Y005901D01*
X008890Y005901D01*
X008890Y006097D02*
X009244Y006097D01*
X008890Y007301D02*
X008890Y007499D01*
X009244Y007499D01*
X009244Y007301D01*
X008890Y007301D01*
X008890Y007497D02*
X009244Y007497D01*
D20*
X012200Y002700D03*
X012200Y001700D03*
X013200Y001700D03*
X013200Y002700D03*
X014200Y002700D03*
X014200Y004200D03*
X014200Y005200D03*
X014200Y006200D03*
X014200Y007200D03*
X014200Y008200D03*
X014200Y009200D03*
X014200Y010200D03*
X014200Y011200D03*
X014200Y012200D03*
X014200Y013200D03*
X012200Y014200D03*
X011200Y014200D03*
X010200Y014200D03*
X009200Y014200D03*
X008200Y014200D03*
X007200Y014200D03*
X006200Y014200D03*
X005200Y014200D03*
X004200Y014200D03*
D21*
X014200Y001700D03*
D22*
X011300Y002400D03*
X009600Y001700D03*
X009100Y001750D03*
X011300Y004800D03*
X010500Y009000D03*
X011250Y010400D03*
X011000Y010700D03*
X011500Y011000D03*
X012400Y011200D03*
X012400Y011600D03*
X010600Y012400D03*
X010100Y012400D03*
X008800Y012900D03*
X007800Y011900D03*
X007450Y011900D03*
X007050Y011650D03*
X005295Y011315D03*
X005000Y010900D03*
X004900Y012500D03*
X002300Y014000D03*
X002000Y012500D03*
X006800Y008800D03*
X006800Y008400D03*
X008975Y009755D03*
X009000Y010200D03*
X003200Y005100D03*
X005300Y002900D03*
D23*
X005300Y005700D02*
X003800Y005700D01*
X003500Y006000D01*
X003500Y008200D01*
X003846Y008546D01*
X004039Y008546D01*
X004297Y008653D01*
X004494Y008850D01*
X004601Y009107D01*
X004601Y009386D01*
X004600Y009387D01*
X004600Y010760D01*
X004815Y010760D01*
X004905Y010670D01*
X005095Y010670D01*
X005230Y010805D01*
X005230Y010995D01*
X005095Y011130D01*
X004905Y011130D01*
X004815Y011040D01*
X004600Y011040D01*
X004600Y011200D01*
X004582Y011200D01*
X004582Y011280D01*
X004532Y011401D01*
X004440Y011493D01*
X004320Y011543D01*
X004189Y011543D01*
X004068Y011493D01*
X003976Y011401D01*
X003926Y011280D01*
X003926Y011200D01*
X003711Y011200D01*
X003720Y011204D01*
X003780Y011244D01*
X003832Y011295D01*
X003872Y011356D01*
X003900Y011423D01*
X003914Y011494D01*
X003914Y011521D01*
X003555Y011521D01*
X003555Y011539D01*
X003914Y011539D01*
X003914Y011566D01*
X003900Y011637D01*
X003872Y011704D01*
X003832Y011765D01*
X003780Y011816D01*
X003720Y011856D01*
X003653Y011884D01*
X003582Y011898D01*
X003555Y011898D01*
X003555Y011539D01*
X003537Y011539D01*
X003537Y011898D01*
X003509Y011898D01*
X003438Y011884D01*
X003371Y011856D01*
X003311Y011816D01*
X003260Y011765D01*
X003219Y011704D01*
X003192Y011637D01*
X003178Y011566D01*
X003178Y011539D01*
X003537Y011539D01*
X003537Y011521D01*
X003178Y011521D01*
X003178Y011494D01*
X003192Y011423D01*
X003219Y011356D01*
X003260Y011295D01*
X003311Y011244D01*
X003371Y011204D01*
X003380Y011200D01*
X003100Y011200D01*
X003100Y011900D01*
X003647Y011900D01*
X003761Y011853D01*
X004039Y011853D01*
X004153Y011900D01*
X005300Y011900D01*
X006200Y011000D01*
X006200Y009000D01*
X005300Y008100D01*
X005300Y005700D01*
X005300Y005716D02*
X003784Y005716D01*
X003685Y005815D02*
X005300Y005815D01*
X005300Y005913D02*
X004766Y005913D01*
X004739Y005896D02*
X004805Y005939D01*
X004861Y005995D01*
X004904Y006061D01*
X004935Y006133D01*
X004950Y006211D01*
X004950Y006450D01*
X004350Y006450D01*
X004350Y006550D01*
X004950Y006550D01*
X004950Y006789D01*
X004935Y006867D01*
X004904Y006939D01*
X004861Y007005D01*
X004805Y007061D01*
X004746Y007100D01*
X004805Y007139D01*
X004861Y007195D01*
X004904Y007261D01*
X004935Y007333D01*
X004950Y007411D01*
X004950Y007650D01*
X004350Y007650D01*
X004350Y007750D01*
X004250Y007750D01*
X004250Y008350D01*
X004011Y008350D01*
X003933Y008335D01*
X003861Y008304D01*
X003795Y008261D01*
X003739Y008205D01*
X003696Y008139D01*
X003665Y008067D01*
X003650Y007989D01*
X003650Y007750D01*
X004250Y007750D01*
X004250Y007650D01*
X003650Y007650D01*
X003650Y007411D01*
X003665Y007333D01*
X003696Y007261D01*
X003739Y007195D01*
X003795Y007139D01*
X003854Y007100D01*
X003795Y007061D01*
X003739Y007005D01*
X003696Y006939D01*
X003665Y006867D01*
X003650Y006789D01*
X003650Y006550D01*
X004250Y006550D01*
X004250Y007150D01*
X004250Y007650D01*
X004350Y007650D01*
X004350Y006550D01*
X004250Y006550D01*
X004250Y006450D01*
X003650Y006450D01*
X003650Y006211D01*
X003665Y006133D01*
X003696Y006061D01*
X003739Y005995D01*
X003795Y005939D01*
X003861Y005896D01*
X003933Y005865D01*
X004011Y005850D01*
X004250Y005850D01*
X004250Y006450D01*
X004350Y006450D01*
X004350Y005850D01*
X004589Y005850D01*
X004667Y005865D01*
X004739Y005896D01*
X004872Y006012D02*
X005300Y006012D01*
X005300Y006110D02*
X004925Y006110D01*
X004950Y006209D02*
X005300Y006209D01*
X005300Y006307D02*
X004950Y006307D01*
X004950Y006406D02*
X005300Y006406D01*
X005300Y006504D02*
X004350Y006504D01*
X004350Y006406D02*
X004250Y006406D01*
X004250Y006504D02*
X003500Y006504D01*
X003500Y006406D02*
X003650Y006406D01*
X003650Y006307D02*
X003500Y006307D01*
X003500Y006209D02*
X003650Y006209D01*
X003675Y006110D02*
X003500Y006110D01*
X003500Y006012D02*
X003728Y006012D01*
X003834Y005913D02*
X003587Y005913D01*
X004250Y005913D02*
X004350Y005913D01*
X004350Y006012D02*
X004250Y006012D01*
X004250Y006110D02*
X004350Y006110D01*
X004350Y006209D02*
X004250Y006209D01*
X004250Y006307D02*
X004350Y006307D01*
X004350Y006603D02*
X004250Y006603D01*
X004250Y006701D02*
X004350Y006701D01*
X004350Y006800D02*
X004250Y006800D01*
X004250Y006898D02*
X004350Y006898D01*
X004350Y006997D02*
X004250Y006997D01*
X004250Y007095D02*
X004350Y007095D01*
X004350Y007194D02*
X004250Y007194D01*
X004250Y007292D02*
X004350Y007292D01*
X004350Y007391D02*
X004250Y007391D01*
X004250Y007489D02*
X004350Y007489D01*
X004350Y007588D02*
X004250Y007588D01*
X004250Y007686D02*
X003500Y007686D01*
X003500Y007588D02*
X003650Y007588D01*
X003650Y007489D02*
X003500Y007489D01*
X003500Y007391D02*
X003654Y007391D01*
X003682Y007292D02*
X003500Y007292D01*
X003500Y007194D02*
X003741Y007194D01*
X003846Y007095D02*
X003500Y007095D01*
X003500Y006997D02*
X003734Y006997D01*
X003678Y006898D02*
X003500Y006898D01*
X003500Y006800D02*
X003652Y006800D01*
X003650Y006701D02*
X003500Y006701D01*
X003500Y006603D02*
X003650Y006603D01*
X004350Y007686D02*
X005300Y007686D01*
X005300Y007588D02*
X004950Y007588D01*
X004950Y007489D02*
X005300Y007489D01*
X005300Y007391D02*
X004946Y007391D01*
X004918Y007292D02*
X005300Y007292D01*
X005300Y007194D02*
X004859Y007194D01*
X004754Y007095D02*
X005300Y007095D01*
X005300Y006997D02*
X004866Y006997D01*
X004922Y006898D02*
X005300Y006898D01*
X005300Y006800D02*
X004948Y006800D01*
X004950Y006701D02*
X005300Y006701D01*
X005300Y006603D02*
X004950Y006603D01*
X004950Y007750D02*
X004350Y007750D01*
X004350Y008350D01*
X004589Y008350D01*
X004667Y008335D01*
X004739Y008304D01*
X004805Y008261D01*
X004861Y008205D01*
X004904Y008139D01*
X004935Y008067D01*
X004950Y007989D01*
X004950Y007750D01*
X004950Y007785D02*
X005300Y007785D01*
X005300Y007883D02*
X004950Y007883D01*
X004950Y007982D02*
X005300Y007982D01*
X005300Y008080D02*
X004929Y008080D01*
X004878Y008179D02*
X005379Y008179D01*
X005477Y008277D02*
X004781Y008277D01*
X004350Y008277D02*
X004250Y008277D01*
X004250Y008179D02*
X004350Y008179D01*
X004350Y008080D02*
X004250Y008080D01*
X004250Y007982D02*
X004350Y007982D01*
X004350Y007883D02*
X004250Y007883D01*
X004250Y007785D02*
X004350Y007785D01*
X003819Y008277D02*
X003577Y008277D01*
X003500Y008179D02*
X003722Y008179D01*
X003671Y008080D02*
X003500Y008080D01*
X003500Y007982D02*
X003650Y007982D01*
X003650Y007883D02*
X003500Y007883D01*
X003500Y007785D02*
X003650Y007785D01*
X003676Y008376D02*
X005576Y008376D01*
X005674Y008474D02*
X003774Y008474D01*
X004104Y008573D02*
X005773Y008573D01*
X005871Y008671D02*
X004315Y008671D01*
X004414Y008770D02*
X005023Y008770D01*
X005033Y008765D02*
X005111Y008750D01*
X005350Y008750D01*
X005350Y009350D01*
X004750Y009350D01*
X004750Y009111D01*
X004765Y009033D01*
X004796Y008961D01*
X004839Y008895D01*
X004895Y008839D01*
X004961Y008796D01*
X005033Y008765D01*
X004866Y008868D02*
X004502Y008868D01*
X004542Y008967D02*
X004793Y008967D01*
X004759Y009065D02*
X004583Y009065D01*
X004601Y009164D02*
X004750Y009164D01*
X004750Y009262D02*
X004601Y009262D01*
X004601Y009361D02*
X005350Y009361D01*
X005350Y009350D02*
X005350Y009450D01*
X005350Y010050D01*
X005111Y010050D01*
X005033Y010035D01*
X004961Y010004D01*
X004895Y009961D01*
X004839Y009905D01*
X004796Y009839D01*
X004765Y009767D01*
X004750Y009689D01*
X004750Y009450D01*
X005350Y009450D01*
X005450Y009450D01*
X005450Y010050D01*
X005689Y010050D01*
X005767Y010035D01*
X005839Y010004D01*
X005905Y009961D01*
X005961Y009905D01*
X006004Y009839D01*
X006035Y009767D01*
X006050Y009689D01*
X006050Y009450D01*
X005450Y009450D01*
X005450Y009350D01*
X006050Y009350D01*
X006050Y009111D01*
X006035Y009033D01*
X006004Y008961D01*
X005961Y008895D01*
X005905Y008839D01*
X005839Y008796D01*
X005767Y008765D01*
X005689Y008750D01*
X005450Y008750D01*
X005450Y009350D01*
X005350Y009350D01*
X005350Y009262D02*
X005450Y009262D01*
X005450Y009164D02*
X005350Y009164D01*
X005350Y009065D02*
X005450Y009065D01*
X005450Y008967D02*
X005350Y008967D01*
X005350Y008868D02*
X005450Y008868D01*
X005450Y008770D02*
X005350Y008770D01*
X005777Y008770D02*
X005970Y008770D01*
X005934Y008868D02*
X006068Y008868D01*
X006007Y008967D02*
X006167Y008967D01*
X006200Y009065D02*
X006041Y009065D01*
X006050Y009164D02*
X006200Y009164D01*
X006200Y009262D02*
X006050Y009262D01*
X006200Y009361D02*
X005450Y009361D01*
X005450Y009459D02*
X005350Y009459D01*
X005350Y009558D02*
X005450Y009558D01*
X005450Y009656D02*
X005350Y009656D01*
X005350Y009755D02*
X005450Y009755D01*
X005450Y009853D02*
X005350Y009853D01*
X005350Y009952D02*
X005450Y009952D01*
X005914Y009952D02*
X006200Y009952D01*
X006200Y010050D02*
X004600Y010050D01*
X004600Y009952D02*
X004886Y009952D01*
X004805Y009853D02*
X004600Y009853D01*
X004600Y009755D02*
X004763Y009755D01*
X004750Y009656D02*
X004600Y009656D01*
X004600Y009558D02*
X004750Y009558D01*
X004750Y009459D02*
X004600Y009459D01*
X004600Y010149D02*
X006200Y010149D01*
X006200Y010247D02*
X004600Y010247D01*
X004600Y010346D02*
X006200Y010346D01*
X006200Y010444D02*
X004600Y010444D01*
X004600Y010543D02*
X006200Y010543D01*
X006200Y010641D02*
X004600Y010641D01*
X004600Y010740D02*
X004835Y010740D01*
X005165Y010740D02*
X006200Y010740D01*
X006200Y010838D02*
X005230Y010838D01*
X005230Y010937D02*
X006200Y010937D01*
X006165Y011035D02*
X005190Y011035D01*
X005200Y011085D02*
X005391Y011085D01*
X005525Y011220D01*
X005525Y011410D01*
X005391Y011545D01*
X005200Y011545D01*
X005065Y011410D01*
X005065Y011220D01*
X005200Y011085D01*
X005151Y011134D02*
X004600Y011134D01*
X004582Y011232D02*
X005065Y011232D01*
X005065Y011331D02*
X004562Y011331D01*
X004504Y011429D02*
X005084Y011429D01*
X005183Y011528D02*
X004357Y011528D01*
X004152Y011528D02*
X003555Y011528D01*
X003537Y011528D02*
X003100Y011528D01*
X003100Y011626D02*
X003189Y011626D01*
X003233Y011725D02*
X003100Y011725D01*
X003100Y011823D02*
X003322Y011823D01*
X003537Y011823D02*
X003555Y011823D01*
X003555Y011725D02*
X003537Y011725D01*
X003537Y011626D02*
X003555Y011626D01*
X003770Y011823D02*
X005377Y011823D01*
X005475Y011725D02*
X003858Y011725D01*
X003902Y011626D02*
X005574Y011626D01*
X005672Y011528D02*
X005408Y011528D01*
X005506Y011429D02*
X005771Y011429D01*
X005869Y011331D02*
X005525Y011331D01*
X005525Y011232D02*
X005968Y011232D01*
X006066Y011134D02*
X005439Y011134D01*
X005995Y009853D02*
X006200Y009853D01*
X006200Y009755D02*
X006037Y009755D01*
X006050Y009656D02*
X006200Y009656D01*
X006200Y009558D02*
X006050Y009558D01*
X006050Y009459D02*
X006200Y009459D01*
X004004Y011429D02*
X003901Y011429D01*
X003855Y011331D02*
X003947Y011331D01*
X003926Y011232D02*
X003762Y011232D01*
X003329Y011232D02*
X003100Y011232D01*
X003100Y011331D02*
X003236Y011331D01*
X003190Y011429D02*
X003100Y011429D01*
D24*
X006300Y007700D02*
X007311Y007700D01*
X007317Y007694D01*
X007494Y007084D02*
X006909Y006500D01*
X006300Y006500D01*
X008045Y007694D02*
X008772Y007694D01*
X009067Y007400D01*
X008600Y006600D02*
X008600Y006467D01*
X009067Y006000D01*
X008600Y006600D02*
X008222Y006978D01*
X008222Y007084D01*
X008222Y008305D02*
X008572Y008305D01*
X009067Y008800D01*
X007494Y008305D02*
X007400Y008398D01*
X007400Y009400D01*
M02*
