G75*
G70*
%OFA0B0*%
%FSLAX24Y24*%
%IPPOS*%
%LPD*%
%AMOC8*
5,1,8,0,0,1.08239X$1,22.5*
%
%ADD10C,0.0000*%
%ADD11C,0.0109*%
%ADD12C,0.0476*%
%ADD13C,0.1221*%
%ADD14C,0.0138*%
%ADD15C,0.0158*%
%ADD16C,0.0396*%
%ADD17C,0.0177*%
%ADD18C,0.0148*%
%ADD19C,0.0680*%
%ADD20R,0.0680X0.0680*%
%ADD21C,0.0197*%
%ADD22C,0.0220*%
D10*
X000100Y000100D02*
X000100Y015100D01*
X000200Y015200D02*
X000200Y000200D01*
X000200Y000100D01*
X000200Y000200D02*
X015200Y000200D01*
X015200Y015200D01*
X000200Y015200D01*
D11*
X008293Y012329D02*
X008697Y012329D01*
X008697Y012221D01*
X008293Y012221D01*
X008293Y012329D01*
X008697Y012329D01*
X008697Y012014D02*
X008293Y012014D01*
X008697Y012014D02*
X008697Y011906D01*
X008293Y011906D01*
X008293Y012014D01*
X008697Y012014D01*
X008697Y011699D02*
X008293Y011699D01*
X008697Y011699D02*
X008697Y011591D01*
X008293Y011591D01*
X008293Y011699D01*
X008697Y011699D01*
X008697Y011384D02*
X008293Y011384D01*
X008697Y011384D02*
X008697Y011276D01*
X008293Y011276D01*
X008293Y011384D01*
X008697Y011384D01*
X008697Y011069D02*
X008293Y011069D01*
X008697Y011069D02*
X008697Y010961D01*
X008293Y010961D01*
X008293Y011069D01*
X008697Y011069D01*
X008697Y010754D02*
X008293Y010754D01*
X008697Y010754D02*
X008697Y010646D01*
X008293Y010646D01*
X008293Y010754D01*
X008697Y010754D01*
X008697Y010439D02*
X008293Y010439D01*
X008697Y010439D02*
X008697Y010331D01*
X008293Y010331D01*
X008293Y010439D01*
X008697Y010439D01*
X008697Y010124D02*
X008293Y010124D01*
X008697Y010124D02*
X008697Y010016D01*
X008293Y010016D01*
X008293Y010124D01*
X008697Y010124D01*
X008697Y009809D02*
X008293Y009809D01*
X008697Y009809D02*
X008697Y009701D01*
X008293Y009701D01*
X008293Y009809D01*
X008697Y009809D01*
X008697Y009494D02*
X008293Y009494D01*
X008697Y009494D02*
X008697Y009386D01*
X008293Y009386D01*
X008293Y009494D01*
X008697Y009494D01*
X008697Y009179D02*
X008293Y009179D01*
X008697Y009179D02*
X008697Y009071D01*
X008293Y009071D01*
X008293Y009179D01*
X008697Y009179D01*
X009071Y008697D02*
X009071Y008293D01*
X009071Y008697D02*
X009179Y008697D01*
X009179Y008293D01*
X009071Y008293D01*
X009071Y008401D02*
X009179Y008401D01*
X009179Y008509D02*
X009071Y008509D01*
X009071Y008617D02*
X009179Y008617D01*
X009386Y008697D02*
X009386Y008293D01*
X009386Y008697D02*
X009494Y008697D01*
X009494Y008293D01*
X009386Y008293D01*
X009386Y008401D02*
X009494Y008401D01*
X009494Y008509D02*
X009386Y008509D01*
X009386Y008617D02*
X009494Y008617D01*
X009701Y008697D02*
X009701Y008293D01*
X009701Y008697D02*
X009809Y008697D01*
X009809Y008293D01*
X009701Y008293D01*
X009701Y008401D02*
X009809Y008401D01*
X009809Y008509D02*
X009701Y008509D01*
X009701Y008617D02*
X009809Y008617D01*
X010016Y008697D02*
X010016Y008293D01*
X010016Y008697D02*
X010124Y008697D01*
X010124Y008293D01*
X010016Y008293D01*
X010016Y008401D02*
X010124Y008401D01*
X010124Y008509D02*
X010016Y008509D01*
X010016Y008617D02*
X010124Y008617D01*
X010331Y008697D02*
X010331Y008293D01*
X010331Y008697D02*
X010439Y008697D01*
X010439Y008293D01*
X010331Y008293D01*
X010331Y008401D02*
X010439Y008401D01*
X010439Y008509D02*
X010331Y008509D01*
X010331Y008617D02*
X010439Y008617D01*
X010646Y008697D02*
X010646Y008293D01*
X010646Y008697D02*
X010754Y008697D01*
X010754Y008293D01*
X010646Y008293D01*
X010646Y008401D02*
X010754Y008401D01*
X010754Y008509D02*
X010646Y008509D01*
X010646Y008617D02*
X010754Y008617D01*
X010961Y008697D02*
X010961Y008293D01*
X010961Y008697D02*
X011069Y008697D01*
X011069Y008293D01*
X010961Y008293D01*
X010961Y008401D02*
X011069Y008401D01*
X011069Y008509D02*
X010961Y008509D01*
X010961Y008617D02*
X011069Y008617D01*
X011276Y008697D02*
X011276Y008293D01*
X011276Y008697D02*
X011384Y008697D01*
X011384Y008293D01*
X011276Y008293D01*
X011276Y008401D02*
X011384Y008401D01*
X011384Y008509D02*
X011276Y008509D01*
X011276Y008617D02*
X011384Y008617D01*
X011591Y008697D02*
X011591Y008293D01*
X011591Y008697D02*
X011699Y008697D01*
X011699Y008293D01*
X011591Y008293D01*
X011591Y008401D02*
X011699Y008401D01*
X011699Y008509D02*
X011591Y008509D01*
X011591Y008617D02*
X011699Y008617D01*
X011906Y008697D02*
X011906Y008293D01*
X011906Y008697D02*
X012014Y008697D01*
X012014Y008293D01*
X011906Y008293D01*
X011906Y008401D02*
X012014Y008401D01*
X012014Y008509D02*
X011906Y008509D01*
X011906Y008617D02*
X012014Y008617D01*
X012221Y008697D02*
X012221Y008293D01*
X012221Y008697D02*
X012329Y008697D01*
X012329Y008293D01*
X012221Y008293D01*
X012221Y008401D02*
X012329Y008401D01*
X012329Y008509D02*
X012221Y008509D01*
X012221Y008617D02*
X012329Y008617D01*
X012703Y009071D02*
X013107Y009071D01*
X012703Y009071D02*
X012703Y009179D01*
X013107Y009179D01*
X013107Y009071D01*
X013107Y009179D02*
X012703Y009179D01*
X012703Y009386D02*
X013107Y009386D01*
X012703Y009386D02*
X012703Y009494D01*
X013107Y009494D01*
X013107Y009386D01*
X013107Y009494D02*
X012703Y009494D01*
X012703Y009701D02*
X013107Y009701D01*
X012703Y009701D02*
X012703Y009809D01*
X013107Y009809D01*
X013107Y009701D01*
X013107Y009809D02*
X012703Y009809D01*
X012703Y010016D02*
X013107Y010016D01*
X012703Y010016D02*
X012703Y010124D01*
X013107Y010124D01*
X013107Y010016D01*
X013107Y010124D02*
X012703Y010124D01*
X012703Y010331D02*
X013107Y010331D01*
X012703Y010331D02*
X012703Y010439D01*
X013107Y010439D01*
X013107Y010331D01*
X013107Y010439D02*
X012703Y010439D01*
X012703Y010646D02*
X013107Y010646D01*
X012703Y010646D02*
X012703Y010754D01*
X013107Y010754D01*
X013107Y010646D01*
X013107Y010754D02*
X012703Y010754D01*
X012703Y010961D02*
X013107Y010961D01*
X012703Y010961D02*
X012703Y011069D01*
X013107Y011069D01*
X013107Y010961D01*
X013107Y011069D02*
X012703Y011069D01*
X012703Y011276D02*
X013107Y011276D01*
X012703Y011276D02*
X012703Y011384D01*
X013107Y011384D01*
X013107Y011276D01*
X013107Y011384D02*
X012703Y011384D01*
X012703Y011591D02*
X013107Y011591D01*
X012703Y011591D02*
X012703Y011699D01*
X013107Y011699D01*
X013107Y011591D01*
X013107Y011699D02*
X012703Y011699D01*
X012703Y011906D02*
X013107Y011906D01*
X012703Y011906D02*
X012703Y012014D01*
X013107Y012014D01*
X013107Y011906D01*
X013107Y012014D02*
X012703Y012014D01*
X012703Y012221D02*
X013107Y012221D01*
X012703Y012221D02*
X012703Y012329D01*
X013107Y012329D01*
X013107Y012221D01*
X013107Y012329D02*
X012703Y012329D01*
X012329Y012703D02*
X012329Y013107D01*
X012329Y012703D02*
X012221Y012703D01*
X012221Y013107D01*
X012329Y013107D01*
X012329Y012811D02*
X012221Y012811D01*
X012221Y012919D02*
X012329Y012919D01*
X012329Y013027D02*
X012221Y013027D01*
X012014Y013107D02*
X012014Y012703D01*
X011906Y012703D01*
X011906Y013107D01*
X012014Y013107D01*
X012014Y012811D02*
X011906Y012811D01*
X011906Y012919D02*
X012014Y012919D01*
X012014Y013027D02*
X011906Y013027D01*
X011699Y013107D02*
X011699Y012703D01*
X011591Y012703D01*
X011591Y013107D01*
X011699Y013107D01*
X011699Y012811D02*
X011591Y012811D01*
X011591Y012919D02*
X011699Y012919D01*
X011699Y013027D02*
X011591Y013027D01*
X011384Y013107D02*
X011384Y012703D01*
X011276Y012703D01*
X011276Y013107D01*
X011384Y013107D01*
X011384Y012811D02*
X011276Y012811D01*
X011276Y012919D02*
X011384Y012919D01*
X011384Y013027D02*
X011276Y013027D01*
X011069Y013107D02*
X011069Y012703D01*
X010961Y012703D01*
X010961Y013107D01*
X011069Y013107D01*
X011069Y012811D02*
X010961Y012811D01*
X010961Y012919D02*
X011069Y012919D01*
X011069Y013027D02*
X010961Y013027D01*
X010754Y013107D02*
X010754Y012703D01*
X010646Y012703D01*
X010646Y013107D01*
X010754Y013107D01*
X010754Y012811D02*
X010646Y012811D01*
X010646Y012919D02*
X010754Y012919D01*
X010754Y013027D02*
X010646Y013027D01*
X010439Y013107D02*
X010439Y012703D01*
X010331Y012703D01*
X010331Y013107D01*
X010439Y013107D01*
X010439Y012811D02*
X010331Y012811D01*
X010331Y012919D02*
X010439Y012919D01*
X010439Y013027D02*
X010331Y013027D01*
X010124Y013107D02*
X010124Y012703D01*
X010016Y012703D01*
X010016Y013107D01*
X010124Y013107D01*
X010124Y012811D02*
X010016Y012811D01*
X010016Y012919D02*
X010124Y012919D01*
X010124Y013027D02*
X010016Y013027D01*
X009809Y013107D02*
X009809Y012703D01*
X009701Y012703D01*
X009701Y013107D01*
X009809Y013107D01*
X009809Y012811D02*
X009701Y012811D01*
X009701Y012919D02*
X009809Y012919D01*
X009809Y013027D02*
X009701Y013027D01*
X009494Y013107D02*
X009494Y012703D01*
X009386Y012703D01*
X009386Y013107D01*
X009494Y013107D01*
X009494Y012811D02*
X009386Y012811D01*
X009386Y012919D02*
X009494Y012919D01*
X009494Y013027D02*
X009386Y013027D01*
X009179Y013107D02*
X009179Y012703D01*
X009071Y012703D01*
X009071Y013107D01*
X009179Y013107D01*
X009179Y012811D02*
X009071Y012811D01*
X009071Y012919D02*
X009179Y012919D01*
X009179Y013027D02*
X009071Y013027D01*
D12*
X004254Y011215D03*
X004254Y010585D03*
X003546Y010270D03*
X003546Y010900D03*
X003546Y011530D03*
D13*
X003900Y012554D03*
X003900Y009246D03*
D14*
X005757Y011405D02*
X005895Y011405D01*
X005757Y011405D02*
X005757Y011583D01*
X005895Y011583D01*
X005895Y011405D01*
X005895Y011542D02*
X005757Y011542D01*
X006505Y011405D02*
X006643Y011405D01*
X006505Y011405D02*
X006505Y011583D01*
X006643Y011583D01*
X006643Y011405D01*
X006643Y011542D02*
X006505Y011542D01*
X006505Y010617D02*
X006643Y010617D01*
X006505Y010617D02*
X006505Y010795D01*
X006643Y010795D01*
X006643Y010617D01*
X006643Y010754D02*
X006505Y010754D01*
D15*
X006043Y010627D02*
X005767Y010627D01*
X005767Y010785D01*
X006043Y010785D01*
X006043Y010627D01*
X006043Y010784D02*
X005767Y010784D01*
D16*
X003222Y013648D02*
X003178Y013648D01*
X003178Y013692D01*
X003222Y013692D01*
X003222Y013648D01*
X002608Y013678D02*
X002608Y013722D01*
X002652Y013722D01*
X002652Y013678D01*
X002608Y013678D01*
X002608Y014278D02*
X002608Y014322D01*
X002652Y014322D01*
X002652Y014278D01*
X002608Y014278D01*
X003178Y014308D02*
X003222Y014308D01*
X003178Y014308D02*
X003178Y014352D01*
X003222Y014352D01*
X003222Y014308D01*
X001948Y014278D02*
X001948Y014322D01*
X001992Y014322D01*
X001992Y014278D01*
X001948Y014278D01*
X001948Y013722D02*
X001948Y013678D01*
X001948Y013722D02*
X001992Y013722D01*
X001992Y013678D01*
X001948Y013678D01*
X002208Y011322D02*
X002208Y011278D01*
X002208Y011322D02*
X002252Y011322D01*
X002252Y011278D01*
X002208Y011278D01*
X001548Y011278D02*
X001548Y011322D01*
X001592Y011322D01*
X001592Y011278D01*
X001548Y011278D01*
X001948Y007822D02*
X001948Y007778D01*
X001948Y007822D02*
X001992Y007822D01*
X001992Y007778D01*
X001948Y007778D01*
X001948Y007122D02*
X001948Y007078D01*
X001948Y007122D02*
X001992Y007122D01*
X001992Y007078D01*
X001948Y007078D01*
X002608Y007078D02*
X002608Y007122D01*
X002652Y007122D01*
X002652Y007078D01*
X002608Y007078D01*
X003192Y007078D02*
X003192Y007122D01*
X003192Y007078D02*
X003148Y007078D01*
X003148Y007122D01*
X003192Y007122D01*
X003852Y007122D02*
X003852Y007078D01*
X003808Y007078D01*
X003808Y007122D01*
X003852Y007122D01*
X003852Y007778D02*
X003852Y007822D01*
X003852Y007778D02*
X003808Y007778D01*
X003808Y007822D01*
X003852Y007822D01*
X003192Y007822D02*
X003192Y007778D01*
X003148Y007778D01*
X003148Y007822D01*
X003192Y007822D01*
X002608Y007822D02*
X002608Y007778D01*
X002608Y007822D02*
X002652Y007822D01*
X002652Y007778D01*
X002608Y007778D01*
X010448Y007622D02*
X010448Y007578D01*
X010448Y007622D02*
X010492Y007622D01*
X010492Y007578D01*
X010448Y007578D01*
X010992Y007022D02*
X010992Y006978D01*
X010948Y006978D01*
X010948Y007022D01*
X010992Y007022D01*
X011108Y007578D02*
X011108Y007622D01*
X011152Y007622D01*
X011152Y007578D01*
X011108Y007578D01*
X011652Y007022D02*
X011652Y006978D01*
X011608Y006978D01*
X011608Y007022D01*
X011652Y007022D01*
D17*
X010888Y005305D02*
X010512Y005305D01*
X010888Y005305D02*
X010888Y005127D01*
X010512Y005127D01*
X010512Y005305D01*
X010512Y005303D02*
X010888Y005303D01*
X010888Y004911D02*
X010512Y004911D01*
X010888Y004911D02*
X010888Y004733D01*
X010512Y004733D01*
X010512Y004911D01*
X010512Y004909D02*
X010888Y004909D01*
X010888Y004399D02*
X010512Y004399D01*
X010888Y004399D02*
X010888Y004221D01*
X010512Y004221D01*
X010512Y004399D01*
X010512Y004397D02*
X010888Y004397D01*
X010888Y003927D02*
X010512Y003927D01*
X010888Y003927D02*
X010888Y003749D01*
X010512Y003749D01*
X010512Y003927D01*
X010512Y003925D02*
X010888Y003925D01*
X010888Y003454D02*
X010512Y003454D01*
X010888Y003454D02*
X010888Y003276D01*
X010512Y003276D01*
X010512Y003454D01*
X010512Y003452D02*
X010888Y003452D01*
X010888Y002982D02*
X010512Y002982D01*
X010888Y002982D02*
X010888Y002804D01*
X010512Y002804D01*
X010512Y002982D01*
X010512Y002980D02*
X010888Y002980D01*
X010888Y002470D02*
X010512Y002470D01*
X010888Y002470D02*
X010888Y002292D01*
X010512Y002292D01*
X010512Y002470D01*
X010512Y002468D02*
X010888Y002468D01*
X010888Y002076D02*
X010512Y002076D01*
X010888Y002076D02*
X010888Y001898D01*
X010512Y001898D01*
X010512Y002076D01*
X010512Y002074D02*
X010888Y002074D01*
X009687Y001191D02*
X009687Y000815D01*
X009509Y000815D01*
X009509Y001191D01*
X009687Y001191D01*
X009687Y000991D02*
X009509Y000991D01*
X009509Y001167D02*
X009687Y001167D01*
X009214Y001191D02*
X009214Y000815D01*
X009036Y000815D01*
X009036Y001191D01*
X009214Y001191D01*
X009214Y000991D02*
X009036Y000991D01*
X009036Y001167D02*
X009214Y001167D01*
X008742Y001191D02*
X008742Y000815D01*
X008564Y000815D01*
X008564Y001191D01*
X008742Y001191D01*
X008742Y000991D02*
X008564Y000991D01*
X008564Y001167D02*
X008742Y001167D01*
X008269Y001191D02*
X008269Y000815D01*
X008091Y000815D01*
X008091Y001191D01*
X008269Y001191D01*
X008269Y000991D02*
X008091Y000991D01*
X008091Y001167D02*
X008269Y001167D01*
X007797Y001191D02*
X007797Y000815D01*
X007619Y000815D01*
X007619Y001191D01*
X007797Y001191D01*
X007797Y000991D02*
X007619Y000991D01*
X007619Y001167D02*
X007797Y001167D01*
X007324Y001191D02*
X007324Y000815D01*
X007146Y000815D01*
X007146Y001191D01*
X007324Y001191D01*
X007324Y000991D02*
X007146Y000991D01*
X007146Y001167D02*
X007324Y001167D01*
X006852Y001191D02*
X006852Y000815D01*
X006674Y000815D01*
X006674Y001191D01*
X006852Y001191D01*
X006852Y000991D02*
X006674Y000991D01*
X006674Y001167D02*
X006852Y001167D01*
X006380Y001191D02*
X006380Y000815D01*
X006202Y000815D01*
X006202Y001191D01*
X006380Y001191D01*
X006380Y000991D02*
X006202Y000991D01*
X006202Y001167D02*
X006380Y001167D01*
X005907Y001191D02*
X005907Y000815D01*
X005729Y000815D01*
X005729Y001191D01*
X005907Y001191D01*
X005907Y000991D02*
X005729Y000991D01*
X005729Y001167D02*
X005907Y001167D01*
X005435Y001191D02*
X005435Y000815D01*
X005257Y000815D01*
X005257Y001191D01*
X005435Y001191D01*
X005435Y000991D02*
X005257Y000991D01*
X005257Y001167D02*
X005435Y001167D01*
X004962Y001191D02*
X004962Y000815D01*
X004784Y000815D01*
X004784Y001191D01*
X004962Y001191D01*
X004962Y000991D02*
X004784Y000991D01*
X004784Y001167D02*
X004962Y001167D01*
X004490Y001191D02*
X004490Y000815D01*
X004312Y000815D01*
X004312Y001191D01*
X004490Y001191D01*
X004490Y000991D02*
X004312Y000991D01*
X004312Y001167D02*
X004490Y001167D01*
X004490Y006012D02*
X004490Y006388D01*
X004490Y006012D02*
X004312Y006012D01*
X004312Y006388D01*
X004490Y006388D01*
X004490Y006188D02*
X004312Y006188D01*
X004312Y006364D02*
X004490Y006364D01*
X004962Y006388D02*
X004962Y006012D01*
X004784Y006012D01*
X004784Y006388D01*
X004962Y006388D01*
X004962Y006188D02*
X004784Y006188D01*
X004784Y006364D02*
X004962Y006364D01*
X005435Y006388D02*
X005435Y006012D01*
X005257Y006012D01*
X005257Y006388D01*
X005435Y006388D01*
X005435Y006188D02*
X005257Y006188D01*
X005257Y006364D02*
X005435Y006364D01*
X005907Y006388D02*
X005907Y006012D01*
X005729Y006012D01*
X005729Y006388D01*
X005907Y006388D01*
X005907Y006188D02*
X005729Y006188D01*
X005729Y006364D02*
X005907Y006364D01*
X006380Y006388D02*
X006380Y006012D01*
X006202Y006012D01*
X006202Y006388D01*
X006380Y006388D01*
X006380Y006188D02*
X006202Y006188D01*
X006202Y006364D02*
X006380Y006364D01*
X006852Y006388D02*
X006852Y006012D01*
X006674Y006012D01*
X006674Y006388D01*
X006852Y006388D01*
X006852Y006188D02*
X006674Y006188D01*
X006674Y006364D02*
X006852Y006364D01*
X007324Y006388D02*
X007324Y006012D01*
X007146Y006012D01*
X007146Y006388D01*
X007324Y006388D01*
X007324Y006188D02*
X007146Y006188D01*
X007146Y006364D02*
X007324Y006364D01*
X007797Y006388D02*
X007797Y006012D01*
X007619Y006012D01*
X007619Y006388D01*
X007797Y006388D01*
X007797Y006188D02*
X007619Y006188D01*
X007619Y006364D02*
X007797Y006364D01*
X008269Y006388D02*
X008269Y006012D01*
X008091Y006012D01*
X008091Y006388D01*
X008269Y006388D01*
X008269Y006188D02*
X008091Y006188D01*
X008091Y006364D02*
X008269Y006364D01*
X008742Y006388D02*
X008742Y006012D01*
X008564Y006012D01*
X008564Y006388D01*
X008742Y006388D01*
X008742Y006188D02*
X008564Y006188D01*
X008564Y006364D02*
X008742Y006364D01*
X009214Y006388D02*
X009214Y006012D01*
X009036Y006012D01*
X009036Y006388D01*
X009214Y006388D01*
X009214Y006188D02*
X009036Y006188D01*
X009036Y006364D02*
X009214Y006364D01*
X009687Y006388D02*
X009687Y006012D01*
X009509Y006012D01*
X009509Y006388D01*
X009687Y006388D01*
X009687Y006188D02*
X009509Y006188D01*
X009509Y006364D02*
X009687Y006364D01*
D18*
X002586Y012052D02*
X002586Y012200D01*
X002586Y012052D02*
X002320Y012052D01*
X002320Y012200D01*
X002586Y012200D01*
X002586Y012199D02*
X002320Y012199D01*
X002586Y012800D02*
X002586Y012948D01*
X002586Y012800D02*
X002320Y012800D01*
X002320Y012948D01*
X002586Y012948D01*
X002586Y012947D02*
X002320Y012947D01*
X001680Y012574D02*
X001680Y012426D01*
X001414Y012426D01*
X001414Y012574D01*
X001680Y012574D01*
X001680Y012573D02*
X001414Y012573D01*
D19*
X004200Y014200D03*
X005200Y014200D03*
X006200Y014200D03*
X007200Y014200D03*
X008200Y014200D03*
X009200Y014200D03*
X010200Y014200D03*
X011200Y014200D03*
X012200Y014200D03*
X014200Y013200D03*
X014200Y012200D03*
X014200Y011200D03*
X014200Y010200D03*
X014200Y009200D03*
X014200Y008200D03*
X014200Y007200D03*
X014200Y006200D03*
X014200Y005200D03*
X014200Y004200D03*
X014200Y002700D03*
X013200Y002700D03*
X013200Y001700D03*
X012200Y001700D03*
X012200Y002700D03*
D20*
X014200Y001700D03*
D21*
X007006Y012096D02*
X006808Y012096D01*
X006808Y012334D01*
X007006Y012334D01*
X007006Y012096D01*
X007006Y012292D02*
X006808Y012292D01*
X006808Y012666D02*
X007006Y012666D01*
X006808Y012666D02*
X006808Y012904D01*
X007006Y012904D01*
X007006Y012666D01*
X007006Y012862D02*
X006808Y012862D01*
X005392Y012666D02*
X005194Y012666D01*
X005194Y012904D01*
X005392Y012904D01*
X005392Y012666D01*
X005392Y012862D02*
X005194Y012862D01*
X005194Y012096D02*
X005392Y012096D01*
X005194Y012096D02*
X005194Y012334D01*
X005392Y012334D01*
X005392Y012096D01*
X005392Y012292D02*
X005194Y012292D01*
D22*
X002460Y010685D02*
X002240Y010685D01*
X002460Y010685D02*
X002460Y010315D01*
X002240Y010315D01*
X002240Y010685D01*
X002240Y010534D02*
X002460Y010534D01*
X001560Y010685D02*
X001340Y010685D01*
X001560Y010685D02*
X001560Y010315D01*
X001340Y010315D01*
X001340Y010685D01*
X001340Y010534D02*
X001560Y010534D01*
M02*
